<svg width="123" height="281" viewBox="0 0 123 281" fill="none" xmlns="http://www.w3.org/2000/svg">
<path d="M1.836 21.8916C1.716 21.8916 1.614 21.8496 1.53 21.7656C1.446 21.6816 1.404 21.5796 1.404 21.4596V9.7416C1.404 9.6096 1.44 9.5016 1.512 9.4176C1.596 9.3336 1.704 9.2916 1.836 9.2916H9.756C9.888 9.2916 9.996 9.3336 10.08 9.4176C10.164 9.5016 10.206 9.6096 10.206 9.7416V10.9296C10.206 11.0616 10.164 11.1696 10.08 11.2536C9.996 11.3256 9.888 11.3616 9.756 11.3616H3.834V14.5476H9.36C9.492 14.5476 9.6 14.5896 9.684 14.6736C9.768 14.7456 9.81 14.8476 9.81 14.9796V16.0956C9.81 16.2276 9.768 16.3356 9.684 16.4196C9.6 16.4916 9.492 16.5276 9.36 16.5276H3.834V19.8216H9.9C10.032 19.8216 10.14 19.8636 10.224 19.9476C10.308 20.0316 10.35 20.1396 10.35 20.2716V21.4596C10.35 21.5916 10.308 21.6996 10.224 21.7836C10.14 21.8556 10.032 21.8916 9.9 21.8916H1.836ZM12.8173 21.8916C12.6973 21.8916 12.5953 21.8496 12.5113 21.7656C12.4273 21.6816 12.3853 21.5796 12.3853 21.4596V12.9636C12.3853 12.8436 12.4273 12.7416 12.5113 12.6576C12.5953 12.5736 12.6973 12.5316 12.8173 12.5316H14.2933C14.4133 12.5316 14.5153 12.5736 14.5993 12.6576C14.6833 12.7416 14.7253 12.8436 14.7253 12.9636V13.7016C15.4333 12.8016 16.4353 12.3516 17.7313 12.3516C18.8353 12.3516 19.7113 12.7176 20.3593 13.4496C21.0073 14.1696 21.3313 15.1536 21.3313 16.4016V21.4596C21.3313 21.5796 21.2893 21.6816 21.2053 21.7656C21.1333 21.8496 21.0313 21.8916 20.8993 21.8916H19.3153C19.1953 21.8916 19.0933 21.8496 19.0093 21.7656C18.9253 21.6816 18.8833 21.5796 18.8833 21.4596V16.5096C18.8833 15.8016 18.7093 15.2556 18.3613 14.8716C18.0253 14.4756 17.5333 14.2776 16.8853 14.2776C16.2493 14.2776 15.7453 14.4756 15.3733 14.8716C15.0133 15.2676 14.8333 15.8136 14.8333 16.5096V21.4596C14.8333 21.5796 14.7913 21.6816 14.7073 21.7656C14.6353 21.8496 14.5333 21.8916 14.4013 21.8916H12.8173ZM27.8477 25.8516C26.7797 25.8516 25.9157 25.6716 25.2557 25.3116C24.5957 24.9636 24.1277 24.5616 23.8517 24.1056C23.5757 23.6496 23.4377 23.2596 23.4377 22.9356C23.4377 22.8276 23.4797 22.7316 23.5637 22.6476C23.6597 22.5636 23.7617 22.5216 23.8697 22.5216H25.4357C25.5437 22.5216 25.6337 22.5456 25.7057 22.5936C25.7897 22.6536 25.8557 22.7556 25.9037 22.8996C26.0237 23.2236 26.2157 23.4936 26.4797 23.7096C26.7557 23.9376 27.1817 24.0516 27.7577 24.0516C28.4777 24.0516 29.0057 23.8896 29.3417 23.5656C29.6897 23.2416 29.8637 22.6836 29.8637 21.8916V20.6676C29.2037 21.4476 28.2797 21.8376 27.0917 21.8376C25.8437 21.8376 24.9017 21.4536 24.2657 20.6856C23.6417 19.9176 23.3057 18.8856 23.2577 17.5896L23.2397 17.1036L23.2577 16.6176C23.3057 15.3456 23.6477 14.3196 24.2837 13.5396C24.9197 12.7476 25.8557 12.3516 27.0917 12.3516C27.7277 12.3516 28.2857 12.4716 28.7657 12.7116C29.2457 12.9516 29.6477 13.2816 29.9717 13.7016V12.9816C29.9717 12.8496 30.0137 12.7416 30.0977 12.6576C30.1817 12.5736 30.2837 12.5316 30.4037 12.5316H31.8617C31.9817 12.5316 32.0837 12.5796 32.1677 12.6756C32.2517 12.7596 32.2937 12.8616 32.2937 12.9816L32.3117 21.6576C32.3117 22.9896 31.9397 24.0216 31.1957 24.7536C30.4517 25.4856 29.3357 25.8516 27.8477 25.8516ZM27.7577 19.9296C28.4417 19.9296 28.9517 19.7136 29.2877 19.2816C29.6357 18.8496 29.8277 18.3216 29.8637 17.6976C29.8757 17.6016 29.8817 17.4036 29.8817 17.1036C29.8817 16.8156 29.8757 16.6236 29.8637 16.5276C29.8277 15.8916 29.6357 15.3576 29.2877 14.9256C28.9517 14.4936 28.4417 14.2776 27.7577 14.2776C26.4617 14.2776 25.7777 15.0756 25.7057 16.6716L25.6877 17.1036C25.6877 17.9556 25.8377 18.6396 26.1377 19.1556C26.4497 19.6716 26.9897 19.9296 27.7577 19.9296ZM37.4275 22.0716C36.8155 22.0716 36.2515 21.9516 35.7355 21.7116C35.2315 21.4596 34.8295 21.1236 34.5295 20.7036C34.2415 20.2836 34.0975 19.8216 34.0975 19.3176C34.0975 18.5016 34.4275 17.8416 35.0875 17.3376C35.7475 16.8336 36.6535 16.4916 37.8055 16.3116L40.2715 15.9516V15.5736C40.2715 15.0456 40.1395 14.6496 39.8755 14.3856C39.6115 14.1216 39.1855 13.9896 38.5975 13.9896C38.2015 13.9896 37.8775 14.0676 37.6255 14.2236C37.3855 14.3676 37.1935 14.5116 37.0495 14.6556C36.9055 14.8116 36.8095 14.9136 36.7615 14.9616C36.7135 15.1056 36.6235 15.1776 36.4915 15.1776H35.1055C34.9975 15.1776 34.9015 15.1416 34.8175 15.0696C34.7455 14.9976 34.7095 14.9016 34.7095 14.7816C34.7215 14.4816 34.8655 14.1396 35.1415 13.7556C35.4295 13.3716 35.8675 13.0416 36.4555 12.7656C37.0435 12.4896 37.7635 12.3516 38.6155 12.3516C40.0315 12.3516 41.0635 12.6696 41.7115 13.3056C42.3595 13.9416 42.6835 14.7756 42.6835 15.8076V21.4596C42.6835 21.5796 42.6415 21.6816 42.5575 21.7656C42.4855 21.8496 42.3835 21.8916 42.2515 21.8916H40.7935C40.6735 21.8916 40.5715 21.8496 40.4875 21.7656C40.4035 21.6816 40.3615 21.5796 40.3615 21.4596V20.7576C40.0975 21.1416 39.7195 21.4596 39.2275 21.7116C38.7475 21.9516 38.1475 22.0716 37.4275 22.0716ZM38.0395 20.3616C38.6995 20.3616 39.2395 20.1456 39.6595 19.7136C40.0795 19.2816 40.2895 18.6516 40.2895 17.8236V17.4456L38.4895 17.7336C37.7935 17.8416 37.2655 18.0156 36.9055 18.2556C36.5575 18.4956 36.3835 18.7896 36.3835 19.1376C36.3835 19.5216 36.5455 19.8216 36.8695 20.0376C37.1935 20.2536 37.5835 20.3616 38.0395 20.3616ZM49.2227 25.8516C48.1547 25.8516 47.2907 25.6716 46.6307 25.3116C45.9707 24.9636 45.5027 24.5616 45.2267 24.1056C44.9507 23.6496 44.8127 23.2596 44.8127 22.9356C44.8127 22.8276 44.8547 22.7316 44.9387 22.6476C45.0347 22.5636 45.1367 22.5216 45.2447 22.5216H46.8107C46.9187 22.5216 47.0087 22.5456 47.0807 22.5936C47.1647 22.6536 47.2307 22.7556 47.2787 22.8996C47.3987 23.2236 47.5907 23.4936 47.8547 23.7096C48.1307 23.9376 48.5567 24.0516 49.1327 24.0516C49.8527 24.0516 50.3807 23.8896 50.7167 23.5656C51.0647 23.2416 51.2387 22.6836 51.2387 21.8916V20.6676C50.5787 21.4476 49.6547 21.8376 48.4667 21.8376C47.2187 21.8376 46.2767 21.4536 45.6407 20.6856C45.0167 19.9176 44.6807 18.8856 44.6327 17.5896L44.6147 17.1036L44.6327 16.6176C44.6807 15.3456 45.0227 14.3196 45.6587 13.5396C46.2947 12.7476 47.2307 12.3516 48.4667 12.3516C49.1027 12.3516 49.6607 12.4716 50.1407 12.7116C50.6207 12.9516 51.0227 13.2816 51.3467 13.7016V12.9816C51.3467 12.8496 51.3887 12.7416 51.4727 12.6576C51.5567 12.5736 51.6587 12.5316 51.7787 12.5316H53.2367C53.3567 12.5316 53.4587 12.5796 53.5427 12.6756C53.6267 12.7596 53.6687 12.8616 53.6687 12.9816L53.6867 21.6576C53.6867 22.9896 53.3147 24.0216 52.5707 24.7536C51.8267 25.4856 50.7107 25.8516 49.2227 25.8516ZM49.1327 19.9296C49.8167 19.9296 50.3267 19.7136 50.6627 19.2816C51.0107 18.8496 51.2027 18.3216 51.2387 17.6976C51.2507 17.6016 51.2567 17.4036 51.2567 17.1036C51.2567 16.8156 51.2507 16.6236 51.2387 16.5276C51.2027 15.8916 51.0107 15.3576 50.6627 14.9256C50.3267 14.4936 49.8167 14.2776 49.1327 14.2776C47.8367 14.2776 47.1527 15.0756 47.0807 16.6716L47.0627 17.1036C47.0627 17.9556 47.2127 18.6396 47.5127 19.1556C47.8247 19.6716 48.3647 19.9296 49.1327 19.9296ZM60.1165 22.0716C58.7845 22.0716 57.7225 21.6876 56.9305 20.9196C56.1505 20.1396 55.7365 19.0476 55.6885 17.6436L55.6705 17.1936L55.6885 16.7436C55.7485 15.3756 56.1685 14.3016 56.9485 13.5216C57.7405 12.7416 58.7965 12.3516 60.1165 12.3516C61.5325 12.3516 62.6245 12.7836 63.3925 13.6476C64.1725 14.5116 64.5625 15.6636 64.5625 17.1036V17.4816C64.5625 17.6016 64.5205 17.7036 64.4365 17.7876C64.3525 17.8716 64.2445 17.9136 64.1125 17.9136H58.1365V18.0576C58.1605 18.7176 58.3405 19.2756 58.6765 19.7316C59.0245 20.1756 59.4985 20.3976 60.0985 20.3976C60.8065 20.3976 61.3765 20.1216 61.8085 19.5696C61.9165 19.4376 62.0005 19.3536 62.0605 19.3176C62.1325 19.2816 62.2345 19.2636 62.3665 19.2636H63.9145C64.0225 19.2636 64.1125 19.2996 64.1845 19.3716C64.2685 19.4316 64.3105 19.5096 64.3105 19.6056C64.3105 19.8936 64.1365 20.2356 63.7885 20.6316C63.4525 21.0156 62.9665 21.3516 62.3305 21.6396C61.6945 21.9276 60.9565 22.0716 60.1165 22.0716ZM62.1145 16.4016V16.3476C62.1145 15.6396 61.9345 15.0696 61.5745 14.6376C61.2265 14.2056 60.7405 13.9896 60.1165 13.9896C59.4925 13.9896 59.0065 14.2056 58.6585 14.6376C58.3105 15.0696 58.1365 15.6396 58.1365 16.3476V16.4016H62.1145Z" fill="#0B132A"/>
<path d="M1.76 70.8916C1.65333 70.8916 1.56267 70.8596 1.488 70.7956C1.424 70.7209 1.392 70.6303 1.392 70.5236V60.0596C1.392 59.9529 1.424 59.8676 1.488 59.8036C1.56267 59.7289 1.65333 59.6916 1.76 59.6916H2.608C2.71467 59.6916 2.8 59.7289 2.864 59.8036C2.93867 59.8676 2.976 59.9529 2.976 60.0596V69.4996H8.288C8.40533 69.4996 8.496 69.5369 8.56 69.6116C8.63467 69.6756 8.672 69.7663 8.672 69.8836V70.5236C8.672 70.6303 8.63467 70.7209 8.56 70.7956C8.48533 70.8596 8.39467 70.8916 8.288 70.8916H1.76ZM12.5196 71.0516C11.997 71.0516 11.5116 70.9449 11.0636 70.7316C10.6156 70.5183 10.2583 70.2303 9.99163 69.8676C9.73563 69.4943 9.60763 69.0836 9.60763 68.6356C9.60763 67.9316 9.89563 67.3556 10.4716 66.9076C11.0583 66.4489 11.8476 66.1503 12.8396 66.0116L15.2236 65.6756V65.2116C15.2236 64.1236 14.5996 63.5796 13.3516 63.5796C12.8823 63.5796 12.4983 63.6809 12.1996 63.8836C11.901 64.0756 11.677 64.3049 11.5276 64.5716C11.4956 64.6676 11.453 64.7369 11.3996 64.7796C11.357 64.8223 11.293 64.8436 11.2076 64.8436H10.5196C10.4236 64.8436 10.3383 64.8116 10.2636 64.7476C10.1996 64.6729 10.1676 64.5876 10.1676 64.4916C10.1783 64.2356 10.2956 63.9476 10.5196 63.6276C10.7543 63.2969 11.1116 63.0143 11.5916 62.7796C12.0716 62.5343 12.6636 62.4116 13.3676 62.4116C14.5623 62.4116 15.421 62.6943 15.9436 63.2596C16.4663 63.8143 16.7276 64.5076 16.7276 65.3396V70.5236C16.7276 70.6303 16.6903 70.7209 16.6156 70.7956C16.5516 70.8596 16.4663 70.8916 16.3596 70.8916H15.6236C15.517 70.8916 15.4263 70.8596 15.3516 70.7956C15.2876 70.7209 15.2556 70.6303 15.2556 70.5236V69.8356C15.021 70.1769 14.6796 70.4649 14.2316 70.6996C13.7836 70.9343 13.213 71.0516 12.5196 71.0516ZM12.8556 69.8516C13.549 69.8516 14.1143 69.6276 14.5516 69.1796C14.9996 68.7209 15.2236 68.0649 15.2236 67.2116V66.7636L13.3676 67.0356C12.6103 67.1423 12.0396 67.3236 11.6556 67.5796C11.2716 67.8249 11.0796 68.1396 11.0796 68.5236C11.0796 68.9503 11.2556 69.2809 11.6076 69.5156C11.9596 69.7396 12.3756 69.8516 12.8556 69.8516ZM21.9078 71.0516C21.1611 71.0516 20.5318 70.9343 20.0198 70.6996C19.5184 70.4543 19.1398 70.1769 18.8838 69.8676C18.6384 69.5583 18.5158 69.3023 18.5158 69.0996C18.5158 68.9929 18.5531 68.9129 18.6278 68.8596C18.7131 68.7956 18.7984 68.7636 18.8838 68.7636H19.6038C19.7104 68.7636 19.8064 68.8169 19.8918 68.9236C20.1478 69.2223 20.4251 69.4569 20.7238 69.6276C21.0224 69.7983 21.4224 69.8836 21.9238 69.8836C22.4784 69.8836 22.9264 69.7769 23.2678 69.5636C23.6198 69.3396 23.7958 69.0356 23.7958 68.6516C23.7958 68.3956 23.7211 68.1876 23.5718 68.0276C23.4331 67.8569 23.1878 67.7129 22.8358 67.5956C22.4944 67.4676 21.9824 67.3289 21.2998 67.1796C20.3718 66.9769 19.7104 66.6836 19.3158 66.2996C18.9318 65.9156 18.7398 65.4196 18.7398 64.8116C18.7398 64.4063 18.8571 64.0223 19.0918 63.6596C19.3371 63.2863 19.6891 62.9876 20.1478 62.7636C20.6171 62.5289 21.1771 62.4116 21.8278 62.4116C22.5104 62.4116 23.0918 62.5236 23.5718 62.7476C24.0518 62.9716 24.4091 63.2383 24.6438 63.5476C24.8891 63.8463 25.0118 64.0969 25.0118 64.2996C25.0118 64.3956 24.9744 64.4756 24.8998 64.5396C24.8358 64.6036 24.7558 64.6356 24.6598 64.6356H23.9878C23.8598 64.6356 23.7531 64.5823 23.6678 64.4756C23.4971 64.2729 23.3478 64.1183 23.2198 64.0116C23.1024 63.8943 22.9264 63.7929 22.6918 63.7076C22.4678 63.6223 22.1798 63.5796 21.8278 63.5796C21.3158 63.5796 20.9211 63.6916 20.6438 63.9156C20.3664 64.1289 20.2278 64.4116 20.2278 64.7636C20.2278 64.9876 20.2864 65.1796 20.4038 65.3396C20.5211 65.4889 20.7451 65.6276 21.0758 65.7556C21.4171 65.8836 21.9078 66.0169 22.5477 66.1556C23.5611 66.3689 24.2758 66.6783 24.6918 67.0836C25.1184 67.4783 25.3318 67.9849 25.3318 68.6036C25.3318 69.0623 25.1984 69.4783 24.9318 69.8516C24.6651 70.2249 24.2704 70.5183 23.7478 70.7316C23.2358 70.9449 22.6224 71.0516 21.9078 71.0516ZM27.568 70.8916C27.4613 70.8916 27.3707 70.8596 27.296 70.7956C27.232 70.7209 27.2 70.6303 27.2 70.5236V59.8996C27.2 59.7929 27.232 59.7076 27.296 59.6436C27.3707 59.5689 27.4613 59.5316 27.568 59.5316H28.32C28.4267 59.5316 28.512 59.5689 28.576 59.6436C28.6507 59.7076 28.688 59.7929 28.688 59.8996V70.5236C28.688 70.6303 28.6507 70.7209 28.576 70.7956C28.512 70.8596 28.4267 70.8916 28.32 70.8916H27.568ZM34.4026 71.0516C33.304 71.0516 32.424 70.7156 31.7626 70.0436C31.112 69.3609 30.7546 68.4329 30.6906 67.2596L30.6746 66.7156L30.6906 66.1876C30.7653 65.0356 31.128 64.1183 31.7786 63.4356C32.44 62.7529 33.3093 62.4116 34.3866 62.4116C35.5706 62.4116 36.488 62.7903 37.1386 63.5476C37.7893 64.2943 38.1146 65.3076 38.1146 66.5876V66.8596C38.1146 66.9663 38.0773 67.0569 38.0026 67.1316C37.9386 67.1956 37.8533 67.2276 37.7466 67.2276H32.2106V67.3716C32.2426 68.0649 32.4506 68.6569 32.8346 69.1476C33.2293 69.6276 33.7466 69.8676 34.3866 69.8676C34.8773 69.8676 35.2773 69.7716 35.5866 69.5796C35.9066 69.3769 36.1413 69.1689 36.2906 68.9556C36.3866 68.8276 36.456 68.7529 36.4986 68.7316C36.552 68.6996 36.6426 68.6836 36.7706 68.6836H37.5546C37.6506 68.6836 37.7306 68.7103 37.7946 68.7636C37.8586 68.8169 37.8906 68.8916 37.8906 68.9876C37.8906 69.2223 37.7413 69.5049 37.4426 69.8356C37.1546 70.1663 36.744 70.4543 36.2106 70.6996C35.688 70.9343 35.0853 71.0516 34.4026 71.0516ZM36.5946 66.1236V66.0756C36.5946 65.3396 36.392 64.7423 35.9866 64.2836C35.592 63.8143 35.0586 63.5796 34.3866 63.5796C33.7146 63.5796 33.1813 63.8143 32.7866 64.2836C32.4026 64.7423 32.2106 65.3396 32.2106 66.0756V66.1236H36.5946ZM42.9078 71.0516C42.1611 71.0516 41.5318 70.9343 41.0198 70.6996C40.5184 70.4543 40.1398 70.1769 39.8838 69.8676C39.6384 69.5583 39.5158 69.3023 39.5158 69.0996C39.5158 68.9929 39.5531 68.9129 39.6278 68.8596C39.7131 68.7956 39.7984 68.7636 39.8838 68.7636H40.6038C40.7104 68.7636 40.8064 68.8169 40.8918 68.9236C41.1478 69.2223 41.4251 69.4569 41.7238 69.6276C42.0224 69.7983 42.4224 69.8836 42.9238 69.8836C43.4784 69.8836 43.9264 69.7769 44.2678 69.5636C44.6198 69.3396 44.7958 69.0356 44.7958 68.6516C44.7958 68.3956 44.7211 68.1876 44.5718 68.0276C44.4331 67.8569 44.1878 67.7129 43.8358 67.5956C43.4944 67.4676 42.9824 67.3289 42.2998 67.1796C41.3718 66.9769 40.7104 66.6836 40.3158 66.2996C39.9318 65.9156 39.7398 65.4196 39.7398 64.8116C39.7398 64.4063 39.8571 64.0223 40.0918 63.6596C40.3371 63.2863 40.6891 62.9876 41.1478 62.7636C41.6171 62.5289 42.1771 62.4116 42.8278 62.4116C43.5104 62.4116 44.0918 62.5236 44.5718 62.7476C45.0518 62.9716 45.4091 63.2383 45.6438 63.5476C45.8891 63.8463 46.0118 64.0969 46.0118 64.2996C46.0118 64.3956 45.9744 64.4756 45.8998 64.5396C45.8358 64.6036 45.7558 64.6356 45.6598 64.6356H44.9878C44.8598 64.6356 44.7531 64.5823 44.6678 64.4756C44.4971 64.2729 44.3478 64.1183 44.2198 64.0116C44.1024 63.8943 43.9264 63.7929 43.6918 63.7076C43.4678 63.6223 43.1798 63.5796 42.8278 63.5796C42.3158 63.5796 41.9211 63.6916 41.6438 63.9156C41.3664 64.1289 41.2278 64.4116 41.2278 64.7636C41.2278 64.9876 41.2864 65.1796 41.4038 65.3396C41.5211 65.4889 41.7451 65.6276 42.0758 65.7556C42.4171 65.8836 42.9078 66.0169 43.5477 66.1556C44.5611 66.3689 45.2758 66.6783 45.6918 67.0836C46.1184 67.4783 46.3318 67.9849 46.3318 68.6036C46.3318 69.0623 46.1984 69.4783 45.9318 69.8516C45.6651 70.2249 45.2704 70.5183 44.7478 70.7316C44.2358 70.9449 43.6224 71.0516 42.9078 71.0516ZM50.8919 70.8916C50.6039 70.8916 50.4065 70.7529 50.2999 70.4756L46.7319 60.1876L46.6999 60.0116C46.6999 59.9263 46.7319 59.8516 46.7959 59.7876C46.8599 59.7236 46.9345 59.6916 47.0199 59.6916H47.8519C48.0545 59.6916 48.1985 59.7876 48.2839 59.9796L51.4039 69.0516L54.5399 59.9796C54.5612 59.9156 54.6092 59.8516 54.6839 59.7876C54.7585 59.7236 54.8492 59.6916 54.9559 59.6916H55.7879C55.8732 59.6916 55.9479 59.7236 56.0119 59.7876C56.0865 59.8516 56.1239 59.9263 56.1239 60.0116L56.0919 60.1876L52.5079 70.4756C52.4012 70.7529 52.2092 70.8916 51.9319 70.8916H50.8919ZM58.4163 70.8916C58.3096 70.8916 58.2189 70.8596 58.1443 70.7956C58.0803 70.7209 58.0483 70.6303 58.0483 70.5236V60.0756C58.0483 59.9583 58.0803 59.8676 58.1443 59.8036C58.2189 59.7289 58.3096 59.6916 58.4163 59.6916H62.4803C63.6856 59.6916 64.6349 59.9849 65.3283 60.5716C66.0216 61.1583 66.3683 62.0063 66.3683 63.1156C66.3683 64.2249 66.0216 65.0729 65.3283 65.6596C64.6456 66.2356 63.6963 66.5236 62.4803 66.5236H59.6483V70.5236C59.6483 70.6303 59.6109 70.7209 59.5363 70.7956C59.4616 70.8596 59.3709 70.8916 59.2643 70.8916H58.4163ZM62.4003 65.1796C63.1789 65.1796 63.7656 65.0036 64.1603 64.6516C64.5656 64.2996 64.7683 63.7876 64.7683 63.1156C64.7683 62.4436 64.5709 61.9316 64.1763 61.5796C63.7816 61.2169 63.1896 61.0356 62.4003 61.0356H59.6323V65.1796H62.4003ZM68.6819 70.8916C68.5752 70.8916 68.4845 70.8596 68.4099 70.7956C68.3459 70.7209 68.3139 70.6303 68.3139 70.5236V60.0756C68.3139 59.9583 68.3459 59.8676 68.4099 59.8036C68.4845 59.7289 68.5752 59.6916 68.6819 59.6916H69.4179C69.6099 59.6916 69.7432 59.7663 69.8179 59.9156L75.1299 68.0756V60.0756C75.1299 59.9583 75.1619 59.8676 75.2259 59.8036C75.3005 59.7289 75.3912 59.6916 75.4979 59.6916H76.2659C76.3832 59.6916 76.4739 59.7289 76.5379 59.8036C76.6125 59.8676 76.6499 59.9583 76.6499 60.0756V70.5076C76.6499 70.6143 76.6125 70.7049 76.5379 70.7796C76.4739 70.8543 76.3885 70.8916 76.2819 70.8916H75.5139C75.3539 70.8916 75.2259 70.8169 75.1299 70.6676L69.8339 62.5876V70.5236C69.8339 70.6303 69.7965 70.7209 69.7219 70.7956C69.6472 70.8596 69.5565 70.8916 69.4499 70.8916H68.6819ZM85.8568 68.2676C85.7608 68.2676 85.6808 68.2356 85.6168 68.1716C85.5528 68.1076 85.5208 68.0276 85.5208 67.9316V67.2916C85.5421 66.7263 85.6861 66.2409 85.9528 65.8356C86.2194 65.4303 86.6088 64.9663 87.1208 64.4436C87.5368 64.0169 87.8408 63.6649 88.0328 63.3876C88.2248 63.1103 88.3208 62.8063 88.3208 62.4756C88.3208 61.9849 88.1128 61.5956 87.6968 61.3076C87.2914 61.0196 86.8168 60.8756 86.2728 60.8756C85.0034 60.8756 84.2568 61.5156 84.0328 62.7956C83.9794 63.0303 83.8408 63.1476 83.6168 63.1476H82.8488C82.7421 63.1476 82.6568 63.1156 82.5928 63.0516C82.5288 62.9876 82.4967 62.9023 82.4967 62.7956C82.5181 62.2089 82.6834 61.6703 82.9928 61.1796C83.3128 60.6783 83.7608 60.2783 84.3368 59.9796C84.9128 59.6809 85.5741 59.5316 86.3208 59.5316C87.1101 59.5316 87.7714 59.6703 88.3048 59.9476C88.8488 60.2143 89.2488 60.5663 89.5048 61.0036C89.7608 61.4303 89.8888 61.8889 89.8888 62.3796C89.8888 62.9236 89.7661 63.3929 89.5208 63.7876C89.2754 64.1823 88.9074 64.6409 88.4168 65.1636C88.0114 65.5903 87.7074 65.9529 87.5048 66.2516C87.3021 66.5396 87.1848 66.8649 87.1528 67.2276C87.1314 67.5263 87.1208 67.7503 87.1208 67.8996C87.0674 68.1449 86.9341 68.2676 86.7208 68.2676H85.8568ZM85.7288 70.8916C85.6221 70.8916 85.5314 70.8596 85.4568 70.7956C85.3928 70.7209 85.3608 70.6303 85.3608 70.5236V69.5476C85.3608 69.4409 85.3928 69.3556 85.4568 69.2916C85.5314 69.2169 85.6221 69.1796 85.7288 69.1796H86.7688C86.8754 69.1796 86.9661 69.2169 87.0408 69.2916C87.1154 69.3556 87.1528 69.4409 87.1528 69.5476V70.5236C87.1528 70.6303 87.1154 70.7209 87.0408 70.7956C86.9661 70.8596 86.8754 70.8916 86.7688 70.8916H85.7288Z" fill="#4F5665"/>
<path d="M1.76 110.892C1.65333 110.892 1.56267 110.86 1.488 110.796C1.424 110.721 1.392 110.63 1.392 110.524V100.076C1.392 99.9583 1.424 99.8676 1.488 99.8036C1.56267 99.7289 1.65333 99.6916 1.76 99.6916H8.288C8.40533 99.6916 8.496 99.7289 8.56 99.8036C8.63467 99.8676 8.672 99.9583 8.672 100.076V100.716C8.672 100.822 8.63467 100.913 8.56 100.988C8.496 101.052 8.40533 101.084 8.288 101.084H2.944V104.812H7.968C8.08533 104.812 8.176 104.849 8.24 104.924C8.31467 104.988 8.352 105.078 8.352 105.196V105.836C8.352 105.942 8.31467 106.033 8.24 106.108C8.16533 106.172 8.07467 106.204 7.968 106.204H2.944V110.524C2.944 110.63 2.90667 110.721 2.832 110.796C2.75733 110.86 2.66667 110.892 2.56 110.892H1.76ZM9.29625 110.892C9.21092 110.892 9.13625 110.86 9.07225 110.796C9.00825 110.732 8.97625 110.657 8.97625 110.572C8.97625 110.486 8.98158 110.428 8.99225 110.396L12.9603 100.044C13.0456 99.8089 13.2163 99.6916 13.4723 99.6916H14.5603C14.8163 99.6916 14.9869 99.8089 15.0723 100.044L19.0243 110.396L19.0563 110.572C19.0563 110.657 19.0243 110.732 18.9603 110.796C18.8963 110.86 18.8216 110.892 18.7363 110.892H17.9203C17.8029 110.892 17.7123 110.865 17.6483 110.812C17.5843 110.748 17.5416 110.684 17.5203 110.62L16.6403 108.348H11.3923L10.5123 110.62C10.4909 110.684 10.4429 110.748 10.3683 110.812C10.3043 110.865 10.2189 110.892 10.1123 110.892H9.29625ZM16.1763 106.972L14.0163 101.292L11.8563 106.972H16.1763ZM27.7799 111.932C27.6625 111.932 27.5612 111.894 27.4759 111.82C27.3905 111.756 27.3105 111.67 27.2359 111.564L26.5799 110.668C26.0252 110.924 25.3585 111.052 24.5799 111.052C23.1932 111.052 22.1159 110.689 21.3479 109.964C20.5905 109.228 20.1905 108.124 20.1479 106.652C20.1372 106.332 20.1319 105.878 20.1319 105.292C20.1319 104.705 20.1372 104.257 20.1479 103.948C20.1905 102.508 20.6065 101.414 21.3959 100.668C22.1852 99.9103 23.2465 99.5316 24.5799 99.5316C25.9239 99.5316 26.9852 99.9103 27.7639 100.668C28.5532 101.414 28.9692 102.508 29.0119 103.948C29.0332 104.566 29.0439 105.014 29.0439 105.292C29.0439 105.558 29.0332 106.012 29.0119 106.652C28.9692 108.113 28.5852 109.206 27.8599 109.932L28.9159 111.436C28.9479 111.5 28.9639 111.558 28.9639 111.612V111.644C28.9639 111.718 28.9319 111.782 28.8679 111.836C28.8039 111.9 28.7292 111.932 28.6439 111.932H27.7799ZM24.5799 109.692C25.4225 109.692 26.0945 109.436 26.5959 108.924C27.1079 108.412 27.3852 107.628 27.4279 106.572C27.4492 105.932 27.4599 105.505 27.4599 105.292C27.4599 105.057 27.4492 104.63 27.4279 104.012C27.3852 102.956 27.1079 102.172 26.5959 101.66C26.0945 101.148 25.4225 100.892 24.5799 100.892C23.7372 100.892 23.0652 101.148 22.5639 101.66C22.0625 102.172 21.7905 102.956 21.7479 104.012C21.7372 104.321 21.7319 104.748 21.7319 105.292C21.7319 105.825 21.7372 106.252 21.7479 106.572C21.7905 107.628 22.0625 108.412 22.5639 108.924C23.0652 109.436 23.7372 109.692 24.5799 109.692Z" fill="#4F5665"/>
<path d="M4.208 150.892C4.10133 150.892 4.01067 150.86 3.936 150.796C3.872 150.721 3.84 150.63 3.84 150.524V141.116H0.768C0.661333 141.116 0.570667 141.084 0.496 141.02C0.432 140.945 0.4 140.854 0.4 140.748V140.076C0.4 139.969 0.432 139.878 0.496 139.804C0.570667 139.729 0.661333 139.692 0.768 139.692H8.48C8.59733 139.692 8.688 139.729 8.752 139.804C8.82667 139.868 8.864 139.958 8.864 140.076V140.748C8.864 140.854 8.82667 140.945 8.752 141.02C8.67733 141.084 8.58667 141.116 8.48 141.116H5.424V150.524C5.424 150.63 5.38667 150.721 5.312 150.796C5.23733 150.86 5.14667 150.892 5.04 150.892H4.208ZM12.2724 151.052C11.259 151.052 10.475 150.726 9.92038 150.076C9.36571 149.414 9.08838 148.54 9.08838 147.452V142.94C9.08838 142.833 9.12038 142.748 9.18438 142.684C9.25904 142.609 9.34971 142.572 9.45638 142.572H10.2564C10.363 142.572 10.4484 142.609 10.5124 142.684C10.587 142.748 10.6244 142.833 10.6244 142.94V147.372C10.6244 148.961 11.3177 149.756 12.7044 149.756C13.3764 149.756 13.9097 149.548 14.3044 149.132C14.699 148.705 14.8964 148.118 14.8964 147.372V142.94C14.8964 142.833 14.9284 142.748 14.9924 142.684C15.067 142.609 15.1577 142.572 15.2644 142.572H16.0644C16.171 142.572 16.2564 142.609 16.3204 142.684C16.3844 142.748 16.4164 142.833 16.4164 142.94V150.524C16.4164 150.63 16.3844 150.721 16.3204 150.796C16.2564 150.86 16.171 150.892 16.0644 150.892H15.3124C15.2057 150.892 15.115 150.86 15.0404 150.796C14.9764 150.721 14.9444 150.63 14.9444 150.524V149.82C14.6457 150.225 14.283 150.534 13.8564 150.748C13.4297 150.95 12.9017 151.052 12.2724 151.052ZM22.0414 150.892C20.356 150.892 19.5134 149.953 19.5134 148.076V143.852H18.2654C18.1587 143.852 18.068 143.82 17.9934 143.756C17.9294 143.681 17.8974 143.59 17.8974 143.484V142.94C17.8974 142.833 17.9294 142.748 17.9934 142.684C18.068 142.609 18.1587 142.572 18.2654 142.572H19.5134V139.9C19.5134 139.793 19.5454 139.708 19.6094 139.644C19.684 139.569 19.7747 139.532 19.8814 139.532H20.6334C20.74 139.532 20.8254 139.569 20.8894 139.644C20.964 139.708 21.0014 139.793 21.0014 139.9V142.572H22.9854C23.092 142.572 23.1774 142.609 23.2414 142.684C23.316 142.748 23.3534 142.833 23.3534 142.94V143.484C23.3534 143.59 23.316 143.681 23.2414 143.756C23.1774 143.82 23.092 143.852 22.9854 143.852H21.0014V147.964C21.0014 148.497 21.092 148.902 21.2734 149.18C21.4547 149.446 21.7534 149.58 22.1694 149.58H23.1454C23.252 149.58 23.3374 149.617 23.4014 149.692C23.476 149.756 23.5134 149.841 23.5134 149.948V150.524C23.5134 150.63 23.476 150.721 23.4014 150.796C23.3374 150.86 23.252 150.892 23.1454 150.892H22.0414ZM28.4514 151.052C27.278 151.052 26.366 150.721 25.7154 150.06C25.0754 149.398 24.734 148.518 24.6914 147.42L24.6754 146.732L24.6914 146.044C24.734 144.956 25.0807 144.081 25.7314 143.42C26.382 142.748 27.2887 142.412 28.4514 142.412C29.614 142.412 30.5207 142.748 31.1714 143.42C31.822 144.081 32.1687 144.956 32.2114 146.044C32.222 146.161 32.2274 146.39 32.2274 146.732C32.2274 147.073 32.222 147.302 32.2114 147.42C32.1687 148.518 31.822 149.398 31.1714 150.06C30.5314 150.721 29.6247 151.052 28.4514 151.052ZM28.4514 149.82C29.1234 149.82 29.6514 149.606 30.0354 149.18C30.43 148.753 30.6434 148.14 30.6754 147.34C30.686 147.233 30.6914 147.03 30.6914 146.732C30.6914 146.433 30.686 146.23 30.6754 146.124C30.6434 145.324 30.43 144.71 30.0354 144.284C29.6514 143.857 29.1234 143.644 28.4514 143.644C27.7794 143.644 27.246 143.857 26.8514 144.284C26.4567 144.71 26.2487 145.324 26.2274 146.124L26.2114 146.732L26.2274 147.34C26.2487 148.14 26.4567 148.753 26.8514 149.18C27.246 149.606 27.7794 149.82 28.4514 149.82ZM34.5989 150.892C34.4922 150.892 34.4015 150.86 34.3269 150.796C34.2629 150.721 34.2309 150.63 34.2309 150.524V142.956C34.2309 142.849 34.2629 142.758 34.3269 142.684C34.4015 142.609 34.4922 142.572 34.5989 142.572H35.3349C35.4415 142.572 35.5322 142.609 35.6069 142.684C35.6815 142.758 35.7189 142.849 35.7189 142.956V143.66C36.1562 142.934 36.9029 142.572 37.9589 142.572H38.5829C38.6895 142.572 38.7749 142.609 38.8389 142.684C38.9135 142.748 38.9509 142.833 38.9509 142.94V143.596C38.9509 143.702 38.9135 143.788 38.8389 143.852C38.7749 143.916 38.6895 143.948 38.5829 143.948H37.6229C37.0469 143.948 36.5935 144.118 36.2629 144.46C35.9322 144.79 35.7669 145.244 35.7669 145.82V150.524C35.7669 150.63 35.7295 150.721 35.6549 150.796C35.5802 150.86 35.4895 150.892 35.3829 150.892H34.5989ZM40.549 141.02C40.4423 141.02 40.3517 140.988 40.277 140.924C40.213 140.849 40.181 140.758 40.181 140.652V139.788C40.181 139.681 40.213 139.59 40.277 139.516C40.3517 139.441 40.4423 139.404 40.549 139.404H41.557C41.6637 139.404 41.7543 139.441 41.829 139.516C41.9037 139.59 41.941 139.681 41.941 139.788V140.652C41.941 140.758 41.9037 140.849 41.829 140.924C41.7543 140.988 41.6637 141.02 41.557 141.02H40.549ZM40.677 150.892C40.5703 150.892 40.4797 150.86 40.405 150.796C40.341 150.721 40.309 150.63 40.309 150.524V142.94C40.309 142.833 40.341 142.748 40.405 142.684C40.4797 142.609 40.5703 142.572 40.677 142.572H41.445C41.5517 142.572 41.637 142.609 41.701 142.684C41.7757 142.748 41.813 142.833 41.813 142.94V150.524C41.813 150.63 41.7757 150.721 41.701 150.796C41.637 150.86 41.5517 150.892 41.445 150.892H40.677ZM46.504 151.052C45.9813 151.052 45.496 150.945 45.048 150.732C44.6 150.518 44.2427 150.23 43.976 149.868C43.72 149.494 43.592 149.084 43.592 148.636C43.592 147.932 43.88 147.356 44.456 146.908C45.0427 146.449 45.832 146.15 46.824 146.012L49.208 145.676V145.212C49.208 144.124 48.584 143.58 47.336 143.58C46.8667 143.58 46.4827 143.681 46.184 143.884C45.8853 144.076 45.6613 144.305 45.512 144.572C45.48 144.668 45.4373 144.737 45.384 144.78C45.3413 144.822 45.2773 144.844 45.192 144.844H44.504C44.408 144.844 44.3227 144.812 44.248 144.748C44.184 144.673 44.152 144.588 44.152 144.492C44.1627 144.236 44.28 143.948 44.504 143.628C44.7387 143.297 45.096 143.014 45.576 142.78C46.056 142.534 46.648 142.412 47.352 142.412C48.5467 142.412 49.4053 142.694 49.928 143.26C50.4507 143.814 50.712 144.508 50.712 145.34V150.524C50.712 150.63 50.6747 150.721 50.6 150.796C50.536 150.86 50.4507 150.892 50.344 150.892H49.608C49.5013 150.892 49.4107 150.86 49.336 150.796C49.272 150.721 49.24 150.63 49.24 150.524V149.836C49.0053 150.177 48.664 150.465 48.216 150.7C47.768 150.934 47.1973 151.052 46.504 151.052ZM46.84 149.852C47.5333 149.852 48.0987 149.628 48.536 149.18C48.984 148.721 49.208 148.065 49.208 147.212V146.764L47.352 147.036C46.5947 147.142 46.024 147.324 45.64 147.58C45.256 147.825 45.064 148.14 45.064 148.524C45.064 148.95 45.24 149.281 45.592 149.516C45.944 149.74 46.36 149.852 46.84 149.852ZM53.3961 150.892C53.2895 150.892 53.1988 150.86 53.1241 150.796C53.0601 150.721 53.0281 150.63 53.0281 150.524V139.9C53.0281 139.793 53.0601 139.708 53.1241 139.644C53.1988 139.569 53.2895 139.532 53.3961 139.532H54.1481C54.2548 139.532 54.3401 139.569 54.4041 139.644C54.4788 139.708 54.5161 139.793 54.5161 139.9V150.524C54.5161 150.63 54.4788 150.721 54.4041 150.796C54.3401 150.86 54.2548 150.892 54.1481 150.892H53.3961ZM59.7828 151.052C59.0361 151.052 58.4068 150.934 57.8948 150.7C57.3934 150.454 57.0148 150.177 56.7588 149.868C56.5134 149.558 56.3908 149.302 56.3908 149.1C56.3908 148.993 56.4281 148.913 56.5028 148.86C56.5881 148.796 56.6734 148.764 56.7588 148.764H57.4788C57.5854 148.764 57.6814 148.817 57.7668 148.924C58.0228 149.222 58.3001 149.457 58.5988 149.628C58.8974 149.798 59.2974 149.884 59.7988 149.884C60.3534 149.884 60.8014 149.777 61.1428 149.564C61.4948 149.34 61.6708 149.036 61.6708 148.652C61.6708 148.396 61.5961 148.188 61.4468 148.028C61.3081 147.857 61.0628 147.713 60.7108 147.596C60.3694 147.468 59.8574 147.329 59.1748 147.18C58.2468 146.977 57.5854 146.684 57.1908 146.3C56.8068 145.916 56.6148 145.42 56.6148 144.812C56.6148 144.406 56.7321 144.022 56.9668 143.66C57.2121 143.286 57.5641 142.988 58.0228 142.764C58.4921 142.529 59.0521 142.412 59.7028 142.412C60.3854 142.412 60.9668 142.524 61.4468 142.748C61.9268 142.972 62.2841 143.238 62.5188 143.548C62.7641 143.846 62.8868 144.097 62.8868 144.3C62.8868 144.396 62.8494 144.476 62.7748 144.54C62.7108 144.604 62.6308 144.636 62.5348 144.636H61.8628C61.7348 144.636 61.6281 144.582 61.5428 144.476C61.3721 144.273 61.2228 144.118 61.0948 144.012C60.9774 143.894 60.8014 143.793 60.5668 143.708C60.3428 143.622 60.0548 143.58 59.7028 143.58C59.1908 143.58 58.7961 143.692 58.5188 143.916C58.2414 144.129 58.1028 144.412 58.1028 144.764C58.1028 144.988 58.1614 145.18 58.2788 145.34C58.3961 145.489 58.6201 145.628 58.9508 145.756C59.2921 145.884 59.7828 146.017 60.4227 146.156C61.4361 146.369 62.1508 146.678 62.5668 147.084C62.9934 147.478 63.2068 147.985 63.2068 148.604C63.2068 149.062 63.0734 149.478 62.8068 149.852C62.5401 150.225 62.1454 150.518 61.6228 150.732C61.1108 150.945 60.4974 151.052 59.7828 151.052Z" fill="#4F5665"/>
<path d="M0.64 190.892C0.554667 190.892 0.48 190.86 0.416 190.796C0.352 190.732 0.32 190.657 0.32 190.572C0.32 190.486 0.325333 190.428 0.336 190.396L4.304 180.044C4.38933 179.809 4.56 179.692 4.816 179.692H5.904C6.16 179.692 6.33067 179.809 6.416 180.044L10.368 190.396L10.4 190.572C10.4 190.657 10.368 190.732 10.304 190.796C10.24 190.86 10.1653 190.892 10.08 190.892H9.264C9.14667 190.892 9.056 190.865 8.992 190.812C8.928 190.748 8.88533 190.684 8.864 190.62L7.984 188.348H2.736L1.856 190.62C1.83467 190.684 1.78667 190.748 1.712 190.812C1.648 190.865 1.56267 190.892 1.456 190.892H0.64ZM7.52 186.972L5.36 181.292L3.2 186.972H7.52ZM16.0148 191.052C14.8628 191.052 13.9881 190.652 13.3908 189.852V190.524C13.3908 190.63 13.3534 190.721 13.2788 190.796C13.2148 190.86 13.1294 190.892 13.0228 190.892H12.2868C12.1801 190.892 12.0894 190.86 12.0148 190.796C11.9508 190.721 11.9188 190.63 11.9188 190.524V179.9C11.9188 179.793 11.9508 179.708 12.0148 179.644C12.0894 179.569 12.1801 179.532 12.2868 179.532H13.0707C13.1774 179.532 13.2628 179.569 13.3268 179.644C13.3908 179.708 13.4228 179.793 13.4228 179.9V183.58C14.0521 182.801 14.9161 182.412 16.0148 182.412C17.1241 182.412 17.9614 182.78 18.5268 183.516C19.0921 184.241 19.3961 185.153 19.4388 186.252C19.4494 186.369 19.4548 186.529 19.4548 186.732C19.4548 186.934 19.4494 187.094 19.4388 187.212C19.3961 188.321 19.0921 189.238 18.5268 189.964C17.9614 190.689 17.1241 191.052 16.0148 191.052ZM15.6788 189.756C16.4361 189.756 16.9854 189.521 17.3268 189.052C17.6788 188.582 17.8708 187.964 17.9028 187.196C17.9134 187.089 17.9188 186.934 17.9188 186.732C17.9188 184.716 17.1721 183.708 15.6788 183.708C14.9641 183.708 14.4148 183.942 14.0308 184.412C13.6468 184.881 13.4441 185.43 13.4228 186.06L13.4068 186.684L13.4228 187.292C13.4548 187.964 13.6521 188.545 14.0148 189.036C14.3881 189.516 14.9428 189.756 15.6788 189.756ZM24.8264 191.052C23.653 191.052 22.741 190.721 22.0904 190.06C21.4504 189.398 21.109 188.518 21.0664 187.42L21.0504 186.732L21.0664 186.044C21.109 184.956 21.4557 184.081 22.1064 183.42C22.757 182.748 23.6637 182.412 24.8264 182.412C25.989 182.412 26.8957 182.748 27.5464 183.42C28.197 184.081 28.5437 184.956 28.5864 186.044C28.597 186.161 28.6024 186.39 28.6024 186.732C28.6024 187.073 28.597 187.302 28.5864 187.42C28.5437 188.518 28.197 189.398 27.5464 190.06C26.9064 190.721 25.9997 191.052 24.8264 191.052ZM24.8264 189.82C25.4984 189.82 26.0264 189.606 26.4104 189.18C26.805 188.753 27.0184 188.14 27.0504 187.34C27.061 187.233 27.0664 187.03 27.0664 186.732C27.0664 186.433 27.061 186.23 27.0504 186.124C27.0184 185.324 26.805 184.71 26.4104 184.284C26.0264 183.857 25.4984 183.644 24.8264 183.644C24.1544 183.644 23.621 183.857 23.2264 184.284C22.8317 184.71 22.6237 185.324 22.6024 186.124L22.5864 186.732L22.6024 187.34C22.6237 188.14 22.8317 188.753 23.2264 189.18C23.621 189.606 24.1544 189.82 24.8264 189.82ZM33.7099 191.052C32.6965 191.052 31.9125 190.726 31.3579 190.076C30.8032 189.414 30.5259 188.54 30.5259 187.452V182.94C30.5259 182.833 30.5579 182.748 30.6219 182.684C30.6965 182.609 30.7872 182.572 30.8939 182.572H31.6939C31.8005 182.572 31.8859 182.609 31.9499 182.684C32.0245 182.748 32.0619 182.833 32.0619 182.94V187.372C32.0619 188.961 32.7552 189.756 34.1419 189.756C34.8139 189.756 35.3472 189.548 35.7419 189.132C36.1365 188.705 36.3339 188.118 36.3339 187.372V182.94C36.3339 182.833 36.3659 182.748 36.4299 182.684C36.5045 182.609 36.5952 182.572 36.7019 182.572H37.5019C37.6085 182.572 37.6939 182.609 37.7579 182.684C37.8219 182.748 37.8539 182.833 37.8539 182.94V190.524C37.8539 190.63 37.8219 190.721 37.7579 190.796C37.6939 190.86 37.6085 190.892 37.5019 190.892H36.7499C36.6432 190.892 36.5525 190.86 36.4779 190.796C36.4139 190.721 36.3819 190.63 36.3819 190.524V189.82C36.0832 190.225 35.7205 190.534 35.2939 190.748C34.8672 190.95 34.3392 191.052 33.7099 191.052ZM43.4789 190.892C41.7935 190.892 40.9509 189.953 40.9509 188.076V183.852H39.7029C39.5962 183.852 39.5055 183.82 39.4309 183.756C39.3669 183.681 39.3349 183.59 39.3349 183.484V182.94C39.3349 182.833 39.3669 182.748 39.4309 182.684C39.5055 182.609 39.5962 182.572 39.7029 182.572H40.9509V179.9C40.9509 179.793 40.9829 179.708 41.0469 179.644C41.1215 179.569 41.2122 179.532 41.3189 179.532H42.0709C42.1775 179.532 42.2629 179.569 42.3269 179.644C42.4015 179.708 42.4389 179.793 42.4389 179.9V182.572H44.4229C44.5295 182.572 44.6149 182.609 44.6789 182.684C44.7535 182.748 44.7909 182.833 44.7909 182.94V183.484C44.7909 183.59 44.7535 183.681 44.6789 183.756C44.6149 183.82 44.5295 183.852 44.4229 183.852H42.4389V187.964C42.4389 188.497 42.5295 188.902 42.7109 189.18C42.8922 189.446 43.1909 189.58 43.6069 189.58H44.5829C44.6895 189.58 44.7749 189.617 44.8389 189.692C44.9135 189.756 44.9509 189.841 44.9509 189.948V190.524C44.9509 190.63 44.9135 190.721 44.8389 190.796C44.7749 190.86 44.6895 190.892 44.5829 190.892H43.4789ZM54.8348 191.052C53.4588 191.052 52.3921 190.684 51.6348 189.948C50.8881 189.201 50.5148 188.076 50.5148 186.572V180.076C50.5148 179.958 50.5468 179.868 50.6108 179.804C50.6854 179.729 50.7761 179.692 50.8828 179.692H51.6988C51.8161 179.692 51.9068 179.729 51.9708 179.804C52.0454 179.868 52.0828 179.958 52.0828 180.076V186.604C52.0828 187.628 52.3228 188.396 52.8028 188.908C53.2828 189.42 53.9601 189.676 54.8348 189.676C55.7094 189.676 56.3868 189.42 56.8668 188.908C57.3468 188.396 57.5868 187.628 57.5868 186.604V180.076C57.5868 179.958 57.6188 179.868 57.6828 179.804C57.7574 179.729 57.8481 179.692 57.9548 179.692H58.7868C58.8934 179.692 58.9788 179.729 59.0428 179.804C59.1174 179.878 59.1548 179.969 59.1548 180.076V186.572C59.1548 188.076 58.7761 189.201 58.0188 189.948C57.2721 190.684 56.2108 191.052 54.8348 191.052ZM64.439 191.052C63.6923 191.052 63.063 190.934 62.551 190.7C62.0497 190.454 61.671 190.177 61.415 189.868C61.1697 189.558 61.047 189.302 61.047 189.1C61.047 188.993 61.0843 188.913 61.159 188.86C61.2443 188.796 61.3297 188.764 61.415 188.764H62.135C62.2417 188.764 62.3377 188.817 62.423 188.924C62.679 189.222 62.9563 189.457 63.255 189.628C63.5537 189.798 63.9537 189.884 64.455 189.884C65.0097 189.884 65.4577 189.777 65.799 189.564C66.151 189.34 66.327 189.036 66.327 188.652C66.327 188.396 66.2523 188.188 66.103 188.028C65.9643 187.857 65.719 187.713 65.367 187.596C65.0257 187.468 64.5137 187.329 63.831 187.18C62.903 186.977 62.2417 186.684 61.847 186.3C61.463 185.916 61.271 185.42 61.271 184.812C61.271 184.406 61.3883 184.022 61.623 183.66C61.8683 183.286 62.2203 182.988 62.679 182.764C63.1483 182.529 63.7083 182.412 64.359 182.412C65.0417 182.412 65.623 182.524 66.103 182.748C66.583 182.972 66.9403 183.238 67.175 183.548C67.4203 183.846 67.543 184.097 67.543 184.3C67.543 184.396 67.5057 184.476 67.431 184.54C67.367 184.604 67.287 184.636 67.191 184.636H66.519C66.391 184.636 66.2843 184.582 66.199 184.476C66.0283 184.273 65.879 184.118 65.751 184.012C65.6337 183.894 65.4577 183.793 65.223 183.708C64.999 183.622 64.711 183.58 64.359 183.58C63.847 183.58 63.4523 183.692 63.175 183.916C62.8977 184.129 62.759 184.412 62.759 184.764C62.759 184.988 62.8177 185.18 62.935 185.34C63.0523 185.489 63.2763 185.628 63.607 185.756C63.9483 185.884 64.439 186.017 65.079 186.156C66.0923 186.369 66.807 186.678 67.223 187.084C67.6497 187.478 67.863 187.985 67.863 188.604C67.863 189.062 67.7297 189.478 67.463 189.852C67.1963 190.225 66.8017 190.518 66.279 190.732C65.767 190.945 65.1537 191.052 64.439 191.052Z" fill="#4F5665"/>
<path d="M1.76 230.892C1.65333 230.892 1.568 230.86 1.504 230.796C1.44 230.721 1.408 230.63 1.408 230.524V220.076C1.408 219.958 1.44 219.868 1.504 219.804C1.568 219.729 1.65333 219.692 1.76 219.692H5.808C7.01333 219.692 7.95733 219.985 8.64 220.572C9.33333 221.148 9.68 221.99 9.68 223.1C9.68 224.209 9.33333 225.052 8.64 225.628C7.95733 226.204 7.01333 226.492 5.808 226.492H2.928V230.524C2.928 230.63 2.89067 230.721 2.816 230.796C2.752 230.86 2.66667 230.892 2.56 230.892H1.76ZM5.728 225.196C7.33867 225.196 8.144 224.497 8.144 223.1C8.144 222.417 7.94133 221.894 7.536 221.532C7.14133 221.169 6.53867 220.988 5.728 220.988H2.928V225.196H5.728ZM11.818 230.892C11.7113 230.892 11.6207 230.86 11.546 230.796C11.482 230.721 11.45 230.63 11.45 230.524V222.956C11.45 222.849 11.482 222.758 11.546 222.684C11.6207 222.609 11.7113 222.572 11.818 222.572H12.49C12.6073 222.572 12.698 222.609 12.762 222.684C12.8367 222.748 12.874 222.838 12.874 222.956V223.66C13.3113 222.934 14.0527 222.572 15.098 222.572H15.722C15.8393 222.572 15.93 222.604 15.994 222.668C16.058 222.732 16.09 222.822 16.09 222.94V223.532C16.09 223.638 16.058 223.729 15.994 223.804C15.93 223.868 15.8393 223.9 15.722 223.9H14.81C14.2233 223.9 13.7593 224.07 13.418 224.412C13.0873 224.753 12.922 225.217 12.922 225.804V230.524C12.922 230.63 12.8847 230.721 12.81 230.796C12.7353 230.86 12.6447 230.892 12.538 230.892H11.818ZM17.7056 221.004C17.599 221.004 17.5083 220.972 17.4336 220.908C17.3696 220.833 17.3376 220.742 17.3376 220.636V219.804C17.3376 219.697 17.3696 219.606 17.4336 219.532C17.5083 219.457 17.599 219.42 17.7056 219.42H18.6496C18.7563 219.42 18.847 219.457 18.9216 219.532C18.9963 219.606 19.0336 219.697 19.0336 219.804V220.636C19.0336 220.742 18.9963 220.833 18.9216 220.908C18.847 220.972 18.7563 221.004 18.6496 221.004H17.7056ZM17.8336 230.892C17.727 230.892 17.6363 230.86 17.5616 230.796C17.4976 230.721 17.4656 230.63 17.4656 230.524V222.94C17.4656 222.833 17.4976 222.748 17.5616 222.684C17.6363 222.609 17.727 222.572 17.8336 222.572H18.5376C18.6443 222.572 18.7296 222.609 18.7936 222.684C18.8683 222.748 18.9056 222.833 18.9056 222.94V230.524C18.9056 230.63 18.8683 230.721 18.7936 230.796C18.7296 230.86 18.6443 230.892 18.5376 230.892H17.8336ZM24.2054 230.892C23.928 230.892 23.7307 230.758 23.6134 230.492L20.6374 223.068C20.6267 223.036 20.6214 222.982 20.6214 222.908C20.6214 222.812 20.6534 222.732 20.7174 222.668C20.7814 222.604 20.856 222.572 20.9414 222.572H21.6774C21.848 222.572 21.976 222.657 22.0614 222.828L24.5254 229.212L26.9894 222.828C27.0107 222.764 27.0534 222.705 27.1174 222.652C27.192 222.598 27.2774 222.572 27.3734 222.572H28.1094C28.1947 222.572 28.2694 222.604 28.3334 222.668C28.3974 222.732 28.4294 222.812 28.4294 222.908L28.3974 223.068L25.4374 230.492C25.32 230.758 25.1227 230.892 24.8454 230.892H24.2054ZM32.129 231.052C31.6063 231.052 31.121 230.945 30.673 230.732C30.2357 230.518 29.8837 230.23 29.617 229.868C29.361 229.494 29.233 229.084 29.233 228.636C29.233 227.932 29.521 227.356 30.097 226.908C30.673 226.46 31.457 226.161 32.449 226.012L34.849 225.676V225.212C34.849 224.113 34.2143 223.564 32.945 223.564C32.4543 223.564 32.0597 223.665 31.761 223.868C31.4623 224.06 31.2437 224.289 31.105 224.556C31.0623 224.662 31.0143 224.737 30.961 224.78C30.9183 224.812 30.8543 224.828 30.769 224.828H30.145C30.049 224.828 29.9637 224.796 29.889 224.732C29.825 224.657 29.793 224.572 29.793 224.476C29.793 224.23 29.905 223.948 30.129 223.628C30.3637 223.297 30.721 223.014 31.201 222.78C31.681 222.534 32.2677 222.412 32.961 222.412C34.1557 222.412 35.009 222.689 35.521 223.244C36.0437 223.798 36.305 224.492 36.305 225.324V230.524C36.305 230.63 36.2677 230.721 36.193 230.796C36.129 230.86 36.0437 230.892 35.937 230.892H35.233C35.1263 230.892 35.041 230.86 34.977 230.796C34.913 230.721 34.881 230.63 34.881 230.524V229.82C34.6463 230.172 34.305 230.465 33.857 230.7C33.409 230.934 32.833 231.052 32.129 231.052ZM32.449 229.884C33.153 229.884 33.729 229.654 34.177 229.196C34.625 228.737 34.849 228.07 34.849 227.196V226.748L32.977 227.02C32.209 227.126 31.6277 227.308 31.233 227.564C30.8383 227.82 30.641 228.14 30.641 228.524C30.641 228.961 30.817 229.297 31.169 229.532C31.5317 229.766 31.9583 229.884 32.449 229.884ZM41.9499 231.052C40.8085 231.052 39.9179 230.732 39.2779 230.092C38.6379 229.441 38.3019 228.534 38.2699 227.372L38.2539 226.732L38.2699 226.092C38.3019 224.929 38.6379 224.028 39.2779 223.388C39.9179 222.737 40.8085 222.412 41.9499 222.412C42.7179 222.412 43.3632 222.55 43.8859 222.828C44.4192 223.094 44.8139 223.43 45.0699 223.836C45.3365 224.241 45.4805 224.646 45.5019 225.052C45.5125 225.148 45.4752 225.233 45.3899 225.308C45.3152 225.382 45.2299 225.42 45.1339 225.42H44.4299C44.3232 225.42 44.2432 225.398 44.1899 225.356C44.1365 225.302 44.0832 225.212 44.0299 225.084C43.8379 224.561 43.5712 224.193 43.2299 223.98C42.8992 223.756 42.4779 223.644 41.9659 223.644C41.2939 223.644 40.7605 223.852 40.3659 224.268C39.9712 224.684 39.7579 225.318 39.7259 226.172L39.7099 226.732L39.7259 227.292C39.7579 228.145 39.9712 228.78 40.3659 229.196C40.7605 229.612 41.2939 229.82 41.9659 229.82C42.4885 229.82 42.9152 229.713 43.2459 229.5C43.5765 229.276 43.8379 228.902 44.0299 228.38C44.0832 228.252 44.1365 228.166 44.1899 228.124C44.2432 228.07 44.3232 228.044 44.4299 228.044H45.1339C45.2299 228.044 45.3152 228.081 45.3899 228.156C45.4752 228.23 45.5125 228.316 45.5019 228.412C45.4805 228.806 45.3365 229.206 45.0699 229.612C44.8139 230.017 44.4192 230.358 43.8859 230.636C43.3632 230.913 42.7179 231.052 41.9499 231.052ZM48.6404 233.932C48.5444 233.932 48.4644 233.9 48.4004 233.836C48.3364 233.772 48.3044 233.697 48.3044 233.612C48.3044 233.58 48.331 233.484 48.3844 233.324L49.6324 230.396L46.5764 223.18C46.5124 223.052 46.4804 222.961 46.4804 222.908C46.491 222.812 46.5284 222.732 46.5924 222.668C46.6564 222.604 46.731 222.572 46.8164 222.572H47.5524C47.723 222.572 47.851 222.657 47.9364 222.828L50.4004 228.716L52.9284 222.828C53.0137 222.657 53.1417 222.572 53.3124 222.572H54.0324C54.1177 222.572 54.1924 222.604 54.2564 222.668C54.3204 222.732 54.3524 222.806 54.3524 222.892C54.3524 222.966 54.3257 223.062 54.2724 223.18L49.7444 233.676C49.691 233.761 49.6324 233.825 49.5684 233.868C49.515 233.91 49.4404 233.932 49.3444 233.932H48.6404ZM60.0256 230.892C59.919 230.892 59.8336 230.86 59.7696 230.796C59.7056 230.721 59.6736 230.63 59.6736 230.524V220.076C59.6736 219.958 59.7056 219.868 59.7696 219.804C59.8336 219.729 59.919 219.692 60.0256 219.692H64.0736C65.279 219.692 66.223 219.985 66.9056 220.572C67.599 221.148 67.9456 221.99 67.9456 223.1C67.9456 224.209 67.599 225.052 66.9056 225.628C66.223 226.204 65.279 226.492 64.0736 226.492H61.1936V230.524C61.1936 230.63 61.1563 230.721 61.0816 230.796C61.0176 230.86 60.9323 230.892 60.8256 230.892H60.0256ZM63.9936 225.196C65.6043 225.196 66.4096 224.497 66.4096 223.1C66.4096 222.417 66.207 221.894 65.8016 221.532C65.407 221.169 64.8043 220.988 63.9936 220.988H61.1936V225.196H63.9936ZM72.9823 231.052C71.8089 231.052 70.9023 230.721 70.2623 230.06C69.6329 229.398 69.2969 228.518 69.2543 227.42L69.2383 226.732L69.2543 226.044C69.2969 224.945 69.6383 224.065 70.2783 223.404C70.9289 222.742 71.8303 222.412 72.9823 222.412C74.1343 222.412 75.0303 222.742 75.6703 223.404C76.3209 224.065 76.6676 224.945 76.7103 226.044C76.7316 226.278 76.7423 226.508 76.7423 226.732C76.7423 226.956 76.7316 227.185 76.7103 227.42C76.6676 228.518 76.3263 229.398 75.6863 230.06C75.0569 230.721 74.1556 231.052 72.9823 231.052ZM72.9823 229.852C73.6649 229.852 74.2036 229.638 74.5983 229.212C75.0036 228.774 75.2223 228.15 75.2543 227.34C75.2649 227.233 75.2703 227.03 75.2703 226.732C75.2703 226.433 75.2649 226.23 75.2543 226.124C75.2223 225.313 75.0036 224.694 74.5983 224.268C74.2036 223.83 73.6649 223.612 72.9823 223.612C72.2996 223.612 71.7556 223.83 71.3503 224.268C70.9556 224.694 70.7423 225.313 70.7103 226.124L70.6943 226.732L70.7103 227.34C70.7423 228.15 70.9556 228.774 71.3503 229.212C71.7556 229.638 72.2996 229.852 72.9823 229.852ZM79.1465 230.892C79.0398 230.892 78.9492 230.86 78.8745 230.796C78.8105 230.721 78.7785 230.63 78.7785 230.524V219.9C78.7785 219.782 78.8105 219.692 78.8745 219.628C78.9492 219.564 79.0398 219.532 79.1465 219.532H79.8505C79.9572 219.532 80.0425 219.569 80.1065 219.644C80.1812 219.708 80.2185 219.793 80.2185 219.9V230.524C80.2185 230.63 80.1812 230.721 80.1065 230.796C80.0425 230.86 79.9572 230.892 79.8505 230.892H79.1465ZM82.8619 221.004C82.7552 221.004 82.6645 220.972 82.5899 220.908C82.5259 220.833 82.4939 220.742 82.4939 220.636V219.804C82.4939 219.697 82.5259 219.606 82.5899 219.532C82.6645 219.457 82.7552 219.42 82.8619 219.42H83.8059C83.9125 219.42 84.0032 219.457 84.0779 219.532C84.1525 219.606 84.1899 219.697 84.1899 219.804V220.636C84.1899 220.742 84.1525 220.833 84.0779 220.908C84.0032 220.972 83.9125 221.004 83.8059 221.004H82.8619ZM82.9899 230.892C82.8832 230.892 82.7925 230.86 82.7179 230.796C82.6539 230.721 82.6219 230.63 82.6219 230.524V222.94C82.6219 222.833 82.6539 222.748 82.7179 222.684C82.7925 222.609 82.8832 222.572 82.9899 222.572H83.6939C83.8005 222.572 83.8859 222.609 83.9499 222.684C84.0245 222.748 84.0619 222.833 84.0619 222.94V230.524C84.0619 230.63 84.0245 230.721 83.9499 230.796C83.8859 230.86 83.8005 230.892 83.6939 230.892H82.9899ZM89.7936 231.052C88.6523 231.052 87.7616 230.732 87.1216 230.092C86.4816 229.441 86.1456 228.534 86.1136 227.372L86.0976 226.732L86.1136 226.092C86.1456 224.929 86.4816 224.028 87.1216 223.388C87.7616 222.737 88.6523 222.412 89.7936 222.412C90.5616 222.412 91.207 222.55 91.7296 222.828C92.263 223.094 92.6576 223.43 92.9136 223.836C93.1803 224.241 93.3243 224.646 93.3456 225.052C93.3563 225.148 93.319 225.233 93.2336 225.308C93.159 225.382 93.0736 225.42 92.9776 225.42H92.2736C92.167 225.42 92.087 225.398 92.0336 225.356C91.9803 225.302 91.927 225.212 91.8736 225.084C91.6816 224.561 91.415 224.193 91.0736 223.98C90.743 223.756 90.3216 223.644 89.8096 223.644C89.1376 223.644 88.6043 223.852 88.2096 224.268C87.815 224.684 87.6016 225.318 87.5696 226.172L87.5536 226.732L87.5696 227.292C87.6016 228.145 87.815 228.78 88.2096 229.196C88.6043 229.612 89.1376 229.82 89.8096 229.82C90.3323 229.82 90.759 229.713 91.0896 229.5C91.4203 229.276 91.6816 228.902 91.8736 228.38C91.927 228.252 91.9803 228.166 92.0336 228.124C92.087 228.07 92.167 228.044 92.2736 228.044H92.9776C93.0736 228.044 93.159 228.081 93.2336 228.156C93.319 228.23 93.3563 228.316 93.3456 228.412C93.3243 228.806 93.1803 229.206 92.9136 229.612C92.6576 230.017 92.263 230.358 91.7296 230.636C91.207 230.913 90.5616 231.052 89.7936 231.052ZM96.4841 233.932C96.3881 233.932 96.3081 233.9 96.2441 233.836C96.1801 233.772 96.1481 233.697 96.1481 233.612C96.1481 233.58 96.1748 233.484 96.2281 233.324L97.4761 230.396L94.4201 223.18C94.3561 223.052 94.3241 222.961 94.3241 222.908C94.3348 222.812 94.3721 222.732 94.4361 222.668C94.5001 222.604 94.5748 222.572 94.6601 222.572H95.3961C95.5668 222.572 95.6948 222.657 95.7801 222.828L98.2441 228.716L100.772 222.828C100.857 222.657 100.985 222.572 101.156 222.572H101.876C101.961 222.572 102.036 222.604 102.1 222.668C102.164 222.732 102.196 222.806 102.196 222.892C102.196 222.966 102.169 223.062 102.116 223.18L97.5881 233.676C97.5348 233.761 97.4761 233.825 97.4121 233.868C97.3588 233.91 97.2841 233.932 97.1881 233.932H96.4841Z" fill="#4F5665"/>
<path d="M4.224 270.892C4.11733 270.892 4.02667 270.86 3.952 270.796C3.888 270.721 3.856 270.63 3.856 270.524V261.068H0.768C0.661333 261.068 0.570667 261.036 0.496 260.972C0.432 260.897 0.4 260.806 0.4 260.7V260.076C0.4 259.958 0.432 259.868 0.496 259.804C0.570667 259.729 0.661333 259.692 0.768 259.692H8.448C8.56533 259.692 8.656 259.729 8.72 259.804C8.784 259.868 8.816 259.958 8.816 260.076V260.7C8.816 260.806 8.77867 260.897 8.704 260.972C8.64 261.036 8.55467 261.068 8.448 261.068H5.376V270.524C5.376 270.63 5.33867 270.721 5.264 270.796C5.18933 270.86 5.09867 270.892 4.992 270.892H4.224ZM12.1991 271.052C11.1111 271.052 10.2418 270.716 9.59113 270.044C8.94046 269.361 8.58313 268.433 8.51913 267.26L8.50313 266.716L8.51913 266.188C8.58313 265.036 8.94046 264.118 9.59113 263.436C10.2418 262.753 11.1111 262.412 12.1991 262.412C13.3725 262.412 14.2791 262.785 14.9191 263.532C15.5698 264.278 15.8951 265.292 15.8951 266.572V266.86C15.8951 266.966 15.8578 267.057 15.7831 267.132C15.7191 267.196 15.6338 267.228 15.5271 267.228H9.97513V267.372C10.0071 268.065 10.2205 268.657 10.6151 269.148C11.0098 269.638 11.5325 269.884 12.1831 269.884C12.6845 269.884 13.0898 269.788 13.3991 269.596C13.7191 269.393 13.9591 269.185 14.1191 268.972C14.2151 268.844 14.2898 268.769 14.3431 268.748C14.3965 268.716 14.4871 268.7 14.6151 268.7H15.3191C15.4151 268.7 15.4951 268.726 15.5591 268.78C15.6338 268.833 15.6711 268.902 15.6711 268.988C15.6711 269.222 15.5271 269.505 15.2391 269.836C14.9511 270.166 14.5405 270.454 14.0071 270.7C13.4845 270.934 12.8818 271.052 12.1991 271.052ZM14.4391 266.14V266.092C14.4391 265.345 14.2365 264.737 13.8311 264.268C13.4258 263.798 12.8818 263.564 12.1991 263.564C11.5058 263.564 10.9618 263.798 10.5671 264.268C10.1725 264.737 9.97513 265.345 9.97513 266.092V266.14H14.4391ZM18.2086 270.892C18.102 270.892 18.0113 270.86 17.9366 270.796C17.8726 270.721 17.8406 270.63 17.8406 270.524V262.956C17.8406 262.849 17.8726 262.758 17.9366 262.684C18.0113 262.609 18.102 262.572 18.2086 262.572H18.8806C18.998 262.572 19.0886 262.609 19.1526 262.684C19.2273 262.748 19.2646 262.838 19.2646 262.956V263.66C19.702 262.934 20.4433 262.572 21.4886 262.572H22.1126C22.23 262.572 22.3206 262.604 22.3846 262.668C22.4486 262.732 22.4806 262.822 22.4806 262.94V263.532C22.4806 263.638 22.4486 263.729 22.3846 263.804C22.3206 263.868 22.23 263.9 22.1126 263.9H21.2006C20.614 263.9 20.15 264.07 19.8086 264.412C19.478 264.753 19.3126 265.217 19.3126 265.804V270.524C19.3126 270.63 19.2753 270.721 19.2006 270.796C19.126 270.86 19.0353 270.892 18.9286 270.892H18.2086ZM24.2243 270.892C24.1176 270.892 24.0269 270.86 23.9523 270.796C23.8883 270.721 23.8563 270.63 23.8563 270.524V262.94C23.8563 262.833 23.8883 262.748 23.9523 262.684C24.0269 262.609 24.1176 262.572 24.2243 262.572H24.8963C25.0029 262.572 25.0883 262.609 25.1523 262.684C25.2163 262.748 25.2483 262.833 25.2483 262.94V263.484C25.8243 262.769 26.6029 262.412 27.5843 262.412C28.7576 262.412 29.5896 262.902 30.0803 263.884C30.3363 263.436 30.6989 263.078 31.1683 262.812C31.6483 262.545 32.1816 262.412 32.7683 262.412C33.6429 262.412 34.3576 262.71 34.9123 263.308C35.4669 263.905 35.7443 264.769 35.7443 265.9V270.524C35.7443 270.63 35.7069 270.721 35.6323 270.796C35.5683 270.86 35.4829 270.892 35.3763 270.892H34.6883C34.5816 270.892 34.4909 270.86 34.4163 270.796C34.3523 270.721 34.3203 270.63 34.3203 270.524V266.044C34.3203 265.19 34.1443 264.582 33.7923 264.22C33.4403 263.846 32.9763 263.66 32.4003 263.66C31.8883 263.66 31.4456 263.852 31.0723 264.236C30.7096 264.609 30.5283 265.212 30.5283 266.044V270.524C30.5283 270.63 30.4909 270.721 30.4163 270.796C30.3523 270.86 30.2669 270.892 30.1603 270.892H29.4563C29.3496 270.892 29.2589 270.86 29.1843 270.796C29.1203 270.721 29.0883 270.63 29.0883 270.524V266.044C29.0883 265.201 28.9016 264.593 28.5283 264.22C28.1656 263.846 27.7123 263.66 27.1683 263.66C26.6563 263.66 26.2136 263.846 25.8403 264.22C25.4776 264.593 25.2963 265.196 25.2963 266.028V270.524C25.2963 270.63 25.2589 270.721 25.1843 270.796C25.1203 270.86 25.0349 270.892 24.9283 270.892H24.2243ZM40.9074 271.052C40.1714 271.052 39.5474 270.934 39.0354 270.7C38.534 270.454 38.1607 270.177 37.9154 269.868C37.67 269.558 37.5474 269.302 37.5474 269.1C37.5474 268.993 37.5847 268.913 37.6594 268.86C37.734 268.796 37.814 268.764 37.8994 268.764H38.5714C38.6354 268.764 38.6834 268.774 38.7154 268.796C38.758 268.817 38.8114 268.865 38.8754 268.94C39.1207 269.238 39.3927 269.473 39.6914 269.644C40.0007 269.814 40.4114 269.9 40.9234 269.9C41.4994 269.9 41.958 269.793 42.2994 269.58C42.6514 269.366 42.8274 269.057 42.8274 268.652C42.8274 268.385 42.7527 268.172 42.6034 268.012C42.454 267.852 42.2034 267.708 41.8514 267.58C41.51 267.452 40.998 267.313 40.3154 267.164C39.3874 266.961 38.7314 266.668 38.3474 266.284C37.9634 265.9 37.7714 265.404 37.7714 264.796C37.7714 264.401 37.8887 264.022 38.1234 263.66C38.358 263.286 38.7047 262.988 39.1634 262.764C39.6327 262.529 40.1874 262.412 40.8274 262.412C41.4994 262.412 42.07 262.524 42.5394 262.748C43.0194 262.972 43.3767 263.233 43.6114 263.532C43.8567 263.83 43.9794 264.081 43.9794 264.284C43.9794 264.38 43.942 264.46 43.8674 264.524C43.8034 264.588 43.7234 264.62 43.6274 264.62H43.0194C42.87 264.62 42.7634 264.561 42.6994 264.444C42.518 264.241 42.3634 264.086 42.2354 263.98C42.118 263.862 41.942 263.766 41.7074 263.692C41.4727 263.606 41.1794 263.564 40.8274 263.564C40.3047 263.564 39.9047 263.676 39.6274 263.9C39.35 264.113 39.2114 264.401 39.2114 264.764C39.2114 264.988 39.27 265.18 39.3874 265.34C39.5047 265.489 39.7287 265.633 40.0594 265.772C40.39 265.9 40.8807 266.033 41.5314 266.172C42.5447 266.385 43.2594 266.689 43.6754 267.084C44.102 267.478 44.3154 267.985 44.3154 268.604C44.3154 269.062 44.182 269.478 43.9154 269.852C43.6594 270.225 43.27 270.518 42.7474 270.732C42.2354 270.945 41.622 271.052 40.9074 271.052ZM53.4979 271.052C52.3245 271.052 51.4179 270.721 50.7779 270.06C50.1485 269.398 49.8125 268.518 49.7699 267.42L49.7539 266.732L49.7699 266.044C49.8125 264.945 50.1539 264.065 50.7939 263.404C51.4445 262.742 52.3459 262.412 53.4979 262.412C54.6499 262.412 55.5459 262.742 56.1859 263.404C56.8365 264.065 57.1832 264.945 57.2259 266.044C57.2472 266.278 57.2579 266.508 57.2579 266.732C57.2579 266.956 57.2472 267.185 57.2259 267.42C57.1832 268.518 56.8419 269.398 56.2019 270.06C55.5725 270.721 54.6712 271.052 53.4979 271.052ZM53.4979 269.852C54.1805 269.852 54.7192 269.638 55.1139 269.212C55.5192 268.774 55.7379 268.15 55.7699 267.34C55.7805 267.233 55.7859 267.03 55.7859 266.732C55.7859 266.433 55.7805 266.23 55.7699 266.124C55.7379 265.313 55.5192 264.694 55.1139 264.268C54.7192 263.83 54.1805 263.612 53.4979 263.612C52.8152 263.612 52.2712 263.83 51.8659 264.268C51.4712 264.694 51.2579 265.313 51.2259 266.124L51.2099 266.732L51.2259 267.34C51.2579 268.15 51.4712 268.774 51.8659 269.212C52.2712 269.638 52.8152 269.852 53.4979 269.852ZM60.3844 270.892C60.2777 270.892 60.187 270.86 60.1124 270.796C60.0484 270.721 60.0164 270.63 60.0164 270.524V263.804H58.6404C58.5337 263.804 58.443 263.772 58.3684 263.708C58.3044 263.644 58.2724 263.558 58.2724 263.452V262.94C58.2724 262.833 58.3044 262.748 58.3684 262.684C58.443 262.609 58.5337 262.572 58.6404 262.572H60.0164V261.772C60.0164 260.908 60.2244 260.241 60.6404 259.772C61.067 259.292 61.7604 259.052 62.7204 259.052H63.6644C63.771 259.052 63.8564 259.089 63.9204 259.164C63.995 259.228 64.0324 259.313 64.0324 259.42V259.932C64.0324 260.038 63.995 260.124 63.9204 260.188C63.8564 260.252 63.771 260.284 63.6644 260.284H62.7524C62.2617 260.284 61.9204 260.412 61.7284 260.668C61.5364 260.924 61.4404 261.318 61.4404 261.852V262.572H63.5044C63.611 262.572 63.6964 262.609 63.7604 262.684C63.835 262.748 63.8724 262.833 63.8724 262.94V263.452C63.8724 263.558 63.835 263.644 63.7604 263.708C63.6964 263.772 63.611 263.804 63.5044 263.804H61.4404V270.524C61.4404 270.63 61.403 270.721 61.3284 270.796C61.2644 270.86 61.179 270.892 61.0724 270.892H60.3844ZM72.6479 271.052C71.7732 271.052 71.0105 270.913 70.3599 270.636C69.7199 270.358 69.2292 269.996 68.8879 269.548C68.5572 269.089 68.3812 268.598 68.3599 268.076C68.3599 267.99 68.3919 267.916 68.4559 267.852C68.5199 267.788 68.5999 267.756 68.6959 267.756H69.4799C69.6719 267.756 69.8052 267.862 69.8799 268.076C69.9759 268.524 70.2479 268.913 70.6959 269.244C71.1545 269.564 71.8052 269.724 72.6479 269.724C73.5545 269.724 74.2319 269.564 74.6799 269.244C75.1279 268.924 75.3519 268.481 75.3519 267.916C75.3519 267.553 75.2399 267.254 75.0159 267.02C74.8025 266.785 74.4772 266.582 74.0399 266.412C73.6132 266.23 72.9679 266.012 72.1039 265.756C71.2825 265.521 70.6265 265.27 70.1359 265.004C69.6559 264.737 69.2932 264.412 69.0479 264.028C68.8025 263.633 68.6799 263.137 68.6799 262.54C68.6799 261.964 68.8345 261.452 69.1439 261.004C69.4532 260.545 69.9012 260.188 70.4879 259.932C71.0745 259.665 71.7679 259.532 72.5679 259.532C73.3999 259.532 74.1092 259.681 74.6959 259.98C75.2932 260.268 75.7465 260.636 76.0559 261.084C76.3652 261.521 76.5305 261.964 76.5519 262.412C76.5519 262.508 76.5199 262.588 76.4559 262.652C76.3919 262.716 76.3119 262.748 76.2159 262.748H75.4159C75.3305 262.748 75.2505 262.721 75.1759 262.668C75.1012 262.614 75.0479 262.534 75.0159 262.428C74.9519 261.969 74.6959 261.59 74.2479 261.292C73.7999 260.993 73.2399 260.844 72.5679 260.844C71.8425 260.844 71.2665 260.988 70.8399 261.276C70.4132 261.553 70.1999 261.969 70.1999 262.524C70.1999 262.897 70.2959 263.201 70.4879 263.436C70.6905 263.67 70.9945 263.878 71.3999 264.06C71.8159 264.241 72.4185 264.449 73.2079 264.684C74.1145 264.94 74.8239 265.196 75.3359 265.452C75.8585 265.708 76.2479 266.028 76.5039 266.412C76.7599 266.785 76.8879 267.27 76.8879 267.868C76.8879 268.87 76.5039 269.654 75.7359 270.22C74.9785 270.774 73.9492 271.052 72.6479 271.052ZM82.0898 271.052C81.0018 271.052 80.1324 270.716 79.4818 270.044C78.8311 269.361 78.4738 268.433 78.4098 267.26L78.3938 266.716L78.4098 266.188C78.4738 265.036 78.8311 264.118 79.4818 263.436C80.1324 262.753 81.0018 262.412 82.0898 262.412C83.2631 262.412 84.1698 262.785 84.8098 263.532C85.4604 264.278 85.7858 265.292 85.7858 266.572V266.86C85.7858 266.966 85.7484 267.057 85.6737 267.132C85.6098 267.196 85.5244 267.228 85.4178 267.228H79.8658V267.372C79.8978 268.065 80.1111 268.657 80.5058 269.148C80.9004 269.638 81.4231 269.884 82.0738 269.884C82.5751 269.884 82.9804 269.788 83.2898 269.596C83.6098 269.393 83.8498 269.185 84.0098 268.972C84.1058 268.844 84.1804 268.769 84.2338 268.748C84.2871 268.716 84.3778 268.7 84.5058 268.7H85.2098C85.3058 268.7 85.3858 268.726 85.4498 268.78C85.5244 268.833 85.5618 268.902 85.5618 268.988C85.5618 269.222 85.4178 269.505 85.1298 269.836C84.8418 270.166 84.4311 270.454 83.8978 270.7C83.3751 270.934 82.7724 271.052 82.0898 271.052ZM84.3298 266.14V266.092C84.3298 265.345 84.1271 264.737 83.7218 264.268C83.3164 263.798 82.7724 263.564 82.0898 263.564C81.3964 263.564 80.8524 263.798 80.4578 264.268C80.0631 264.737 79.8658 265.345 79.8658 266.092V266.14H84.3298ZM88.0993 270.892C87.9926 270.892 87.9019 270.86 87.8273 270.796C87.7633 270.721 87.7313 270.63 87.7313 270.524V262.956C87.7313 262.849 87.7633 262.758 87.8273 262.684C87.9019 262.609 87.9926 262.572 88.0993 262.572H88.7713C88.8886 262.572 88.9793 262.609 89.0433 262.684C89.1179 262.748 89.1553 262.838 89.1553 262.956V263.66C89.5926 262.934 90.3339 262.572 91.3793 262.572H92.0033C92.1206 262.572 92.2113 262.604 92.2753 262.668C92.3393 262.732 92.3713 262.822 92.3713 262.94V263.532C92.3713 263.638 92.3393 263.729 92.2753 263.804C92.2113 263.868 92.1206 263.9 92.0033 263.9H91.0913C90.5046 263.9 90.0406 264.07 89.6993 264.412C89.3686 264.753 89.2033 265.217 89.2033 265.804V270.524C89.2033 270.63 89.1659 270.721 89.0913 270.796C89.0166 270.86 88.9259 270.892 88.8193 270.892H88.0993ZM96.6429 270.892C96.3655 270.892 96.1682 270.758 96.0509 270.492L93.0749 263.068C93.0642 263.036 93.0589 262.982 93.0589 262.908C93.0589 262.812 93.0909 262.732 93.1549 262.668C93.2189 262.604 93.2935 262.572 93.3789 262.572H94.1149C94.2855 262.572 94.4135 262.657 94.4989 262.828L96.9629 269.212L99.4269 262.828C99.4482 262.764 99.4909 262.705 99.5549 262.652C99.6295 262.598 99.7149 262.572 99.8109 262.572H100.547C100.632 262.572 100.707 262.604 100.771 262.668C100.835 262.732 100.867 262.812 100.867 262.908L100.835 263.068L97.8749 270.492C97.7575 270.758 97.5602 270.892 97.2829 270.892H96.6429ZM102.815 261.004C102.708 261.004 102.618 260.972 102.543 260.908C102.479 260.833 102.447 260.742 102.447 260.636V259.804C102.447 259.697 102.479 259.606 102.543 259.532C102.618 259.457 102.708 259.42 102.815 259.42H103.759C103.866 259.42 103.956 259.457 104.031 259.532C104.106 259.606 104.143 259.697 104.143 259.804V260.636C104.143 260.742 104.106 260.833 104.031 260.908C103.956 260.972 103.866 261.004 103.759 261.004H102.815ZM102.943 270.892C102.836 270.892 102.746 270.86 102.671 270.796C102.607 270.721 102.575 270.63 102.575 270.524V262.94C102.575 262.833 102.607 262.748 102.671 262.684C102.746 262.609 102.836 262.572 102.943 262.572H103.647C103.754 262.572 103.839 262.609 103.903 262.684C103.978 262.748 104.015 262.833 104.015 262.94V270.524C104.015 270.63 103.978 270.721 103.903 270.796C103.839 270.86 103.754 270.892 103.647 270.892H102.943ZM109.747 271.052C108.605 271.052 107.715 270.732 107.075 270.092C106.435 269.441 106.099 268.534 106.067 267.372L106.051 266.732L106.067 266.092C106.099 264.929 106.435 264.028 107.075 263.388C107.715 262.737 108.605 262.412 109.747 262.412C110.515 262.412 111.16 262.55 111.683 262.828C112.216 263.094 112.611 263.43 112.867 263.836C113.133 264.241 113.277 264.646 113.299 265.052C113.309 265.148 113.272 265.233 113.187 265.308C113.112 265.382 113.027 265.42 112.931 265.42H112.227C112.12 265.42 112.04 265.398 111.987 265.356C111.933 265.302 111.88 265.212 111.827 265.084C111.635 264.561 111.368 264.193 111.027 263.98C110.696 263.756 110.275 263.644 109.763 263.644C109.091 263.644 108.557 263.852 108.163 264.268C107.768 264.684 107.555 265.318 107.523 266.172L107.507 266.732L107.523 267.292C107.555 268.145 107.768 268.78 108.163 269.196C108.557 269.612 109.091 269.82 109.763 269.82C110.285 269.82 110.712 269.713 111.043 269.5C111.373 269.276 111.635 268.902 111.827 268.38C111.88 268.252 111.933 268.166 111.987 268.124C112.04 268.07 112.12 268.044 112.227 268.044H112.931C113.027 268.044 113.112 268.081 113.187 268.156C113.272 268.23 113.309 268.316 113.299 268.412C113.277 268.806 113.133 269.206 112.867 269.612C112.611 270.017 112.216 270.358 111.683 270.636C111.16 270.913 110.515 271.052 109.747 271.052ZM118.512 271.052C117.424 271.052 116.554 270.716 115.904 270.044C115.253 269.361 114.896 268.433 114.832 267.26L114.816 266.716L114.832 266.188C114.896 265.036 115.253 264.118 115.904 263.436C116.554 262.753 117.424 262.412 118.512 262.412C119.685 262.412 120.592 262.785 121.232 263.532C121.882 264.278 122.208 265.292 122.208 266.572V266.86C122.208 266.966 122.17 267.057 122.096 267.132C122.032 267.196 121.946 267.228 121.84 267.228H116.288V267.372C116.32 268.065 116.533 268.657 116.928 269.148C117.322 269.638 117.845 269.884 118.496 269.884C118.997 269.884 119.402 269.788 119.712 269.596C120.032 269.393 120.272 269.185 120.432 268.972C120.528 268.844 120.602 268.769 120.656 268.748C120.709 268.716 120.8 268.7 120.928 268.7H121.632C121.728 268.7 121.808 268.726 121.872 268.78C121.946 268.833 121.984 268.902 121.984 268.988C121.984 269.222 121.84 269.505 121.552 269.836C121.264 270.166 120.853 270.454 120.32 270.7C119.797 270.934 119.194 271.052 118.512 271.052ZM120.752 266.14V266.092C120.752 265.345 120.549 264.737 120.144 264.268C119.738 263.798 119.194 263.564 118.512 263.564C117.818 263.564 117.274 263.798 116.88 264.268C116.485 264.737 116.288 265.345 116.288 266.092V266.14H120.752Z" fill="#4F5665"/>
</svg>
