<svg width="192" height="151" viewBox="0 0 192 151" fill="none" xmlns="http://www.w3.org/2000/svg">
<path d="M46.6718 60.5496C46.5784 60.5496 46.5038 60.5216 46.4478 60.4656C46.3918 60.4002 46.3638 60.3209 46.3638 60.2276V51.0856C46.3638 50.9829 46.3918 50.9036 46.4478 50.8476C46.5038 50.7822 46.5784 50.7496 46.6718 50.7496H52.4258C52.5284 50.7496 52.6078 50.7822 52.6638 50.8476C52.7291 50.9036 52.7618 50.9829 52.7618 51.0856V51.5896C52.7618 51.6829 52.7291 51.7576 52.6638 51.8136C52.6078 51.8696 52.5284 51.8976 52.4258 51.8976H47.6518V55.0196H52.1178C52.2204 55.0196 52.2998 55.0522 52.3558 55.1176C52.4211 55.1736 52.4538 55.2529 52.4538 55.3556V55.8316C52.4538 55.9249 52.4211 56.0042 52.3558 56.0696C52.2998 56.1256 52.2204 56.1536 52.1178 56.1536H47.6518V59.3876H52.5378C52.6404 59.3876 52.7198 59.4202 52.7758 59.4856C52.8411 59.5416 52.8738 59.6209 52.8738 59.7236V60.2276C52.8738 60.3209 52.8411 60.4002 52.7758 60.4656C52.7104 60.5216 52.6311 60.5496 52.5378 60.5496H46.6718ZM54.9803 60.5496C54.887 60.5496 54.8077 60.5216 54.7423 60.4656C54.6863 60.4002 54.6583 60.3209 54.6583 60.2276V53.5916C54.6583 53.4982 54.6863 53.4236 54.7423 53.3676C54.8077 53.3022 54.887 53.2696 54.9803 53.2696H55.5823C55.685 53.2696 55.7643 53.2976 55.8203 53.3536C55.8763 53.4096 55.9043 53.4889 55.9043 53.5916V54.2076C56.1843 53.8622 56.5063 53.5962 56.8703 53.4096C57.2437 53.2229 57.7057 53.1296 58.2563 53.1296C59.1523 53.1296 59.8477 53.4189 60.3423 53.9976C60.837 54.5669 61.0843 55.3229 61.0843 56.2656V60.2276C61.0843 60.3209 61.0517 60.4002 60.9863 60.4656C60.9303 60.5216 60.8557 60.5496 60.7623 60.5496H60.1183C60.025 60.5496 59.9457 60.5216 59.8803 60.4656C59.8243 60.4002 59.7963 60.3209 59.7963 60.2276V56.3496C59.7963 55.6776 59.633 55.1549 59.3063 54.7816C58.9797 54.4082 58.513 54.2216 57.9063 54.2216C57.309 54.2216 56.833 54.4129 56.4783 54.7956C56.1237 55.1689 55.9463 55.6869 55.9463 56.3496V60.2276C55.9463 60.3209 55.9137 60.4002 55.8483 60.4656C55.7923 60.5216 55.7177 60.5496 55.6243 60.5496H54.9803ZM66.0196 60.6896C65.0209 60.6896 64.2416 60.4096 63.6816 59.8496C63.1216 59.2802 62.8276 58.4869 62.7996 57.4696L62.7856 56.9096L62.7996 56.3496C62.8276 55.3322 63.1216 54.5436 63.6816 53.9836C64.2416 53.4142 65.0209 53.1296 66.0196 53.1296C66.6916 53.1296 67.2562 53.2509 67.7136 53.4936C68.1802 53.7269 68.5256 54.0209 68.7496 54.3756C68.9829 54.7302 69.1089 55.0849 69.1276 55.4396C69.1369 55.5236 69.1042 55.5982 69.0296 55.6636C68.9642 55.7289 68.8896 55.7616 68.8056 55.7616H68.1896C68.0962 55.7616 68.0262 55.7429 67.9796 55.7056C67.9329 55.6589 67.8862 55.5796 67.8396 55.4676C67.6716 55.0102 67.4382 54.6882 67.1396 54.5016C66.8502 54.3056 66.4816 54.2076 66.0336 54.2076C65.4456 54.2076 64.9789 54.3896 64.6336 54.7536C64.2882 55.1176 64.1016 55.6729 64.0736 56.4196L64.0596 56.9096L64.0736 57.3996C64.1016 58.1462 64.2882 58.7016 64.6336 59.0656C64.9789 59.4296 65.4456 59.6116 66.0336 59.6116C66.4909 59.6116 66.8642 59.5182 67.1536 59.3316C67.4429 59.1356 67.6716 58.8089 67.8396 58.3516C67.8862 58.2396 67.9329 58.1649 67.9796 58.1276C68.0262 58.0809 68.0962 58.0576 68.1896 58.0576H68.8056C68.8896 58.0576 68.9642 58.0902 69.0296 58.1556C69.1042 58.2209 69.1369 58.2956 69.1276 58.3796C69.1089 58.7249 68.9829 59.0749 68.7496 59.4296C68.5256 59.7842 68.1802 60.0829 67.7136 60.3256C67.2562 60.5682 66.6916 60.6896 66.0196 60.6896ZM71.1268 60.5496C71.0335 60.5496 70.9542 60.5216 70.8888 60.4656C70.8328 60.4002 70.8048 60.3209 70.8048 60.2276V53.6056C70.8048 53.5122 70.8328 53.4329 70.8888 53.3676C70.9542 53.3022 71.0335 53.2696 71.1268 53.2696H71.7148C71.8175 53.2696 71.8968 53.3022 71.9528 53.3676C72.0182 53.4236 72.0508 53.5029 72.0508 53.6056V54.2216C72.4335 53.5869 73.0822 53.2696 73.9968 53.2696H74.5428C74.6455 53.2696 74.7248 53.2976 74.7808 53.3536C74.8368 53.4096 74.8648 53.4889 74.8648 53.5916V54.1096C74.8648 54.2029 74.8368 54.2822 74.7808 54.3476C74.7248 54.4036 74.6455 54.4316 74.5428 54.4316H73.7448C73.2315 54.4316 72.8255 54.5809 72.5268 54.8796C72.2375 55.1782 72.0928 55.5842 72.0928 56.0976V60.2276C72.0928 60.3209 72.0602 60.4002 71.9948 60.4656C71.9295 60.5216 71.8502 60.5496 71.7568 60.5496H71.1268ZM77.3425 63.2096C77.2585 63.2096 77.1885 63.1816 77.1325 63.1256C77.0765 63.0696 77.0485 63.0042 77.0485 62.9296C77.0485 62.9016 77.0718 62.8176 77.1185 62.6776L78.2105 60.1156L75.5365 53.8016C75.4805 53.6896 75.4525 53.6102 75.4525 53.5636C75.4618 53.4796 75.4945 53.4096 75.5505 53.3536C75.6065 53.2976 75.6718 53.2696 75.7465 53.2696H76.3905C76.5398 53.2696 76.6518 53.3442 76.7265 53.4936L78.8825 58.6456L81.0945 53.4936C81.1692 53.3442 81.2812 53.2696 81.4305 53.2696H82.0605C82.1352 53.2696 82.2005 53.2976 82.2565 53.3536C82.3125 53.4096 82.3405 53.4749 82.3405 53.5496C82.3405 53.6149 82.3172 53.6989 82.2705 53.8016L78.3085 62.9856C78.2618 63.0602 78.2105 63.1162 78.1545 63.1536C78.1078 63.1909 78.0425 63.2096 77.9585 63.2096H77.3425ZM84.0881 63.2096C83.9948 63.2096 83.9154 63.1816 83.8501 63.1256C83.7941 63.0696 83.7661 62.9902 83.7661 62.8876V53.5916C83.7661 53.4889 83.7941 53.4096 83.8501 53.3536C83.9154 53.2976 83.9948 53.2696 84.0881 53.2696H84.6761C84.7788 53.2696 84.8581 53.2976 84.9141 53.3536C84.9701 53.4096 84.9981 53.4889 84.9981 53.5916V54.2076C85.5394 53.4889 86.3094 53.1296 87.3081 53.1296C88.2881 53.1296 89.0208 53.4422 89.5061 54.0676C90.0008 54.6836 90.2621 55.4722 90.2901 56.4336C90.2994 56.5362 90.3041 56.6949 90.3041 56.9096C90.3041 57.1242 90.2994 57.2829 90.2901 57.3856C90.2621 58.3376 90.0008 59.1262 89.5061 59.7516C89.0208 60.3769 88.2881 60.6896 87.3081 60.6896C86.3094 60.6896 85.5534 60.3349 85.0401 59.6256V62.8876C85.0401 62.9809 85.0074 63.0556 84.9421 63.1116C84.8861 63.1769 84.8114 63.2096 84.7181 63.2096H84.0881ZM87.0421 59.5976C87.7141 59.5976 88.2041 59.3876 88.5121 58.9676C88.8201 58.5476 88.9881 57.9969 89.0161 57.3156C89.0254 57.2222 89.0301 57.0869 89.0301 56.9096C89.0301 55.1176 88.3674 54.2216 87.0421 54.2216C86.3888 54.2216 85.8941 54.4409 85.5581 54.8796C85.2314 55.3089 85.0588 55.8176 85.0401 56.4056C85.0308 56.5082 85.0261 56.6902 85.0261 56.9516C85.0261 57.2129 85.0308 57.3949 85.0401 57.4976C85.0588 58.0669 85.2361 58.5616 85.5721 58.9816C85.9174 59.3922 86.4074 59.5976 87.0421 59.5976ZM94.7826 60.5496C93.3359 60.5496 92.6126 59.7329 92.6126 58.0996V54.3476H91.5066C91.4132 54.3476 91.3386 54.3196 91.2826 54.2636C91.2266 54.2076 91.1986 54.1329 91.1986 54.0396V53.5916C91.1986 53.4982 91.2266 53.4236 91.2826 53.3676C91.3386 53.3022 91.4132 53.2696 91.5066 53.2696H92.6126V50.9316C92.6126 50.8382 92.6406 50.7636 92.6966 50.7076C92.7526 50.6422 92.8272 50.6096 92.9206 50.6096H93.5366C93.6299 50.6096 93.7046 50.6422 93.7606 50.7076C93.8259 50.7636 93.8586 50.8382 93.8586 50.9316V53.2696H95.5946C95.6879 53.2696 95.7626 53.3022 95.8186 53.3676C95.8839 53.4236 95.9166 53.4982 95.9166 53.5916V54.0396C95.9166 54.1329 95.8839 54.2076 95.8186 54.2636C95.7626 54.3196 95.6879 54.3476 95.5946 54.3476H93.8586V58.0016C93.8586 58.4776 93.9332 58.8369 94.0826 59.0796C94.2412 59.3222 94.5072 59.4436 94.8806 59.4436H95.7346C95.8279 59.4436 95.9026 59.4762 95.9586 59.5416C96.0146 59.5976 96.0426 59.6722 96.0426 59.7656V60.2276C96.0426 60.3209 96.0146 60.4002 95.9586 60.4656C95.9026 60.5216 95.8279 60.5496 95.7346 60.5496H94.7826ZM100.294 60.6896C99.3423 60.6896 98.5816 60.3956 98.0123 59.8076C97.443 59.2102 97.1303 58.3982 97.0743 57.3716L97.0603 56.8956L97.0743 56.4336C97.1303 55.4256 97.443 54.6229 98.0123 54.0256C98.5816 53.4282 99.3423 53.1296 100.294 53.1296C101.321 53.1296 102.114 53.4562 102.674 54.1096C103.244 54.7629 103.528 55.6496 103.528 56.7696V57.0216C103.528 57.1149 103.496 57.1942 103.43 57.2596C103.374 57.3156 103.3 57.3436 103.206 57.3436H98.3483V57.4696C98.3763 58.0762 98.563 58.5942 98.9083 59.0236C99.2536 59.4529 99.711 59.6676 100.28 59.6676C100.719 59.6676 101.074 59.5836 101.344 59.4156C101.624 59.2382 101.834 59.0562 101.974 58.8696C102.058 58.7576 102.124 58.6922 102.17 58.6736C102.217 58.6456 102.296 58.6316 102.408 58.6316H103.024C103.108 58.6316 103.178 58.6549 103.234 58.7016C103.3 58.7482 103.332 58.8089 103.332 58.8836C103.332 59.0889 103.206 59.3362 102.954 59.6256C102.702 59.9149 102.343 60.1669 101.876 60.3816C101.419 60.5869 100.892 60.6896 100.294 60.6896ZM102.254 56.3916V56.3496C102.254 55.6962 102.077 55.1642 101.722 54.7536C101.368 54.3429 100.892 54.1376 100.294 54.1376C99.6876 54.1376 99.2116 54.3429 98.8663 54.7536C98.521 55.1642 98.3483 55.6962 98.3483 56.3496V56.3916H102.254ZM107.891 60.6896C106.911 60.6896 106.173 60.3722 105.679 59.7376C105.193 59.1029 104.932 58.3002 104.895 57.3296L104.881 56.9096L104.895 56.4896C104.932 55.5282 105.198 54.7302 105.693 54.0956C106.187 53.4516 106.92 53.1296 107.891 53.1296C108.861 53.1296 109.617 53.4749 110.159 54.1656V50.9316C110.159 50.8382 110.187 50.7636 110.243 50.7076C110.308 50.6422 110.387 50.6096 110.481 50.6096H111.111C111.204 50.6096 111.279 50.6422 111.335 50.7076C111.4 50.7636 111.433 50.8382 111.433 50.9316V60.2276C111.433 60.3209 111.4 60.4002 111.335 60.4656C111.279 60.5216 111.204 60.5496 111.111 60.5496H110.509C110.415 60.5496 110.341 60.5216 110.285 60.4656C110.229 60.4002 110.201 60.3209 110.201 60.2276V59.6256C109.669 60.3349 108.899 60.6896 107.891 60.6896ZM108.157 59.5976C108.81 59.5976 109.3 59.3829 109.627 58.9536C109.953 58.5149 110.131 57.9969 110.159 57.3996C110.168 57.2969 110.173 57.1196 110.173 56.8676C110.173 56.6062 110.168 56.4242 110.159 56.3216C110.14 55.7522 109.958 55.2622 109.613 54.8516C109.277 54.4316 108.791 54.2216 108.157 54.2216C107.485 54.2216 106.995 54.4316 106.687 54.8516C106.379 55.2716 106.211 55.8222 106.183 56.5036L106.169 56.9096C106.169 58.7016 106.831 59.5976 108.157 59.5976ZM120.67 60.6896C119.429 60.6896 118.482 60.3536 117.828 59.6816C117.184 59.0002 116.839 58.0716 116.792 56.8956C116.783 56.6436 116.778 56.2329 116.778 55.6636C116.778 55.0849 116.783 54.6649 116.792 54.4036C116.839 53.2276 117.184 52.3036 117.828 51.6316C118.482 50.9502 119.429 50.6096 120.67 50.6096C121.501 50.6096 122.206 50.7589 122.784 51.0576C123.363 51.3469 123.797 51.7296 124.086 52.2056C124.385 52.6816 124.548 53.1902 124.576 53.7316C124.576 53.8156 124.544 53.8856 124.478 53.9416C124.422 53.9882 124.352 54.0116 124.268 54.0116H123.568C123.475 54.0116 123.4 53.9882 123.344 53.9416C123.288 53.8949 123.246 53.8156 123.218 53.7036C123.06 52.9849 122.77 52.4809 122.35 52.1916C121.94 51.9022 121.38 51.7576 120.67 51.7576C119.046 51.7576 118.202 52.6629 118.136 54.4736C118.127 54.7256 118.122 55.1129 118.122 55.6356C118.122 56.1582 118.127 56.5549 118.136 56.8256C118.202 58.6269 119.046 59.5276 120.67 59.5276C121.37 59.5276 121.93 59.3829 122.35 59.0936C122.77 58.8042 123.06 58.3049 123.218 57.5956C123.246 57.4836 123.288 57.4042 123.344 57.3576C123.4 57.3109 123.475 57.2876 123.568 57.2876H124.268C124.352 57.2876 124.422 57.3156 124.478 57.3716C124.544 57.4182 124.576 57.4836 124.576 57.5676C124.548 58.1089 124.385 58.6176 124.086 59.0936C123.797 59.5696 123.363 59.9569 122.784 60.2556C122.206 60.5449 121.501 60.6896 120.67 60.6896ZM129.253 60.6896C128.226 60.6896 127.433 60.4002 126.873 59.8216C126.322 59.2429 126.028 58.4729 125.991 57.5116L125.977 56.9096L125.991 56.3076C126.028 55.3462 126.327 54.5762 126.887 53.9976C127.456 53.4189 128.245 53.1296 129.253 53.1296C130.261 53.1296 131.045 53.4189 131.605 53.9976C132.174 54.5762 132.478 55.3462 132.515 56.3076C132.534 56.5129 132.543 56.7136 132.543 56.9096C132.543 57.1056 132.534 57.3062 132.515 57.5116C132.478 58.4729 132.179 59.2429 131.619 59.8216C131.068 60.4002 130.28 60.6896 129.253 60.6896ZM129.253 59.6396C129.85 59.6396 130.322 59.4529 130.667 59.0796C131.022 58.6969 131.213 58.1509 131.241 57.4416C131.25 57.3482 131.255 57.1709 131.255 56.9096C131.255 56.6482 131.25 56.4709 131.241 56.3776C131.213 55.6682 131.022 55.1269 130.667 54.7536C130.322 54.3709 129.85 54.1796 129.253 54.1796C128.656 54.1796 128.18 54.3709 127.825 54.7536C127.48 55.1269 127.293 55.6682 127.265 56.3776L127.251 56.9096L127.265 57.4416C127.293 58.1509 127.48 58.6969 127.825 59.0796C128.18 59.4529 128.656 59.6396 129.253 59.6396ZM134.633 60.5496C134.539 60.5496 134.46 60.5216 134.395 60.4656C134.339 60.4002 134.311 60.3209 134.311 60.2276V53.5916C134.311 53.4982 134.339 53.4236 134.395 53.3676C134.46 53.3022 134.539 53.2696 134.633 53.2696H135.235C135.337 53.2696 135.417 53.2976 135.473 53.3536C135.529 53.4096 135.557 53.4889 135.557 53.5916V54.2076C135.837 53.8622 136.159 53.5962 136.523 53.4096C136.896 53.2229 137.358 53.1296 137.909 53.1296C138.805 53.1296 139.5 53.4189 139.995 53.9976C140.489 54.5669 140.737 55.3229 140.737 56.2656V60.2276C140.737 60.3209 140.704 60.4002 140.639 60.4656C140.583 60.5216 140.508 60.5496 140.415 60.5496H139.771C139.677 60.5496 139.598 60.5216 139.533 60.4656C139.477 60.4002 139.449 60.3209 139.449 60.2276V56.3496C139.449 55.6776 139.285 55.1549 138.959 54.7816C138.632 54.4082 138.165 54.2216 137.559 54.2216C136.961 54.2216 136.485 54.4129 136.131 54.7956C135.776 55.1689 135.599 55.6869 135.599 56.3496V60.2276C135.599 60.3209 135.566 60.4002 135.501 60.4656C135.445 60.5216 135.37 60.5496 135.277 60.5496H134.633ZM143.082 60.5496C142.989 60.5496 142.909 60.5216 142.844 60.4656C142.788 60.4002 142.76 60.3209 142.76 60.2276V53.5916C142.76 53.4982 142.788 53.4236 142.844 53.3676C142.909 53.3022 142.989 53.2696 143.082 53.2696H143.684C143.787 53.2696 143.866 53.2976 143.922 53.3536C143.978 53.4096 144.006 53.4889 144.006 53.5916V54.2076C144.286 53.8622 144.608 53.5962 144.972 53.4096C145.345 53.2229 145.807 53.1296 146.358 53.1296C147.254 53.1296 147.949 53.4189 148.444 53.9976C148.939 54.5669 149.186 55.3229 149.186 56.2656V60.2276C149.186 60.3209 149.153 60.4002 149.088 60.4656C149.032 60.5216 148.957 60.5496 148.864 60.5496H148.22C148.127 60.5496 148.047 60.5216 147.982 60.4656C147.926 60.4002 147.898 60.3209 147.898 60.2276V56.3496C147.898 55.6776 147.735 55.1549 147.408 54.7816C147.081 54.4082 146.615 54.2216 146.008 54.2216C145.411 54.2216 144.935 54.4129 144.58 54.7956C144.225 55.1689 144.048 55.6869 144.048 56.3496V60.2276C144.048 60.3209 144.015 60.4002 143.95 60.4656C143.894 60.5216 143.819 60.5496 143.726 60.5496H143.082ZM154.093 60.6896C153.141 60.6896 152.38 60.3956 151.811 59.8076C151.242 59.2102 150.929 58.3982 150.873 57.3716L150.859 56.8956L150.873 56.4336C150.929 55.4256 151.242 54.6229 151.811 54.0256C152.38 53.4282 153.141 53.1296 154.093 53.1296C155.12 53.1296 155.913 53.4562 156.473 54.1096C157.042 54.7629 157.327 55.6496 157.327 56.7696V57.0216C157.327 57.1149 157.294 57.1942 157.229 57.2596C157.173 57.3156 157.098 57.3436 157.005 57.3436H152.147V57.4696C152.175 58.0762 152.362 58.5942 152.707 59.0236C153.052 59.4529 153.51 59.6676 154.079 59.6676C154.518 59.6676 154.872 59.5836 155.143 59.4156C155.423 59.2382 155.633 59.0562 155.773 58.8696C155.857 58.7576 155.922 58.6922 155.969 58.6736C156.016 58.6456 156.095 58.6316 156.207 58.6316H156.823C156.907 58.6316 156.977 58.6549 157.033 58.7016C157.098 58.7482 157.131 58.8089 157.131 58.8836C157.131 59.0889 157.005 59.3362 156.753 59.6256C156.501 59.9149 156.142 60.1669 155.675 60.3816C155.218 60.5869 154.69 60.6896 154.093 60.6896ZM156.053 56.3916V56.3496C156.053 55.6962 155.876 55.1642 155.521 54.7536C155.166 54.3429 154.69 54.1376 154.093 54.1376C153.486 54.1376 153.01 54.3429 152.665 54.7536C152.32 55.1642 152.147 55.6962 152.147 56.3496V56.3916H156.053ZM161.941 60.6896C160.943 60.6896 160.163 60.4096 159.603 59.8496C159.043 59.2802 158.749 58.4869 158.721 57.4696L158.707 56.9096L158.721 56.3496C158.749 55.3322 159.043 54.5436 159.603 53.9836C160.163 53.4142 160.943 53.1296 161.941 53.1296C162.613 53.1296 163.178 53.2509 163.635 53.4936C164.102 53.7269 164.447 54.0209 164.671 54.3756C164.905 54.7302 165.031 55.0849 165.049 55.4396C165.059 55.5236 165.026 55.5982 164.951 55.6636C164.886 55.7289 164.811 55.7616 164.727 55.7616H164.111C164.018 55.7616 163.948 55.7429 163.901 55.7056C163.855 55.6589 163.808 55.5796 163.761 55.4676C163.593 55.0102 163.36 54.6882 163.061 54.5016C162.772 54.3056 162.403 54.2076 161.955 54.2076C161.367 54.2076 160.901 54.3896 160.555 54.7536C160.21 55.1176 160.023 55.6729 159.995 56.4196L159.981 56.9096L159.995 57.3996C160.023 58.1462 160.21 58.7016 160.555 59.0656C160.901 59.4296 161.367 59.6116 161.955 59.6116C162.413 59.6116 162.786 59.5182 163.075 59.3316C163.365 59.1356 163.593 58.8089 163.761 58.3516C163.808 58.2396 163.855 58.1649 163.901 58.1276C163.948 58.0809 164.018 58.0576 164.111 58.0576H164.727C164.811 58.0576 164.886 58.0902 164.951 58.1556C165.026 58.2209 165.059 58.2956 165.049 58.3796C165.031 58.7249 164.905 59.0749 164.671 59.4296C164.447 59.7842 164.102 60.0829 163.635 60.3256C163.178 60.5682 162.613 60.6896 161.941 60.6896ZM169.527 60.5496C168.08 60.5496 167.357 59.7329 167.357 58.0996V54.3476H166.251C166.157 54.3476 166.083 54.3196 166.027 54.2636C165.971 54.2076 165.943 54.1329 165.943 54.0396V53.5916C165.943 53.4982 165.971 53.4236 166.027 53.3676C166.083 53.3022 166.157 53.2696 166.251 53.2696H167.357V50.9316C167.357 50.8382 167.385 50.7636 167.441 50.7076C167.497 50.6422 167.571 50.6096 167.665 50.6096H168.281C168.374 50.6096 168.449 50.6422 168.505 50.7076C168.57 50.7636 168.603 50.8382 168.603 50.9316V53.2696H170.339C170.432 53.2696 170.507 53.3022 170.563 53.3676C170.628 53.4236 170.661 53.4982 170.661 53.5916V54.0396C170.661 54.1329 170.628 54.2076 170.563 54.2636C170.507 54.3196 170.432 54.3476 170.339 54.3476H168.603V58.0016C168.603 58.4776 168.677 58.8369 168.827 59.0796C168.985 59.3222 169.251 59.4436 169.625 59.4436H170.479C170.572 59.4436 170.647 59.4762 170.703 59.5416C170.759 59.5976 170.787 59.6722 170.787 59.7656V60.2276C170.787 60.3209 170.759 60.4002 170.703 60.4656C170.647 60.5216 170.572 60.5496 170.479 60.5496H169.527ZM172.364 51.8976C172.271 51.8976 172.192 51.8696 172.126 51.8136C172.07 51.7482 172.042 51.6689 172.042 51.5756V50.8476C172.042 50.7542 172.07 50.6749 172.126 50.6096C172.192 50.5442 172.271 50.5116 172.364 50.5116H173.19C173.284 50.5116 173.363 50.5442 173.428 50.6096C173.494 50.6749 173.526 50.7542 173.526 50.8476V51.5756C173.526 51.6689 173.494 51.7482 173.428 51.8136C173.363 51.8696 173.284 51.8976 173.19 51.8976H172.364ZM172.476 60.5496C172.383 60.5496 172.304 60.5216 172.238 60.4656C172.182 60.4002 172.154 60.3209 172.154 60.2276V53.5916C172.154 53.4982 172.182 53.4236 172.238 53.3676C172.304 53.3022 172.383 53.2696 172.476 53.2696H173.092C173.186 53.2696 173.26 53.3022 173.316 53.3676C173.382 53.4236 173.414 53.4982 173.414 53.5916V60.2276C173.414 60.3209 173.382 60.4002 173.316 60.4656C173.26 60.5216 173.186 60.5496 173.092 60.5496H172.476ZM178.472 60.6896C177.445 60.6896 176.652 60.4002 176.092 59.8216C175.541 59.2429 175.247 58.4729 175.21 57.5116L175.196 56.9096L175.21 56.3076C175.247 55.3462 175.546 54.5762 176.106 53.9976C176.675 53.4189 177.464 53.1296 178.472 53.1296C179.48 53.1296 180.264 53.4189 180.824 53.9976C181.393 54.5762 181.696 55.3462 181.734 56.3076C181.752 56.5129 181.762 56.7136 181.762 56.9096C181.762 57.1056 181.752 57.3062 181.734 57.5116C181.696 58.4729 181.398 59.2429 180.838 59.8216C180.287 60.4002 179.498 60.6896 178.472 60.6896ZM178.472 59.6396C179.069 59.6396 179.54 59.4529 179.886 59.0796C180.24 58.6969 180.432 58.1509 180.46 57.4416C180.469 57.3482 180.474 57.1709 180.474 56.9096C180.474 56.6482 180.469 56.4709 180.46 56.3776C180.432 55.6682 180.24 55.1269 179.886 54.7536C179.54 54.3709 179.069 54.1796 178.472 54.1796C177.874 54.1796 177.398 54.3709 177.044 54.7536C176.698 55.1269 176.512 55.6682 176.484 56.3776L176.47 56.9096L176.484 57.4416C176.512 58.1509 176.698 58.6969 177.044 59.0796C177.398 59.4529 177.874 59.6396 178.472 59.6396ZM183.851 60.5496C183.758 60.5496 183.679 60.5216 183.613 60.4656C183.557 60.4002 183.529 60.3209 183.529 60.2276V53.5916C183.529 53.4982 183.557 53.4236 183.613 53.3676C183.679 53.3022 183.758 53.2696 183.851 53.2696H184.453C184.556 53.2696 184.635 53.2976 184.691 53.3536C184.747 53.4096 184.775 53.4889 184.775 53.5916V54.2076C185.055 53.8622 185.377 53.5962 185.741 53.4096C186.115 53.2229 186.577 53.1296 187.127 53.1296C188.023 53.1296 188.719 53.4189 189.213 53.9976C189.708 54.5669 189.955 55.3229 189.955 56.2656V60.2276C189.955 60.3209 189.923 60.4002 189.857 60.4656C189.801 60.5216 189.727 60.5496 189.633 60.5496H188.989C188.896 60.5496 188.817 60.5216 188.751 60.4656C188.695 60.4002 188.667 60.3209 188.667 60.2276V56.3496C188.667 55.6776 188.504 55.1549 188.177 54.7816C187.851 54.4082 187.384 54.2216 186.777 54.2216C186.18 54.2216 185.704 54.4129 185.349 54.7956C184.995 55.1689 184.817 55.6869 184.817 56.3496V60.2276C184.817 60.3209 184.785 60.4002 184.719 60.4656C184.663 60.5216 184.589 60.5496 184.495 60.5496H183.851Z" fill="#4F5665"/>
<path d="M11.3797 60.2795C11.2485 60.2798 11.1184 60.2542 10.9971 60.204C10.8758 60.1539 10.7655 60.0804 10.6727 59.9875L6.43073 55.7445C6.33515 55.6524 6.25889 55.5421 6.2064 55.4201C6.15391 55.2981 6.12623 55.1669 6.12498 55.0342C6.12374 54.9014 6.14895 54.7697 6.19914 54.6468C6.24933 54.5238 6.32351 54.4121 6.41733 54.3182C6.51116 54.2242 6.62276 54.1499 6.74562 54.0995C6.86847 54.0491 7.00013 54.0237 7.13291 54.0248C7.26569 54.0259 7.39693 54.0534 7.51897 54.1057C7.64101 54.158 7.75141 54.2341 7.84373 54.3295L11.3787 57.8645L17.7437 51.5015C17.9312 51.3139 18.1856 51.2084 18.4509 51.2083C18.7161 51.2082 18.9706 51.3135 19.1582 51.501C19.3459 51.6886 19.4513 51.9429 19.4514 52.2082C19.4515 52.4735 19.3462 52.7279 19.1587 52.9155L12.0867 59.9875C11.9939 60.0804 11.8837 60.1539 11.7623 60.204C11.641 60.2542 11.511 60.2798 11.3797 60.2795Z" fill="#2FAB73"/>
<path d="M11.6178 100.28C11.4865 100.28 11.3565 100.254 11.2351 100.204C11.1138 100.154 11.0036 100.08 10.9108 99.9875L6.66876 95.7445C6.57319 95.6524 6.49693 95.5421 6.44444 95.4201C6.39194 95.2981 6.36427 95.1669 6.36302 95.0342C6.36177 94.9014 6.38698 94.7697 6.43718 94.6468C6.48737 94.5238 6.56154 94.4121 6.65537 94.3182C6.74919 94.2242 6.86079 94.1499 6.98365 94.0995C7.10651 94.0491 7.23817 94.0237 7.37095 94.0248C7.50373 94.0259 7.63497 94.0534 7.75701 94.1057C7.87905 94.158 7.98945 94.2341 8.08176 94.3295L11.6168 97.8645L17.9818 91.5015C18.1693 91.3139 18.4236 91.2084 18.6889 91.2083C18.9542 91.2082 19.2086 91.3135 19.3963 91.501C19.5839 91.6886 19.6894 91.9429 19.6895 92.2082C19.6896 92.4735 19.5843 92.7279 19.3968 92.9155L12.3248 99.9875C12.2319 100.08 12.1217 100.154 12.0004 100.204C11.8791 100.254 11.749 100.28 11.6178 100.28Z" fill="#2FAB73"/>
<path d="M46.6718 100.55C46.5784 100.55 46.5038 100.522 46.4478 100.466C46.3918 100.4 46.3638 100.321 46.3638 100.228V91.0856C46.3638 90.9829 46.3918 90.9036 46.4478 90.8476C46.5038 90.7822 46.5784 90.7496 46.6718 90.7496H47.2878C47.3811 90.7496 47.4511 90.7682 47.4978 90.8056C47.5444 90.8429 47.5911 90.8896 47.6378 90.9456L52.3278 98.1696V91.0856C52.3278 90.9829 52.3558 90.9036 52.4118 90.8476C52.4771 90.7822 52.5564 90.7496 52.6498 90.7496H53.2798C53.3824 90.7496 53.4618 90.7822 53.5178 90.8476C53.5831 90.9036 53.6158 90.9829 53.6158 91.0856V100.214C53.6158 100.307 53.5831 100.386 53.5178 100.452C53.4618 100.517 53.3871 100.55 53.2938 100.55H52.6638C52.5051 100.55 52.3931 100.484 52.3278 100.354L47.6378 93.1996V100.228C47.6378 100.321 47.6051 100.4 47.5398 100.466C47.4838 100.522 47.4091 100.55 47.3158 100.55H46.6718ZM58.8428 100.69C57.8161 100.69 57.0228 100.4 56.4628 99.8216C55.9121 99.2429 55.6181 98.4729 55.5808 97.5116L55.5668 96.9096L55.5808 96.3076C55.6181 95.3462 55.9168 94.5762 56.4768 93.9976C57.0461 93.4189 57.8348 93.1296 58.8428 93.1296C59.8508 93.1296 60.6348 93.4189 61.1948 93.9976C61.7641 94.5762 62.0675 95.3462 62.1048 96.3076C62.1235 96.5129 62.1328 96.7136 62.1328 96.9096C62.1328 97.1056 62.1235 97.3062 62.1048 97.5116C62.0675 98.4729 61.7688 99.2429 61.2088 99.8216C60.6581 100.4 59.8695 100.69 58.8428 100.69ZM58.8428 99.6396C59.4401 99.6396 59.9115 99.4529 60.2568 99.0796C60.6115 98.6969 60.8028 98.1509 60.8308 97.4416C60.8401 97.3482 60.8448 97.1709 60.8448 96.9096C60.8448 96.6482 60.8401 96.4709 60.8308 96.3776C60.8028 95.6682 60.6115 95.1269 60.2568 94.7536C59.9115 94.3709 59.4401 94.1796 58.8428 94.1796C58.2455 94.1796 57.7695 94.3709 57.4148 94.7536C57.0695 95.1269 56.8828 95.6682 56.8548 96.3776L56.8408 96.9096L56.8548 97.4416C56.8828 98.1509 57.0695 98.6969 57.4148 99.0796C57.7695 99.4529 58.2455 99.6396 58.8428 99.6396ZM69.6364 100.55C69.543 100.55 69.4637 100.522 69.3984 100.466C69.3424 100.4 69.3144 100.321 69.3144 100.228V91.9536H66.6124C66.519 91.9536 66.4397 91.9256 66.3744 91.8696C66.3184 91.8042 66.2904 91.7249 66.2904 91.6316V91.0856C66.2904 90.9829 66.3184 90.9036 66.3744 90.8476C66.4397 90.7822 66.519 90.7496 66.6124 90.7496H73.3324C73.435 90.7496 73.5144 90.7822 73.5704 90.8476C73.6264 90.9036 73.6544 90.9829 73.6544 91.0856V91.6316C73.6544 91.7249 73.6217 91.8042 73.5564 91.8696C73.5004 91.9256 73.4257 91.9536 73.3324 91.9536H70.6444V100.228C70.6444 100.321 70.6117 100.4 70.5464 100.466C70.481 100.522 70.4017 100.55 70.3084 100.55H69.6364ZM74.2303 100.55C74.137 100.55 74.0577 100.522 73.9923 100.466C73.9363 100.4 73.9083 100.321 73.9083 100.228V93.6056C73.9083 93.5122 73.9363 93.4329 73.9923 93.3676C74.0577 93.3022 74.137 93.2696 74.2303 93.2696H74.8183C74.921 93.2696 75.0003 93.3022 75.0563 93.3676C75.1217 93.4236 75.1543 93.5029 75.1543 93.6056V94.2216C75.537 93.5869 76.1857 93.2696 77.1003 93.2696H77.6463C77.749 93.2696 77.8283 93.2976 77.8843 93.3536C77.9403 93.4096 77.9683 93.4889 77.9683 93.5916V94.1096C77.9683 94.2029 77.9403 94.2822 77.8843 94.3476C77.8283 94.4036 77.749 94.4316 77.6463 94.4316H76.8483C76.335 94.4316 75.929 94.5809 75.6303 94.8796C75.341 95.1782 75.1963 95.5842 75.1963 96.0976V100.228C75.1963 100.321 75.1637 100.4 75.0983 100.466C75.033 100.522 74.9537 100.55 74.8603 100.55H74.2303ZM81.0786 100.69C80.6213 100.69 80.1966 100.596 79.8046 100.41C79.422 100.223 79.114 99.9709 78.8806 99.6536C78.6566 99.3269 78.5446 98.9676 78.5446 98.5756C78.5446 97.9596 78.7966 97.4556 79.3006 97.0636C79.8046 96.6716 80.4906 96.4102 81.3586 96.2796L83.4586 95.9856V95.5796C83.4586 94.6182 82.9033 94.1376 81.7926 94.1376C81.3633 94.1376 81.018 94.2262 80.7566 94.4036C80.4953 94.5716 80.304 94.7722 80.1826 95.0056C80.1453 95.0989 80.1033 95.1642 80.0566 95.2016C80.0193 95.2296 79.9633 95.2436 79.8886 95.2436H79.3426C79.2586 95.2436 79.184 95.2156 79.1186 95.1596C79.0626 95.0942 79.0346 95.0196 79.0346 94.9356C79.0346 94.7209 79.1326 94.4736 79.3286 94.1936C79.534 93.9042 79.8466 93.6569 80.2666 93.4516C80.6866 93.2369 81.2 93.1296 81.8066 93.1296C82.852 93.1296 83.5986 93.3722 84.0466 93.8576C84.504 94.3429 84.7326 94.9496 84.7326 95.6776V100.228C84.7326 100.321 84.7 100.4 84.6346 100.466C84.5786 100.522 84.504 100.55 84.4106 100.55H83.7946C83.7013 100.55 83.6266 100.522 83.5706 100.466C83.5146 100.4 83.4866 100.321 83.4866 100.228V99.6116C83.2813 99.9196 82.9826 100.176 82.5906 100.382C82.1986 100.587 81.6946 100.69 81.0786 100.69ZM81.3586 99.6676C81.9746 99.6676 82.4786 99.4669 82.8706 99.0656C83.2626 98.6642 83.4586 98.0809 83.4586 97.3156V96.9236L81.8206 97.1616C81.1486 97.2549 80.64 97.4136 80.2946 97.6376C79.9493 97.8616 79.7766 98.1416 79.7766 98.4776C79.7766 98.8602 79.9306 99.1542 80.2386 99.3596C80.556 99.5649 80.9293 99.6676 81.3586 99.6676ZM87.7415 100.55C87.6482 100.55 87.5689 100.522 87.5035 100.466C87.4475 100.4 87.4195 100.321 87.4195 100.228V94.3476H86.2155C86.1222 94.3476 86.0429 94.3196 85.9775 94.2636C85.9215 94.2076 85.8935 94.1329 85.8935 94.0396V93.5916C85.8935 93.4982 85.9215 93.4236 85.9775 93.3676C86.0429 93.3022 86.1222 93.2696 86.2155 93.2696H87.4195V92.5696C87.4195 91.8136 87.6015 91.2302 87.9655 90.8196C88.3389 90.3996 88.9455 90.1896 89.7855 90.1896H90.6115C90.7049 90.1896 90.7795 90.2222 90.8355 90.2876C90.9009 90.3436 90.9335 90.4182 90.9335 90.5116V90.9596C90.9335 91.0529 90.9009 91.1276 90.8355 91.1836C90.7795 91.2396 90.7049 91.2676 90.6115 91.2676H89.8135C89.3842 91.2676 89.0855 91.3796 88.9175 91.6036C88.7495 91.8276 88.6655 92.1729 88.6655 92.6396V93.2696H91.6755V92.5696C91.6755 91.8136 91.8575 91.2302 92.2215 90.8196C92.5949 90.3996 93.2015 90.1896 94.0415 90.1896H96.1275C96.2302 90.1896 96.3095 90.2176 96.3655 90.2736C96.4215 90.3296 96.4495 90.4089 96.4495 90.5116V90.9596C96.4495 91.0529 96.4169 91.1276 96.3515 91.1836C96.2955 91.2396 96.2209 91.2676 96.1275 91.2676H94.0695C93.6402 91.2676 93.3415 91.3796 93.1735 91.6036C93.0055 91.8276 92.9215 92.1729 92.9215 92.6396V93.2696H96.1275C96.2302 93.2696 96.3095 93.2976 96.3655 93.3536C96.4215 93.4096 96.4495 93.4889 96.4495 93.5916V100.228C96.4495 100.321 96.4169 100.4 96.3515 100.466C96.2955 100.522 96.2209 100.55 96.1275 100.55H95.5255C95.4322 100.55 95.3529 100.522 95.2875 100.466C95.2315 100.4 95.2035 100.321 95.2035 100.228V94.3476H92.9215V100.228C92.9215 100.321 92.8889 100.4 92.8235 100.466C92.7675 100.522 92.6929 100.55 92.5995 100.55H91.9835C91.8902 100.55 91.8155 100.522 91.7595 100.466C91.7035 100.4 91.6755 100.321 91.6755 100.228V94.3476H88.6655V100.228C88.6655 100.321 88.6329 100.4 88.5675 100.466C88.5115 100.522 88.4369 100.55 88.3435 100.55H87.7415ZM101.457 100.69C100.458 100.69 99.6791 100.41 99.1191 99.8496C98.5591 99.2802 98.2651 98.4869 98.2371 97.4696L98.2231 96.9096L98.2371 96.3496C98.2651 95.3322 98.5591 94.5436 99.1191 93.9836C99.6791 93.4142 100.458 93.1296 101.457 93.1296C102.129 93.1296 102.694 93.2509 103.151 93.4936C103.618 93.7269 103.963 94.0209 104.187 94.3756C104.42 94.7302 104.546 95.0849 104.565 95.4396C104.574 95.5236 104.542 95.5982 104.467 95.6636C104.402 95.7289 104.327 95.7616 104.243 95.7616H103.627C103.534 95.7616 103.464 95.7429 103.417 95.7056C103.37 95.6589 103.324 95.5796 103.277 95.4676C103.109 95.0102 102.876 94.6882 102.577 94.5016C102.288 94.3056 101.919 94.2076 101.471 94.2076C100.883 94.2076 100.416 94.3896 100.071 94.7536C99.7257 95.1176 99.5391 95.6729 99.5111 96.4196L99.4971 96.9096L99.5111 97.3996C99.5391 98.1462 99.7257 98.7016 100.071 99.0656C100.416 99.4296 100.883 99.6116 101.471 99.6116C101.928 99.6116 102.302 99.5182 102.591 99.3316C102.88 99.1356 103.109 98.8089 103.277 98.3516C103.324 98.2396 103.37 98.1649 103.417 98.1276C103.464 98.0809 103.534 98.0576 103.627 98.0576H104.243C104.327 98.0576 104.402 98.0902 104.467 98.1556C104.542 98.2209 104.574 98.2956 104.565 98.3796C104.546 98.7249 104.42 99.0749 104.187 99.4296C103.963 99.7842 103.618 100.083 103.151 100.326C102.694 100.568 102.129 100.69 101.457 100.69ZM110.178 100.55C110.084 100.55 110.01 100.522 109.954 100.466C109.898 100.4 109.87 100.321 109.87 100.228V91.0716C109.87 90.9782 109.898 90.9036 109.954 90.8476C110.01 90.7822 110.084 90.7496 110.178 90.7496H110.878C110.971 90.7496 111.046 90.7822 111.102 90.8476C111.158 90.9036 111.186 90.9782 111.186 91.0716V99.3736H115.862C115.964 99.3736 116.044 99.4062 116.1 99.4716C116.165 99.5276 116.198 99.6022 116.198 99.6956V100.228C116.198 100.321 116.165 100.4 116.1 100.466C116.034 100.522 115.955 100.55 115.862 100.55H110.178ZM120.339 100.69C119.312 100.69 118.519 100.4 117.959 99.8216C117.408 99.2429 117.114 98.4729 117.077 97.5116L117.063 96.9096L117.077 96.3076C117.114 95.3462 117.413 94.5762 117.973 93.9976C118.542 93.4189 119.331 93.1296 120.339 93.1296C121.347 93.1296 122.131 93.4189 122.691 93.9976C123.26 94.5762 123.564 95.3462 123.601 96.3076C123.62 96.5129 123.629 96.7136 123.629 96.9096C123.629 97.1056 123.62 97.3062 123.601 97.5116C123.564 98.4729 123.265 99.2429 122.705 99.8216C122.154 100.4 121.366 100.69 120.339 100.69ZM120.339 99.6396C120.936 99.6396 121.408 99.4529 121.753 99.0796C122.108 98.6969 122.299 98.1509 122.327 97.4416C122.336 97.3482 122.341 97.1709 122.341 96.9096C122.341 96.6482 122.336 96.4709 122.327 96.3776C122.299 95.6682 122.108 95.1269 121.753 94.7536C121.408 94.3709 120.936 94.1796 120.339 94.1796C119.742 94.1796 119.266 94.3709 118.911 94.7536C118.566 95.1269 118.379 95.6682 118.351 96.3776L118.337 96.9096L118.351 97.4416C118.379 98.1509 118.566 98.6969 118.911 99.0796C119.266 99.4529 119.742 99.6396 120.339 99.6396ZM128.351 103.63C127.576 103.63 126.955 103.499 126.489 103.238C126.022 102.976 125.691 102.678 125.495 102.342C125.308 102.006 125.215 101.716 125.215 101.474C125.215 101.39 125.247 101.315 125.313 101.25C125.378 101.194 125.453 101.166 125.537 101.166H126.153C126.237 101.166 126.307 101.184 126.363 101.222C126.419 101.268 126.465 101.348 126.503 101.46C126.764 102.206 127.357 102.58 128.281 102.58C128.981 102.58 129.499 102.43 129.835 102.132C130.171 101.833 130.339 101.306 130.339 100.55V99.5836C129.797 100.274 129.041 100.62 128.071 100.62C127.081 100.62 126.339 100.302 125.845 99.6676C125.359 99.0329 125.103 98.2302 125.075 97.2596L125.061 96.8676L125.075 96.4896C125.103 95.5282 125.359 94.7302 125.845 94.0956C126.339 93.4516 127.081 93.1296 128.071 93.1296C129.051 93.1296 129.816 93.4889 130.367 94.2076V93.6056C130.367 93.5122 130.395 93.4329 130.451 93.3676C130.516 93.3022 130.595 93.2696 130.689 93.2696H131.291C131.384 93.2696 131.459 93.3022 131.515 93.3676C131.58 93.4329 131.613 93.5122 131.613 93.6056V100.396C131.613 102.552 130.525 103.63 128.351 103.63ZM128.323 99.5276C128.976 99.5276 129.466 99.3176 129.793 98.8976C130.129 98.4682 130.311 97.9549 130.339 97.3576C130.348 97.2736 130.353 97.1102 130.353 96.8676C130.353 96.6342 130.348 96.4756 130.339 96.3916C130.311 95.7942 130.129 95.2856 129.793 94.8656C129.466 94.4362 128.976 94.2216 128.323 94.2216C127.651 94.2216 127.161 94.4362 126.853 94.8656C126.554 95.2856 126.391 95.8316 126.363 96.5036L126.349 96.8676L126.363 97.2456C126.391 97.9176 126.554 98.4682 126.853 98.8976C127.161 99.3176 127.651 99.5276 128.323 99.5276ZM136.215 100.69C135.571 100.69 135.025 100.587 134.577 100.382C134.138 100.167 133.811 99.9242 133.597 99.6536C133.382 99.3829 133.275 99.1589 133.275 98.9816C133.275 98.8882 133.307 98.8182 133.373 98.7716C133.438 98.7156 133.508 98.6876 133.583 98.6876H134.171C134.227 98.6876 134.269 98.6969 134.297 98.7156C134.334 98.7342 134.381 98.7762 134.437 98.8416C134.651 99.1029 134.889 99.3082 135.151 99.4576C135.421 99.6069 135.781 99.6816 136.229 99.6816C136.733 99.6816 137.134 99.5882 137.433 99.4016C137.741 99.2149 137.895 98.9442 137.895 98.5896C137.895 98.3562 137.829 98.1696 137.699 98.0296C137.568 97.8896 137.349 97.7636 137.041 97.6516C136.742 97.5396 136.294 97.4182 135.697 97.2876C134.885 97.1102 134.311 96.8536 133.975 96.5176C133.639 96.1816 133.471 95.7476 133.471 95.2156C133.471 94.8702 133.573 94.5389 133.779 94.2216C133.984 93.8949 134.287 93.6336 134.689 93.4376C135.099 93.2322 135.585 93.1296 136.145 93.1296C136.733 93.1296 137.232 93.2276 137.643 93.4236C138.063 93.6196 138.375 93.8482 138.581 94.1096C138.795 94.3709 138.903 94.5902 138.903 94.7676C138.903 94.8516 138.87 94.9216 138.805 94.9776C138.749 95.0336 138.679 95.0616 138.595 95.0616H138.063C137.932 95.0616 137.839 95.0102 137.783 94.9076C137.624 94.7302 137.489 94.5949 137.377 94.5016C137.274 94.3989 137.12 94.3149 136.915 94.2496C136.709 94.1749 136.453 94.1376 136.145 94.1376C135.687 94.1376 135.337 94.2356 135.095 94.4316C134.852 94.6182 134.731 94.8702 134.731 95.1876C134.731 95.3836 134.782 95.5516 134.885 95.6916C134.987 95.8222 135.183 95.9482 135.473 96.0696C135.762 96.1816 136.191 96.2982 136.761 96.4196C137.647 96.6062 138.273 96.8722 138.637 97.2176C139.01 97.5629 139.197 98.0062 139.197 98.5476C139.197 98.9489 139.08 99.3129 138.847 99.6396C138.623 99.9662 138.282 100.223 137.825 100.41C137.377 100.596 136.84 100.69 136.215 100.69Z" fill="#4F5665"/>
<path d="M11.3542 140.28C11.2229 140.28 11.0929 140.254 10.9716 140.204C10.8503 140.154 10.74 140.08 10.6472 139.988L6.40521 135.745C6.30964 135.652 6.23338 135.542 6.18089 135.42C6.12839 135.298 6.10072 135.167 6.09947 135.034C6.09822 134.901 6.12343 134.77 6.17363 134.647C6.22382 134.524 6.29799 134.412 6.39182 134.318C6.48565 134.224 6.59724 134.15 6.7201 134.1C6.84296 134.049 6.97462 134.024 7.1074 134.025C7.24018 134.026 7.37142 134.053 7.49346 134.106C7.6155 134.158 7.7259 134.234 7.81821 134.33L11.3532 137.865L17.7182 131.502C17.9057 131.314 18.1601 131.208 18.4254 131.208C18.6906 131.208 18.9451 131.314 19.1327 131.501C19.3204 131.689 19.4258 131.943 19.4259 132.208C19.426 132.473 19.3207 132.728 19.1332 132.916L12.0612 139.988C11.9684 140.08 11.8582 140.154 11.7368 140.204C11.6155 140.254 11.4855 140.28 11.3542 140.28Z" fill="#2FAB73"/>
<path d="M48.0018 140.55C47.7591 140.55 47.6144 140.424 47.5678 140.172L45.7618 131.184C45.7524 131.137 45.7478 131.086 45.7478 131.03C45.7478 130.955 45.7758 130.89 45.8318 130.834C45.8878 130.778 45.9531 130.75 46.0278 130.75H46.7558C46.9518 130.75 47.0638 130.829 47.0918 130.988L48.5198 138.212L50.0318 133.256C50.1158 133.032 50.2651 132.92 50.4798 132.92H50.9978C51.1191 132.92 51.2124 132.952 51.2778 133.018C51.3524 133.083 51.4038 133.162 51.4318 133.256L52.9578 138.212L54.3718 130.988C54.3998 130.829 54.5164 130.75 54.7218 130.75H55.4498C55.5244 130.75 55.5898 130.778 55.6458 130.834C55.7018 130.89 55.7298 130.955 55.7298 131.03L55.7158 131.184L53.9098 140.172C53.8538 140.424 53.7091 140.55 53.4758 140.55H52.9298C52.6871 140.55 52.5331 140.433 52.4678 140.2L50.7318 134.866L49.0098 140.2C48.9351 140.433 48.7811 140.55 48.5478 140.55H48.0018ZM60.0599 140.69C59.0333 140.69 58.2353 140.4 57.6659 139.822C57.1059 139.243 56.8073 138.473 56.7699 137.512L56.7559 136.91L56.7699 136.308C56.8073 135.356 57.1106 134.59 57.6799 134.012C58.2493 133.424 59.0426 133.13 60.0599 133.13C61.0773 133.13 61.8706 133.424 62.4399 134.012C63.0093 134.59 63.3126 135.356 63.3499 136.308C63.3593 136.41 63.3639 136.611 63.3639 136.91C63.3639 137.208 63.3593 137.409 63.3499 137.512C63.3126 138.473 63.0093 139.243 62.4399 139.822C61.8799 140.4 61.0866 140.69 60.0599 140.69ZM60.0599 139.612C60.6479 139.612 61.1099 139.425 61.4459 139.052C61.7913 138.678 61.9779 138.142 62.0059 137.442C62.0153 137.348 62.0199 137.171 62.0199 136.91C62.0199 136.648 62.0153 136.471 62.0059 136.378C61.9779 135.678 61.7913 135.141 61.4459 134.768C61.1099 134.394 60.6479 134.208 60.0599 134.208C59.4719 134.208 59.0053 134.394 58.6599 134.768C58.3146 135.141 58.1326 135.678 58.1139 136.378L58.0999 136.91L58.1139 137.442C58.1326 138.142 58.3146 138.678 58.6599 139.052C59.0053 139.425 59.4719 139.612 60.0599 139.612ZM65.439 140.55C65.3457 140.55 65.2663 140.522 65.201 140.466C65.145 140.4 65.117 140.321 65.117 140.228V133.606C65.117 133.512 65.145 133.433 65.201 133.368C65.2663 133.302 65.3457 133.27 65.439 133.27H66.083C66.1763 133.27 66.2557 133.302 66.321 133.368C66.3863 133.433 66.419 133.512 66.419 133.606V134.222C66.8017 133.587 67.455 133.27 68.379 133.27H68.925C69.0183 133.27 69.093 133.302 69.149 133.368C69.2143 133.424 69.247 133.498 69.247 133.592V134.166C69.247 134.259 69.2143 134.334 69.149 134.39C69.093 134.446 69.0183 134.474 68.925 134.474H68.085C67.581 134.474 67.1843 134.623 66.895 134.922C66.6057 135.211 66.461 135.608 66.461 136.112V140.228C66.461 140.321 66.4283 140.4 66.363 140.466C66.2977 140.522 66.2183 140.55 66.125 140.55H65.439ZM70.7714 140.55C70.678 140.55 70.5987 140.522 70.5334 140.466C70.4774 140.4 70.4494 140.321 70.4494 140.228V130.932C70.4494 130.838 70.4774 130.764 70.5334 130.708C70.5987 130.642 70.678 130.61 70.7714 130.61H71.4294C71.5227 130.61 71.5974 130.642 71.6534 130.708C71.7187 130.764 71.7514 130.838 71.7514 130.932V135.804L74.5094 133.508C74.5374 133.489 74.584 133.452 74.6494 133.396C74.7147 133.349 74.7754 133.316 74.8314 133.298C74.8967 133.279 74.976 133.27 75.0694 133.27H75.8114C75.8954 133.27 75.9654 133.298 76.0214 133.354C76.0774 133.41 76.1054 133.48 76.1054 133.564C76.1054 133.666 76.0494 133.755 75.9374 133.83L72.7034 136.518L76.2874 140.004C76.3994 140.097 76.4554 140.181 76.4554 140.256C76.4554 140.34 76.4274 140.41 76.3714 140.466C76.3154 140.522 76.2454 140.55 76.1614 140.55H75.4334C75.2934 140.55 75.1907 140.536 75.1254 140.508C75.0694 140.48 74.9854 140.414 74.8734 140.312L71.7514 137.33V140.228C71.7514 140.321 71.7187 140.4 71.6534 140.466C71.5974 140.522 71.5227 140.55 71.4294 140.55H70.7714ZM80.0374 140.69C79.3841 140.69 78.8334 140.587 78.3854 140.382C77.9467 140.167 77.6154 139.924 77.3914 139.654C77.1767 139.383 77.0694 139.159 77.0694 138.982C77.0694 138.888 77.1021 138.818 77.1674 138.772C77.2421 138.716 77.3167 138.688 77.3914 138.688H78.0214C78.1147 138.688 78.1987 138.734 78.2734 138.828C78.4974 139.089 78.7401 139.294 79.0014 139.444C79.2627 139.593 79.6127 139.668 80.0514 139.668C80.5367 139.668 80.9287 139.574 81.2274 139.388C81.5354 139.192 81.6894 138.926 81.6894 138.59C81.6894 138.366 81.6241 138.184 81.4934 138.044C81.3721 137.894 81.1574 137.768 80.8494 137.666C80.5507 137.554 80.1027 137.432 79.5054 137.302C78.6934 137.124 78.1147 136.868 77.7694 136.532C77.4334 136.196 77.2654 135.762 77.2654 135.23C77.2654 134.875 77.3681 134.539 77.5734 134.222C77.7881 133.895 78.0961 133.634 78.4974 133.438C78.9081 133.232 79.3981 133.13 79.9674 133.13C80.5647 133.13 81.0734 133.228 81.4934 133.424C81.9134 133.62 82.2261 133.853 82.4314 134.124C82.6461 134.385 82.7534 134.604 82.7534 134.782C82.7534 134.866 82.7207 134.936 82.6554 134.992C82.5994 135.048 82.5294 135.076 82.4454 135.076H81.8574C81.7454 135.076 81.6521 135.029 81.5774 134.936C81.4281 134.758 81.2974 134.623 81.1854 134.53C81.0827 134.427 80.9287 134.338 80.7234 134.264C80.5274 134.189 80.2754 134.152 79.9674 134.152C79.5194 134.152 79.1741 134.25 78.9314 134.446C78.6887 134.632 78.5674 134.88 78.5674 135.188C78.5674 135.384 78.6187 135.552 78.7214 135.692C78.8241 135.822 79.0201 135.944 79.3094 136.056C79.6081 136.168 80.0374 136.284 80.5974 136.406C81.4841 136.592 82.1094 136.863 82.4734 137.218C82.8467 137.563 83.0334 138.006 83.0334 138.548C83.0334 138.949 82.9167 139.313 82.6834 139.64C82.4501 139.966 82.1047 140.223 81.6474 140.41C81.1994 140.596 80.6627 140.69 80.0374 140.69ZM91.0677 140.69C90.0411 140.69 89.2431 140.4 88.6737 139.822C88.1137 139.243 87.8151 138.473 87.7777 137.512L87.7637 136.91L87.7777 136.308C87.8151 135.356 88.1184 134.59 88.6877 134.012C89.2571 133.424 90.0504 133.13 91.0677 133.13C92.0851 133.13 92.8784 133.424 93.4477 134.012C94.0171 134.59 94.3204 135.356 94.3577 136.308C94.3671 136.41 94.3717 136.611 94.3717 136.91C94.3717 137.208 94.3671 137.409 94.3577 137.512C94.3204 138.473 94.0171 139.243 93.4477 139.822C92.8877 140.4 92.0944 140.69 91.0677 140.69ZM91.0677 139.612C91.6557 139.612 92.1177 139.425 92.4537 139.052C92.7991 138.678 92.9857 138.142 93.0137 137.442C93.0231 137.348 93.0277 137.171 93.0277 136.91C93.0277 136.648 93.0231 136.471 93.0137 136.378C92.9857 135.678 92.7991 135.141 92.4537 134.768C92.1177 134.394 91.6557 134.208 91.0677 134.208C90.4797 134.208 90.0131 134.394 89.6677 134.768C89.3224 135.141 89.1404 135.678 89.1217 136.378L89.1077 136.91L89.1217 137.442C89.1404 138.142 89.3224 138.678 89.6677 139.052C90.0131 139.425 90.4797 139.612 91.0677 139.612ZM96.4468 140.55C96.3535 140.55 96.2741 140.522 96.2088 140.466C96.1528 140.4 96.1248 140.321 96.1248 140.228V133.592C96.1248 133.498 96.1528 133.424 96.2088 133.368C96.2741 133.302 96.3535 133.27 96.4468 133.27H97.1048C97.1981 133.27 97.2728 133.302 97.3288 133.368C97.3941 133.424 97.4268 133.498 97.4268 133.592V134.208C97.6975 133.862 98.0148 133.596 98.3788 133.41C98.7521 133.223 99.2141 133.13 99.7648 133.13C100.661 133.13 101.356 133.419 101.851 133.998C102.355 134.567 102.607 135.328 102.607 136.28V140.228C102.607 140.321 102.574 140.4 102.509 140.466C102.453 140.522 102.378 140.55 102.285 140.55H101.585C101.491 140.55 101.412 140.522 101.347 140.466C101.291 140.4 101.263 140.321 101.263 140.228V136.35C101.263 135.687 101.099 135.174 100.773 134.81C100.455 134.446 99.9935 134.264 99.3868 134.264C98.7988 134.264 98.3321 134.45 97.9868 134.824C97.6415 135.188 97.4688 135.696 97.4688 136.35V140.228C97.4688 140.321 97.4361 140.4 97.3708 140.466C97.3148 140.522 97.2401 140.55 97.1468 140.55H96.4468ZM107.202 140.55C107.127 140.55 107.062 140.522 107.006 140.466C106.95 140.41 106.922 140.344 106.922 140.27C106.922 140.195 106.926 140.144 106.936 140.116L110.408 131.058C110.482 130.852 110.632 130.75 110.856 130.75H111.808C112.032 130.75 112.181 130.852 112.256 131.058L115.714 140.116L115.742 140.27C115.742 140.344 115.714 140.41 115.658 140.466C115.602 140.522 115.536 140.55 115.462 140.55H114.748C114.645 140.55 114.566 140.526 114.51 140.48C114.454 140.424 114.416 140.368 114.398 140.312L113.628 138.324H109.036L108.266 140.312C108.247 140.368 108.205 140.424 108.14 140.48C108.084 140.526 108.009 140.55 107.916 140.55H107.202ZM113.222 137.12L111.332 132.15L109.442 137.12H113.222ZM117.392 140.55C117.299 140.55 117.22 140.522 117.154 140.466C117.098 140.4 117.07 140.321 117.07 140.228V130.932C117.07 130.838 117.098 130.764 117.154 130.708C117.22 130.642 117.299 130.61 117.392 130.61H118.05C118.144 130.61 118.218 130.642 118.274 130.708C118.34 130.764 118.372 130.838 118.372 130.932V140.228C118.372 140.321 118.34 140.4 118.274 140.466C118.218 140.522 118.144 140.55 118.05 140.55H117.392ZM120.797 140.55C120.703 140.55 120.624 140.522 120.559 140.466C120.503 140.4 120.475 140.321 120.475 140.228V130.932C120.475 130.838 120.503 130.764 120.559 130.708C120.624 130.642 120.703 130.61 120.797 130.61H121.455C121.548 130.61 121.623 130.642 121.679 130.708C121.744 130.764 121.777 130.838 121.777 130.932V140.228C121.777 140.321 121.744 140.4 121.679 140.466C121.623 140.522 121.548 140.55 121.455 140.55H120.797ZM127.801 140.55C127.707 140.55 127.628 140.522 127.563 140.466C127.507 140.4 127.479 140.321 127.479 140.228V131.086C127.479 130.983 127.507 130.904 127.563 130.848C127.628 130.782 127.707 130.75 127.801 130.75H130.979C132.388 130.75 133.405 131.067 134.031 131.702C134.656 132.327 134.983 133.274 135.011 134.544C135.02 134.814 135.025 135.178 135.025 135.636C135.025 136.093 135.02 136.462 135.011 136.742C134.983 137.628 134.833 138.352 134.563 138.912C134.301 139.462 133.886 139.873 133.317 140.144C132.747 140.414 131.991 140.55 131.049 140.55H127.801ZM130.979 139.36C131.623 139.36 132.131 139.271 132.505 139.094C132.887 138.916 133.163 138.636 133.331 138.254C133.508 137.862 133.606 137.339 133.625 136.686C133.643 136.126 133.653 135.776 133.653 135.636C133.653 135.486 133.643 135.141 133.625 134.6C133.606 133.676 133.387 133.004 132.967 132.584C132.547 132.154 131.861 131.94 130.909 131.94H128.851V139.36H130.979ZM139.861 140.69C138.9 140.69 138.13 140.396 137.551 139.808C136.982 139.21 136.669 138.398 136.613 137.372L136.599 136.896L136.613 136.434C136.678 135.426 136.996 134.623 137.565 134.026C138.144 133.428 138.904 133.13 139.847 133.13C140.883 133.13 141.686 133.461 142.255 134.124C142.824 134.777 143.109 135.664 143.109 136.784V137.022C143.109 137.115 143.076 137.194 143.011 137.26C142.955 137.316 142.88 137.344 142.787 137.344H137.943V137.47C137.971 138.076 138.153 138.594 138.489 139.024C138.834 139.444 139.287 139.654 139.847 139.654C140.276 139.654 140.626 139.57 140.897 139.402C141.177 139.224 141.382 139.042 141.513 138.856C141.597 138.744 141.658 138.678 141.695 138.66C141.742 138.632 141.821 138.618 141.933 138.618H142.619C142.703 138.618 142.773 138.641 142.829 138.688C142.885 138.734 142.913 138.8 142.913 138.884C142.913 139.089 142.782 139.336 142.521 139.626C142.269 139.915 141.91 140.167 141.443 140.382C140.986 140.587 140.458 140.69 139.861 140.69ZM141.779 136.378V136.336C141.779 135.692 141.602 135.169 141.247 134.768C140.902 134.357 140.435 134.152 139.847 134.152C139.259 134.152 138.792 134.357 138.447 134.768C138.111 135.169 137.943 135.692 137.943 136.336V136.378H141.779ZM147.071 140.55C146.828 140.55 146.656 140.433 146.553 140.2L143.963 133.704L143.935 133.564C143.935 133.48 143.963 133.41 144.019 133.354C144.075 133.298 144.145 133.27 144.229 133.27H144.901C145.06 133.27 145.176 133.349 145.251 133.508L147.379 139.024L149.507 133.508C149.591 133.349 149.703 133.27 149.843 133.27H150.529C150.604 133.27 150.669 133.298 150.725 133.354C150.79 133.41 150.823 133.48 150.823 133.564L150.795 133.704L148.191 140.2C148.088 140.433 147.916 140.55 147.673 140.55H147.071ZM152.499 131.912C152.406 131.912 152.326 131.884 152.261 131.828C152.205 131.762 152.177 131.683 152.177 131.59V130.834C152.177 130.74 152.205 130.661 152.261 130.596C152.326 130.53 152.406 130.498 152.499 130.498H153.381C153.474 130.498 153.554 130.53 153.619 130.596C153.684 130.661 153.717 130.74 153.717 130.834V131.59C153.717 131.683 153.684 131.762 153.619 131.828C153.554 131.884 153.474 131.912 153.381 131.912H152.499ZM152.611 140.55C152.518 140.55 152.438 140.522 152.373 140.466C152.317 140.4 152.289 140.321 152.289 140.228V133.592C152.289 133.498 152.317 133.424 152.373 133.368C152.438 133.302 152.518 133.27 152.611 133.27H153.283C153.376 133.27 153.451 133.302 153.507 133.368C153.572 133.424 153.605 133.498 153.605 133.592V140.228C153.605 140.321 153.572 140.4 153.507 140.466C153.451 140.522 153.376 140.55 153.283 140.55H152.611ZM158.619 140.69C157.621 140.69 156.837 140.41 156.267 139.85C155.707 139.28 155.409 138.487 155.371 137.47L155.357 136.91L155.371 136.35C155.409 135.332 155.707 134.544 156.267 133.984C156.837 133.414 157.621 133.13 158.619 133.13C159.291 133.13 159.861 133.251 160.327 133.494C160.794 133.736 161.139 134.035 161.363 134.39C161.597 134.744 161.723 135.099 161.741 135.454C161.751 135.547 161.723 135.622 161.657 135.678C161.592 135.734 161.513 135.762 161.419 135.762H160.747C160.654 135.762 160.584 135.743 160.537 135.706C160.491 135.668 160.444 135.594 160.397 135.482C160.239 135.034 160.015 134.716 159.725 134.53C159.436 134.334 159.072 134.236 158.633 134.236C158.055 134.236 157.593 134.418 157.247 134.782C156.911 135.136 156.729 135.682 156.701 136.42L156.687 136.924L156.701 137.4C156.729 138.146 156.911 138.697 157.247 139.052C157.583 139.406 158.045 139.584 158.633 139.584C159.072 139.584 159.436 139.49 159.725 139.304C160.015 139.108 160.239 138.786 160.397 138.338C160.444 138.226 160.491 138.151 160.537 138.114C160.584 138.067 160.654 138.044 160.747 138.044H161.419C161.513 138.044 161.592 138.076 161.657 138.142C161.723 138.198 161.751 138.272 161.741 138.366C161.723 138.711 161.597 139.066 161.363 139.43C161.139 139.784 160.794 140.083 160.327 140.326C159.87 140.568 159.301 140.69 158.619 140.69ZM166.316 140.69C165.355 140.69 164.585 140.396 164.006 139.808C163.437 139.21 163.124 138.398 163.068 137.372L163.054 136.896L163.068 136.434C163.133 135.426 163.451 134.623 164.02 134.026C164.599 133.428 165.359 133.13 166.302 133.13C167.338 133.13 168.141 133.461 168.71 134.124C169.279 134.777 169.564 135.664 169.564 136.784V137.022C169.564 137.115 169.531 137.194 169.466 137.26C169.41 137.316 169.335 137.344 169.242 137.344H164.398V137.47C164.426 138.076 164.608 138.594 164.944 139.024C165.289 139.444 165.742 139.654 166.302 139.654C166.731 139.654 167.081 139.57 167.352 139.402C167.632 139.224 167.837 139.042 167.968 138.856C168.052 138.744 168.113 138.678 168.15 138.66C168.197 138.632 168.276 138.618 168.388 138.618H169.074C169.158 138.618 169.228 138.641 169.284 138.688C169.34 138.734 169.368 138.8 169.368 138.884C169.368 139.089 169.237 139.336 168.976 139.626C168.724 139.915 168.365 140.167 167.898 140.382C167.441 140.587 166.913 140.69 166.316 140.69ZM168.234 136.378V136.336C168.234 135.692 168.057 135.169 167.702 134.768C167.357 134.357 166.89 134.152 166.302 134.152C165.714 134.152 165.247 134.357 164.902 134.768C164.566 135.169 164.398 135.692 164.398 136.336V136.378H168.234ZM173.758 140.69C173.105 140.69 172.554 140.587 172.106 140.382C171.667 140.167 171.336 139.924 171.112 139.654C170.897 139.383 170.79 139.159 170.79 138.982C170.79 138.888 170.823 138.818 170.888 138.772C170.963 138.716 171.037 138.688 171.112 138.688H171.742C171.835 138.688 171.919 138.734 171.994 138.828C172.218 139.089 172.461 139.294 172.722 139.444C172.983 139.593 173.333 139.668 173.772 139.668C174.257 139.668 174.649 139.574 174.948 139.388C175.256 139.192 175.41 138.926 175.41 138.59C175.41 138.366 175.345 138.184 175.214 138.044C175.093 137.894 174.878 137.768 174.57 137.666C174.271 137.554 173.823 137.432 173.226 137.302C172.414 137.124 171.835 136.868 171.49 136.532C171.154 136.196 170.986 135.762 170.986 135.23C170.986 134.875 171.089 134.539 171.294 134.222C171.509 133.895 171.817 133.634 172.218 133.438C172.629 133.232 173.119 133.13 173.688 133.13C174.285 133.13 174.794 133.228 175.214 133.424C175.634 133.62 175.947 133.853 176.152 134.124C176.367 134.385 176.474 134.604 176.474 134.782C176.474 134.866 176.441 134.936 176.376 134.992C176.32 135.048 176.25 135.076 176.166 135.076H175.578C175.466 135.076 175.373 135.029 175.298 134.936C175.149 134.758 175.018 134.623 174.906 134.53C174.803 134.427 174.649 134.338 174.444 134.264C174.248 134.189 173.996 134.152 173.688 134.152C173.24 134.152 172.895 134.25 172.652 134.446C172.409 134.632 172.288 134.88 172.288 135.188C172.288 135.384 172.339 135.552 172.442 135.692C172.545 135.822 172.741 135.944 173.03 136.056C173.329 136.168 173.758 136.284 174.318 136.406C175.205 136.592 175.83 136.863 176.194 137.218C176.567 137.563 176.754 138.006 176.754 138.548C176.754 138.949 176.637 139.313 176.404 139.64C176.171 139.966 175.825 140.223 175.368 140.41C174.92 140.596 174.383 140.69 173.758 140.69Z" fill="#4F5665"/>
<path d="M50.0458 20.6896C48.8418 20.6896 47.9084 20.3676 47.2458 19.7236C46.5924 19.0702 46.2658 18.0856 46.2658 16.7696V11.0856C46.2658 10.9829 46.2938 10.9036 46.3498 10.8476C46.4151 10.7822 46.4944 10.7496 46.5878 10.7496H47.3018C47.4044 10.7496 47.4838 10.7822 47.5398 10.8476C47.6051 10.9036 47.6378 10.9829 47.6378 11.0856V16.7976C47.6378 17.6936 47.8478 18.3656 48.2678 18.8136C48.6878 19.2616 49.2804 19.4856 50.0458 19.4856C50.8111 19.4856 51.4038 19.2616 51.8238 18.8136C52.2438 18.3656 52.4538 17.6936 52.4538 16.7976V11.0856C52.4538 10.9829 52.4818 10.9036 52.5378 10.8476C52.6031 10.7822 52.6824 10.7496 52.7758 10.7496H53.5038C53.5971 10.7496 53.6718 10.7822 53.7278 10.8476C53.7931 10.9129 53.8258 10.9922 53.8258 11.0856V16.7696C53.8258 18.0856 53.4944 19.0702 52.8318 19.7236C52.1784 20.3676 51.2498 20.6896 50.0458 20.6896ZM56.3062 20.5496C56.2128 20.5496 56.1335 20.5216 56.0682 20.4656C56.0122 20.4002 55.9842 20.3209 55.9842 20.2276V13.5916C55.9842 13.4982 56.0122 13.4236 56.0682 13.3676C56.1335 13.3022 56.2128 13.2696 56.3062 13.2696H56.9642C57.0575 13.2696 57.1322 13.3022 57.1882 13.3676C57.2535 13.4236 57.2862 13.4982 57.2862 13.5916V14.2076C57.5568 13.8622 57.8742 13.5962 58.2382 13.4096C58.6115 13.2229 59.0735 13.1296 59.6242 13.1296C60.5202 13.1296 61.2155 13.4189 61.7102 13.9976C62.2142 14.5669 62.4662 15.3276 62.4662 16.2796V20.2276C62.4662 20.3209 62.4335 20.4002 62.3682 20.4656C62.3122 20.5216 62.2375 20.5496 62.1442 20.5496H61.4442C61.3508 20.5496 61.2715 20.5216 61.2062 20.4656C61.1502 20.4002 61.1222 20.3209 61.1222 20.2276V16.3496C61.1222 15.6869 60.9588 15.1736 60.6322 14.8096C60.3148 14.4456 59.8528 14.2636 59.2462 14.2636C58.6582 14.2636 58.1915 14.4502 57.8462 14.8236C57.5008 15.1876 57.3282 15.6962 57.3282 16.3496V20.2276C57.3282 20.3209 57.2955 20.4002 57.2302 20.4656C57.1742 20.5216 57.0995 20.5496 57.0062 20.5496H56.3062ZM64.8104 20.5496C64.7171 20.5496 64.6377 20.5216 64.5724 20.4656C64.5164 20.4002 64.4884 20.3209 64.4884 20.2276V10.9316C64.4884 10.8382 64.5164 10.7636 64.5724 10.7076C64.6377 10.6422 64.7171 10.6096 64.8104 10.6096H65.4684C65.5617 10.6096 65.6364 10.6422 65.6924 10.7076C65.7577 10.7636 65.7904 10.8382 65.7904 10.9316V20.2276C65.7904 20.3209 65.7577 20.4002 65.6924 20.4656C65.6364 20.5216 65.5617 20.5496 65.4684 20.5496H64.8104ZM68.0887 11.9116C67.9954 11.9116 67.916 11.8836 67.8507 11.8276C67.7947 11.7622 67.7667 11.6829 67.7667 11.5896V10.8336C67.7667 10.7402 67.7947 10.6609 67.8507 10.5956C67.916 10.5302 67.9954 10.4976 68.0887 10.4976H68.9707C69.064 10.4976 69.1434 10.5302 69.2087 10.5956C69.274 10.6609 69.3067 10.7402 69.3067 10.8336V11.5896C69.3067 11.6829 69.274 11.7622 69.2087 11.8276C69.1434 11.8836 69.064 11.9116 68.9707 11.9116H68.0887ZM68.2007 20.5496C68.1074 20.5496 68.028 20.5216 67.9627 20.4656C67.9067 20.4002 67.8787 20.3209 67.8787 20.2276V13.5916C67.8787 13.4982 67.9067 13.4236 67.9627 13.3676C68.028 13.3022 68.1074 13.2696 68.2007 13.2696H68.8727C68.966 13.2696 69.0407 13.3022 69.0967 13.3676C69.162 13.4236 69.1947 13.4982 69.1947 13.5916V20.2276C69.1947 20.3209 69.162 20.4002 69.0967 20.4656C69.0407 20.5216 68.966 20.5496 68.8727 20.5496H68.2007ZM71.5913 20.5496C71.498 20.5496 71.4187 20.5216 71.3533 20.4656C71.2973 20.4002 71.2693 20.3209 71.2693 20.2276V13.5916C71.2693 13.4982 71.2973 13.4236 71.3533 13.3676C71.4187 13.3022 71.498 13.2696 71.5913 13.2696H72.2213C72.3147 13.2696 72.3893 13.3022 72.4453 13.3676C72.5107 13.4236 72.5433 13.4982 72.5433 13.5916V14.0816C73.0287 13.4469 73.7053 13.1296 74.5733 13.1296C75.6093 13.1296 76.342 13.5589 76.7713 14.4176C76.9953 14.0256 77.3127 13.7129 77.7233 13.4796C78.134 13.2462 78.596 13.1296 79.1093 13.1296C79.8747 13.1296 80.5 13.3909 80.9853 13.9136C81.4707 14.4362 81.7133 15.1922 81.7133 16.1816V20.2276C81.7133 20.3209 81.6807 20.4002 81.6153 20.4656C81.5593 20.5216 81.4847 20.5496 81.3913 20.5496H80.7333C80.64 20.5496 80.5607 20.5216 80.4953 20.4656C80.4393 20.4002 80.4113 20.3209 80.4113 20.2276V16.3076C80.4113 15.5796 80.2573 15.0569 79.9493 14.7396C79.6507 14.4222 79.254 14.2636 78.7593 14.2636C78.3207 14.2636 77.9427 14.4269 77.6253 14.7536C77.308 15.0709 77.1493 15.5889 77.1493 16.3076V20.2276C77.1493 20.3209 77.1167 20.4002 77.0513 20.4656C76.9953 20.5216 76.9207 20.5496 76.8273 20.5496H76.1693C76.076 20.5496 75.9967 20.5216 75.9313 20.4656C75.8753 20.4002 75.8473 20.3209 75.8473 20.2276V16.3076C75.8473 15.5796 75.6887 15.0569 75.3713 14.7396C75.0633 14.4222 74.6713 14.2636 74.1953 14.2636C73.7567 14.2636 73.3787 14.4269 73.0613 14.7536C72.744 15.0709 72.5853 15.5842 72.5853 16.2936V20.2276C72.5853 20.3209 72.5527 20.4002 72.4873 20.4656C72.4313 20.5216 72.3567 20.5496 72.2633 20.5496H71.5913ZM83.9207 11.9116C83.8274 11.9116 83.7481 11.8836 83.6827 11.8276C83.6267 11.7622 83.5987 11.6829 83.5987 11.5896V10.8336C83.5987 10.7402 83.6267 10.6609 83.6827 10.5956C83.7481 10.5302 83.8274 10.4976 83.9207 10.4976H84.8027C84.8961 10.4976 84.9754 10.5302 85.0407 10.5956C85.1061 10.6609 85.1387 10.7402 85.1387 10.8336V11.5896C85.1387 11.6829 85.1061 11.7622 85.0407 11.8276C84.9754 11.8836 84.8961 11.9116 84.8027 11.9116H83.9207ZM84.0327 20.5496C83.9394 20.5496 83.8601 20.5216 83.7947 20.4656C83.7387 20.4002 83.7107 20.3209 83.7107 20.2276V13.5916C83.7107 13.4982 83.7387 13.4236 83.7947 13.3676C83.8601 13.3022 83.9394 13.2696 84.0327 13.2696H84.7047C84.7981 13.2696 84.8727 13.3022 84.9287 13.3676C84.9941 13.4236 85.0267 13.4982 85.0267 13.5916V20.2276C85.0267 20.3209 84.9941 20.4002 84.9287 20.4656C84.8727 20.5216 84.7981 20.5496 84.7047 20.5496H84.0327ZM89.9434 20.5496C88.4687 20.5496 87.7314 19.7282 87.7314 18.0856V14.3896H86.6394C86.546 14.3896 86.4667 14.3616 86.4014 14.3056C86.3454 14.2402 86.3174 14.1609 86.3174 14.0676V13.5916C86.3174 13.4982 86.3454 13.4236 86.4014 13.3676C86.4667 13.3022 86.546 13.2696 86.6394 13.2696H87.7314V10.9316C87.7314 10.8382 87.7594 10.7636 87.8154 10.7076C87.8807 10.6422 87.96 10.6096 88.0534 10.6096H88.7114C88.8047 10.6096 88.8794 10.6422 88.9354 10.7076C89.0007 10.7636 89.0334 10.8382 89.0334 10.9316V13.2696H90.7694C90.8627 13.2696 90.9374 13.3022 90.9934 13.3676C91.0587 13.4236 91.0914 13.4982 91.0914 13.5916V14.0676C91.0914 14.1609 91.0587 14.2402 90.9934 14.3056C90.9374 14.3616 90.8627 14.3896 90.7694 14.3896H89.0334V17.9876C89.0334 18.4542 89.1127 18.8089 89.2714 19.0516C89.43 19.2849 89.6914 19.4016 90.0554 19.4016H90.9094C91.0027 19.4016 91.0774 19.4342 91.1334 19.4996C91.1987 19.5556 91.2314 19.6302 91.2314 19.7236V20.2276C91.2314 20.3209 91.1987 20.4002 91.1334 20.4656C91.0774 20.5216 91.0027 20.5496 90.9094 20.5496H89.9434ZM95.4821 20.6896C94.5208 20.6896 93.7508 20.3956 93.1721 19.8076C92.6028 19.2102 92.2901 18.3982 92.2341 17.3716L92.2201 16.8956L92.2341 16.4336C92.2995 15.4256 92.6168 14.6229 93.1861 14.0256C93.7648 13.4282 94.5255 13.1296 95.4681 13.1296C96.5041 13.1296 97.3068 13.4609 97.8761 14.1236C98.4455 14.7769 98.7301 15.6636 98.7301 16.7836V17.0216C98.7301 17.1149 98.6975 17.1942 98.6321 17.2596C98.5761 17.3156 98.5015 17.3436 98.4081 17.3436H93.5641V17.4696C93.5921 18.0762 93.7741 18.5942 94.1101 19.0236C94.4555 19.4436 94.9081 19.6536 95.4681 19.6536C95.8975 19.6536 96.2475 19.5696 96.5181 19.4016C96.7981 19.2242 97.0035 19.0422 97.1341 18.8556C97.2181 18.7436 97.2788 18.6782 97.3161 18.6596C97.3628 18.6316 97.4421 18.6176 97.5541 18.6176H98.2401C98.3241 18.6176 98.3941 18.6409 98.4501 18.6876C98.5061 18.7342 98.5341 18.7996 98.5341 18.8836C98.5341 19.0889 98.4035 19.3362 98.1421 19.6256C97.8901 19.9149 97.5308 20.1669 97.0641 20.3816C96.6068 20.5869 96.0795 20.6896 95.4821 20.6896ZM97.4001 16.3776V16.3356C97.4001 15.6916 97.2228 15.1689 96.8681 14.7676C96.5228 14.3569 96.0561 14.1516 95.4681 14.1516C94.8801 14.1516 94.4135 14.3569 94.0681 14.7676C93.7321 15.1689 93.5641 15.6916 93.5641 16.3356V16.3776H97.4001ZM103.064 20.6896C102.093 20.6896 101.361 20.3722 100.866 19.7376C100.371 19.1029 100.11 18.3002 100.082 17.3296L100.068 16.9096L100.082 16.4896C100.11 15.5282 100.371 14.7302 100.866 14.0956C101.361 13.4516 102.093 13.1296 103.064 13.1296C104.025 13.1296 104.781 13.4702 105.332 14.1516V10.9316C105.332 10.8382 105.36 10.7636 105.416 10.7076C105.481 10.6422 105.561 10.6096 105.654 10.6096H106.326C106.419 10.6096 106.494 10.6422 106.55 10.7076C106.615 10.7636 106.648 10.8382 106.648 10.9316V20.2276C106.648 20.3209 106.615 20.4002 106.55 20.4656C106.494 20.5216 106.419 20.5496 106.326 20.5496H105.696C105.603 20.5496 105.523 20.5216 105.458 20.4656C105.402 20.4002 105.374 20.3209 105.374 20.2276V19.6396C104.833 20.3396 104.063 20.6896 103.064 20.6896ZM103.358 19.5556C104.002 19.5556 104.483 19.3456 104.8 18.9256C105.127 18.4962 105.304 17.9876 105.332 17.3996C105.341 17.2969 105.346 17.1196 105.346 16.8676C105.346 16.6062 105.341 16.4242 105.332 16.3216C105.313 15.7709 105.136 15.2902 104.8 14.8796C104.464 14.4689 103.983 14.2636 103.358 14.2636C102.695 14.2636 102.21 14.4689 101.902 14.8796C101.603 15.2902 101.44 15.8316 101.412 16.5036L101.398 16.9096C101.398 18.6736 102.051 19.5556 103.358 19.5556ZM112.666 20.5496C112.573 20.5496 112.493 20.5216 112.428 20.4656C112.372 20.4002 112.344 20.3209 112.344 20.2276V11.0856C112.344 10.9829 112.372 10.9036 112.428 10.8476C112.493 10.7822 112.573 10.7496 112.666 10.7496H116.502C117.501 10.7496 118.252 10.9876 118.756 11.4636C119.26 11.9396 119.512 12.5649 119.512 13.3396C119.512 13.8622 119.391 14.2962 119.148 14.6416C118.915 14.9869 118.635 15.2389 118.308 15.3976C118.7 15.5936 119.031 15.8969 119.302 16.3076C119.573 16.7182 119.708 17.1896 119.708 17.7216C119.708 18.2442 119.587 18.7202 119.344 19.1496C119.111 19.5789 118.761 19.9196 118.294 20.1716C117.827 20.4236 117.267 20.5496 116.614 20.5496H112.666ZM116.292 14.8936C116.88 14.8936 117.328 14.7582 117.636 14.4876C117.953 14.2169 118.112 13.8389 118.112 13.3536C118.112 12.8776 117.958 12.5136 117.65 12.2616C117.342 12.0096 116.889 11.8836 116.292 11.8836H113.716V14.8936H116.292ZM116.432 19.4156C117.02 19.4156 117.477 19.2569 117.804 18.9396C118.14 18.6222 118.308 18.2162 118.308 17.7216C118.308 17.2082 118.14 16.7976 117.804 16.4896C117.477 16.1722 117.02 16.0136 116.432 16.0136H113.716V19.4156H116.432ZM123.543 20.6896C123.086 20.6896 122.661 20.5962 122.269 20.4096C121.877 20.2229 121.565 19.9709 121.331 19.6536C121.107 19.3269 120.995 18.9676 120.995 18.5756C120.995 17.9596 121.247 17.4556 121.751 17.0636C122.265 16.6622 122.955 16.4009 123.823 16.2796L125.909 15.9856V15.5796C125.909 14.6276 125.363 14.1516 124.271 14.1516C123.861 14.1516 123.525 14.2402 123.263 14.4176C123.002 14.5856 122.806 14.7862 122.675 15.0196C122.647 15.1036 122.61 15.1642 122.563 15.2016C122.526 15.2389 122.47 15.2576 122.395 15.2576H121.793C121.709 15.2576 121.635 15.2296 121.569 15.1736C121.513 15.1082 121.485 15.0336 121.485 14.9496C121.495 14.7256 121.597 14.4736 121.793 14.1936C121.999 13.9042 122.311 13.6569 122.731 13.4516C123.151 13.2369 123.669 13.1296 124.285 13.1296C125.331 13.1296 126.082 13.3769 126.539 13.8716C126.997 14.3569 127.225 14.9636 127.225 15.6916V20.2276C127.225 20.3209 127.193 20.4002 127.127 20.4656C127.071 20.5216 126.997 20.5496 126.903 20.5496H126.259C126.166 20.5496 126.087 20.5216 126.021 20.4656C125.965 20.4002 125.937 20.3209 125.937 20.2276V19.6256C125.732 19.9242 125.433 20.1762 125.041 20.3816C124.649 20.5869 124.15 20.6896 123.543 20.6896ZM123.837 19.6396C124.444 19.6396 124.939 19.4436 125.321 19.0516C125.713 18.6502 125.909 18.0762 125.909 17.3296V16.9376L124.285 17.1756C123.623 17.2689 123.123 17.4276 122.787 17.6516C122.451 17.8662 122.283 18.1416 122.283 18.4776C122.283 18.8509 122.437 19.1402 122.745 19.3456C123.053 19.5416 123.417 19.6396 123.837 19.6396ZM129.56 20.5496C129.467 20.5496 129.387 20.5216 129.322 20.4656C129.266 20.4002 129.238 20.3209 129.238 20.2276V13.5916C129.238 13.4982 129.266 13.4236 129.322 13.3676C129.387 13.3022 129.467 13.2696 129.56 13.2696H130.218C130.311 13.2696 130.386 13.3022 130.442 13.3676C130.507 13.4236 130.54 13.4982 130.54 13.5916V14.2076C130.811 13.8622 131.128 13.5962 131.492 13.4096C131.865 13.2229 132.327 13.1296 132.878 13.1296C133.774 13.1296 134.469 13.4189 134.964 13.9976C135.468 14.5669 135.72 15.3276 135.72 16.2796V20.2276C135.72 20.3209 135.687 20.4002 135.622 20.4656C135.566 20.5216 135.491 20.5496 135.398 20.5496H134.698C134.605 20.5496 134.525 20.5216 134.46 20.4656C134.404 20.4002 134.376 20.3209 134.376 20.2276V16.3496C134.376 15.6869 134.213 15.1736 133.886 14.8096C133.569 14.4456 133.107 14.2636 132.5 14.2636C131.912 14.2636 131.445 14.4502 131.1 14.8236C130.755 15.1876 130.582 15.6962 130.582 16.3496V20.2276C130.582 20.3209 130.549 20.4002 130.484 20.4656C130.428 20.5216 130.353 20.5496 130.26 20.5496H129.56ZM140.388 20.6896C139.418 20.6896 138.685 20.3722 138.19 19.7376C137.696 19.1029 137.434 18.3002 137.406 17.3296L137.392 16.9096L137.406 16.4896C137.434 15.5282 137.696 14.7302 138.19 14.0956C138.685 13.4516 139.418 13.1296 140.388 13.1296C141.35 13.1296 142.106 13.4702 142.656 14.1516V10.9316C142.656 10.8382 142.684 10.7636 142.74 10.7076C142.806 10.6422 142.885 10.6096 142.978 10.6096H143.65C143.744 10.6096 143.818 10.6422 143.874 10.7076C143.94 10.7636 143.972 10.8382 143.972 10.9316V20.2276C143.972 20.3209 143.94 20.4002 143.874 20.4656C143.818 20.5216 143.744 20.5496 143.65 20.5496H143.02C142.927 20.5496 142.848 20.5216 142.782 20.4656C142.726 20.4002 142.698 20.3209 142.698 20.2276V19.6396C142.157 20.3396 141.387 20.6896 140.388 20.6896ZM140.682 19.5556C141.326 19.5556 141.807 19.3456 142.124 18.9256C142.451 18.4962 142.628 17.9876 142.656 17.3996C142.666 17.2969 142.67 17.1196 142.67 16.8676C142.67 16.6062 142.666 16.4242 142.656 16.3216C142.638 15.7709 142.46 15.2902 142.124 14.8796C141.788 14.4689 141.308 14.2636 140.682 14.2636C140.02 14.2636 139.534 14.4689 139.226 14.8796C138.928 15.2902 138.764 15.8316 138.736 16.5036L138.722 16.9096C138.722 18.6736 139.376 19.5556 140.682 19.5556ZM147.986 20.5496C147.865 20.5496 147.772 20.5216 147.706 20.4656C147.641 20.4096 147.585 20.3209 147.538 20.1996L145.55 13.7036L145.522 13.5636C145.522 13.4796 145.55 13.4096 145.606 13.3536C145.672 13.2976 145.742 13.2696 145.816 13.2696H146.432C146.526 13.2696 146.6 13.2976 146.656 13.3536C146.722 13.4002 146.764 13.4516 146.782 13.5076L148.336 18.7856L150.002 13.5636C150.021 13.4889 150.063 13.4236 150.128 13.3676C150.194 13.3022 150.282 13.2696 150.394 13.2696H150.87C150.982 13.2696 151.071 13.3022 151.136 13.3676C151.202 13.4236 151.244 13.4889 151.262 13.5636L152.928 18.7856L154.482 13.5076C154.492 13.4609 154.524 13.4096 154.58 13.3536C154.646 13.2976 154.725 13.2696 154.818 13.2696H155.448C155.523 13.2696 155.588 13.2976 155.644 13.3536C155.7 13.4096 155.728 13.4796 155.728 13.5636L155.7 13.7036L153.726 20.1996C153.68 20.3209 153.624 20.4096 153.558 20.4656C153.493 20.5216 153.395 20.5496 153.264 20.5496H152.718C152.466 20.5496 152.312 20.4329 152.256 20.1996L150.632 15.1876L149.008 20.1996C148.934 20.4329 148.775 20.5496 148.532 20.5496H147.986ZM157.489 11.9116C157.396 11.9116 157.316 11.8836 157.251 11.8276C157.195 11.7622 157.167 11.6829 157.167 11.5896V10.8336C157.167 10.7402 157.195 10.6609 157.251 10.5956C157.316 10.5302 157.396 10.4976 157.489 10.4976H158.371C158.464 10.4976 158.544 10.5302 158.609 10.5956C158.674 10.6609 158.707 10.7402 158.707 10.8336V11.5896C158.707 11.6829 158.674 11.7622 158.609 11.8276C158.544 11.8836 158.464 11.9116 158.371 11.9116H157.489ZM157.601 20.5496C157.508 20.5496 157.428 20.5216 157.363 20.4656C157.307 20.4002 157.279 20.3209 157.279 20.2276V13.5916C157.279 13.4982 157.307 13.4236 157.363 13.3676C157.428 13.3022 157.508 13.2696 157.601 13.2696H158.273C158.366 13.2696 158.441 13.3022 158.497 13.3676C158.562 13.4236 158.595 13.4982 158.595 13.5916V20.2276C158.595 20.3209 158.562 20.4002 158.497 20.4656C158.441 20.5216 158.366 20.5496 158.273 20.5496H157.601ZM163.512 20.5496C162.037 20.5496 161.3 19.7282 161.3 18.0856V14.3896H160.208C160.114 14.3896 160.035 14.3616 159.97 14.3056C159.914 14.2402 159.886 14.1609 159.886 14.0676V13.5916C159.886 13.4982 159.914 13.4236 159.97 13.3676C160.035 13.3022 160.114 13.2696 160.208 13.2696H161.3V10.9316C161.3 10.8382 161.328 10.7636 161.384 10.7076C161.449 10.6422 161.528 10.6096 161.622 10.6096H162.28C162.373 10.6096 162.448 10.6422 162.504 10.7076C162.569 10.7636 162.602 10.8382 162.602 10.9316V13.2696H164.338C164.431 13.2696 164.506 13.3022 164.562 13.3676C164.627 13.4236 164.66 13.4982 164.66 13.5916V14.0676C164.66 14.1609 164.627 14.2402 164.562 14.3056C164.506 14.3616 164.431 14.3896 164.338 14.3896H162.602V17.9876C162.602 18.4542 162.681 18.8089 162.84 19.0516C162.998 19.2849 163.26 19.4016 163.624 19.4016H164.478C164.571 19.4016 164.646 19.4342 164.702 19.4996C164.767 19.5556 164.8 19.6302 164.8 19.7236V20.2276C164.8 20.3209 164.767 20.4002 164.702 20.4656C164.646 20.5216 164.571 20.5496 164.478 20.5496H163.512ZM169.078 20.6896C168.08 20.6896 167.296 20.4096 166.726 19.8496C166.166 19.2802 165.868 18.4869 165.83 17.4696L165.816 16.9096L165.83 16.3496C165.868 15.3322 166.166 14.5436 166.726 13.9836C167.296 13.4142 168.08 13.1296 169.078 13.1296C169.75 13.1296 170.32 13.2509 170.786 13.4936C171.253 13.7362 171.598 14.0349 171.822 14.3896C172.056 14.7442 172.182 15.0989 172.2 15.4536C172.21 15.5469 172.182 15.6216 172.116 15.6776C172.051 15.7336 171.972 15.7616 171.878 15.7616H171.206C171.113 15.7616 171.043 15.7429 170.996 15.7056C170.95 15.6682 170.903 15.5936 170.856 15.4816C170.698 15.0336 170.474 14.7162 170.184 14.5296C169.895 14.3336 169.531 14.2356 169.092 14.2356C168.514 14.2356 168.052 14.4176 167.706 14.7816C167.37 15.1362 167.188 15.6822 167.16 16.4196L167.146 16.9236L167.16 17.3996C167.188 18.1462 167.37 18.6969 167.706 19.0516C168.042 19.4062 168.504 19.5836 169.092 19.5836C169.531 19.5836 169.895 19.4902 170.184 19.3036C170.474 19.1076 170.698 18.7856 170.856 18.3376C170.903 18.2256 170.95 18.1509 170.996 18.1136C171.043 18.0669 171.113 18.0436 171.206 18.0436H171.878C171.972 18.0436 172.051 18.0762 172.116 18.1416C172.182 18.1976 172.21 18.2722 172.2 18.3656C172.182 18.7109 172.056 19.0656 171.822 19.4296C171.598 19.7842 171.253 20.0829 170.786 20.3256C170.329 20.5682 169.76 20.6896 169.078 20.6896ZM174.199 20.5496C174.106 20.5496 174.026 20.5216 173.961 20.4656C173.905 20.4002 173.877 20.3209 173.877 20.2276V10.9316C173.877 10.8382 173.905 10.7636 173.961 10.7076C174.026 10.6422 174.106 10.6096 174.199 10.6096H174.899C174.992 10.6096 175.067 10.6422 175.123 10.7076C175.188 10.7636 175.221 10.8382 175.221 10.9316V14.1936C175.492 13.8482 175.809 13.5869 176.173 13.4096C176.537 13.2229 176.99 13.1296 177.531 13.1296C178.427 13.1296 179.122 13.4189 179.617 13.9976C180.121 14.5669 180.373 15.3276 180.373 16.2796V20.2276C180.373 20.3209 180.34 20.4002 180.275 20.4656C180.219 20.5216 180.144 20.5496 180.051 20.5496H179.351C179.258 20.5496 179.178 20.5216 179.113 20.4656C179.057 20.4002 179.029 20.3209 179.029 20.2276V16.3496C179.029 15.6869 178.866 15.1736 178.539 14.8096C178.222 14.4456 177.76 14.2636 177.153 14.2636C176.565 14.2636 176.094 14.4502 175.739 14.8236C175.394 15.1876 175.221 15.6962 175.221 16.3496V20.2276C175.221 20.3209 175.188 20.4002 175.123 20.4656C175.067 20.5216 174.992 20.5496 174.899 20.5496H174.199Z" fill="#4F5665"/>
<path d="M11.4487 20.2795C11.3174 20.2798 11.1874 20.2542 11.0661 20.204C10.9448 20.1539 10.8345 20.0804 10.7417 19.9875L6.4997 15.7445C6.40412 15.6524 6.32786 15.5421 6.27537 15.4201C6.22288 15.2981 6.1952 15.1669 6.19395 15.0342C6.19271 14.9014 6.21792 14.7697 6.26811 14.6468C6.3183 14.5238 6.39248 14.4121 6.4863 14.3182C6.58013 14.2242 6.69173 14.1499 6.81458 14.0995C6.93744 14.0491 7.0691 14.0237 7.20188 14.0248C7.33466 14.0259 7.4659 14.0534 7.58794 14.1057C7.70998 14.158 7.82038 14.2341 7.9127 14.3295L11.4477 17.8645L17.8127 11.5015C18.0002 11.3139 18.2546 11.2084 18.5198 11.2083C18.7851 11.2082 19.0396 11.3135 19.2272 11.501C19.4148 11.6886 19.5203 11.9429 19.5204 12.2082C19.5205 12.4735 19.4152 12.7279 19.2277 12.9155L12.1557 19.9875C12.0629 20.0804 11.9526 20.1539 11.8313 20.204C11.71 20.2542 11.58 20.2798 11.4487 20.2795Z" fill="#2FAB73"/>
</svg>
