<svg width="320" height="169" viewBox="0 0 320 169" fill="none" xmlns="http://www.w3.org/2000/svg">
<g filter="url(#filter0_f)">
<rect x="54.0857" y="54.0571" width="211.829" height="60" rx="10" fill="#F53838" fill-opacity="0.35"/>
</g>
<rect x="35" y="28.7661" width="250" height="60" rx="10" fill="#F53838"/>
<path d="M118.244 64.4261C116.708 64.4261 115.508 64.0528 114.644 63.3061C113.78 62.5488 113.321 61.4768 113.268 60.0901C113.257 59.7808 113.252 59.2901 113.252 58.6181C113.252 57.9461 113.257 57.4554 113.268 57.1461C113.321 55.7914 113.785 54.7461 114.66 54.0101C115.545 53.2741 116.74 52.9061 118.244 52.9061C119.257 52.9061 120.137 53.0714 120.884 53.4021C121.641 53.7328 122.217 54.1541 122.612 54.6661C123.017 55.1781 123.231 55.7061 123.252 56.2501C123.252 56.3461 123.215 56.4261 123.14 56.4901C123.076 56.5541 122.996 56.5861 122.9 56.5861H120.564C120.457 56.5861 120.372 56.5701 120.308 56.5381C120.244 56.5061 120.191 56.4474 120.148 56.3621C120.009 56.0528 119.791 55.7861 119.492 55.5621C119.193 55.3274 118.777 55.2101 118.244 55.2101C116.975 55.2101 116.308 55.8821 116.244 57.2261C116.233 57.5248 116.228 57.9888 116.228 58.6181C116.228 59.2368 116.233 59.7008 116.244 60.0101C116.308 61.4181 116.991 62.1221 118.292 62.1221C118.921 62.1221 119.423 61.9621 119.796 61.6421C120.18 61.3114 120.372 60.8101 120.372 60.1381V59.8341H118.868C118.751 59.8341 118.655 59.7968 118.58 59.7221C118.505 59.6368 118.468 59.5354 118.468 59.4181V58.2341C118.468 58.1168 118.505 58.0208 118.58 57.9461C118.655 57.8608 118.751 57.8181 118.868 57.8181H122.9C123.017 57.8181 123.113 57.8608 123.188 57.9461C123.263 58.0208 123.3 58.1168 123.3 58.2341V60.0581C123.3 60.9648 123.092 61.7488 122.676 62.4101C122.26 63.0608 121.668 63.5621 120.9 63.9141C120.143 64.2554 119.257 64.4261 118.244 64.4261ZM128.8 64.4261C127.52 64.4261 126.512 64.0794 125.776 63.3861C125.04 62.6928 124.656 61.6848 124.624 60.3621V59.8021C124.666 58.5434 125.056 57.5621 125.792 56.8581C126.538 56.1434 127.536 55.7861 128.784 55.7861C129.69 55.7861 130.453 55.9728 131.072 56.3461C131.701 56.7088 132.17 57.2101 132.48 57.8501C132.8 58.4901 132.96 59.2261 132.96 60.0581V60.4421C132.96 60.5488 132.922 60.6448 132.848 60.7301C132.773 60.8048 132.677 60.8421 132.56 60.8421H127.44V60.9541C127.461 61.4554 127.584 61.8608 127.808 62.1701C128.032 62.4794 128.357 62.6341 128.784 62.6341C129.05 62.6341 129.269 62.5808 129.44 62.4741C129.61 62.3568 129.765 62.2181 129.904 62.0581C130 61.9408 130.074 61.8714 130.128 61.8501C130.192 61.8181 130.288 61.8021 130.416 61.8021H132.4C132.496 61.8021 132.576 61.8341 132.64 61.8981C132.714 61.9514 132.752 62.0261 132.752 62.1221C132.752 62.3994 132.592 62.7194 132.272 63.0821C131.962 63.4448 131.509 63.7594 130.912 64.0261C130.314 64.2928 129.61 64.4261 128.8 64.4261ZM130.144 59.2581V59.2261C130.144 58.7034 130.021 58.2928 129.776 57.9941C129.541 57.6848 129.21 57.5301 128.784 57.5301C128.368 57.5301 128.037 57.6848 127.792 57.9941C127.557 58.2928 127.44 58.7034 127.44 59.2261V59.2581H130.144ZM138.684 64.2661C136.476 64.2661 135.372 63.2154 135.372 61.1141V58.0421H134.124C134.007 58.0421 133.906 58.0048 133.82 57.9301C133.746 57.8554 133.708 57.7594 133.708 57.6421V56.3461C133.708 56.2288 133.746 56.1328 133.82 56.0581C133.906 55.9834 134.007 55.9461 134.124 55.9461H135.372V53.3061C135.372 53.1888 135.41 53.0928 135.484 53.0181C135.57 52.9434 135.666 52.9061 135.772 52.9061H137.628C137.746 52.9061 137.842 52.9434 137.916 53.0181C137.991 53.0928 138.028 53.1888 138.028 53.3061V55.9461H140.028C140.146 55.9461 140.242 55.9834 140.316 56.0581C140.402 56.1328 140.444 56.2288 140.444 56.3461V57.6421C140.444 57.7594 140.402 57.8554 140.316 57.9301C140.242 58.0048 140.146 58.0421 140.028 58.0421H138.028V60.8901C138.028 61.6794 138.332 62.0741 138.94 62.0741H140.172C140.29 62.0741 140.386 62.1114 140.46 62.1861C140.535 62.2608 140.572 62.3568 140.572 62.4741V63.8661C140.572 63.9728 140.535 64.0688 140.46 64.1541C140.386 64.2288 140.29 64.2661 140.172 64.2661H138.684ZM149.655 64.4261C148.642 64.4261 147.773 64.2768 147.047 63.9781C146.322 63.6794 145.773 63.2901 145.399 62.8101C145.037 62.3194 144.845 61.7861 144.823 61.2101C144.823 61.1248 144.855 61.0501 144.919 60.9861C144.994 60.9114 145.079 60.8741 145.175 60.8741H147.191C147.319 60.8741 147.421 60.9008 147.495 60.9541C147.581 60.9968 147.666 61.0661 147.751 61.1621C147.89 61.4394 148.114 61.6688 148.423 61.8501C148.733 62.0314 149.143 62.1221 149.655 62.1221C150.263 62.1221 150.727 62.0261 151.047 61.8341C151.367 61.6421 151.527 61.3808 151.527 61.0501C151.527 60.8154 151.442 60.6234 151.271 60.4741C151.111 60.3248 150.855 60.1914 150.503 60.0741C150.151 59.9568 149.629 59.8234 148.935 59.6741C147.655 59.4074 146.695 59.0181 146.055 58.5061C145.426 57.9834 145.111 57.2421 145.111 56.2821C145.111 55.6314 145.293 55.0501 145.655 54.5381C146.018 54.0261 146.535 53.6261 147.207 53.3381C147.879 53.0501 148.663 52.9061 149.559 52.9061C150.487 52.9061 151.293 53.0661 151.975 53.3861C152.658 53.7061 153.175 54.1114 153.527 54.6021C153.89 55.0821 154.082 55.5568 154.103 56.0261C154.103 56.1221 154.071 56.2021 154.007 56.2661C153.943 56.3301 153.863 56.3621 153.767 56.3621H151.655C151.527 56.3621 151.421 56.3408 151.335 56.2981C151.261 56.2554 151.191 56.1861 151.127 56.0901C151.063 55.8448 150.887 55.6368 150.599 55.4661C150.322 55.2954 149.975 55.2101 149.559 55.2101C149.079 55.2101 148.711 55.2954 148.455 55.4661C148.199 55.6368 148.071 55.8874 148.071 56.2181C148.071 56.4421 148.141 56.6288 148.279 56.7781C148.429 56.9274 148.663 57.0661 148.983 57.1941C149.314 57.3114 149.783 57.4341 150.391 57.5621C151.383 57.7434 152.173 57.9728 152.759 58.2501C153.357 58.5168 153.794 58.8688 154.071 59.3061C154.349 59.7328 154.487 60.2714 154.487 60.9221C154.487 61.6368 154.279 62.2608 153.863 62.7941C153.458 63.3168 152.887 63.7221 152.151 64.0101C151.426 64.2874 150.594 64.4261 149.655 64.4261ZM160.169 64.2661C157.961 64.2661 156.857 63.2154 156.857 61.1141V58.0421H155.609C155.491 58.0421 155.39 58.0048 155.305 57.9301C155.23 57.8554 155.193 57.7594 155.193 57.6421V56.3461C155.193 56.2288 155.23 56.1328 155.305 56.0581C155.39 55.9834 155.491 55.9461 155.609 55.9461H156.857V53.3061C156.857 53.1888 156.894 53.0928 156.969 53.0181C157.054 52.9434 157.15 52.9061 157.257 52.9061H159.113C159.23 52.9061 159.326 52.9434 159.401 53.0181C159.475 53.0928 159.513 53.1888 159.513 53.3061V55.9461H161.513C161.63 55.9461 161.726 55.9834 161.801 56.0581C161.886 56.1328 161.929 56.2288 161.929 56.3461V57.6421C161.929 57.7594 161.886 57.8554 161.801 57.9301C161.726 58.0048 161.63 58.0421 161.513 58.0421H159.513V60.8901C159.513 61.6794 159.817 62.0741 160.425 62.0741H161.657C161.774 62.0741 161.87 62.1114 161.945 62.1861C162.019 62.2608 162.057 62.3568 162.057 62.4741V63.8661C162.057 63.9728 162.019 64.0688 161.945 64.1541C161.87 64.2288 161.774 64.2661 161.657 64.2661H160.169ZM165.878 64.4261C165.312 64.4261 164.795 64.3194 164.326 64.1061C163.867 63.8821 163.504 63.5834 163.238 63.2101C162.982 62.8261 162.854 62.4048 162.854 61.9461C162.854 61.2101 163.152 60.6181 163.75 60.1701C164.358 59.7221 165.19 59.4128 166.246 59.2421L168.246 58.9381V58.7141C168.246 58.3088 168.16 58.0101 167.99 57.8181C167.819 57.6261 167.531 57.5301 167.126 57.5301C166.88 57.5301 166.678 57.5728 166.518 57.6581C166.358 57.7434 166.192 57.8608 166.022 58.0101C165.872 58.1381 165.76 58.2234 165.686 58.2661C165.654 58.3514 165.595 58.3941 165.51 58.3941H163.766C163.659 58.3941 163.568 58.3621 163.493 58.2981C163.43 58.2234 163.403 58.1381 163.414 58.0421C163.424 57.7541 163.563 57.4341 163.83 57.0821C164.107 56.7301 164.523 56.4261 165.078 56.1701C165.643 55.9141 166.336 55.7861 167.158 55.7861C168.47 55.7861 169.44 56.0794 170.07 56.6661C170.699 57.2421 171.014 58.0208 171.014 59.0021V63.8661C171.014 63.9728 170.976 64.0688 170.902 64.1541C170.827 64.2288 170.731 64.2661 170.614 64.2661H168.758C168.651 64.2661 168.555 64.2288 168.47 64.1541C168.395 64.0688 168.358 63.9728 168.358 63.8661V63.3061C168.123 63.6368 167.792 63.9088 167.366 64.1221C166.95 64.3248 166.454 64.4261 165.878 64.4261ZM166.63 62.6021C167.12 62.6021 167.515 62.4421 167.814 62.1221C168.123 61.8021 168.278 61.3328 168.278 60.7141V60.4901L166.918 60.7301C165.958 60.9008 165.478 61.2368 165.478 61.7381C165.478 62.0048 165.59 62.2181 165.814 62.3781C166.038 62.5274 166.31 62.6021 166.63 62.6021ZM173.219 64.2661C173.102 64.2661 173.006 64.2288 172.931 64.1541C172.856 64.0794 172.819 63.9834 172.819 63.8661V56.3461C172.819 56.2288 172.856 56.1328 172.931 56.0581C173.006 55.9834 173.102 55.9461 173.219 55.9461H175.059C175.176 55.9461 175.272 55.9888 175.347 56.0741C175.432 56.1488 175.475 56.2394 175.475 56.3461V56.9861C176.062 56.2928 176.851 55.9461 177.843 55.9461H178.547C178.664 55.9461 178.76 55.9834 178.835 56.0581C178.91 56.1328 178.947 56.2288 178.947 56.3461V57.9941C178.947 58.1008 178.91 58.1968 178.835 58.2821C178.76 58.3568 178.664 58.3941 178.547 58.3941H176.995C176.558 58.3941 176.216 58.5168 175.971 58.7621C175.736 58.9968 175.619 59.3328 175.619 59.7701V63.8661C175.619 63.9834 175.576 64.0794 175.491 64.1541C175.416 64.2288 175.32 64.2661 175.203 64.2661H173.219ZM184.341 64.2661C182.133 64.2661 181.029 63.2154 181.029 61.1141V58.0421H179.781C179.663 58.0421 179.562 58.0048 179.477 57.9301C179.402 57.8554 179.365 57.7594 179.365 57.6421V56.3461C179.365 56.2288 179.402 56.1328 179.477 56.0581C179.562 55.9834 179.663 55.9461 179.781 55.9461H181.029V53.3061C181.029 53.1888 181.066 53.0928 181.141 53.0181C181.226 52.9434 181.322 52.9061 181.429 52.9061H183.285C183.402 52.9061 183.498 52.9434 183.573 53.0181C183.647 53.0928 183.685 53.1888 183.685 53.3061V55.9461H185.685C185.802 55.9461 185.898 55.9834 185.973 56.0581C186.058 56.1328 186.101 56.2288 186.101 56.3461V57.6421C186.101 57.7594 186.058 57.8554 185.973 57.9301C185.898 58.0048 185.802 58.0421 185.685 58.0421H183.685V60.8901C183.685 61.6794 183.989 62.0741 184.597 62.0741H185.829C185.946 62.0741 186.042 62.1114 186.117 62.1861C186.191 62.2608 186.229 62.3568 186.229 62.4741V63.8661C186.229 63.9728 186.191 64.0688 186.117 64.1541C186.042 64.2288 185.946 64.2661 185.829 64.2661H184.341ZM191.393 64.4261C190.113 64.4261 189.105 64.0794 188.369 63.3861C187.633 62.6928 187.249 61.6848 187.217 60.3621V59.8021C187.26 58.5434 187.649 57.5621 188.385 56.8581C189.132 56.1434 190.129 55.7861 191.377 55.7861C192.284 55.7861 193.047 55.9728 193.665 56.3461C194.295 56.7088 194.764 57.2101 195.073 57.8501C195.393 58.4901 195.553 59.2261 195.553 60.0581V60.4421C195.553 60.5488 195.516 60.6448 195.441 60.7301C195.367 60.8048 195.271 60.8421 195.153 60.8421H190.033V60.9541C190.055 61.4554 190.177 61.8608 190.401 62.1701C190.625 62.4794 190.951 62.6341 191.377 62.6341C191.644 62.6341 191.863 62.5808 192.033 62.4741C192.204 62.3568 192.359 62.2181 192.497 62.0581C192.593 61.9408 192.668 61.8714 192.721 61.8501C192.785 61.8181 192.881 61.8021 193.009 61.8021H194.993C195.089 61.8021 195.169 61.8341 195.233 61.8981C195.308 61.9514 195.345 62.0261 195.345 62.1221C195.345 62.3994 195.185 62.7194 194.865 63.0821C194.556 63.4448 194.103 63.7594 193.505 64.0261C192.908 64.2928 192.204 64.4261 191.393 64.4261ZM192.737 59.2581V59.2261C192.737 58.7034 192.615 58.2928 192.369 57.9941C192.135 57.6848 191.804 57.5301 191.377 57.5301C190.961 57.5301 190.631 57.6848 190.385 57.9941C190.151 58.2928 190.033 58.7034 190.033 59.2261V59.2581H192.737ZM200.157 64.4261C199.112 64.4261 198.296 64.1008 197.709 63.4501C197.133 62.7888 196.819 61.8608 196.765 60.6661L196.749 60.1061L196.765 59.5301C196.808 58.3781 197.123 57.4661 197.709 56.7941C198.307 56.1221 199.123 55.7861 200.157 55.7861C201.128 55.7861 201.912 56.1008 202.509 56.7301V53.3061C202.509 53.1888 202.547 53.0928 202.621 53.0181C202.696 52.9434 202.792 52.9061 202.909 52.9061H204.861C204.979 52.9061 205.075 52.9434 205.149 53.0181C205.224 53.0928 205.261 53.1888 205.261 53.3061V63.8661C205.261 63.9728 205.224 64.0688 205.149 64.1541C205.075 64.2288 204.979 64.2661 204.861 64.2661H203.053C202.947 64.2661 202.851 64.2288 202.765 64.1541C202.691 64.0688 202.653 63.9728 202.653 63.8661V63.3541C202.067 64.0688 201.235 64.4261 200.157 64.4261ZM201.037 62.2821C201.517 62.2821 201.875 62.1328 202.109 61.8341C202.344 61.5248 202.477 61.1301 202.509 60.6501C202.52 60.5114 202.525 60.3088 202.525 60.0421C202.525 59.7861 202.52 59.5888 202.509 59.4501C202.488 59.0128 202.355 58.6501 202.109 58.3621C201.864 58.0741 201.507 57.9301 201.037 57.9301C200.536 57.9301 200.173 58.0794 199.949 58.3781C199.736 58.6768 199.613 59.0874 199.581 59.6101C199.571 59.7168 199.565 59.8821 199.565 60.1061C199.565 60.3301 199.571 60.4954 199.581 60.6021C199.613 61.1248 199.736 61.5354 199.949 61.8341C200.173 62.1328 200.536 62.2821 201.037 62.2821Z" fill="white"/>
<defs>
<filter id="filter0_f" x="0.0856934" y="0.0571289" width="319.829" height="168" filterUnits="userSpaceOnUse" color-interpolation-filters="sRGB">
<feFlood flood-opacity="0" result="BackgroundImageFix"/>
<feBlend mode="normal" in="SourceGraphic" in2="BackgroundImageFix" result="shape"/>
<feGaussianBlur stdDeviation="27" result="effect1_foregroundBlur"/>
</filter>
</defs>
</svg>
