<svg width="74" height="281" viewBox="0 0 74 281" fill="none" xmlns="http://www.w3.org/2000/svg">
<path d="M1.836 21.8916C1.716 21.8916 1.614 21.8496 1.53 21.7656C1.446 21.6816 1.404 21.5796 1.404 21.4596V9.7416C1.404 9.6096 1.44 9.5016 1.512 9.4176C1.596 9.3336 1.704 9.2916 1.836 9.2916H6.66C8.1 9.2916 9.234 9.6336 10.062 10.3176C10.89 10.9896 11.304 11.9796 11.304 13.2876C11.304 14.5956 10.89 15.5856 10.062 16.2576C9.246 16.9176 8.112 17.2476 6.66 17.2476H3.978V21.4596C3.978 21.5796 3.936 21.6816 3.852 21.7656C3.78 21.8496 3.678 21.8916 3.546 21.8916H1.836ZM6.57 15.2496C7.266 15.2496 7.8 15.0876 8.172 14.7636C8.544 14.4276 8.73 13.9356 8.73 13.2876C8.73 12.6636 8.55 12.1776 8.19 11.8296C7.83 11.4696 7.29 11.2896 6.57 11.2896H3.942V15.2496H6.57ZM13.4852 21.8916C13.3652 21.8916 13.2632 21.8496 13.1792 21.7656C13.0952 21.6816 13.0532 21.5796 13.0532 21.4596V12.9816C13.0532 12.8616 13.0952 12.7596 13.1792 12.6756C13.2632 12.5796 13.3652 12.5316 13.4852 12.5316H14.9432C15.0752 12.5316 15.1832 12.5736 15.2672 12.6576C15.3512 12.7416 15.3932 12.8496 15.3932 12.9816V13.7196C15.6812 13.3356 16.0412 13.0416 16.4732 12.8376C16.9172 12.6336 17.4212 12.5316 17.9852 12.5316H18.7232C18.8552 12.5316 18.9572 12.5736 19.0292 12.6576C19.1132 12.7296 19.1552 12.8316 19.1552 12.9636V14.2596C19.1552 14.3796 19.1132 14.4816 19.0292 14.5656C18.9572 14.6496 18.8552 14.6916 18.7232 14.6916H17.3192C16.7552 14.6916 16.3112 14.8536 15.9872 15.1776C15.6632 15.5016 15.5012 15.9456 15.5012 16.5096V21.4596C15.5012 21.5796 15.4592 21.6816 15.3752 21.7656C15.2912 21.8496 15.1832 21.8916 15.0512 21.8916H13.4852ZM24.576 22.0716C23.172 22.0716 22.086 21.7116 21.318 20.9916C20.55 20.2596 20.136 19.2636 20.076 18.0036L20.058 17.2116L20.076 16.4196C20.136 15.1716 20.556 14.1816 21.336 13.4496C22.116 12.7176 23.196 12.3516 24.576 12.3516C25.956 12.3516 27.036 12.7176 27.816 13.4496C28.596 14.1816 29.016 15.1716 29.076 16.4196C29.088 16.5636 29.094 16.8276 29.094 17.2116C29.094 17.5956 29.088 17.8596 29.076 18.0036C29.016 19.2636 28.602 20.2596 27.834 20.9916C27.066 21.7116 25.98 22.0716 24.576 22.0716ZM24.576 20.2896C25.212 20.2896 25.704 20.0916 26.052 19.6956C26.4 19.2876 26.592 18.6936 26.628 17.9136C26.64 17.7936 26.646 17.5596 26.646 17.2116C26.646 16.8636 26.64 16.6296 26.628 16.5096C26.592 15.7296 26.4 15.1416 26.052 14.7456C25.704 14.3376 25.212 14.1336 24.576 14.1336C23.94 14.1336 23.448 14.3376 23.1 14.7456C22.752 15.1416 22.56 15.7296 22.524 16.5096L22.506 17.2116L22.524 17.9136C22.56 18.6936 22.752 19.2876 23.1 19.6956C23.448 20.0916 23.94 20.2896 24.576 20.2896ZM34.5624 22.0716C33.3504 22.0716 32.4204 21.6816 31.7724 20.9016C31.1244 20.1216 30.7764 19.0836 30.7284 17.7876L30.7104 17.1936L30.7284 16.6176C30.7644 15.3576 31.1064 14.3316 31.7544 13.5396C32.4144 12.7476 33.3504 12.3516 34.5624 12.3516C35.7264 12.3516 36.6504 12.7476 37.3344 13.5396V9.5436C37.3344 9.4116 37.3764 9.3096 37.4604 9.2376C37.5444 9.1536 37.6464 9.1116 37.7664 9.1116H39.2964C39.4284 9.1116 39.5304 9.1536 39.6024 9.2376C39.6864 9.3096 39.7284 9.4116 39.7284 9.5436V21.4596C39.7284 21.5796 39.6864 21.6816 39.6024 21.7656C39.5304 21.8496 39.4284 21.8916 39.2964 21.8916H37.8744C37.7544 21.8916 37.6524 21.8496 37.5684 21.7656C37.4844 21.6816 37.4424 21.5796 37.4424 21.4596V20.7936C36.7584 21.6456 35.7984 22.0716 34.5624 22.0716ZM35.2284 20.1456C35.9244 20.1456 36.4404 19.9236 36.7764 19.4796C37.1124 19.0356 37.2984 18.4896 37.3344 17.8416C37.3464 17.6976 37.3524 17.4636 37.3524 17.1396C37.3524 16.8276 37.3464 16.5996 37.3344 16.4556C37.3104 15.8556 37.1184 15.3456 36.7584 14.9256C36.4104 14.4936 35.9004 14.2776 35.2284 14.2776C33.9324 14.2776 33.2424 15.0756 33.1584 16.6716L33.1404 17.2116L33.1584 17.7516C33.2424 19.3476 33.9324 20.1456 35.2284 20.1456ZM45.6015 22.0716C44.4975 22.0716 43.6275 21.7116 42.9915 20.9916C42.3555 20.2596 42.0375 19.2696 42.0375 18.0216V12.9636C42.0375 12.8436 42.0795 12.7416 42.1635 12.6576C42.2475 12.5736 42.3495 12.5316 42.4695 12.5316H44.0535C44.1855 12.5316 44.2875 12.5736 44.3595 12.6576C44.4435 12.7296 44.4855 12.8316 44.4855 12.9636V17.9136C44.4855 19.4016 45.1395 20.1456 46.4475 20.1456C47.0715 20.1456 47.5635 19.9476 47.9235 19.5516C48.2955 19.1556 48.4815 18.6096 48.4815 17.9136V12.9636C48.4815 12.8436 48.5235 12.7416 48.6075 12.6576C48.6915 12.5736 48.7935 12.5316 48.9135 12.5316H50.4975C50.6295 12.5316 50.7315 12.5736 50.8035 12.6576C50.8875 12.7296 50.9295 12.8316 50.9295 12.9636V21.4596C50.9295 21.5796 50.8875 21.6816 50.8035 21.7656C50.7315 21.8496 50.6295 21.8916 50.4975 21.8916H49.0395C48.9195 21.8916 48.8175 21.8496 48.7335 21.7656C48.6495 21.6816 48.6075 21.5796 48.6075 21.4596V20.7216C47.9355 21.6216 46.9335 22.0716 45.6015 22.0716ZM57.3571 22.0716C56.0371 22.0716 54.9811 21.7056 54.1891 20.9736C53.4091 20.2416 52.9951 19.2276 52.9471 17.9316L52.9291 17.2116L52.9471 16.4916C52.9951 15.1956 53.4091 14.1816 54.1891 13.4496C54.9811 12.7176 56.0371 12.3516 57.3571 12.3516C58.2931 12.3516 59.0851 12.5196 59.7331 12.8556C60.3931 13.1916 60.8791 13.6056 61.1911 14.0976C61.5151 14.5776 61.6891 15.0336 61.7131 15.4656C61.7251 15.5856 61.6831 15.6876 61.5871 15.7716C61.5031 15.8556 61.4011 15.8976 61.2811 15.8976H59.6971C59.5771 15.8976 59.4811 15.8736 59.4091 15.8256C59.3491 15.7656 59.2891 15.6696 59.2291 15.5376C59.0491 15.0696 58.8091 14.7336 58.5091 14.5296C58.2211 14.3256 57.8491 14.2236 57.3931 14.2236C56.7811 14.2236 56.3011 14.4216 55.9531 14.8176C55.6051 15.2016 55.4191 15.7896 55.3951 16.5816L55.3771 17.2476L55.3951 17.8416C55.4431 19.4136 56.1091 20.1996 57.3931 20.1996C57.8611 20.1996 58.2391 20.0976 58.5271 19.8936C58.8151 19.6896 59.0491 19.3536 59.2291 18.8856C59.2891 18.7536 59.3491 18.6636 59.4091 18.6156C59.4811 18.5556 59.5771 18.5256 59.6971 18.5256H61.2811C61.4011 18.5256 61.5031 18.5676 61.5871 18.6516C61.6831 18.7356 61.7251 18.8376 61.7131 18.9576C61.6891 19.3776 61.5211 19.8276 61.2091 20.3076C60.8971 20.7876 60.4171 21.2016 59.7691 21.5496C59.1211 21.8976 58.3171 22.0716 57.3571 22.0716ZM67.8203 21.8916C66.7283 21.8916 65.9063 21.6096 65.3543 21.0456C64.8143 20.4696 64.5443 19.6296 64.5443 18.5256V14.4396H63.1223C63.0023 14.4396 62.9003 14.3976 62.8163 14.3136C62.7323 14.2176 62.6903 14.1096 62.6903 13.9896V12.9636C62.6903 12.8436 62.7323 12.7416 62.8163 12.6576C62.9003 12.5736 63.0023 12.5316 63.1223 12.5316H64.5443V9.5436C64.5443 9.4116 64.5863 9.3096 64.6703 9.2376C64.7543 9.1536 64.8563 9.1116 64.9763 9.1116H66.4343C66.5663 9.1116 66.6683 9.1536 66.7403 9.2376C66.8243 9.3096 66.8663 9.4116 66.8663 9.5436V12.5316H69.1163C69.2483 12.5316 69.3503 12.5736 69.4223 12.6576C69.5063 12.7296 69.5483 12.8316 69.5483 12.9636V13.9896C69.5483 14.1216 69.5063 14.2296 69.4223 14.3136C69.3383 14.3976 69.2363 14.4396 69.1163 14.4396H66.8663V18.3456C66.8663 18.8616 66.9563 19.2516 67.1363 19.5156C67.3163 19.7796 67.6163 19.9116 68.0363 19.9116H69.2783C69.3983 19.9116 69.5003 19.9536 69.5843 20.0376C69.6683 20.1216 69.7103 20.2236 69.7103 20.3436V21.4596C69.7103 21.5796 69.6683 21.6816 69.5843 21.7656C69.5123 21.8496 69.4103 21.8916 69.2783 21.8916H67.8203Z" fill="#0B132A"/>
<path d="M1.76 70.8916C1.65333 70.8916 1.56267 70.8596 1.488 70.7956C1.424 70.7209 1.392 70.6303 1.392 70.5236V60.0756C1.392 59.9583 1.424 59.8676 1.488 59.8036C1.56267 59.7289 1.65333 59.6916 1.76 59.6916H5.392C7.00267 59.6916 8.16533 60.0543 8.88 60.7796C9.59467 61.4943 9.968 62.5769 10 64.0276C10.0107 64.3369 10.016 64.7529 10.016 65.2756C10.016 65.7983 10.0107 66.2196 10 66.5396C9.968 67.5529 9.79733 68.3796 9.488 69.0196C9.18933 69.6489 8.71467 70.1183 8.064 70.4276C7.41333 70.7369 6.54933 70.8916 5.472 70.8916H1.76ZM5.392 69.5316C6.128 69.5316 6.70933 69.4303 7.136 69.2276C7.57333 69.0249 7.888 68.7049 8.08 68.2676C8.28267 67.8196 8.39467 67.2223 8.416 66.4756C8.43733 65.8356 8.448 65.4356 8.448 65.2756C8.448 65.1049 8.43733 64.7103 8.416 64.0916C8.39467 63.0356 8.144 62.2676 7.664 61.7876C7.184 61.2969 6.4 61.0516 5.312 61.0516H2.96V69.5316H5.392ZM15.6233 71.0516C14.4499 71.0516 13.5379 70.7209 12.8873 70.0596C12.2473 69.3983 11.9059 68.5183 11.8633 67.4196L11.8473 66.7316L11.8633 66.0436C11.9059 64.9556 12.2526 64.0809 12.9033 63.4196C13.5539 62.7476 14.4606 62.4116 15.6233 62.4116C16.7859 62.4116 17.6926 62.7476 18.3433 63.4196C18.9939 64.0809 19.3406 64.9556 19.3833 66.0436C19.3939 66.1609 19.3993 66.3903 19.3993 66.7316C19.3993 67.0729 19.3939 67.3023 19.3833 67.4196C19.3406 68.5183 18.9939 69.3983 18.3433 70.0596C17.7033 70.7209 16.7966 71.0516 15.6233 71.0516ZM15.6233 69.8196C16.2953 69.8196 16.8233 69.6063 17.2073 69.1796C17.6019 68.7529 17.8153 68.1396 17.8473 67.3396C17.8579 67.2329 17.8633 67.0303 17.8633 66.7316C17.8633 66.4329 17.8579 66.2303 17.8473 66.1236C17.8153 65.3236 17.6019 64.7103 17.2073 64.2836C16.8233 63.8569 16.2953 63.6436 15.6233 63.6436C14.9513 63.6436 14.4179 63.8569 14.0233 64.2836C13.6286 64.7103 13.4206 65.3236 13.3993 66.1236L13.3832 66.7316L13.3993 67.3396C13.4206 68.1396 13.6286 68.7529 14.0233 69.1796C14.4179 69.6063 14.9513 69.8196 15.6233 69.8196ZM23.392 70.8916C23.2533 70.8916 23.1467 70.8596 23.072 70.7956C22.9973 70.7316 22.9333 70.6303 22.88 70.4916L20.608 63.0676L20.576 62.9076C20.576 62.8116 20.608 62.7316 20.672 62.6676C20.7467 62.6036 20.8267 62.5716 20.912 62.5716H21.616C21.7227 62.5716 21.808 62.6036 21.872 62.6676C21.9467 62.7209 21.9947 62.7796 22.016 62.8436L23.792 68.8756L25.696 62.9076C25.7173 62.8223 25.7653 62.7476 25.84 62.6836C25.9147 62.6089 26.016 62.5716 26.144 62.5716H26.688C26.816 62.5716 26.9173 62.6089 26.992 62.6836C27.0667 62.7476 27.1147 62.8223 27.136 62.9076L29.04 68.8756L30.816 62.8436C30.8267 62.7903 30.864 62.7316 30.928 62.6676C31.0027 62.6036 31.0933 62.5716 31.2 62.5716H31.92C32.0053 62.5716 32.08 62.6036 32.144 62.6676C32.208 62.7316 32.24 62.8116 32.24 62.9076L32.208 63.0676L29.952 70.4916C29.8987 70.6303 29.8347 70.7316 29.76 70.7956C29.6853 70.8596 29.5733 70.8916 29.424 70.8916H28.8C28.512 70.8916 28.336 70.7583 28.272 70.4916L26.416 64.7636L24.56 70.4916C24.4747 70.7583 24.2933 70.8916 24.016 70.8916H23.392ZM34.3801 70.8916C34.2735 70.8916 34.1828 70.8596 34.1081 70.7956C34.0441 70.7209 34.0121 70.6303 34.0121 70.5236V62.9396C34.0121 62.8329 34.0441 62.7476 34.1081 62.6836C34.1828 62.6089 34.2735 62.5716 34.3801 62.5716H35.1321C35.2388 62.5716 35.3241 62.6089 35.3881 62.6836C35.4628 62.7476 35.5001 62.8329 35.5001 62.9396V63.6436C35.8095 63.2489 36.1721 62.9449 36.5881 62.7316C37.0148 62.5183 37.5428 62.4116 38.1721 62.4116C39.1961 62.4116 39.9908 62.7423 40.5561 63.4036C41.1321 64.0543 41.4201 64.9236 41.4201 66.0116V70.5236C41.4201 70.6303 41.3828 70.7209 41.3081 70.7956C41.2441 70.8596 41.1588 70.8916 41.0521 70.8916H40.2521C40.1455 70.8916 40.0548 70.8596 39.9801 70.7956C39.9161 70.7209 39.8841 70.6303 39.8841 70.5236V66.0916C39.8841 65.3343 39.6975 64.7476 39.3241 64.3316C38.9615 63.9156 38.4335 63.7076 37.7401 63.7076C37.0681 63.7076 36.5348 63.9209 36.1401 64.3476C35.7455 64.7636 35.5481 65.3449 35.5481 66.0916V70.5236C35.5481 70.6303 35.5108 70.7209 35.4361 70.7956C35.3721 70.8596 35.2868 70.8916 35.1801 70.8916H34.3801ZM44.0993 70.8916C43.9926 70.8916 43.9019 70.8596 43.8273 70.7956C43.7633 70.7209 43.7313 70.6303 43.7313 70.5236V59.8996C43.7313 59.7929 43.7633 59.7076 43.8273 59.6436C43.9019 59.5689 43.9926 59.5316 44.0993 59.5316H44.8513C44.9579 59.5316 45.0433 59.5689 45.1073 59.6436C45.1819 59.7076 45.2193 59.7929 45.2193 59.8996V70.5236C45.2193 70.6303 45.1819 70.7209 45.1073 70.7956C45.0433 70.8596 44.9579 70.8916 44.8513 70.8916H44.0993ZM51.0139 71.0516C49.8405 71.0516 48.9285 70.7209 48.2779 70.0596C47.6379 69.3983 47.2965 68.5183 47.2539 67.4196L47.2379 66.7316L47.2539 66.0436C47.2965 64.9556 47.6432 64.0809 48.2939 63.4196C48.9445 62.7476 49.8512 62.4116 51.0139 62.4116C52.1765 62.4116 53.0832 62.7476 53.7339 63.4196C54.3845 64.0809 54.7312 64.9556 54.7739 66.0436C54.7845 66.1609 54.7899 66.3903 54.7899 66.7316C54.7899 67.0729 54.7845 67.3023 54.7739 67.4196C54.7312 68.5183 54.3845 69.3983 53.7339 70.0596C53.0939 70.7209 52.1872 71.0516 51.0139 71.0516ZM51.0139 69.8196C51.6859 69.8196 52.2139 69.6063 52.5979 69.1796C52.9925 68.7529 53.2059 68.1396 53.2379 67.3396C53.2485 67.2329 53.2539 67.0303 53.2539 66.7316C53.2539 66.4329 53.2485 66.2303 53.2379 66.1236C53.2059 65.3236 52.9925 64.7103 52.5979 64.2836C52.2139 63.8569 51.6859 63.6436 51.0139 63.6436C50.3419 63.6436 49.8085 63.8569 49.4139 64.2836C49.0192 64.7103 48.8112 65.3236 48.7899 66.1236L48.7739 66.7316L48.7899 67.3396C48.8112 68.1396 49.0192 68.7529 49.4139 69.1796C49.8085 69.6063 50.3419 69.8196 51.0139 69.8196ZM59.1134 71.0516C58.5907 71.0516 58.1054 70.9449 57.6574 70.7316C57.2094 70.5183 56.852 70.2303 56.5854 69.8676C56.3294 69.4943 56.2014 69.0836 56.2014 68.6356C56.2014 67.9316 56.4894 67.3556 57.0654 66.9076C57.652 66.4489 58.4414 66.1503 59.4334 66.0116L61.8174 65.6756V65.2116C61.8174 64.1236 61.1934 63.5796 59.9454 63.5796C59.476 63.5796 59.092 63.6809 58.7934 63.8836C58.4947 64.0756 58.2707 64.3049 58.1214 64.5716C58.0894 64.6676 58.0467 64.7369 57.9934 64.7796C57.9507 64.8223 57.8867 64.8436 57.8014 64.8436H57.1134C57.0174 64.8436 56.932 64.8116 56.8574 64.7476C56.7934 64.6729 56.7614 64.5876 56.7614 64.4916C56.772 64.2356 56.8894 63.9476 57.1134 63.6276C57.348 63.2969 57.7054 63.0143 58.1854 62.7796C58.6654 62.5343 59.2574 62.4116 59.9614 62.4116C61.156 62.4116 62.0147 62.6943 62.5374 63.2596C63.06 63.8143 63.3214 64.5076 63.3214 65.3396V70.5236C63.3214 70.6303 63.284 70.7209 63.2094 70.7956C63.1454 70.8596 63.06 70.8916 62.9534 70.8916H62.2174C62.1107 70.8916 62.02 70.8596 61.9454 70.7956C61.8814 70.7209 61.8494 70.6303 61.8494 70.5236V69.8356C61.6147 70.1769 61.2734 70.4649 60.8254 70.6996C60.3774 70.9343 59.8067 71.0516 59.1134 71.0516ZM59.4494 69.8516C60.1427 69.8516 60.708 69.6276 61.1454 69.1796C61.5934 68.7209 61.8174 68.0649 61.8174 67.2116V66.7636L59.9614 67.0356C59.204 67.1423 58.6334 67.3236 58.2494 67.5796C57.8654 67.8249 57.6734 68.1396 57.6734 68.5236C57.6734 68.9503 57.8494 69.2809 58.2014 69.5156C58.5534 69.7396 58.9694 69.8516 59.4494 69.8516ZM68.6615 71.0516C67.5522 71.0516 66.7148 70.6889 66.1495 69.9636C65.5842 69.2383 65.2855 68.3209 65.2535 67.2116L65.2375 66.7316L65.2535 66.2516C65.2855 65.1529 65.5842 64.2409 66.1495 63.5156C66.7148 62.7796 67.5522 62.4116 68.6615 62.4116C69.7602 62.4116 70.6242 62.8009 71.2535 63.5796V59.8996C71.2535 59.7929 71.2855 59.7076 71.3495 59.6436C71.4242 59.5689 71.5148 59.5316 71.6215 59.5316H72.3895C72.4962 59.5316 72.5815 59.5689 72.6455 59.6436C72.7202 59.7076 72.7575 59.7929 72.7575 59.8996V70.5236C72.7575 70.6303 72.7202 70.7209 72.6455 70.7956C72.5815 70.8596 72.4962 70.8916 72.3895 70.8916H71.6695C71.5628 70.8916 71.4722 70.8596 71.3975 70.7956C71.3335 70.7209 71.3015 70.6303 71.3015 70.5236V69.8516C70.6828 70.6516 69.8028 71.0516 68.6615 71.0516ZM68.9975 69.7556C69.7335 69.7556 70.2828 69.5156 70.6455 69.0356C71.0188 68.5449 71.2215 67.9636 71.2535 67.2916C71.2642 67.1743 71.2695 66.9716 71.2695 66.6836C71.2695 66.3849 71.2642 66.1769 71.2535 66.0596C71.2322 65.4303 71.0295 64.8809 70.6455 64.4116C70.2615 63.9423 69.7122 63.7076 68.9975 63.7076C68.2402 63.7076 67.6855 63.9423 67.3335 64.4116C66.9922 64.8809 66.8055 65.4996 66.7735 66.2676L66.7575 66.7316C66.7575 68.7476 67.5042 69.7556 68.9975 69.7556Z" fill="#4F5665"/>
<path d="M1.76 110.892C1.65333 110.892 1.56267 110.86 1.488 110.796C1.424 110.721 1.392 110.63 1.392 110.524V100.076C1.392 99.9583 1.424 99.8676 1.488 99.8036C1.56267 99.7289 1.65333 99.6916 1.76 99.6916H5.824C7.02933 99.6916 7.97867 99.9849 8.672 100.572C9.36533 101.158 9.712 102.006 9.712 103.116C9.712 104.225 9.36533 105.073 8.672 105.66C7.98933 106.236 7.04 106.524 5.824 106.524H2.992V110.524C2.992 110.63 2.95467 110.721 2.88 110.796C2.80533 110.86 2.71467 110.892 2.608 110.892H1.76ZM5.744 105.18C6.52267 105.18 7.10933 105.004 7.504 104.652C7.90933 104.3 8.112 103.788 8.112 103.116C8.112 102.444 7.91467 101.932 7.52 101.58C7.12533 101.217 6.53333 101.036 5.744 101.036H2.976V105.18H5.744ZM11.8176 110.892C11.711 110.892 11.6203 110.86 11.5456 110.796C11.4816 110.721 11.4496 110.63 11.4496 110.524V102.956C11.4496 102.849 11.4816 102.758 11.5456 102.684C11.6203 102.609 11.711 102.572 11.8176 102.572H12.5536C12.6603 102.572 12.751 102.609 12.8256 102.684C12.9003 102.758 12.9376 102.849 12.9376 102.956V103.66C13.375 102.934 14.1216 102.572 15.1776 102.572H15.8016C15.9083 102.572 15.9936 102.609 16.0576 102.684C16.1323 102.748 16.1696 102.833 16.1696 102.94V103.596C16.1696 103.702 16.1323 103.788 16.0576 103.852C15.9936 103.916 15.9083 103.948 15.8016 103.948H14.8416C14.2656 103.948 13.8123 104.118 13.4816 104.46C13.151 104.79 12.9856 105.244 12.9856 105.82V110.524C12.9856 110.63 12.9483 110.721 12.8736 110.796C12.799 110.86 12.7083 110.892 12.6016 110.892H11.8176ZM17.7678 101.02C17.6611 101.02 17.5704 100.988 17.4958 100.924C17.4318 100.849 17.3997 100.758 17.3997 100.652V99.7876C17.3997 99.6809 17.4318 99.5903 17.4958 99.5156C17.5704 99.4409 17.6611 99.4036 17.7678 99.4036H18.7758C18.8824 99.4036 18.9731 99.4409 19.0478 99.5156C19.1224 99.5903 19.1598 99.6809 19.1598 99.7876V100.652C19.1598 100.758 19.1224 100.849 19.0478 100.924C18.9731 100.988 18.8824 101.02 18.7758 101.02H17.7678ZM17.8958 110.892C17.7891 110.892 17.6984 110.86 17.6238 110.796C17.5598 110.721 17.5278 110.63 17.5278 110.524V102.94C17.5278 102.833 17.5598 102.748 17.6238 102.684C17.6984 102.609 17.7891 102.572 17.8958 102.572H18.6638C18.7704 102.572 18.8558 102.609 18.9198 102.684C18.9944 102.748 19.0318 102.833 19.0318 102.94V110.524C19.0318 110.63 18.9944 110.721 18.9198 110.796C18.8558 110.86 18.7704 110.892 18.6638 110.892H17.8958ZM24.7628 111.052C23.6214 111.052 22.7254 110.732 22.0748 110.092C21.4348 109.441 21.0934 108.534 21.0508 107.372L21.0348 106.732L21.0508 106.092C21.0934 104.929 21.4348 104.028 22.0748 103.388C22.7254 102.737 23.6214 102.412 24.7628 102.412C25.5308 102.412 26.1814 102.55 26.7148 102.828C27.2481 103.105 27.6428 103.446 27.8988 103.852C28.1654 104.257 28.3094 104.662 28.3308 105.068C28.3414 105.174 28.3094 105.26 28.2348 105.324C28.1601 105.388 28.0694 105.42 27.9628 105.42H27.1948C27.0881 105.42 27.0081 105.398 26.9548 105.356C26.9014 105.313 26.8481 105.228 26.7948 105.1C26.6134 104.588 26.3574 104.225 26.0268 104.012C25.6961 103.788 25.2801 103.676 24.7788 103.676C24.1174 103.676 23.5894 103.884 23.1948 104.3C22.8108 104.705 22.6028 105.329 22.5707 106.172L22.5548 106.748L22.5707 107.292C22.6028 108.145 22.8108 108.774 23.1948 109.18C23.5788 109.585 24.1068 109.788 24.7788 109.788C25.2801 109.788 25.6961 109.681 26.0268 109.468C26.3574 109.244 26.6134 108.876 26.7948 108.364C26.8481 108.236 26.9014 108.15 26.9548 108.108C27.0081 108.054 27.0881 108.028 27.1948 108.028H27.9628C28.0694 108.028 28.1601 108.065 28.2348 108.14C28.3094 108.204 28.3414 108.289 28.3308 108.396C28.3094 108.79 28.1654 109.196 27.8988 109.612C27.6428 110.017 27.2481 110.358 26.7148 110.636C26.1921 110.913 25.5414 111.052 24.7628 111.052ZM30.4709 101.02C30.3642 101.02 30.2735 100.988 30.1989 100.924C30.1349 100.849 30.1029 100.758 30.1029 100.652V99.7876C30.1029 99.6809 30.1349 99.5903 30.1989 99.5156C30.2735 99.4409 30.3642 99.4036 30.4709 99.4036H31.4789C31.5855 99.4036 31.6762 99.4409 31.7509 99.5156C31.8255 99.5903 31.8629 99.6809 31.8629 99.7876V100.652C31.8629 100.758 31.8255 100.849 31.7509 100.924C31.6762 100.988 31.5855 101.02 31.4789 101.02H30.4709ZM30.5989 110.892C30.4922 110.892 30.4015 110.86 30.3269 110.796C30.2629 110.721 30.2309 110.63 30.2309 110.524V102.94C30.2309 102.833 30.2629 102.748 30.3269 102.684C30.4015 102.609 30.4922 102.572 30.5989 102.572H31.3669C31.4735 102.572 31.5589 102.609 31.6229 102.684C31.6975 102.748 31.7349 102.833 31.7349 102.94V110.524C31.7349 110.63 31.6975 110.721 31.6229 110.796C31.5589 110.86 31.4735 110.892 31.3669 110.892H30.5989ZM34.4739 110.892C34.3672 110.892 34.2765 110.86 34.2019 110.796C34.1379 110.721 34.1059 110.63 34.1059 110.524V102.94C34.1059 102.833 34.1379 102.748 34.2019 102.684C34.2765 102.609 34.3672 102.572 34.4739 102.572H35.2259C35.3325 102.572 35.4179 102.609 35.4819 102.684C35.5565 102.748 35.5939 102.833 35.5939 102.94V103.644C35.9032 103.249 36.2659 102.945 36.6819 102.732C37.1085 102.518 37.6365 102.412 38.2659 102.412C39.2899 102.412 40.0845 102.742 40.6499 103.404C41.2259 104.054 41.5139 104.924 41.5139 106.012V110.524C41.5139 110.63 41.4765 110.721 41.4019 110.796C41.3379 110.86 41.2525 110.892 41.1459 110.892H40.3459C40.2392 110.892 40.1485 110.86 40.0739 110.796C40.0099 110.721 39.9779 110.63 39.9779 110.524V106.092C39.9779 105.334 39.7912 104.748 39.4179 104.332C39.0552 103.916 38.5272 103.708 37.8339 103.708C37.1619 103.708 36.6285 103.921 36.2339 104.348C35.8392 104.764 35.6419 105.345 35.6419 106.092V110.524C35.6419 110.63 35.6045 110.721 35.5299 110.796C35.4659 110.86 35.3805 110.892 35.2739 110.892H34.4739ZM47.217 114.412C46.3423 114.412 45.6383 114.262 45.105 113.964C44.5717 113.676 44.193 113.345 43.969 112.972C43.745 112.598 43.6223 112.262 43.601 111.964C43.5903 111.857 43.6223 111.766 43.697 111.692C43.7823 111.617 43.873 111.58 43.969 111.58H44.737C44.833 111.58 44.913 111.601 44.977 111.644C45.041 111.697 45.0943 111.788 45.137 111.916C45.265 112.257 45.473 112.55 45.761 112.796C46.0597 113.052 46.5183 113.18 47.137 113.18C47.9263 113.18 48.5077 113.009 48.881 112.668C49.2543 112.337 49.441 111.745 49.441 110.892V109.804C49.1637 110.156 48.8117 110.438 48.385 110.652C47.9583 110.854 47.4517 110.956 46.865 110.956C45.7343 110.956 44.8863 110.598 44.321 109.884C43.7663 109.158 43.473 108.241 43.441 107.132L43.425 106.684L43.441 106.252C43.473 105.153 43.7717 104.241 44.337 103.516C44.9023 102.78 45.745 102.412 46.865 102.412C47.985 102.412 48.8597 102.822 49.489 103.644V102.956C49.489 102.849 49.521 102.758 49.585 102.684C49.6597 102.609 49.7503 102.572 49.857 102.572H50.593C50.6997 102.572 50.7903 102.609 50.865 102.684C50.9397 102.758 50.977 102.849 50.977 102.956V110.716C50.977 113.18 49.7237 114.412 47.217 114.412ZM47.185 109.676C47.9103 109.676 48.4597 109.436 48.833 108.956C49.2063 108.476 49.409 107.905 49.441 107.244C49.4517 107.148 49.457 106.961 49.457 106.684C49.457 106.417 49.4517 106.236 49.441 106.14C49.409 105.478 49.2063 104.908 48.833 104.428C48.4703 103.948 47.921 103.708 47.185 103.708C46.4277 103.708 45.8783 103.942 45.537 104.412C45.1957 104.881 45.009 105.5 44.977 106.268L44.961 106.684L44.977 107.116C45.009 107.873 45.1957 108.492 45.537 108.972C45.8783 109.441 46.4277 109.676 47.185 109.676Z" fill="#4F5665"/>
<path d="M1.76 150.892C1.65333 150.892 1.56267 150.86 1.488 150.796C1.424 150.721 1.392 150.63 1.392 150.524V140.06C1.392 139.953 1.424 139.868 1.488 139.804C1.56267 139.729 1.65333 139.692 1.76 139.692H2.608C2.71467 139.692 2.8 139.729 2.864 139.804C2.93867 139.868 2.976 139.953 2.976 140.06V149.5H8.288C8.40533 149.5 8.496 149.537 8.56 149.612C8.63467 149.676 8.672 149.766 8.672 149.884V150.524C8.672 150.63 8.63467 150.721 8.56 150.796C8.48533 150.86 8.39467 150.892 8.288 150.892H1.76ZM13.4358 151.052C12.2624 151.052 11.3504 150.721 10.6998 150.06C10.0598 149.398 9.71842 148.518 9.67575 147.42L9.65975 146.732L9.67575 146.044C9.71842 144.956 10.0651 144.081 10.7158 143.42C11.3664 142.748 12.2731 142.412 13.4358 142.412C14.5984 142.412 15.5051 142.748 16.1558 143.42C16.8064 144.081 17.1531 144.956 17.1958 146.044C17.2064 146.161 17.2118 146.39 17.2118 146.732C17.2118 147.073 17.2064 147.302 17.1958 147.42C17.1531 148.518 16.8064 149.398 16.1558 150.06C15.5158 150.721 14.6091 151.052 13.4358 151.052ZM13.4358 149.82C14.1078 149.82 14.6358 149.606 15.0198 149.18C15.4144 148.753 15.6278 148.14 15.6598 147.34C15.6704 147.233 15.6758 147.03 15.6758 146.732C15.6758 146.433 15.6704 146.23 15.6598 146.124C15.6278 145.324 15.4144 144.71 15.0198 144.284C14.6358 143.857 14.1078 143.644 13.4358 143.644C12.7638 143.644 12.2304 143.857 11.8358 144.284C11.4411 144.71 11.2331 145.324 11.2118 146.124L11.1957 146.732L11.2118 147.34C11.2331 148.14 11.4411 148.753 11.8358 149.18C12.2304 149.606 12.7638 149.82 13.4358 149.82ZM22.5753 151.052C21.4339 151.052 20.5379 150.732 19.8873 150.092C19.2473 149.441 18.9059 148.534 18.8633 147.372L18.8473 146.732L18.8633 146.092C18.9059 144.929 19.2473 144.028 19.8873 143.388C20.5379 142.737 21.4339 142.412 22.5753 142.412C23.3433 142.412 23.9939 142.55 24.5273 142.828C25.0606 143.105 25.4553 143.446 25.7113 143.852C25.9779 144.257 26.1219 144.662 26.1433 145.068C26.1539 145.174 26.1219 145.26 26.0473 145.324C25.9726 145.388 25.8819 145.42 25.7753 145.42H25.0073C24.9006 145.42 24.8206 145.398 24.7673 145.356C24.7139 145.313 24.6606 145.228 24.6073 145.1C24.4259 144.588 24.1699 144.225 23.8393 144.012C23.5086 143.788 23.0926 143.676 22.5913 143.676C21.9299 143.676 21.4019 143.884 21.0073 144.3C20.6233 144.705 20.4153 145.329 20.3832 146.172L20.3673 146.748L20.3832 147.292C20.4153 148.145 20.6233 148.774 21.0073 149.18C21.3913 149.585 21.9193 149.788 22.5913 149.788C23.0926 149.788 23.5086 149.681 23.8393 149.468C24.1699 149.244 24.4259 148.876 24.6073 148.364C24.6606 148.236 24.7139 148.15 24.7673 148.108C24.8206 148.054 24.9006 148.028 25.0073 148.028H25.7753C25.8819 148.028 25.9726 148.065 26.0473 148.14C26.1219 148.204 26.1539 148.289 26.1433 148.396C26.1219 148.79 25.9779 149.196 25.7113 149.612C25.4553 150.017 25.0606 150.358 24.5273 150.636C24.0046 150.913 23.3539 151.052 22.5753 151.052ZM30.3634 151.052C29.8407 151.052 29.3554 150.945 28.9074 150.732C28.4594 150.518 28.102 150.23 27.8354 149.868C27.5794 149.494 27.4514 149.084 27.4514 148.636C27.4514 147.932 27.7394 147.356 28.3154 146.908C28.902 146.449 29.6914 146.15 30.6834 146.012L33.0674 145.676V145.212C33.0674 144.124 32.4434 143.58 31.1954 143.58C30.726 143.58 30.342 143.681 30.0434 143.884C29.7447 144.076 29.5207 144.305 29.3714 144.572C29.3394 144.668 29.2967 144.737 29.2434 144.78C29.2007 144.822 29.1367 144.844 29.0514 144.844H28.3634C28.2674 144.844 28.182 144.812 28.1074 144.748C28.0434 144.673 28.0114 144.588 28.0114 144.492C28.022 144.236 28.1394 143.948 28.3634 143.628C28.598 143.297 28.9554 143.014 29.4354 142.78C29.9154 142.534 30.5074 142.412 31.2114 142.412C32.406 142.412 33.2647 142.694 33.7874 143.26C34.31 143.814 34.5714 144.508 34.5714 145.34V150.524C34.5714 150.63 34.534 150.721 34.4594 150.796C34.3954 150.86 34.31 150.892 34.2034 150.892H33.4674C33.3607 150.892 33.27 150.86 33.1954 150.796C33.1314 150.721 33.0994 150.63 33.0994 150.524V149.836C32.8647 150.177 32.5234 150.465 32.0754 150.7C31.6274 150.934 31.0567 151.052 30.3634 151.052ZM30.6994 149.852C31.3927 149.852 31.958 149.628 32.3954 149.18C32.8434 148.721 33.0674 148.065 33.0674 147.212V146.764L31.2114 147.036C30.454 147.142 29.8834 147.324 29.4994 147.58C29.1154 147.825 28.9234 148.14 28.9234 148.524C28.9234 148.95 29.0994 149.281 29.4514 149.516C29.8034 149.74 30.2194 149.852 30.6994 149.852ZM40.0414 150.892C38.356 150.892 37.5134 149.953 37.5134 148.076V143.852H36.2654C36.1587 143.852 36.068 143.82 35.9934 143.756C35.9294 143.681 35.8974 143.59 35.8974 143.484V142.94C35.8974 142.833 35.9294 142.748 35.9934 142.684C36.068 142.609 36.1587 142.572 36.2654 142.572H37.5134V139.9C37.5134 139.793 37.5454 139.708 37.6094 139.644C37.684 139.569 37.7747 139.532 37.8814 139.532H38.6334C38.74 139.532 38.8254 139.569 38.8894 139.644C38.964 139.708 39.0014 139.793 39.0014 139.9V142.572H40.9854C41.092 142.572 41.1774 142.609 41.2414 142.684C41.316 142.748 41.3534 142.833 41.3534 142.94V143.484C41.3534 143.59 41.316 143.681 41.2414 143.756C41.1774 143.82 41.092 143.852 40.9854 143.852H39.0014V147.964C39.0014 148.497 39.092 148.902 39.2734 149.18C39.4547 149.446 39.7534 149.58 40.1694 149.58H41.1454C41.252 149.58 41.3374 149.617 41.4014 149.692C41.476 149.756 41.5134 149.841 41.5134 149.948V150.524C41.5134 150.63 41.476 150.721 41.4014 150.796C41.3374 150.86 41.252 150.892 41.1454 150.892H40.0414ZM43.2834 141.02C43.1767 141.02 43.086 140.988 43.0114 140.924C42.9474 140.849 42.9154 140.758 42.9154 140.652V139.788C42.9154 139.681 42.9474 139.59 43.0114 139.516C43.086 139.441 43.1767 139.404 43.2834 139.404H44.2914C44.398 139.404 44.4887 139.441 44.5634 139.516C44.638 139.59 44.6754 139.681 44.6754 139.788V140.652C44.6754 140.758 44.638 140.849 44.5634 140.924C44.4887 140.988 44.398 141.02 44.2914 141.02H43.2834ZM43.4114 150.892C43.3047 150.892 43.214 150.86 43.1394 150.796C43.0754 150.721 43.0434 150.63 43.0434 150.524V142.94C43.0434 142.833 43.0754 142.748 43.1394 142.684C43.214 142.609 43.3047 142.572 43.4114 142.572H44.1794C44.286 142.572 44.3714 142.609 44.4354 142.684C44.51 142.748 44.5474 142.833 44.5474 142.94V150.524C44.5474 150.63 44.51 150.721 44.4354 150.796C44.3714 150.86 44.286 150.892 44.1794 150.892H43.4114ZM50.3264 151.052C49.153 151.052 48.241 150.721 47.5904 150.06C46.9504 149.398 46.609 148.518 46.5664 147.42L46.5504 146.732L46.5664 146.044C46.609 144.956 46.9557 144.081 47.6064 143.42C48.257 142.748 49.1637 142.412 50.3264 142.412C51.489 142.412 52.3957 142.748 53.0464 143.42C53.697 144.081 54.0437 144.956 54.0864 146.044C54.097 146.161 54.1024 146.39 54.1024 146.732C54.1024 147.073 54.097 147.302 54.0864 147.42C54.0437 148.518 53.697 149.398 53.0464 150.06C52.4064 150.721 51.4997 151.052 50.3264 151.052ZM50.3264 149.82C50.9984 149.82 51.5264 149.606 51.9104 149.18C52.305 148.753 52.5184 148.14 52.5504 147.34C52.561 147.233 52.5664 147.03 52.5664 146.732C52.5664 146.433 52.561 146.23 52.5504 146.124C52.5184 145.324 52.305 144.71 51.9104 144.284C51.5264 143.857 50.9984 143.644 50.3264 143.644C49.6544 143.644 49.121 143.857 48.7264 144.284C48.3317 144.71 48.1237 145.324 48.1024 146.124L48.0864 146.732L48.1024 147.34C48.1237 148.14 48.3317 148.753 48.7264 149.18C49.121 149.606 49.6544 149.82 50.3264 149.82ZM56.4739 150.892C56.3672 150.892 56.2765 150.86 56.2019 150.796C56.1379 150.721 56.1059 150.63 56.1059 150.524V142.94C56.1059 142.833 56.1379 142.748 56.2019 142.684C56.2765 142.609 56.3672 142.572 56.4739 142.572H57.2259C57.3325 142.572 57.4179 142.609 57.4819 142.684C57.5565 142.748 57.5939 142.833 57.5939 142.94V143.644C57.9032 143.249 58.2659 142.945 58.6819 142.732C59.1085 142.518 59.6365 142.412 60.2659 142.412C61.2899 142.412 62.0845 142.742 62.6499 143.404C63.2259 144.054 63.5139 144.924 63.5139 146.012V150.524C63.5139 150.63 63.4765 150.721 63.4019 150.796C63.3379 150.86 63.2525 150.892 63.1459 150.892H62.3459C62.2392 150.892 62.1485 150.86 62.0739 150.796C62.0099 150.721 61.9779 150.63 61.9779 150.524V146.092C61.9779 145.334 61.7912 144.748 61.4179 144.332C61.0552 143.916 60.5272 143.708 59.8339 143.708C59.1619 143.708 58.6285 143.921 58.2339 144.348C57.8392 144.764 57.6419 145.345 57.6419 146.092V150.524C57.6419 150.63 57.6045 150.721 57.5299 150.796C57.4659 150.86 57.3805 150.892 57.2739 150.892H56.4739ZM68.689 151.052C67.9423 151.052 67.313 150.934 66.801 150.7C66.2997 150.454 65.921 150.177 65.665 149.868C65.4197 149.558 65.297 149.302 65.297 149.1C65.297 148.993 65.3343 148.913 65.409 148.86C65.4943 148.796 65.5797 148.764 65.665 148.764H66.385C66.4917 148.764 66.5877 148.817 66.673 148.924C66.929 149.222 67.2063 149.457 67.505 149.628C67.8037 149.798 68.2037 149.884 68.705 149.884C69.2597 149.884 69.7077 149.777 70.049 149.564C70.401 149.34 70.577 149.036 70.577 148.652C70.577 148.396 70.5023 148.188 70.353 148.028C70.2143 147.857 69.969 147.713 69.617 147.596C69.2757 147.468 68.7637 147.329 68.081 147.18C67.153 146.977 66.4917 146.684 66.097 146.3C65.713 145.916 65.521 145.42 65.521 144.812C65.521 144.406 65.6383 144.022 65.873 143.66C66.1183 143.286 66.4703 142.988 66.929 142.764C67.3983 142.529 67.9583 142.412 68.609 142.412C69.2917 142.412 69.873 142.524 70.353 142.748C70.833 142.972 71.1903 143.238 71.425 143.548C71.6703 143.846 71.793 144.097 71.793 144.3C71.793 144.396 71.7557 144.476 71.681 144.54C71.617 144.604 71.537 144.636 71.441 144.636H70.769C70.641 144.636 70.5343 144.582 70.449 144.476C70.2783 144.273 70.129 144.118 70.001 144.012C69.8837 143.894 69.7077 143.793 69.473 143.708C69.249 143.622 68.961 143.58 68.609 143.58C68.097 143.58 67.7023 143.692 67.425 143.916C67.1477 144.129 67.009 144.412 67.009 144.764C67.009 144.988 67.0677 145.18 67.185 145.34C67.3023 145.489 67.5263 145.628 67.857 145.756C68.1983 145.884 68.689 146.017 69.329 146.156C70.3423 146.369 71.057 146.678 71.473 147.084C71.8997 147.478 72.113 147.985 72.113 148.604C72.113 149.062 71.9797 149.478 71.713 149.852C71.4463 150.225 71.0517 150.518 70.529 150.732C70.017 150.945 69.4037 151.052 68.689 151.052Z" fill="#4F5665"/>
<path d="M4.992 191.052C4.10667 191.052 3.33867 190.913 2.688 190.636C2.048 190.358 1.55733 189.996 1.216 189.548C0.874667 189.089 0.693333 188.598 0.672 188.076C0.672 187.99 0.704 187.916 0.768 187.852C0.842667 187.777 0.928 187.74 1.024 187.74H1.84C2.04267 187.74 2.18133 187.846 2.256 188.06C2.352 188.508 2.624 188.892 3.072 189.212C3.53067 189.532 4.17067 189.692 4.992 189.692C5.87733 189.692 6.544 189.537 6.992 189.228C7.44 188.908 7.664 188.465 7.664 187.9C7.664 187.537 7.552 187.244 7.328 187.02C7.11467 186.796 6.79467 186.598 6.368 186.428C5.94133 186.257 5.30133 186.044 4.448 185.788C3.616 185.553 2.95467 185.302 2.464 185.036C1.97333 184.769 1.60533 184.438 1.36 184.044C1.11467 183.649 0.992 183.153 0.992 182.556C0.992 181.98 1.14667 181.462 1.456 181.004C1.776 180.545 2.22933 180.188 2.816 179.932C3.40267 179.665 4.10133 179.532 4.912 179.532C5.744 179.532 6.45867 179.681 7.056 179.98C7.65333 180.268 8.10667 180.636 8.416 181.084C8.72533 181.532 8.89067 181.98 8.912 182.428C8.912 182.513 8.88 182.588 8.816 182.652C8.76267 182.716 8.68267 182.748 8.576 182.748H7.728C7.504 182.748 7.36533 182.646 7.312 182.444C7.248 181.996 6.99733 181.628 6.56 181.34C6.12267 181.041 5.57333 180.892 4.912 180.892C4.18667 180.892 3.616 181.03 3.2 181.308C2.784 181.585 2.576 181.996 2.576 182.54C2.576 182.902 2.672 183.201 2.864 183.436C3.06667 183.67 3.37067 183.878 3.776 184.06C4.18133 184.23 4.77333 184.428 5.552 184.652C6.45867 184.897 7.17333 185.153 7.696 185.42C8.21867 185.676 8.608 186.001 8.864 186.396C9.12 186.78 9.248 187.27 9.248 187.868C9.248 188.86 8.864 189.638 8.096 190.204C7.328 190.769 6.29333 191.052 4.992 191.052ZM14.4651 191.052C13.3665 191.052 12.4865 190.716 11.8251 190.044C11.1745 189.361 10.8171 188.433 10.7531 187.26L10.7371 186.716L10.7531 186.188C10.8278 185.036 11.1905 184.118 11.8411 183.436C12.5025 182.753 13.3718 182.412 14.4491 182.412C15.6331 182.412 16.5505 182.79 17.2011 183.548C17.8518 184.294 18.1771 185.308 18.1771 186.588V186.86C18.1771 186.966 18.1398 187.057 18.0651 187.132C18.0011 187.196 17.9158 187.228 17.8091 187.228H12.2731V187.372C12.3051 188.065 12.5131 188.657 12.8971 189.148C13.2918 189.628 13.8091 189.868 14.4491 189.868C14.9398 189.868 15.3398 189.772 15.6491 189.58C15.9691 189.377 16.2038 189.169 16.3531 188.956C16.4491 188.828 16.5185 188.753 16.5611 188.732C16.6145 188.7 16.7051 188.684 16.8331 188.684H17.6171C17.7131 188.684 17.7931 188.71 17.8571 188.764C17.9211 188.817 17.9531 188.892 17.9531 188.988C17.9531 189.222 17.8038 189.505 17.5051 189.836C17.2171 190.166 16.8065 190.454 16.2731 190.7C15.7505 190.934 15.1478 191.052 14.4651 191.052ZM16.6571 186.124V186.076C16.6571 185.34 16.4545 184.742 16.0491 184.284C15.6545 183.814 15.1211 183.58 14.4491 183.58C13.7771 183.58 13.2438 183.814 12.8491 184.284C12.4651 184.742 12.2731 185.34 12.2731 186.076V186.124H16.6571ZM20.4583 190.892C20.3516 190.892 20.2609 190.86 20.1863 190.796C20.1223 190.721 20.0903 190.63 20.0903 190.524V182.956C20.0903 182.849 20.1223 182.758 20.1863 182.684C20.2609 182.609 20.3516 182.572 20.4583 182.572H21.1943C21.3009 182.572 21.3916 182.609 21.4663 182.684C21.5409 182.758 21.5783 182.849 21.5783 182.956V183.66C22.0156 182.934 22.7623 182.572 23.8183 182.572H24.4423C24.5489 182.572 24.6343 182.609 24.6983 182.684C24.7729 182.748 24.8103 182.833 24.8103 182.94V183.596C24.8103 183.702 24.7729 183.788 24.6983 183.852C24.6343 183.916 24.5489 183.948 24.4423 183.948H23.4823C22.9063 183.948 22.4529 184.118 22.1223 184.46C21.7916 184.79 21.6263 185.244 21.6263 185.82V190.524C21.6263 190.63 21.5889 190.721 21.5143 190.796C21.4396 190.86 21.3489 190.892 21.2423 190.892H20.4583ZM29.0644 190.892C28.787 190.892 28.5897 190.758 28.4724 190.492L25.5124 183.068L25.4804 182.908C25.4804 182.812 25.5124 182.732 25.5764 182.668C25.6404 182.604 25.7204 182.572 25.8164 182.572H26.5844C26.7657 182.572 26.899 182.662 26.9844 182.844L29.4164 189.148L31.8484 182.844C31.9444 182.662 32.0724 182.572 32.2324 182.572H33.0164C33.1017 182.572 33.1764 182.604 33.2404 182.668C33.315 182.732 33.3524 182.812 33.3524 182.908L33.3204 183.068L30.3444 190.492C30.227 190.758 30.0297 190.892 29.7524 190.892H29.0644ZM38.0589 191.052C36.9602 191.052 36.0802 190.716 35.4189 190.044C34.7682 189.361 34.4109 188.433 34.3469 187.26L34.3309 186.716L34.3469 186.188C34.4215 185.036 34.7842 184.118 35.4349 183.436C36.0962 182.753 36.9655 182.412 38.0429 182.412C39.2269 182.412 40.1442 182.79 40.7949 183.548C41.4455 184.294 41.7709 185.308 41.7709 186.588V186.86C41.7709 186.966 41.7335 187.057 41.6589 187.132C41.5949 187.196 41.5095 187.228 41.4029 187.228H35.8669V187.372C35.8989 188.065 36.1069 188.657 36.4909 189.148C36.8855 189.628 37.4029 189.868 38.0429 189.868C38.5335 189.868 38.9335 189.772 39.2429 189.58C39.5629 189.377 39.7975 189.169 39.9469 188.956C40.0429 188.828 40.1122 188.753 40.1549 188.732C40.2082 188.7 40.2989 188.684 40.4269 188.684H41.2109C41.3069 188.684 41.3869 188.71 41.4509 188.764C41.5149 188.817 41.5469 188.892 41.5469 188.988C41.5469 189.222 41.3975 189.505 41.0989 189.836C40.8109 190.166 40.4002 190.454 39.8669 190.7C39.3442 190.934 38.7415 191.052 38.0589 191.052ZM40.2509 186.124V186.076C40.2509 185.34 40.0482 184.742 39.6429 184.284C39.2482 183.814 38.7149 183.58 38.0429 183.58C37.3709 183.58 36.8375 183.814 36.4429 184.284C36.0589 184.742 35.8669 185.34 35.8669 186.076V186.124H40.2509ZM44.052 190.892C43.9453 190.892 43.8547 190.86 43.78 190.796C43.716 190.721 43.684 190.63 43.684 190.524V182.956C43.684 182.849 43.716 182.758 43.78 182.684C43.8547 182.609 43.9453 182.572 44.052 182.572H44.788C44.8947 182.572 44.9853 182.609 45.06 182.684C45.1347 182.758 45.172 182.849 45.172 182.956V183.66C45.6093 182.934 46.356 182.572 47.412 182.572H48.036C48.1427 182.572 48.228 182.609 48.292 182.684C48.3667 182.748 48.404 182.833 48.404 182.94V183.596C48.404 183.702 48.3667 183.788 48.292 183.852C48.228 183.916 48.1427 183.948 48.036 183.948H47.076C46.5 183.948 46.0467 184.118 45.716 184.46C45.3853 184.79 45.22 185.244 45.22 185.82V190.524C45.22 190.63 45.1827 190.721 45.108 190.796C45.0333 190.86 44.9427 190.892 44.836 190.892H44.052Z" fill="#4F5665"/>
<path d="M5.408 231.052C3.98933 231.052 2.90667 230.668 2.16 229.9C1.424 229.121 1.02933 228.06 0.976 226.716C0.965333 226.428 0.96 225.958 0.96 225.308C0.96 224.646 0.965333 224.166 0.976 223.868C1.02933 222.524 1.424 221.468 2.16 220.7C2.90667 219.921 3.98933 219.532 5.408 219.532C6.35733 219.532 7.16267 219.702 7.824 220.044C8.48533 220.374 8.98133 220.812 9.312 221.356C9.65333 221.9 9.84 222.481 9.872 223.1C9.872 223.196 9.83467 223.276 9.76 223.34C9.696 223.393 9.616 223.42 9.52 223.42H8.72C8.61333 223.42 8.528 223.393 8.464 223.34C8.4 223.286 8.352 223.196 8.32 223.068C8.13867 222.246 7.808 221.67 7.328 221.34C6.85867 221.009 6.21867 220.844 5.408 220.844C3.552 220.844 2.58667 221.878 2.512 223.948C2.50133 224.236 2.496 224.678 2.496 225.276C2.496 225.873 2.50133 226.326 2.512 226.636C2.58667 228.694 3.552 229.724 5.408 229.724C6.208 229.724 6.848 229.558 7.328 229.228C7.808 228.897 8.13867 228.326 8.32 227.516C8.352 227.388 8.4 227.297 8.464 227.244C8.528 227.19 8.61333 227.164 8.72 227.164H9.52C9.616 227.164 9.696 227.196 9.76 227.26C9.83467 227.313 9.872 227.388 9.872 227.484C9.84 228.102 9.65333 228.684 9.312 229.228C8.98133 229.772 8.48533 230.214 7.824 230.556C7.16267 230.886 6.35733 231.052 5.408 231.052ZM15.2166 231.052C14.0433 231.052 13.1366 230.721 12.4966 230.06C11.8673 229.398 11.5313 228.518 11.4886 227.42L11.4726 226.732L11.4886 226.044C11.5313 224.945 11.8726 224.065 12.5126 223.404C13.1633 222.742 14.0646 222.412 15.2166 222.412C16.3686 222.412 17.2646 222.742 17.9046 223.404C18.5553 224.065 18.902 224.945 18.9446 226.044C18.966 226.278 18.9766 226.508 18.9766 226.732C18.9766 226.956 18.966 227.185 18.9446 227.42C18.902 228.518 18.5606 229.398 17.9206 230.06C17.2913 230.721 16.39 231.052 15.2166 231.052ZM15.2166 229.852C15.8993 229.852 16.438 229.638 16.8326 229.212C17.238 228.774 17.4566 228.15 17.4886 227.34C17.4993 227.233 17.5046 227.03 17.5046 226.732C17.5046 226.433 17.4993 226.23 17.4886 226.124C17.4566 225.313 17.238 224.694 16.8326 224.268C16.438 223.83 15.8993 223.612 15.2166 223.612C14.534 223.612 13.99 223.83 13.5846 224.268C13.19 224.694 12.9766 225.313 12.9446 226.124L12.9286 226.732L12.9446 227.34C12.9766 228.15 13.19 228.774 13.5846 229.212C13.99 229.638 14.534 229.852 15.2166 229.852ZM24.1009 231.052C23.0875 231.052 22.3035 230.726 21.7489 230.076C21.1942 229.414 20.9169 228.54 20.9169 227.452V222.94C20.9169 222.833 20.9489 222.748 21.0129 222.684C21.0875 222.609 21.1782 222.572 21.2849 222.572H22.0209C22.1275 222.572 22.2129 222.609 22.2769 222.684C22.3515 222.748 22.3889 222.833 22.3889 222.94V227.372C22.3889 228.993 23.0929 229.804 24.5009 229.804C25.1835 229.804 25.7222 229.59 26.1169 229.164C26.5222 228.726 26.7249 228.129 26.7249 227.372V222.94C26.7249 222.833 26.7569 222.748 26.8209 222.684C26.8955 222.609 26.9862 222.572 27.0929 222.572H27.8289C27.9355 222.572 28.0209 222.609 28.0849 222.684C28.1595 222.748 28.1969 222.833 28.1969 222.94V230.524C28.1969 230.63 28.1595 230.721 28.0849 230.796C28.0209 230.86 27.9355 230.892 27.8289 230.892H27.1409C27.0342 230.892 26.9435 230.86 26.8689 230.796C26.8049 230.721 26.7729 230.63 26.7729 230.524V229.804C26.4635 230.22 26.1009 230.534 25.6849 230.748C25.2689 230.95 24.7409 231.052 24.1009 231.052ZM30.9586 230.892C30.852 230.892 30.7613 230.86 30.6866 230.796C30.6226 230.721 30.5906 230.63 30.5906 230.524V222.94C30.5906 222.833 30.6226 222.748 30.6866 222.684C30.7613 222.609 30.852 222.572 30.9586 222.572H31.6466C31.764 222.572 31.8546 222.604 31.9186 222.668C31.9826 222.732 32.0146 222.822 32.0146 222.94V223.644C32.3346 223.249 32.7026 222.945 33.1186 222.732C33.5453 222.518 34.0733 222.412 34.7026 222.412C35.7266 222.412 36.5213 222.742 37.0866 223.404C37.652 224.054 37.9346 224.918 37.9346 225.996V230.524C37.9346 230.63 37.8973 230.721 37.8226 230.796C37.7586 230.86 37.6733 230.892 37.5666 230.892H36.8306C36.724 230.892 36.6333 230.86 36.5586 230.796C36.4946 230.721 36.4626 230.63 36.4626 230.524V226.092C36.4626 225.324 36.276 224.726 35.9026 224.3C35.5293 223.873 34.996 223.66 34.3026 223.66C33.62 223.66 33.076 223.878 32.6706 224.316C32.2653 224.742 32.0626 225.334 32.0626 226.092V230.524C32.0626 230.63 32.0253 230.721 31.9506 230.796C31.8866 230.86 31.8013 230.892 31.6946 230.892H30.9586ZM43.3375 230.892C41.6842 230.892 40.8575 229.958 40.8575 228.092V223.804H39.5935C39.4868 223.804 39.4015 223.772 39.3375 223.708C39.2735 223.644 39.2415 223.558 39.2415 223.452V222.94C39.2415 222.833 39.2735 222.748 39.3375 222.684C39.4015 222.609 39.4868 222.572 39.5935 222.572H40.8575V219.9C40.8575 219.793 40.8895 219.708 40.9535 219.644C41.0175 219.569 41.1028 219.532 41.2095 219.532H41.9135C42.0202 219.532 42.1055 219.569 42.1695 219.644C42.2442 219.708 42.2815 219.793 42.2815 219.9V222.572H44.2655C44.3722 222.572 44.4575 222.609 44.5215 222.684C44.5962 222.748 44.6335 222.833 44.6335 222.94V223.452C44.6335 223.558 44.5962 223.644 44.5215 223.708C44.4575 223.772 44.3722 223.804 44.2655 223.804H42.2815V227.98C42.2815 228.524 42.3668 228.934 42.5375 229.212C42.7188 229.489 43.0228 229.628 43.4495 229.628H44.4255C44.5322 229.628 44.6175 229.665 44.6815 229.74C44.7455 229.804 44.7775 229.889 44.7775 229.996V230.524C44.7775 230.63 44.7455 230.721 44.6815 230.796C44.6175 230.86 44.5322 230.892 44.4255 230.892H43.3375ZM46.7086 230.892C46.602 230.892 46.5113 230.86 46.4366 230.796C46.3726 230.721 46.3406 230.63 46.3406 230.524V222.956C46.3406 222.849 46.3726 222.758 46.4366 222.684C46.5113 222.609 46.602 222.572 46.7086 222.572H47.3806C47.498 222.572 47.5886 222.609 47.6526 222.684C47.7273 222.748 47.7646 222.838 47.7646 222.956V223.66C48.202 222.934 48.9433 222.572 49.9886 222.572H50.6126C50.73 222.572 50.8206 222.604 50.8846 222.668C50.9486 222.732 50.9806 222.822 50.9806 222.94V223.532C50.9806 223.638 50.9486 223.729 50.8846 223.804C50.8206 223.868 50.73 223.9 50.6126 223.9H49.7006C49.114 223.9 48.65 224.07 48.3086 224.412C47.978 224.753 47.8126 225.217 47.8126 225.804V230.524C47.8126 230.63 47.7753 230.721 47.7006 230.796C47.626 230.86 47.5353 230.892 47.4286 230.892H46.7086ZM52.5963 221.004C52.4896 221.004 52.3989 220.972 52.3243 220.908C52.2603 220.833 52.2283 220.742 52.2283 220.636V219.804C52.2283 219.697 52.2603 219.606 52.3243 219.532C52.3989 219.457 52.4896 219.42 52.5963 219.42H53.5403C53.6469 219.42 53.7376 219.457 53.8123 219.532C53.8869 219.606 53.9243 219.697 53.9243 219.804V220.636C53.9243 220.742 53.8869 220.833 53.8123 220.908C53.7376 220.972 53.6469 221.004 53.5403 221.004H52.5963ZM52.7243 230.892C52.6176 230.892 52.5269 230.86 52.4523 230.796C52.3883 230.721 52.3563 230.63 52.3563 230.524V222.94C52.3563 222.833 52.3883 222.748 52.4523 222.684C52.5269 222.609 52.6176 222.572 52.7243 222.572H53.4283C53.5349 222.572 53.6203 222.609 53.6843 222.684C53.7589 222.748 53.7963 222.833 53.7963 222.94V230.524C53.7963 230.63 53.7589 230.721 53.6843 230.796C53.6203 230.86 53.5349 230.892 53.4283 230.892H52.7243ZM59.496 231.052C58.408 231.052 57.5387 230.716 56.888 230.044C56.2373 229.361 55.88 228.433 55.816 227.26L55.8 226.716L55.816 226.188C55.88 225.036 56.2373 224.118 56.888 223.436C57.5387 222.753 58.408 222.412 59.496 222.412C60.6693 222.412 61.576 222.785 62.216 223.532C62.8667 224.278 63.192 225.292 63.192 226.572V226.86C63.192 226.966 63.1547 227.057 63.08 227.132C63.016 227.196 62.9307 227.228 62.824 227.228H57.272V227.372C57.304 228.065 57.5173 228.657 57.912 229.148C58.3067 229.638 58.8293 229.884 59.48 229.884C59.9813 229.884 60.3867 229.788 60.696 229.596C61.016 229.393 61.256 229.185 61.416 228.972C61.512 228.844 61.5867 228.769 61.64 228.748C61.6933 228.716 61.784 228.7 61.912 228.7H62.616C62.712 228.7 62.792 228.726 62.856 228.78C62.9307 228.833 62.968 228.902 62.968 228.988C62.968 229.222 62.824 229.505 62.536 229.836C62.248 230.166 61.8373 230.454 61.304 230.7C60.7813 230.934 60.1787 231.052 59.496 231.052ZM61.736 226.14V226.092C61.736 225.345 61.5333 224.737 61.128 224.268C60.7227 223.798 60.1787 223.564 59.496 223.564C58.8027 223.564 58.2587 223.798 57.864 224.268C57.4693 224.737 57.272 225.345 57.272 226.092V226.14H61.736ZM67.9855 231.052C67.2495 231.052 66.6255 230.934 66.1135 230.7C65.6122 230.454 65.2388 230.177 64.9935 229.868C64.7482 229.558 64.6255 229.302 64.6255 229.1C64.6255 228.993 64.6628 228.913 64.7375 228.86C64.8122 228.796 64.8922 228.764 64.9775 228.764H65.6495C65.7135 228.764 65.7615 228.774 65.7935 228.796C65.8362 228.817 65.8895 228.865 65.9535 228.94C66.1988 229.238 66.4708 229.473 66.7695 229.644C67.0788 229.814 67.4895 229.9 68.0015 229.9C68.5775 229.9 69.0362 229.793 69.3775 229.58C69.7295 229.366 69.9055 229.057 69.9055 228.652C69.9055 228.385 69.8308 228.172 69.6815 228.012C69.5322 227.852 69.2815 227.708 68.9295 227.58C68.5882 227.452 68.0762 227.313 67.3935 227.164C66.4655 226.961 65.8095 226.668 65.4255 226.284C65.0415 225.9 64.8495 225.404 64.8495 224.796C64.8495 224.401 64.9668 224.022 65.2015 223.66C65.4362 223.286 65.7828 222.988 66.2415 222.764C66.7108 222.529 67.2655 222.412 67.9055 222.412C68.5775 222.412 69.1482 222.524 69.6175 222.748C70.0975 222.972 70.4548 223.233 70.6895 223.532C70.9348 223.83 71.0575 224.081 71.0575 224.284C71.0575 224.38 71.0202 224.46 70.9455 224.524C70.8815 224.588 70.8015 224.62 70.7055 224.62H70.0975C69.9482 224.62 69.8415 224.561 69.7775 224.444C69.5962 224.241 69.4415 224.086 69.3135 223.98C69.1962 223.862 69.0202 223.766 68.7855 223.692C68.5508 223.606 68.2575 223.564 67.9055 223.564C67.3828 223.564 66.9828 223.676 66.7055 223.9C66.4282 224.113 66.2895 224.401 66.2895 224.764C66.2895 224.988 66.3482 225.18 66.4655 225.34C66.5828 225.489 66.8068 225.633 67.1375 225.772C67.4682 225.9 67.9588 226.033 68.6095 226.172C69.6228 226.385 70.3375 226.689 70.7535 227.084C71.1802 227.478 71.3935 227.985 71.3935 228.604C71.3935 229.062 71.2602 229.478 70.9935 229.852C70.7375 230.225 70.3482 230.518 69.8255 230.732C69.3135 230.945 68.7002 231.052 67.9855 231.052Z" fill="#4F5665"/>
<path d="M1.76 270.892C1.65333 270.892 1.568 270.86 1.504 270.796C1.44 270.721 1.408 270.63 1.408 270.524V260.076C1.408 259.958 1.44 259.868 1.504 259.804C1.568 259.729 1.65333 259.692 1.76 259.692H6.128C7.25867 259.692 8.112 259.964 8.688 260.508C9.264 261.052 9.552 261.761 9.552 262.636C9.552 263.233 9.41333 263.734 9.136 264.14C8.85867 264.534 8.53333 264.822 8.16 265.004C8.61867 265.228 9.00267 265.574 9.312 266.044C9.62133 266.513 9.776 267.052 9.776 267.66C9.776 268.257 9.63733 268.801 9.36 269.292C9.09333 269.782 8.69333 270.172 8.16 270.46C7.62667 270.748 6.992 270.892 6.256 270.892H1.76ZM5.888 264.444C6.58133 264.444 7.10933 264.289 7.472 263.98C7.83467 263.66 8.016 263.217 8.016 262.652C8.016 262.097 7.83467 261.676 7.472 261.388C7.12 261.1 6.592 260.956 5.888 260.956H2.912V264.444H5.888ZM6.048 269.628C6.73067 269.628 7.264 269.446 7.648 269.084C8.04267 268.71 8.24 268.236 8.24 267.66C8.24 267.073 8.04267 266.598 7.648 266.236C7.264 265.873 6.73067 265.692 6.048 265.692H2.912V269.628H6.048ZM12.2559 270.892C12.1492 270.892 12.0585 270.86 11.9839 270.796C11.9199 270.721 11.8879 270.63 11.8879 270.524V259.9C11.8879 259.782 11.9199 259.692 11.9839 259.628C12.0585 259.564 12.1492 259.532 12.2559 259.532H12.9599C13.0665 259.532 13.1519 259.569 13.2159 259.644C13.2905 259.708 13.3279 259.793 13.3279 259.9V270.524C13.3279 270.63 13.2905 270.721 13.2159 270.796C13.1519 270.86 13.0665 270.892 12.9599 270.892H12.2559ZM19.1073 271.052C17.9339 271.052 17.0273 270.721 16.3873 270.06C15.7579 269.398 15.4219 268.518 15.3793 267.42L15.3633 266.732L15.3793 266.044C15.4219 264.945 15.7633 264.065 16.4033 263.404C17.0539 262.742 17.9553 262.412 19.1073 262.412C20.2593 262.412 21.1553 262.742 21.7953 263.404C22.4459 264.065 22.7926 264.945 22.8353 266.044C22.8566 266.278 22.8673 266.508 22.8673 266.732C22.8673 266.956 22.8566 267.185 22.8353 267.42C22.7926 268.518 22.4513 269.398 21.8113 270.06C21.1819 270.721 20.2806 271.052 19.1073 271.052ZM19.1073 269.852C19.7899 269.852 20.3286 269.638 20.7233 269.212C21.1286 268.774 21.3473 268.15 21.3793 267.34C21.3899 267.233 21.3953 267.03 21.3953 266.732C21.3953 266.433 21.3899 266.23 21.3793 266.124C21.3473 265.313 21.1286 264.694 20.7233 264.268C20.3286 263.83 19.7899 263.612 19.1073 263.612C18.4246 263.612 17.8806 263.83 17.4753 264.268C17.0806 264.694 16.8673 265.313 16.8353 266.124L16.8193 266.732L16.8353 267.34C16.8673 268.15 17.0806 268.774 17.4753 269.212C17.8806 269.638 18.4246 269.852 19.1073 269.852ZM28.2635 274.412C27.3782 274.412 26.6688 274.262 26.1355 273.964C25.6022 273.665 25.2235 273.324 24.9995 272.94C24.7862 272.556 24.6795 272.225 24.6795 271.948C24.6795 271.852 24.7168 271.766 24.7915 271.692C24.8662 271.628 24.9515 271.596 25.0475 271.596H25.7515C25.8475 271.596 25.9275 271.617 25.9915 271.66C26.0555 271.713 26.1088 271.804 26.1515 271.932C26.4502 272.785 27.1275 273.212 28.1835 273.212C28.9835 273.212 29.5755 273.041 29.9595 272.7C30.3435 272.358 30.5355 271.756 30.5355 270.892V269.788C29.9168 270.577 29.0528 270.972 27.9435 270.972C26.8128 270.972 25.9648 270.609 25.3995 269.884C24.8448 269.158 24.5515 268.241 24.5195 267.132L24.5035 266.684L24.5195 266.252C24.5515 265.153 24.8448 264.241 25.3995 263.516C25.9648 262.78 26.8128 262.412 27.9435 262.412C29.0635 262.412 29.9382 262.822 30.5675 263.644V262.956C30.5675 262.849 30.5995 262.758 30.6635 262.684C30.7382 262.609 30.8288 262.572 30.9355 262.572H31.6235C31.7302 262.572 31.8155 262.609 31.8795 262.684C31.9542 262.758 31.9915 262.849 31.9915 262.956V270.716C31.9915 273.18 30.7488 274.412 28.2635 274.412ZM28.2315 269.724C28.9782 269.724 29.5382 269.484 29.9115 269.004C30.2955 268.513 30.5035 267.926 30.5355 267.244C30.5462 267.148 30.5515 266.961 30.5515 266.684C30.5515 266.417 30.5462 266.236 30.5355 266.14C30.5035 265.457 30.2955 264.876 29.9115 264.396C29.5382 263.905 28.9782 263.66 28.2315 263.66C27.4635 263.66 26.9035 263.905 26.5515 264.396C26.2102 264.876 26.0235 265.5 25.9915 266.268L25.9755 266.684L25.9915 267.116C26.0235 267.884 26.2102 268.513 26.5515 269.004C26.9035 269.484 27.4635 269.724 28.2315 269.724Z" fill="#4F5665"/>
</svg>
