<svg width="410" height="117" viewBox="0 0 410 117" fill="none" xmlns="http://www.w3.org/2000/svg">
<path d="M11.27 30.1254C9.17 30.1254 7.37333 29.8104 5.88 29.1804C4.38667 28.5504 3.255 27.7221 2.485 26.6954C1.715 25.6687 1.30667 24.5487 1.26 23.3354C1.26 23.1487 1.33 22.9854 1.47 22.8454C1.61 22.6821 1.785 22.6004 1.995 22.6004H5.18C5.43667 22.6004 5.64667 22.6587 5.81 22.7754C5.97333 22.8921 6.125 23.0554 6.265 23.2654C6.49833 24.0587 7.02333 24.7237 7.84 25.2604C8.68 25.7971 9.82333 26.0654 11.27 26.0654C12.9033 26.0654 14.1283 25.7971 14.945 25.2604C15.785 24.7004 16.205 23.9421 16.205 22.9854C16.205 22.3554 15.995 21.8304 15.575 21.4104C15.155 20.9904 14.5133 20.6287 13.65 20.3254C12.81 19.9987 11.55 19.6137 9.87 19.1704C7.11667 18.5171 5.09833 17.6537 3.815 16.5804C2.53167 15.5071 1.89 13.9671 1.89 11.9604C1.89 10.6071 2.26333 9.40539 3.01 8.35539C3.75667 7.28206 4.81833 6.44206 6.195 5.83539C7.595 5.22872 9.21667 4.92539 11.06 4.92539C12.9967 4.92539 14.665 5.26372 16.065 5.94039C17.4883 6.61706 18.5617 7.46872 19.285 8.49539C20.0317 9.49872 20.4283 10.5021 20.475 11.5054C20.475 11.6921 20.405 11.8671 20.265 12.0304C20.125 12.1704 19.95 12.2404 19.74 12.2404H16.415C15.9017 12.2404 15.5517 12.0304 15.365 11.6104C15.2483 10.8637 14.7933 10.2454 14 9.75539C13.2067 9.24206 12.2267 8.98539 11.06 8.98539C9.77667 8.98539 8.76167 9.23039 8.015 9.72039C7.29167 10.2104 6.93 10.9221 6.93 11.8554C6.93 12.4854 7.11667 13.0104 7.49 13.4304C7.86333 13.8504 8.44667 14.2237 9.24 14.5504C10.0333 14.8537 11.1883 15.2037 12.705 15.6004C14.7817 16.0671 16.4267 16.5921 17.64 17.1754C18.8767 17.7587 19.7867 18.4937 20.37 19.3804C20.9533 20.2671 21.245 21.3987 21.245 22.7754C21.245 24.2921 20.825 25.6104 19.985 26.7304C19.1683 27.8271 18.0017 28.6671 16.485 29.2504C14.9917 29.8337 13.2533 30.1254 11.27 30.1254ZM31.5552 30.1254C29.4086 30.1254 27.7169 29.4254 26.4802 28.0254C25.2436 26.6254 24.6252 24.7004 24.6252 22.2504V12.4154C24.6252 12.1587 24.7069 11.9604 24.8702 11.8204C25.0336 11.6571 25.2319 11.5754 25.4652 11.5754H28.6152C28.8486 11.5754 29.0469 11.6571 29.2102 11.8204C29.3736 11.9837 29.4552 12.1821 29.4552 12.4154V22.0404C29.4552 24.9104 30.7036 26.3454 33.2002 26.3454C34.4136 26.3454 35.3702 25.9604 36.0702 25.1904C36.7936 24.4204 37.1552 23.3704 37.1552 22.0404V12.4154C37.1552 12.1587 37.2369 11.9604 37.4002 11.8204C37.5636 11.6571 37.7619 11.5754 37.9952 11.5754H41.1102C41.3669 11.5754 41.5652 11.6571 41.7052 11.8204C41.8686 11.9604 41.9502 12.1587 41.9502 12.4154V28.9354C41.9502 29.1687 41.8686 29.3671 41.7052 29.5304C41.5652 29.6937 41.3669 29.7754 41.1102 29.7754H38.2052C37.9719 29.7754 37.7736 29.6937 37.6102 29.5304C37.4469 29.3671 37.3652 29.1687 37.3652 28.9354V27.5004C36.0819 29.2504 34.1452 30.1254 31.5552 30.1254ZM56.6877 30.1254C54.261 30.1254 52.406 29.2971 51.1227 27.6404V28.9354C51.1227 29.1687 51.041 29.3671 50.8777 29.5304C50.7144 29.6937 50.5044 29.7754 50.2477 29.7754H47.4477C47.2144 29.7754 47.016 29.6937 46.8527 29.5304C46.6894 29.3671 46.6077 29.1687 46.6077 28.9354V5.76539C46.6077 5.50872 46.6894 5.31039 46.8527 5.17039C47.016 5.00706 47.2144 4.92539 47.4477 4.92539H50.4927C50.7494 4.92539 50.9477 5.00706 51.0877 5.17039C51.251 5.31039 51.3327 5.50872 51.3327 5.76539V13.5354C52.6394 11.9954 54.4244 11.2254 56.6877 11.2254C59.0444 11.2254 60.8527 11.9954 62.1127 13.5354C63.396 15.0521 64.0727 17.0471 64.1427 19.5204C64.166 19.8004 64.1777 20.1854 64.1777 20.6754C64.1777 21.1421 64.166 21.5271 64.1427 21.8304C64.0494 24.3504 63.3727 26.3687 62.1127 27.8854C60.8527 29.3787 59.0444 30.1254 56.6877 30.1254ZM55.3577 26.3454C57.8544 26.3454 59.1844 24.8054 59.3477 21.7254C59.371 21.4921 59.3827 21.1421 59.3827 20.6754C59.3827 20.2087 59.371 19.8587 59.3477 19.6254C59.1844 16.5454 57.8544 15.0054 55.3577 15.0054C54.0744 15.0054 53.0944 15.4137 52.4177 16.2304C51.741 17.0471 51.3794 18.0387 51.3327 19.2054C51.3094 19.4854 51.2977 19.9404 51.2977 20.5704C51.2977 21.1771 51.3094 21.6204 51.3327 21.9004C51.3794 23.1371 51.7294 24.1871 52.3827 25.0504C53.036 25.9137 54.0277 26.3454 55.3577 26.3454ZM75.0017 30.1254C73.2284 30.1254 71.7467 29.8571 70.5567 29.3204C69.3667 28.7837 68.4801 28.1654 67.8967 27.4654C67.3367 26.7421 67.0567 26.1237 67.0567 25.6104C67.0567 25.3771 67.1267 25.1904 67.2667 25.0504C67.4301 24.9104 67.6167 24.8404 67.8267 24.8404H70.6967C70.8834 24.8404 71.0467 24.9337 71.1867 25.1204C71.3034 25.2137 71.5601 25.4354 71.9567 25.7854C72.3767 26.1354 72.8434 26.4154 73.3567 26.6254C73.8934 26.8121 74.4767 26.9054 75.1067 26.9054C76.0401 26.9054 76.7984 26.7304 77.3817 26.3804C77.9651 26.0071 78.2567 25.4821 78.2567 24.8054C78.2567 24.3387 78.1167 23.9654 77.8367 23.6854C77.5801 23.3821 77.1017 23.1137 76.4017 22.8804C75.7251 22.6237 74.6984 22.3437 73.3217 22.0404C71.3384 21.6204 69.8684 20.9787 68.9117 20.1154C67.9784 19.2521 67.5117 18.1087 67.5117 16.6854C67.5117 15.7521 67.7917 14.8771 68.3517 14.0604C68.9117 13.2204 69.7401 12.5437 70.8367 12.0304C71.9567 11.4937 73.2867 11.2254 74.8267 11.2254C76.4134 11.2254 77.7784 11.4821 78.9217 11.9954C80.0651 12.4854 80.9284 13.0804 81.5117 13.7804C82.1184 14.4804 82.4217 15.0987 82.4217 15.6354C82.4217 15.8454 82.3401 16.0321 82.1767 16.1954C82.0367 16.3354 81.8617 16.4054 81.6517 16.4054H79.0267C78.7701 16.4054 78.5717 16.3121 78.4317 16.1254C78.2684 16.0087 78.0001 15.7987 77.6267 15.4954C77.2767 15.1687 76.8801 14.9121 76.4367 14.7254C75.9934 14.5387 75.4567 14.4454 74.8267 14.4454C73.9634 14.4454 73.2984 14.6321 72.8317 15.0054C72.3651 15.3787 72.1317 15.8687 72.1317 16.4754C72.1317 16.8954 72.2367 17.2454 72.4467 17.5254C72.6801 17.8054 73.1351 18.0737 73.8117 18.3304C74.4884 18.5637 75.5034 18.8087 76.8567 19.0654C81.0567 19.8821 83.1567 21.7137 83.1567 24.5604C83.1567 26.2171 82.4334 27.5587 80.9867 28.5854C79.5634 29.6121 77.5684 30.1254 75.0017 30.1254ZM94.6088 30.1254C92.0422 30.1254 89.9888 29.4137 88.4488 27.9904C86.9322 26.5671 86.1272 24.5954 86.0338 22.0754L85.9988 20.6754L86.0338 19.2754C86.1272 16.7554 86.9322 14.7837 88.4488 13.3604C89.9888 11.9371 92.0422 11.2254 94.6088 11.2254C96.4522 11.2254 98.0038 11.5521 99.2638 12.2054C100.547 12.8587 101.492 13.6637 102.099 14.6204C102.729 15.5537 103.067 16.4521 103.114 17.3154C103.137 17.5487 103.055 17.7471 102.869 17.9104C102.705 18.0737 102.507 18.1554 102.274 18.1554H99.1588C98.9022 18.1554 98.7155 18.1087 98.5988 18.0154C98.4822 17.8987 98.3655 17.7004 98.2488 17.4204C97.8988 16.5337 97.4322 15.8921 96.8488 15.4954C96.2888 15.0987 95.5655 14.9004 94.6788 14.9004C93.4888 14.9004 92.5555 15.2737 91.8788 16.0204C91.2255 16.7671 90.8755 17.9104 90.8288 19.4504L90.7938 20.7454L90.8288 21.9004C90.9688 24.9337 92.2522 26.4504 94.6788 26.4504C95.5888 26.4504 96.3238 26.2637 96.8838 25.8904C97.4438 25.4937 97.8988 24.8404 98.2488 23.9304C98.3422 23.6737 98.4472 23.4871 98.5638 23.3704C98.7038 23.2537 98.9022 23.1954 99.1588 23.1954H102.274C102.507 23.1954 102.705 23.2771 102.869 23.4404C103.055 23.6037 103.137 23.8021 103.114 24.0354C103.067 24.8521 102.74 25.7387 102.134 26.6954C101.527 27.6287 100.594 28.4337 99.3338 29.1104C98.0738 29.7871 96.4988 30.1254 94.6088 30.1254ZM107.603 29.7754C107.37 29.7754 107.171 29.6937 107.008 29.5304C106.845 29.3671 106.763 29.1687 106.763 28.9354V12.4504C106.763 12.1937 106.845 11.9837 107.008 11.8204C107.171 11.6571 107.37 11.5754 107.603 11.5754H110.473C110.73 11.5754 110.94 11.6571 111.103 11.8204C111.266 11.9837 111.348 12.1937 111.348 12.4504V13.8854C112.515 12.3454 114.195 11.5754 116.388 11.5754H117.858C118.115 11.5754 118.313 11.6571 118.453 11.8204C118.616 11.9604 118.698 12.1587 118.698 12.4154V14.9704C118.698 15.2037 118.616 15.4021 118.453 15.5654C118.313 15.7287 118.115 15.8104 117.858 15.8104H115.093C113.996 15.8104 113.133 16.1254 112.503 16.7554C111.873 17.3854 111.558 18.2487 111.558 19.3454V28.9354C111.558 29.1687 111.476 29.3671 111.313 29.5304C111.15 29.6937 110.951 29.7754 110.718 29.7754H107.603ZM122.126 8.60039C121.893 8.60039 121.695 8.51872 121.531 8.35539C121.368 8.19206 121.286 7.99372 121.286 7.76039V5.20539C121.286 4.94872 121.368 4.73872 121.531 4.57539C121.695 4.41206 121.893 4.33039 122.126 4.33039H125.346C125.603 4.33039 125.813 4.41206 125.976 4.57539C126.14 4.73872 126.221 4.94872 126.221 5.20539V7.76039C126.221 7.99372 126.128 8.19206 125.941 8.35539C125.778 8.51872 125.58 8.60039 125.346 8.60039H122.126ZM122.266 29.7754C122.033 29.7754 121.835 29.6937 121.671 29.5304C121.508 29.3671 121.426 29.1687 121.426 28.9354V12.4154C121.426 12.1587 121.508 11.9604 121.671 11.8204C121.835 11.6571 122.033 11.5754 122.266 11.5754H125.241C125.475 11.5754 125.673 11.6571 125.836 11.8204C126 11.9837 126.081 12.1821 126.081 12.4154V28.9354C126.081 29.1687 126 29.3671 125.836 29.5304C125.673 29.6937 125.475 29.7754 125.241 29.7754H122.266ZM140.804 30.1254C138.377 30.1254 136.522 29.2971 135.239 27.6404V28.9354C135.239 29.1687 135.157 29.3671 134.994 29.5304C134.831 29.6937 134.621 29.7754 134.364 29.7754H131.564C131.331 29.7754 131.132 29.6937 130.969 29.5304C130.806 29.3671 130.724 29.1687 130.724 28.9354V5.76539C130.724 5.50872 130.806 5.31039 130.969 5.17039C131.132 5.00706 131.331 4.92539 131.564 4.92539H134.609C134.866 4.92539 135.064 5.00706 135.204 5.17039C135.367 5.31039 135.449 5.50872 135.449 5.76539V13.5354C136.756 11.9954 138.541 11.2254 140.804 11.2254C143.161 11.2254 144.969 11.9954 146.229 13.5354C147.512 15.0521 148.189 17.0471 148.259 19.5204C148.282 19.8004 148.294 20.1854 148.294 20.6754C148.294 21.1421 148.282 21.5271 148.259 21.8304C148.166 24.3504 147.489 26.3687 146.229 27.8854C144.969 29.3787 143.161 30.1254 140.804 30.1254ZM139.474 26.3454C141.971 26.3454 143.301 24.8054 143.464 21.7254C143.487 21.4921 143.499 21.1421 143.499 20.6754C143.499 20.2087 143.487 19.8587 143.464 19.6254C143.301 16.5454 141.971 15.0054 139.474 15.0054C138.191 15.0054 137.211 15.4137 136.534 16.2304C135.857 17.0471 135.496 18.0387 135.449 19.2054C135.426 19.4854 135.414 19.9404 135.414 20.5704C135.414 21.1771 135.426 21.6204 135.449 21.9004C135.496 23.1371 135.846 24.1871 136.499 25.0504C137.152 25.9137 138.144 26.3454 139.474 26.3454ZM160.063 30.1254C157.45 30.1254 155.373 29.3787 153.833 27.8854C152.316 26.3921 151.511 24.2687 151.418 21.5154L151.383 20.6404C151.383 17.7237 152.141 15.4254 153.658 13.7454C155.198 12.0654 157.321 11.2254 160.028 11.2254C162.805 11.2254 164.94 12.0654 166.433 13.7454C167.95 15.4254 168.708 17.6654 168.708 20.4654V21.2004C168.708 21.4337 168.626 21.6321 168.463 21.7954C168.3 21.9587 168.09 22.0404 167.833 22.0404H156.213V22.3204C156.26 23.6271 156.61 24.7121 157.263 25.5754C157.94 26.4154 158.861 26.8354 160.028 26.8354C161.358 26.8354 162.443 26.2987 163.283 25.2254C163.493 24.9687 163.656 24.8171 163.773 24.7704C163.89 24.7004 164.088 24.6654 164.368 24.6654H167.448C167.658 24.6654 167.833 24.7237 167.973 24.8404C168.136 24.9571 168.218 25.1204 168.218 25.3304C168.218 25.8904 167.88 26.5554 167.203 27.3254C166.55 28.0721 165.605 28.7254 164.368 29.2854C163.131 29.8454 161.696 30.1254 160.063 30.1254ZM163.878 19.0654V18.9954C163.878 17.6187 163.528 16.5221 162.828 15.7054C162.151 14.8654 161.218 14.4454 160.028 14.4454C158.838 14.4454 157.905 14.8654 157.228 15.7054C156.551 16.5221 156.213 17.6187 156.213 18.9954V19.0654H163.878ZM181.646 29.7754C181.413 29.7754 181.215 29.6937 181.051 29.5304C180.888 29.3671 180.806 29.1687 180.806 28.9354V6.15039C180.806 5.89372 180.876 5.68372 181.016 5.52039C181.18 5.35706 181.39 5.27539 181.646 5.27539H184.376C184.82 5.27539 185.158 5.47372 185.391 5.87039L195.401 21.4104V6.15039C195.401 5.89372 195.471 5.68372 195.611 5.52039C195.775 5.35706 195.985 5.27539 196.241 5.27539H199.251C199.508 5.27539 199.718 5.35706 199.881 5.52039C200.045 5.68372 200.126 5.89372 200.126 6.15039V28.9004C200.126 29.1571 200.045 29.3671 199.881 29.5304C199.718 29.6937 199.52 29.7754 199.286 29.7754H196.521C196.055 29.7754 195.705 29.5771 195.471 29.1804L185.496 13.9904V28.9354C185.496 29.1687 185.415 29.3671 185.251 29.5304C185.111 29.6937 184.913 29.7754 184.656 29.7754H181.646ZM213.217 30.1254C210.464 30.1254 208.341 29.4254 206.847 28.0254C205.354 26.6254 204.549 24.6887 204.432 22.2154L204.397 20.6754L204.432 19.1354C204.549 16.6854 205.366 14.7604 206.882 13.3604C208.399 11.9371 210.511 11.2254 213.217 11.2254C215.901 11.2254 218.001 11.9371 219.517 13.3604C221.034 14.7604 221.851 16.6854 221.967 19.1354C221.991 19.4154 222.002 19.9287 222.002 20.6754C222.002 21.4221 221.991 21.9354 221.967 22.2154C221.851 24.6887 221.046 26.6254 219.552 28.0254C218.059 29.4254 215.947 30.1254 213.217 30.1254ZM213.217 26.5904C214.454 26.5904 215.399 26.2054 216.052 25.4354C216.729 24.6654 217.091 23.5337 217.137 22.0404C217.161 21.8071 217.172 21.3521 217.172 20.6754C217.172 19.9987 217.161 19.5437 217.137 19.3104C217.091 17.8171 216.729 16.6854 216.052 15.9154C215.376 15.1221 214.431 14.7254 213.217 14.7254C211.981 14.7254 211.024 15.1221 210.347 15.9154C209.671 16.6854 209.309 17.8171 209.262 19.3104L209.227 20.6754L209.262 22.0404C209.309 23.5337 209.671 24.6654 210.347 25.4354C211.024 26.2054 211.981 26.5904 213.217 26.5904ZM230.337 29.7754C229.753 29.7754 229.368 29.4837 229.182 28.9004L224.177 12.6604C224.153 12.5904 224.142 12.4854 224.142 12.3454C224.142 12.1354 224.212 11.9604 224.352 11.8204C224.492 11.6571 224.667 11.5754 224.877 11.5754H227.537C227.77 11.5754 227.968 11.6454 228.132 11.7854C228.318 11.9254 228.435 12.0771 228.482 12.2404L231.877 23.7554L235.482 12.3454C235.552 12.1354 235.668 11.9604 235.832 11.8204C236.018 11.6571 236.252 11.5754 236.532 11.5754H238.317C238.597 11.5754 238.818 11.6571 238.982 11.8204C239.168 11.9604 239.285 12.1354 239.332 12.3454L242.972 23.7554L246.367 12.2404C246.413 12.0771 246.518 11.9254 246.682 11.7854C246.845 11.6454 247.055 11.5754 247.312 11.5754H249.937C250.147 11.5754 250.322 11.6571 250.462 11.8204C250.625 11.9604 250.707 12.1354 250.707 12.3454L250.637 12.6604L245.632 28.9004C245.538 29.1804 245.398 29.4021 245.212 29.5654C245.048 29.7054 244.815 29.7754 244.512 29.7754H242.202C241.595 29.7754 241.21 29.4837 241.047 28.9004L237.442 17.9104L233.802 28.9004C233.615 29.4837 233.218 29.7754 232.612 29.7754H230.337ZM263.474 29.7754C263.241 29.7754 263.043 29.6937 262.879 29.5304C262.716 29.3671 262.634 29.1687 262.634 28.9354V15.3204H259.799C259.566 15.3204 259.368 15.2387 259.204 15.0754C259.041 14.9121 258.959 14.7137 258.959 14.4804V12.4154C258.959 12.1821 259.041 11.9837 259.204 11.8204C259.368 11.6571 259.566 11.5754 259.799 11.5754H262.634V10.1754C262.634 8.05206 263.206 6.47706 264.349 5.45039C265.493 4.40039 267.219 3.87539 269.529 3.87539H271.944C272.178 3.87539 272.376 3.95706 272.539 4.12039C272.703 4.28372 272.784 4.48206 272.784 4.71539V6.78039C272.784 7.01372 272.703 7.21206 272.539 7.37539C272.376 7.53872 272.178 7.62039 271.944 7.62039H269.704C268.794 7.62039 268.153 7.84206 267.779 8.28539C267.406 8.72872 267.219 9.41706 267.219 10.3504V11.5754H271.594C271.828 11.5754 272.026 11.6571 272.189 11.8204C272.353 11.9837 272.434 12.1821 272.434 12.4154V14.4804C272.434 14.7137 272.353 14.9121 272.189 15.0754C272.026 15.2387 271.828 15.3204 271.594 15.3204H267.219V28.9354C267.219 29.1687 267.138 29.3671 266.974 29.5304C266.834 29.6937 266.636 29.7754 266.379 29.7754H263.474ZM283.012 30.1254C280.259 30.1254 278.136 29.4254 276.642 28.0254C275.149 26.6254 274.344 24.6887 274.227 22.2154L274.192 20.6754L274.227 19.1354C274.344 16.6854 275.161 14.7604 276.677 13.3604C278.194 11.9371 280.306 11.2254 283.012 11.2254C285.696 11.2254 287.796 11.9371 289.312 13.3604C290.829 14.7604 291.646 16.6854 291.762 19.1354C291.786 19.4154 291.797 19.9287 291.797 20.6754C291.797 21.4221 291.786 21.9354 291.762 22.2154C291.646 24.6887 290.841 26.6254 289.347 28.0254C287.854 29.4254 285.742 30.1254 283.012 30.1254ZM283.012 26.5904C284.249 26.5904 285.194 26.2054 285.847 25.4354C286.524 24.6654 286.886 23.5337 286.932 22.0404C286.956 21.8071 286.967 21.3521 286.967 20.6754C286.967 19.9987 286.956 19.5437 286.932 19.3104C286.886 17.8171 286.524 16.6854 285.847 15.9154C285.171 15.1221 284.226 14.7254 283.012 14.7254C281.776 14.7254 280.819 15.1221 280.142 15.9154C279.466 16.6854 279.104 17.8171 279.057 19.3104L279.022 20.6754L279.057 22.0404C279.104 23.5337 279.466 24.6654 280.142 25.4354C280.819 26.2054 281.776 26.5904 283.012 26.5904ZM296.514 29.7754C296.281 29.7754 296.083 29.6937 295.919 29.5304C295.756 29.3671 295.674 29.1687 295.674 28.9354V12.4504C295.674 12.1937 295.756 11.9837 295.919 11.8204C296.083 11.6571 296.281 11.5754 296.514 11.5754H299.384C299.641 11.5754 299.851 11.6571 300.014 11.8204C300.178 11.9837 300.259 12.1937 300.259 12.4504V13.8854C301.426 12.3454 303.106 11.5754 305.299 11.5754H306.769C307.026 11.5754 307.224 11.6571 307.364 11.8204C307.528 11.9604 307.609 12.1587 307.609 12.4154V14.9704C307.609 15.2037 307.528 15.4021 307.364 15.5654C307.224 15.7287 307.026 15.8104 306.769 15.8104H304.004C302.908 15.8104 302.044 16.1254 301.414 16.7554C300.784 17.3854 300.469 18.2487 300.469 19.3454V28.9354C300.469 29.1687 300.388 29.3671 300.224 29.5304C300.061 29.6937 299.863 29.7754 299.629 29.7754H296.514ZM12.285 75.1254C9.065 75.1254 6.55667 74.2971 4.76 72.6404C2.98667 70.9837 2.04167 68.6737 1.925 65.7104C1.90167 65.0337 1.89 63.9487 1.89 62.4554C1.89 60.9621 1.90167 59.8771 1.925 59.2004C2.01833 56.3071 2.975 54.0437 4.795 52.4104C6.615 50.7537 9.11167 49.9254 12.285 49.9254C14.4317 49.9254 16.275 50.2987 17.815 51.0454C19.3783 51.7687 20.5567 52.6787 21.35 53.7754C22.1433 54.8487 22.5633 55.9104 22.61 56.9604C22.61 57.1704 22.54 57.3454 22.4 57.4854C22.26 57.6254 22.0733 57.6954 21.84 57.6954H18.165C17.9317 57.6954 17.7567 57.6487 17.64 57.5554C17.5233 57.4621 17.4183 57.3104 17.325 57.1004C16.9983 56.2371 16.4267 55.5021 15.61 54.8954C14.7933 54.2887 13.685 53.9854 12.285 53.9854C10.6517 53.9854 9.36833 54.4287 8.435 55.3154C7.525 56.1787 7.04667 57.5321 7 59.3754C6.97667 60.0521 6.965 61.0787 6.965 62.4554C6.965 63.8087 6.97667 64.8354 7 65.5354C7.04667 67.4254 7.53667 68.8254 8.47 69.7354C9.40333 70.6221 10.6867 71.0654 12.32 71.0654C13.9767 71.0654 15.3067 70.6221 16.31 69.7354C17.3133 68.8487 17.815 67.5187 17.815 65.7454V64.6604H13.545C13.3117 64.6604 13.1133 64.5787 12.95 64.4154C12.7867 64.2521 12.705 64.0537 12.705 63.8204V61.8954C12.705 61.6621 12.7867 61.4637 12.95 61.3004C13.1133 61.1371 13.3117 61.0554 13.545 61.0554H21.945C22.2017 61.0554 22.4117 61.1371 22.575 61.3004C22.7383 61.4637 22.82 61.6621 22.82 61.8954V65.6054C22.82 67.5421 22.3883 69.2337 21.525 70.6804C20.6617 72.1037 19.4367 73.2004 17.85 73.9704C16.2633 74.7404 14.4083 75.1254 12.285 75.1254ZM34.726 75.1254C32.1127 75.1254 30.036 74.3787 28.496 72.8854C26.9793 71.3921 26.1743 69.2687 26.081 66.5154L26.046 65.6404C26.046 62.7237 26.8043 60.4254 28.321 58.7454C29.861 57.0654 31.9843 56.2254 34.691 56.2254C37.4677 56.2254 39.6027 57.0654 41.096 58.7454C42.6127 60.4254 43.371 62.6654 43.371 65.4654V66.2004C43.371 66.4337 43.2894 66.6321 43.126 66.7954C42.9627 66.9587 42.7527 67.0404 42.496 67.0404H30.876V67.3204C30.9227 68.6271 31.2727 69.7121 31.926 70.5754C32.6027 71.4154 33.5243 71.8354 34.691 71.8354C36.021 71.8354 37.106 71.2987 37.946 70.2254C38.156 69.9687 38.3193 69.8171 38.436 69.7704C38.5527 69.7004 38.751 69.6654 39.031 69.6654H42.111C42.321 69.6654 42.496 69.7237 42.636 69.8404C42.7994 69.9571 42.881 70.1204 42.881 70.3304C42.881 70.8904 42.5427 71.5554 41.866 72.3254C41.2127 73.0721 40.2677 73.7254 39.031 74.2854C37.7944 74.8454 36.3593 75.1254 34.726 75.1254ZM38.541 64.0654V63.9954C38.541 62.6187 38.191 61.5221 37.491 60.7054C36.8143 59.8654 35.881 59.4454 34.691 59.4454C33.501 59.4454 32.5677 59.8654 31.891 60.7054C31.2143 61.5221 30.876 62.6187 30.876 63.9954V64.0654H38.541ZM55.277 74.7754C53.1537 74.7754 51.5554 74.2271 50.482 73.1304C49.4087 72.0104 48.872 70.3771 48.872 68.2304V60.3204H46.107C45.8737 60.3204 45.6754 60.2387 45.512 60.0754C45.3487 59.9121 45.267 59.7137 45.267 59.4804V57.4154C45.267 57.1821 45.3487 56.9837 45.512 56.8204C45.6754 56.6571 45.8737 56.5754 46.107 56.5754H48.872V50.7654C48.872 50.5087 48.9537 50.3104 49.117 50.1704C49.2804 50.0071 49.4787 49.9254 49.712 49.9254H52.617C52.8737 49.9254 53.072 50.0071 53.212 50.1704C53.3754 50.3104 53.457 50.5087 53.457 50.7654V56.5754H57.832C58.0654 56.5754 58.2637 56.6571 58.427 56.8204C58.5904 56.9837 58.672 57.1821 58.672 57.4154V59.4804C58.672 59.7137 58.5904 59.9121 58.427 60.0754C58.2637 60.2387 58.0654 60.3204 57.832 60.3204H53.457V67.8454C53.457 68.8487 53.632 69.6071 53.982 70.1204C54.332 70.6337 54.9037 70.8904 55.697 70.8904H58.147C58.4037 70.8904 58.602 70.9721 58.742 71.1354C58.9054 71.2754 58.987 71.4737 58.987 71.7304V73.9354C58.987 74.1687 58.9054 74.3671 58.742 74.5304C58.602 74.6937 58.4037 74.7754 58.147 74.7754H55.277ZM79.0141 75.1254C76.9141 75.1254 75.1175 74.8104 73.6241 74.1804C72.1308 73.5504 70.9991 72.7221 70.2291 71.6954C69.4591 70.6687 69.0508 69.5487 69.0041 68.3354C69.0041 68.1487 69.0741 67.9854 69.2141 67.8454C69.3541 67.6821 69.5291 67.6004 69.7391 67.6004H72.9241C73.1808 67.6004 73.3908 67.6587 73.5541 67.7754C73.7175 67.8921 73.8691 68.0554 74.0091 68.2654C74.2425 69.0587 74.7675 69.7237 75.5841 70.2604C76.4241 70.7971 77.5675 71.0654 79.0141 71.0654C80.6475 71.0654 81.8725 70.7971 82.6891 70.2604C83.5291 69.7004 83.9491 68.9421 83.9491 67.9854C83.9491 67.3554 83.7391 66.8304 83.3191 66.4104C82.8991 65.9904 82.2575 65.6287 81.3941 65.3254C80.5541 64.9987 79.2941 64.6137 77.6141 64.1704C74.8608 63.5171 72.8425 62.6537 71.5591 61.5804C70.2758 60.5071 69.6341 58.9671 69.6341 56.9604C69.6341 55.6071 70.0075 54.4054 70.7541 53.3554C71.5008 52.2821 72.5625 51.4421 73.9391 50.8354C75.3391 50.2287 76.9608 49.9254 78.8041 49.9254C80.7408 49.9254 82.4091 50.2637 83.8091 50.9404C85.2325 51.6171 86.3058 52.4687 87.0291 53.4954C87.7758 54.4987 88.1725 55.5021 88.2191 56.5054C88.2191 56.6921 88.1491 56.8671 88.0091 57.0304C87.8691 57.1704 87.6941 57.2404 87.4841 57.2404H84.1591C83.6458 57.2404 83.2958 57.0304 83.1091 56.6104C82.9925 55.8637 82.5375 55.2454 81.7441 54.7554C80.9508 54.2421 79.9708 53.9854 78.8041 53.9854C77.5208 53.9854 76.5058 54.2304 75.7591 54.7204C75.0358 55.2104 74.6741 55.9221 74.6741 56.8554C74.6741 57.4854 74.8608 58.0104 75.2341 58.4304C75.6075 58.8504 76.1908 59.2237 76.9841 59.5504C77.7775 59.8537 78.9325 60.2037 80.4491 60.6004C82.5258 61.0671 84.1708 61.5921 85.3841 62.1754C86.6208 62.7587 87.5308 63.4937 88.1141 64.3804C88.6975 65.2671 88.9891 66.3987 88.9891 67.7754C88.9891 69.2921 88.5691 70.6104 87.7291 71.7304C86.9125 72.8271 85.7458 73.6671 84.2291 74.2504C82.7358 74.8337 80.9975 75.1254 79.0141 75.1254ZM93.4194 81.4254C93.186 81.4254 92.9877 81.3437 92.8244 81.1804C92.661 81.0404 92.5794 80.8421 92.5794 80.5854V57.4154C92.5794 57.1587 92.661 56.9604 92.8244 56.8204C92.9877 56.6571 93.186 56.5754 93.4194 56.5754H96.2194C96.476 56.5754 96.686 56.6571 96.8494 56.8204C97.0127 56.9837 97.0944 57.1821 97.0944 57.4154V58.8154C98.331 57.0887 100.186 56.2254 102.659 56.2254C105.016 56.2254 106.824 56.9721 108.084 58.4654C109.344 59.9354 110.021 61.9187 110.114 64.4154C110.138 64.6954 110.149 65.1154 110.149 65.6754C110.149 66.2354 110.138 66.6554 110.114 66.9354C110.044 69.3854 109.368 71.3687 108.084 72.8854C106.824 74.3787 105.016 75.1254 102.659 75.1254C100.326 75.1254 98.541 74.2971 97.3044 72.6404V80.5854C97.3044 80.8421 97.2227 81.0404 97.0594 81.1804C96.9194 81.3437 96.721 81.4254 96.4644 81.4254H93.4194ZM101.329 71.3454C103.826 71.3454 105.156 69.8054 105.319 66.7254C105.343 66.4921 105.354 66.1421 105.354 65.6754C105.354 65.2087 105.343 64.8587 105.319 64.6254C105.156 61.5454 103.826 60.0054 101.329 60.0054C99.9994 60.0054 99.0077 60.4371 98.3544 61.3004C97.701 62.1637 97.351 63.2137 97.3044 64.4504C97.281 64.7304 97.2694 65.1737 97.2694 65.7804C97.2694 66.3871 97.281 66.8421 97.3044 67.1454C97.351 68.3121 97.7127 69.3037 98.3894 70.1204C99.066 70.9371 100.046 71.3454 101.329 71.3454ZM121.918 75.1254C119.305 75.1254 117.228 74.3787 115.688 72.8854C114.172 71.3921 113.367 69.2687 113.273 66.5154L113.238 65.6404C113.238 62.7237 113.997 60.4254 115.513 58.7454C117.053 57.0654 119.177 56.2254 121.883 56.2254C124.66 56.2254 126.795 57.0654 128.288 58.7454C129.805 60.4254 130.563 62.6654 130.563 65.4654V66.2004C130.563 66.4337 130.482 66.6321 130.318 66.7954C130.155 66.9587 129.945 67.0404 129.688 67.0404H118.068V67.3204C118.115 68.6271 118.465 69.7121 119.118 70.5754C119.795 71.4154 120.717 71.8354 121.883 71.8354C123.213 71.8354 124.298 71.2987 125.138 70.2254C125.348 69.9687 125.512 69.8171 125.628 69.7704C125.745 69.7004 125.943 69.6654 126.223 69.6654H129.303C129.513 69.6654 129.688 69.7237 129.828 69.8404C129.992 69.9571 130.073 70.1204 130.073 70.3304C130.073 70.8904 129.735 71.5554 129.058 72.3254C128.405 73.0721 127.46 73.7254 126.223 74.2854C124.987 74.8454 123.552 75.1254 121.918 75.1254ZM125.733 64.0654V63.9954C125.733 62.6187 125.383 61.5221 124.683 60.7054C124.007 59.8654 123.073 59.4454 121.883 59.4454C120.693 59.4454 119.76 59.8654 119.083 60.7054C118.407 61.5221 118.068 62.6187 118.068 63.9954V64.0654H125.733ZM142.153 75.1254C139.586 75.1254 137.533 74.4137 135.993 72.9904C134.476 71.5671 133.671 69.5954 133.578 67.0754L133.543 65.6754L133.578 64.2754C133.671 61.7554 134.476 59.7837 135.993 58.3604C137.533 56.9371 139.586 56.2254 142.153 56.2254C143.996 56.2254 145.548 56.5521 146.808 57.2054C148.091 57.8587 149.036 58.6637 149.643 59.6204C150.273 60.5537 150.611 61.4521 150.658 62.3154C150.681 62.5487 150.599 62.7471 150.413 62.9104C150.249 63.0737 150.051 63.1554 149.818 63.1554H146.703C146.446 63.1554 146.259 63.1087 146.143 63.0154C146.026 62.8987 145.909 62.7004 145.793 62.4204C145.443 61.5337 144.976 60.8921 144.393 60.4954C143.833 60.0987 143.109 59.9004 142.223 59.9004C141.033 59.9004 140.099 60.2737 139.423 61.0204C138.769 61.7671 138.419 62.9104 138.373 64.4504L138.338 65.7454L138.373 66.9004C138.513 69.9337 139.796 71.4504 142.223 71.4504C143.133 71.4504 143.868 71.2637 144.428 70.8904C144.988 70.4937 145.443 69.8404 145.793 68.9304C145.886 68.6737 145.991 68.4871 146.108 68.3704C146.248 68.2537 146.446 68.1954 146.703 68.1954H149.818C150.051 68.1954 150.249 68.2771 150.413 68.4404C150.599 68.6037 150.681 68.8021 150.658 69.0354C150.611 69.8521 150.284 70.7387 149.678 71.6954C149.071 72.6287 148.138 73.4337 146.878 74.1104C145.618 74.7871 144.043 75.1254 142.153 75.1254ZM155.007 53.6004C154.774 53.6004 154.575 53.5187 154.412 53.3554C154.249 53.1921 154.167 52.9937 154.167 52.7604V50.2054C154.167 49.9487 154.249 49.7387 154.412 49.5754C154.575 49.4121 154.774 49.3304 155.007 49.3304H158.227C158.484 49.3304 158.694 49.4121 158.857 49.5754C159.02 49.7387 159.102 49.9487 159.102 50.2054V52.7604C159.102 52.9937 159.009 53.1921 158.822 53.3554C158.659 53.5187 158.46 53.6004 158.227 53.6004H155.007ZM155.147 74.7754C154.914 74.7754 154.715 74.6937 154.552 74.5304C154.389 74.3671 154.307 74.1687 154.307 73.9354V57.4154C154.307 57.1587 154.389 56.9604 154.552 56.8204C154.715 56.6571 154.914 56.5754 155.147 56.5754H158.122C158.355 56.5754 158.554 56.6571 158.717 56.8204C158.88 56.9837 158.962 57.1821 158.962 57.4154V73.9354C158.962 74.1687 158.88 74.3671 158.717 74.5304C158.554 74.6937 158.355 74.7754 158.122 74.7754H155.147ZM168.855 75.1254C167.665 75.1254 166.568 74.8921 165.565 74.4254C164.585 73.9354 163.803 73.2821 163.22 72.4654C162.66 71.6487 162.38 70.7504 162.38 69.7704C162.38 68.1837 163.021 66.9004 164.305 65.9204C165.588 64.9404 167.35 64.2754 169.59 63.9254L174.385 63.2254V62.4904C174.385 61.4871 174.128 60.7287 173.615 60.2154C173.101 59.7021 172.285 59.4454 171.165 59.4454C170.395 59.4454 169.776 59.5854 169.31 59.8654C168.843 60.1454 168.458 60.4371 168.155 60.7404C167.875 61.0204 167.688 61.2071 167.595 61.3004C167.501 61.5804 167.326 61.7204 167.07 61.7204H164.34C164.13 61.7204 163.943 61.6504 163.78 61.5104C163.64 61.3704 163.57 61.1837 163.57 60.9504C163.593 60.3671 163.873 59.7137 164.41 58.9904C164.97 58.2437 165.821 57.6021 166.965 57.0654C168.108 56.5054 169.52 56.2254 171.2 56.2254C173.953 56.2254 175.96 56.8437 177.22 58.0804C178.48 59.3171 179.11 60.9387 179.11 62.9454V73.9354C179.11 74.1687 179.028 74.3671 178.865 74.5304C178.725 74.6937 178.526 74.7754 178.27 74.7754H175.365C175.131 74.7754 174.933 74.6937 174.77 74.5304C174.606 74.3671 174.525 74.1687 174.525 73.9354V72.5704C174.011 73.3171 173.288 73.9354 172.355 74.4254C171.421 74.8921 170.255 75.1254 168.855 75.1254ZM170.045 71.7654C171.328 71.7654 172.378 71.3454 173.195 70.5054C174.011 69.6654 174.42 68.4521 174.42 66.8654V66.1654L170.92 66.7254C168.236 67.1454 166.895 68.0437 166.895 69.4204C166.895 70.1671 167.198 70.7504 167.805 71.1704C168.435 71.5671 169.181 71.7654 170.045 71.7654ZM184.474 74.7754C184.241 74.7754 184.042 74.6937 183.879 74.5304C183.716 74.3671 183.634 74.1687 183.634 73.9354V50.7654C183.634 50.5087 183.716 50.3104 183.879 50.1704C184.042 50.0071 184.241 49.9254 184.474 49.9254H187.414C187.671 49.9254 187.869 50.0071 188.009 50.1704C188.172 50.3104 188.254 50.5087 188.254 50.7654V73.9354C188.254 74.1687 188.172 74.3671 188.009 74.5304C187.869 74.6937 187.671 74.7754 187.414 74.7754H184.474ZM202.12 74.7754C201.886 74.7754 201.688 74.6937 201.525 74.5304C201.361 74.3671 201.28 74.1687 201.28 73.9354V51.1504C201.28 50.8937 201.35 50.6837 201.49 50.5204C201.653 50.3571 201.863 50.2754 202.12 50.2754H217.345C217.601 50.2754 217.811 50.3571 217.975 50.5204C218.138 50.6837 218.22 50.8937 218.22 51.1504V53.6704C218.22 53.9037 218.138 54.1021 217.975 54.2654C217.811 54.4287 217.601 54.5104 217.345 54.5104H206.145V61.0904H216.645C216.901 61.0904 217.111 61.1721 217.275 61.3354C217.438 61.4987 217.52 61.6971 217.52 61.9304V64.4504C217.52 64.6837 217.438 64.8821 217.275 65.0454C217.111 65.2087 216.901 65.2904 216.645 65.2904H206.145V73.9354C206.145 74.1687 206.063 74.3671 205.9 74.5304C205.736 74.6937 205.526 74.7754 205.27 74.7754H202.12ZM229.448 75.1254C226.834 75.1254 224.758 74.3787 223.218 72.8854C221.701 71.3921 220.896 69.2687 220.803 66.5154L220.768 65.6404C220.768 62.7237 221.526 60.4254 223.043 58.7454C224.583 57.0654 226.706 56.2254 229.413 56.2254C232.189 56.2254 234.324 57.0654 235.818 58.7454C237.334 60.4254 238.093 62.6654 238.093 65.4654V66.2004C238.093 66.4337 238.011 66.6321 237.848 66.7954C237.684 66.9587 237.474 67.0404 237.218 67.0404H225.598V67.3204C225.644 68.6271 225.994 69.7121 226.648 70.5754C227.324 71.4154 228.246 71.8354 229.413 71.8354C230.743 71.8354 231.828 71.2987 232.668 70.2254C232.878 69.9687 233.041 69.8171 233.158 69.7704C233.274 69.7004 233.473 69.6654 233.753 69.6654H236.833C237.043 69.6654 237.218 69.7237 237.358 69.8404C237.521 69.9571 237.603 70.1204 237.603 70.3304C237.603 70.8904 237.264 71.5554 236.588 72.3254C235.934 73.0721 234.989 73.7254 233.753 74.2854C232.516 74.8454 231.081 75.1254 229.448 75.1254ZM233.263 64.0654V63.9954C233.263 62.6187 232.913 61.5221 232.213 60.7054C231.536 59.8654 230.603 59.4454 229.413 59.4454C228.223 59.4454 227.289 59.8654 226.613 60.7054C225.936 61.5221 225.598 62.6187 225.598 63.9954V64.0654H233.263ZM247.092 75.1254C245.902 75.1254 244.805 74.8921 243.802 74.4254C242.822 73.9354 242.04 73.2821 241.457 72.4654C240.897 71.6487 240.617 70.7504 240.617 69.7704C240.617 68.1837 241.259 66.9004 242.542 65.9204C243.825 64.9404 245.587 64.2754 247.827 63.9254L252.622 63.2254V62.4904C252.622 61.4871 252.365 60.7287 251.852 60.2154C251.339 59.7021 250.522 59.4454 249.402 59.4454C248.632 59.4454 248.014 59.5854 247.547 59.8654C247.08 60.1454 246.695 60.4371 246.392 60.7404C246.112 61.0204 245.925 61.2071 245.832 61.3004C245.739 61.5804 245.564 61.7204 245.307 61.7204H242.577C242.367 61.7204 242.18 61.6504 242.017 61.5104C241.877 61.3704 241.807 61.1837 241.807 60.9504C241.83 60.3671 242.11 59.7137 242.647 58.9904C243.207 58.2437 244.059 57.6021 245.202 57.0654C246.345 56.5054 247.757 56.2254 249.437 56.2254C252.19 56.2254 254.197 56.8437 255.457 58.0804C256.717 59.3171 257.347 60.9387 257.347 62.9454V73.9354C257.347 74.1687 257.265 74.3671 257.102 74.5304C256.962 74.6937 256.764 74.7754 256.507 74.7754H253.602C253.369 74.7754 253.17 74.6937 253.007 74.5304C252.844 74.3671 252.762 74.1687 252.762 73.9354V72.5704C252.249 73.3171 251.525 73.9354 250.592 74.4254C249.659 74.8921 248.492 75.1254 247.092 75.1254ZM248.282 71.7654C249.565 71.7654 250.615 71.3454 251.432 70.5054C252.249 69.6654 252.657 68.4521 252.657 66.8654V66.1654L249.157 66.7254C246.474 67.1454 245.132 68.0437 245.132 69.4204C245.132 70.1671 245.435 70.7504 246.042 71.1704C246.672 71.5671 247.419 71.7654 248.282 71.7654ZM269.925 74.7754C267.802 74.7754 266.204 74.2271 265.13 73.1304C264.057 72.0104 263.52 70.3771 263.52 68.2304V60.3204H260.755C260.522 60.3204 260.324 60.2387 260.16 60.0754C259.997 59.9121 259.915 59.7137 259.915 59.4804V57.4154C259.915 57.1821 259.997 56.9837 260.16 56.8204C260.324 56.6571 260.522 56.5754 260.755 56.5754H263.52V50.7654C263.52 50.5087 263.602 50.3104 263.765 50.1704C263.929 50.0071 264.127 49.9254 264.36 49.9254H267.265C267.522 49.9254 267.72 50.0071 267.86 50.1704C268.024 50.3104 268.105 50.5087 268.105 50.7654V56.5754H272.48C272.714 56.5754 272.912 56.6571 273.075 56.8204C273.239 56.9837 273.32 57.1821 273.32 57.4154V59.4804C273.32 59.7137 273.239 59.9121 273.075 60.0754C272.912 60.2387 272.714 60.3204 272.48 60.3204H268.105V67.8454C268.105 68.8487 268.28 69.6071 268.63 70.1204C268.98 70.6337 269.552 70.8904 270.345 70.8904H272.795C273.052 70.8904 273.25 70.9721 273.39 71.1354C273.554 71.2754 273.635 71.4737 273.635 71.7304V73.9354C273.635 74.1687 273.554 74.3671 273.39 74.5304C273.25 74.6937 273.052 74.7754 272.795 74.7754H269.925ZM283.494 75.1254C281.347 75.1254 279.655 74.4254 278.419 73.0254C277.182 71.6254 276.564 69.7004 276.564 67.2504V57.4154C276.564 57.1587 276.645 56.9604 276.809 56.8204C276.972 56.6571 277.17 56.5754 277.404 56.5754H280.554C280.787 56.5754 280.985 56.6571 281.149 56.8204C281.312 56.9837 281.394 57.1821 281.394 57.4154V67.0404C281.394 69.9104 282.642 71.3454 285.139 71.3454C286.352 71.3454 287.309 70.9604 288.009 70.1904C288.732 69.4204 289.094 68.3704 289.094 67.0404V57.4154C289.094 57.1587 289.175 56.9604 289.339 56.8204C289.502 56.6571 289.7 56.5754 289.934 56.5754H293.049C293.305 56.5754 293.504 56.6571 293.644 56.8204C293.807 56.9604 293.889 57.1587 293.889 57.4154V73.9354C293.889 74.1687 293.807 74.3671 293.644 74.5304C293.504 74.6937 293.305 74.7754 293.049 74.7754H290.144C289.91 74.7754 289.712 74.6937 289.549 74.5304C289.385 74.3671 289.304 74.1687 289.304 73.9354V72.5004C288.02 74.2504 286.084 75.1254 283.494 75.1254ZM299.351 74.7754C299.118 74.7754 298.92 74.6937 298.756 74.5304C298.593 74.3671 298.511 74.1687 298.511 73.9354V57.4504C298.511 57.1937 298.593 56.9837 298.756 56.8204C298.92 56.6571 299.118 56.5754 299.351 56.5754H302.221C302.478 56.5754 302.688 56.6571 302.851 56.8204C303.015 56.9837 303.096 57.1937 303.096 57.4504V58.8854C304.263 57.3454 305.943 56.5754 308.136 56.5754H309.606C309.863 56.5754 310.061 56.6571 310.201 56.8204C310.365 56.9604 310.446 57.1587 310.446 57.4154V59.9704C310.446 60.2037 310.365 60.4021 310.201 60.5654C310.061 60.7287 309.863 60.8104 309.606 60.8104H306.841C305.745 60.8104 304.881 61.1254 304.251 61.7554C303.621 62.3854 303.306 63.2487 303.306 64.3454V73.9354C303.306 74.1687 303.225 74.3671 303.061 74.5304C302.898 74.6937 302.7 74.7754 302.466 74.7754H299.351ZM320.81 75.1254C318.197 75.1254 316.12 74.3787 314.58 72.8854C313.063 71.3921 312.258 69.2687 312.165 66.5154L312.13 65.6404C312.13 62.7237 312.888 60.4254 314.405 58.7454C315.945 57.0654 318.068 56.2254 320.775 56.2254C323.552 56.2254 325.687 57.0654 327.18 58.7454C328.697 60.4254 329.455 62.6654 329.455 65.4654V66.2004C329.455 66.4337 329.373 66.6321 329.21 66.7954C329.047 66.9587 328.837 67.0404 328.58 67.0404H316.96V67.3204C317.007 68.6271 317.357 69.7121 318.01 70.5754C318.687 71.4154 319.608 71.8354 320.775 71.8354C322.105 71.8354 323.19 71.2987 324.03 70.2254C324.24 69.9687 324.403 69.8171 324.52 69.7704C324.637 69.7004 324.835 69.6654 325.115 69.6654H328.195C328.405 69.6654 328.58 69.7237 328.72 69.8404C328.883 69.9571 328.965 70.1204 328.965 70.3304C328.965 70.8904 328.627 71.5554 327.95 72.3254C327.297 73.0721 326.352 73.7254 325.115 74.2854C323.878 74.8454 322.443 75.1254 320.81 75.1254ZM324.625 64.0654V63.9954C324.625 62.6187 324.275 61.5221 323.575 60.7054C322.898 59.8654 321.965 59.4454 320.775 59.4454C319.585 59.4454 318.652 59.8654 317.975 60.7054C317.298 61.5221 316.96 62.6187 316.96 63.9954V64.0654H324.625ZM340.099 75.1254C338.326 75.1254 336.844 74.8571 335.654 74.3204C334.464 73.7837 333.578 73.1654 332.994 72.4654C332.434 71.7421 332.154 71.1237 332.154 70.6104C332.154 70.3771 332.224 70.1904 332.364 70.0504C332.528 69.9104 332.714 69.8404 332.924 69.8404H335.794C335.981 69.8404 336.144 69.9337 336.284 70.1204C336.401 70.2137 336.658 70.4354 337.054 70.7854C337.474 71.1354 337.941 71.4154 338.454 71.6254C338.991 71.8121 339.574 71.9054 340.204 71.9054C341.138 71.9054 341.896 71.7304 342.479 71.3804C343.063 71.0071 343.354 70.4821 343.354 69.8054C343.354 69.3387 343.214 68.9654 342.934 68.6854C342.678 68.3821 342.199 68.1137 341.499 67.8804C340.823 67.6237 339.796 67.3437 338.419 67.0404C336.436 66.6204 334.966 65.9787 334.009 65.1154C333.076 64.2521 332.609 63.1087 332.609 61.6854C332.609 60.7521 332.889 59.8771 333.449 59.0604C334.009 58.2204 334.838 57.5437 335.934 57.0304C337.054 56.4937 338.384 56.2254 339.924 56.2254C341.511 56.2254 342.876 56.4821 344.019 56.9954C345.163 57.4854 346.026 58.0804 346.609 58.7804C347.216 59.4804 347.519 60.0987 347.519 60.6354C347.519 60.8454 347.438 61.0321 347.274 61.1954C347.134 61.3354 346.959 61.4054 346.749 61.4054H344.124C343.868 61.4054 343.669 61.3121 343.529 61.1254C343.366 61.0087 343.098 60.7987 342.724 60.4954C342.374 60.1687 341.978 59.9121 341.534 59.7254C341.091 59.5387 340.554 59.4454 339.924 59.4454C339.061 59.4454 338.396 59.6321 337.929 60.0054C337.463 60.3787 337.229 60.8687 337.229 61.4754C337.229 61.8954 337.334 62.2454 337.544 62.5254C337.778 62.8054 338.233 63.0737 338.909 63.3304C339.586 63.5637 340.601 63.8087 341.954 64.0654C346.154 64.8821 348.254 66.7137 348.254 69.5604C348.254 71.2171 347.531 72.5587 346.084 73.5854C344.661 74.6121 342.666 75.1254 340.099 75.1254ZM352.776 67.9504C352.543 67.9504 352.345 67.8687 352.181 67.7054C352.018 67.5421 351.936 67.3437 351.936 67.1104V51.1154C351.936 50.8587 352.018 50.6604 352.181 50.5204C352.345 50.3571 352.543 50.2754 352.776 50.2754H355.681C355.915 50.2754 356.113 50.3571 356.276 50.5204C356.44 50.6837 356.521 50.8821 356.521 51.1154V67.1104C356.521 67.3437 356.44 67.5421 356.276 67.7054C356.113 67.8687 355.915 67.9504 355.681 67.9504H352.776ZM352.566 74.7754C352.333 74.7754 352.135 74.6937 351.971 74.5304C351.808 74.3671 351.726 74.1687 351.726 73.9354V70.6104C351.726 70.3537 351.808 70.1554 351.971 70.0154C352.135 69.8521 352.333 69.7704 352.566 69.7704H355.856C356.113 69.7704 356.323 69.8521 356.486 70.0154C356.65 70.1787 356.731 70.3771 356.731 70.6104V73.9354C356.731 74.1687 356.65 74.3671 356.486 74.5304C356.323 74.6937 356.113 74.7754 355.856 74.7754H352.566Z" fill="#0B132A"/>
<path d="M1.76 113.775C1.65333 113.775 1.568 113.743 1.504 113.679C1.44 113.605 1.408 113.514 1.408 113.407V102.943C1.408 102.837 1.44 102.751 1.504 102.687C1.568 102.613 1.65333 102.575 1.76 102.575H2.56C2.66667 102.575 2.752 102.613 2.816 102.687C2.88 102.751 2.912 102.837 2.912 102.943V112.431H8.256C8.37333 112.431 8.464 112.469 8.528 112.543C8.60267 112.607 8.64 112.693 8.64 112.799V113.407C8.64 113.514 8.60267 113.605 8.528 113.679C8.45333 113.743 8.36267 113.775 8.256 113.775H1.76ZM13.2929 113.935C12.2049 113.935 11.3355 113.599 10.6849 112.927C10.0342 112.245 9.67688 111.317 9.61288 110.143L9.59688 109.599L9.61288 109.071C9.67688 107.919 10.0342 107.002 10.6849 106.319C11.3355 105.637 12.2049 105.295 13.2929 105.295C14.4662 105.295 15.3729 105.669 16.0129 106.415C16.6635 107.162 16.9889 108.175 16.9889 109.455V109.743C16.9889 109.85 16.9515 109.941 16.8769 110.015C16.8129 110.079 16.7275 110.111 16.6209 110.111H11.0689V110.255C11.1009 110.949 11.3142 111.541 11.7089 112.031C12.1035 112.522 12.6262 112.767 13.2769 112.767C13.7782 112.767 14.1835 112.671 14.4929 112.479C14.8129 112.277 15.0529 112.069 15.2129 111.855C15.3089 111.727 15.3835 111.653 15.4369 111.631C15.4902 111.599 15.5809 111.583 15.7089 111.583H16.4129C16.5089 111.583 16.5889 111.61 16.6529 111.663C16.7275 111.717 16.7649 111.786 16.7649 111.871C16.7649 112.106 16.6209 112.389 16.3329 112.719C16.0449 113.05 15.6342 113.338 15.1009 113.583C14.5782 113.818 13.9755 113.935 13.2929 113.935ZM15.5329 109.023V108.975C15.5329 108.229 15.3302 107.621 14.9249 107.151C14.5195 106.682 13.9755 106.447 13.2929 106.447C12.5995 106.447 12.0555 106.682 11.6609 107.151C11.2662 107.621 11.0689 108.229 11.0689 108.975V109.023H15.5329ZM22.0875 113.775C20.4342 113.775 19.6075 112.842 19.6075 110.975V106.687H18.3435C18.2368 106.687 18.1515 106.655 18.0875 106.591C18.0235 106.527 17.9915 106.442 17.9915 106.335V105.823C17.9915 105.717 18.0235 105.631 18.0875 105.567C18.1515 105.493 18.2368 105.455 18.3435 105.455H19.6075V102.783C19.6075 102.677 19.6395 102.591 19.7035 102.527C19.7675 102.453 19.8528 102.415 19.9595 102.415H20.6635C20.7702 102.415 20.8555 102.453 20.9195 102.527C20.9942 102.591 21.0315 102.677 21.0315 102.783V105.455H23.0155C23.1222 105.455 23.2075 105.493 23.2715 105.567C23.3462 105.631 23.3835 105.717 23.3835 105.823V106.335C23.3835 106.442 23.3462 106.527 23.2715 106.591C23.2075 106.655 23.1222 106.687 23.0155 106.687H21.0315V110.863C21.0315 111.407 21.1168 111.818 21.2875 112.095C21.4688 112.373 21.7728 112.511 22.1995 112.511H23.1755C23.2822 112.511 23.3675 112.549 23.4315 112.623C23.4955 112.687 23.5275 112.773 23.5275 112.879V113.407C23.5275 113.514 23.4955 113.605 23.4315 113.679C23.3675 113.743 23.2822 113.775 23.1755 113.775H22.0875ZM25.3946 105.919C25.2026 105.919 25.096 105.802 25.0746 105.567L24.8026 102.783V102.719C24.8026 102.623 24.8293 102.549 24.8826 102.495C24.9466 102.442 25.0266 102.415 25.1226 102.415H26.1306C26.2373 102.415 26.3173 102.453 26.3706 102.527C26.4346 102.591 26.4613 102.677 26.4506 102.783L26.1786 105.567C26.1573 105.802 26.0506 105.919 25.8586 105.919H25.3946ZM31.048 113.935C30.312 113.935 29.688 113.818 29.176 113.583C28.6747 113.338 28.3013 113.061 28.056 112.751C27.8107 112.442 27.688 112.186 27.688 111.983C27.688 111.877 27.7253 111.797 27.8 111.743C27.8747 111.679 27.9547 111.647 28.04 111.647H28.712C28.776 111.647 28.824 111.658 28.856 111.679C28.8987 111.701 28.952 111.749 29.016 111.823C29.2613 112.122 29.5333 112.357 29.832 112.527C30.1413 112.698 30.552 112.783 31.064 112.783C31.64 112.783 32.0987 112.677 32.44 112.463C32.792 112.25 32.968 111.941 32.968 111.535C32.968 111.269 32.8933 111.055 32.744 110.895C32.5947 110.735 32.344 110.591 31.992 110.463C31.6507 110.335 31.1387 110.197 30.456 110.047C29.528 109.845 28.872 109.551 28.488 109.167C28.104 108.783 27.912 108.287 27.912 107.679C27.912 107.285 28.0293 106.906 28.264 106.543C28.4987 106.17 28.8453 105.871 29.304 105.647C29.7733 105.413 30.328 105.295 30.968 105.295C31.64 105.295 32.2107 105.407 32.68 105.631C33.16 105.855 33.5173 106.117 33.752 106.415C33.9973 106.714 34.12 106.965 34.12 107.167C34.12 107.263 34.0827 107.343 34.008 107.407C33.944 107.471 33.864 107.503 33.768 107.503H33.16C33.0107 107.503 32.904 107.445 32.84 107.327C32.6587 107.125 32.504 106.97 32.376 106.863C32.2587 106.746 32.0827 106.65 31.848 106.575C31.6133 106.49 31.32 106.447 30.968 106.447C30.4453 106.447 30.0453 106.559 29.768 106.783C29.4907 106.997 29.352 107.285 29.352 107.647C29.352 107.871 29.4107 108.063 29.528 108.223C29.6453 108.373 29.8693 108.517 30.2 108.655C30.5307 108.783 31.0213 108.917 31.672 109.055C32.6853 109.269 33.4 109.573 33.816 109.967C34.2427 110.362 34.456 110.869 34.456 111.487C34.456 111.946 34.3227 112.362 34.056 112.735C33.8 113.109 33.4107 113.402 32.888 113.615C32.376 113.829 31.7627 113.935 31.048 113.935ZM43.1105 113.935C42.3745 113.935 41.7505 113.818 41.2385 113.583C40.7372 113.338 40.3638 113.061 40.1185 112.751C39.8732 112.442 39.7505 112.186 39.7505 111.983C39.7505 111.877 39.7878 111.797 39.8625 111.743C39.9372 111.679 40.0172 111.647 40.1025 111.647H40.7745C40.8385 111.647 40.8865 111.658 40.9185 111.679C40.9612 111.701 41.0145 111.749 41.0785 111.823C41.3238 112.122 41.5958 112.357 41.8945 112.527C42.2038 112.698 42.6145 112.783 43.1265 112.783C43.7025 112.783 44.1612 112.677 44.5025 112.463C44.8545 112.25 45.0305 111.941 45.0305 111.535C45.0305 111.269 44.9558 111.055 44.8065 110.895C44.6572 110.735 44.4065 110.591 44.0545 110.463C43.7132 110.335 43.2012 110.197 42.5185 110.047C41.5905 109.845 40.9345 109.551 40.5505 109.167C40.1665 108.783 39.9745 108.287 39.9745 107.679C39.9745 107.285 40.0918 106.906 40.3265 106.543C40.5612 106.17 40.9078 105.871 41.3665 105.647C41.8358 105.413 42.3905 105.295 43.0305 105.295C43.7025 105.295 44.2732 105.407 44.7425 105.631C45.2225 105.855 45.5798 106.117 45.8145 106.415C46.0598 106.714 46.1825 106.965 46.1825 107.167C46.1825 107.263 46.1452 107.343 46.0705 107.407C46.0065 107.471 45.9265 107.503 45.8305 107.503H45.2225C45.0732 107.503 44.9665 107.445 44.9025 107.327C44.7212 107.125 44.5665 106.97 44.4385 106.863C44.3212 106.746 44.1452 106.65 43.9105 106.575C43.6758 106.49 43.3825 106.447 43.0305 106.447C42.5078 106.447 42.1078 106.559 41.8305 106.783C41.5532 106.997 41.4145 107.285 41.4145 107.647C41.4145 107.871 41.4732 108.063 41.5905 108.223C41.7078 108.373 41.9318 108.517 42.2625 108.655C42.5932 108.783 43.0838 108.917 43.7345 109.055C44.7478 109.269 45.4625 109.573 45.8785 109.967C46.3052 110.362 46.5185 110.869 46.5185 111.487C46.5185 111.946 46.3852 112.362 46.1185 112.735C45.8625 113.109 45.4732 113.402 44.9505 113.615C44.4385 113.829 43.8252 113.935 43.1105 113.935ZM51.4915 113.935C50.4782 113.935 49.6942 113.61 49.1395 112.959C48.5848 112.298 48.3075 111.423 48.3075 110.335V105.823C48.3075 105.717 48.3395 105.631 48.4035 105.567C48.4782 105.493 48.5688 105.455 48.6755 105.455H49.4115C49.5182 105.455 49.6035 105.493 49.6675 105.567C49.7422 105.631 49.7795 105.717 49.7795 105.823V110.255C49.7795 111.877 50.4835 112.687 51.8915 112.687C52.5742 112.687 53.1128 112.474 53.5075 112.047C53.9128 111.61 54.1155 111.013 54.1155 110.255V105.823C54.1155 105.717 54.1475 105.631 54.2115 105.567C54.2862 105.493 54.3768 105.455 54.4835 105.455H55.2195C55.3262 105.455 55.4115 105.493 55.4755 105.567C55.5502 105.631 55.5875 105.717 55.5875 105.823V113.407C55.5875 113.514 55.5502 113.605 55.4755 113.679C55.4115 113.743 55.3262 113.775 55.2195 113.775H54.5315C54.4248 113.775 54.3342 113.743 54.2595 113.679C54.1955 113.605 54.1635 113.514 54.1635 113.407V112.687C53.8542 113.103 53.4915 113.418 53.0755 113.631C52.6595 113.834 52.1315 113.935 51.4915 113.935ZM62.0453 113.935C60.8933 113.935 60.0133 113.53 59.4053 112.719V113.407C59.4053 113.514 59.3679 113.605 59.2933 113.679C59.2293 113.743 59.1439 113.775 59.0373 113.775H58.3653C58.2586 113.775 58.1679 113.743 58.0933 113.679C58.0293 113.605 57.9973 113.514 57.9973 113.407V102.783C57.9973 102.666 58.0293 102.575 58.0933 102.511C58.1679 102.447 58.2586 102.415 58.3653 102.415H59.0853C59.1919 102.415 59.2773 102.453 59.3413 102.527C59.4159 102.591 59.4533 102.677 59.4533 102.783V106.479C60.0506 105.69 60.9146 105.295 62.0453 105.295C63.1653 105.295 64.0026 105.663 64.5573 106.399C65.1226 107.125 65.4213 108.037 65.4533 109.135C65.4639 109.253 65.4693 109.413 65.4693 109.615C65.4693 109.818 65.4639 109.978 65.4533 110.095C65.4213 111.194 65.1226 112.111 64.5573 112.847C64.0026 113.573 63.1653 113.935 62.0453 113.935ZM61.7413 112.687C62.5093 112.687 63.0693 112.447 63.4213 111.967C63.7733 111.487 63.9653 110.858 63.9973 110.079C64.0079 109.973 64.0133 109.818 64.0133 109.615C64.0133 107.567 63.2559 106.543 61.7413 106.543C61.0159 106.543 60.4559 106.783 60.0613 107.263C59.6773 107.733 59.4746 108.293 59.4533 108.943C59.4426 109.061 59.4373 109.269 59.4373 109.567C59.4373 109.855 59.4426 110.058 59.4533 110.175C59.4746 110.858 59.6719 111.45 60.0453 111.951C60.4293 112.442 60.9946 112.687 61.7413 112.687ZM70.3293 113.935C69.5933 113.935 68.9693 113.818 68.4573 113.583C67.9559 113.338 67.5826 113.061 67.3372 112.751C67.0919 112.442 66.9693 112.186 66.9693 111.983C66.9693 111.877 67.0066 111.797 67.0813 111.743C67.1559 111.679 67.2359 111.647 67.3213 111.647H67.9933C68.0573 111.647 68.1053 111.658 68.1373 111.679C68.1799 111.701 68.2333 111.749 68.2973 111.823C68.5426 112.122 68.8146 112.357 69.1133 112.527C69.4226 112.698 69.8333 112.783 70.3453 112.783C70.9213 112.783 71.3799 112.677 71.7213 112.463C72.0733 112.25 72.2493 111.941 72.2493 111.535C72.2493 111.269 72.1746 111.055 72.0253 110.895C71.8759 110.735 71.6253 110.591 71.2733 110.463C70.9319 110.335 70.4199 110.197 69.7373 110.047C68.8093 109.845 68.1533 109.551 67.7693 109.167C67.3853 108.783 67.1933 108.287 67.1933 107.679C67.1933 107.285 67.3106 106.906 67.5453 106.543C67.7799 106.17 68.1266 105.871 68.5853 105.647C69.0546 105.413 69.6093 105.295 70.2493 105.295C70.9213 105.295 71.4919 105.407 71.9613 105.631C72.4413 105.855 72.7986 106.117 73.0333 106.415C73.2786 106.714 73.4013 106.965 73.4013 107.167C73.4013 107.263 73.3639 107.343 73.2893 107.407C73.2253 107.471 73.1453 107.503 73.0493 107.503H72.4413C72.2919 107.503 72.1853 107.445 72.1213 107.327C71.9399 107.125 71.7853 106.97 71.6573 106.863C71.5399 106.746 71.3639 106.65 71.1293 106.575C70.8946 106.49 70.6013 106.447 70.2493 106.447C69.7266 106.447 69.3266 106.559 69.0493 106.783C68.7719 106.997 68.6332 107.285 68.6332 107.647C68.6332 107.871 68.6919 108.063 68.8093 108.223C68.9266 108.373 69.1506 108.517 69.4813 108.655C69.8119 108.783 70.3026 108.917 70.9533 109.055C71.9666 109.269 72.6813 109.573 73.0973 109.967C73.5239 110.362 73.7373 110.869 73.7373 111.487C73.7373 111.946 73.6039 112.362 73.3373 112.735C73.0813 113.109 72.6919 113.402 72.1693 113.615C71.6573 113.829 71.0439 113.935 70.3293 113.935ZM78.9343 113.935C77.7929 113.935 76.9023 113.615 76.2623 112.975C75.6223 112.325 75.2863 111.418 75.2543 110.255L75.2383 109.615L75.2543 108.975C75.2863 107.813 75.6223 106.911 76.2623 106.271C76.9023 105.621 77.7929 105.295 78.9343 105.295C79.7023 105.295 80.3476 105.434 80.8703 105.711C81.4036 105.978 81.7983 106.314 82.0543 106.719C82.3209 107.125 82.4649 107.53 82.4862 107.935C82.4969 108.031 82.4596 108.117 82.3743 108.191C82.2996 108.266 82.2143 108.303 82.1183 108.303H81.4143C81.3076 108.303 81.2276 108.282 81.1743 108.239C81.1209 108.186 81.0676 108.095 81.0143 107.967C80.8223 107.445 80.5556 107.077 80.2143 106.863C79.8836 106.639 79.4623 106.527 78.9503 106.527C78.2783 106.527 77.7449 106.735 77.3503 107.151C76.9556 107.567 76.7423 108.202 76.7103 109.055L76.6943 109.615L76.7103 110.175C76.7423 111.029 76.9556 111.663 77.3503 112.079C77.7449 112.495 78.2783 112.703 78.9503 112.703C79.4729 112.703 79.8996 112.597 80.2303 112.383C80.5609 112.159 80.8223 111.786 81.0143 111.263C81.0676 111.135 81.1209 111.05 81.1743 111.007C81.2276 110.954 81.3076 110.927 81.4143 110.927H82.1183C82.2143 110.927 82.2996 110.965 82.3743 111.039C82.4596 111.114 82.4969 111.199 82.4862 111.295C82.4649 111.69 82.3209 112.09 82.0543 112.495C81.7983 112.901 81.4036 113.242 80.8703 113.519C80.3476 113.797 79.7023 113.935 78.9343 113.935ZM84.7711 113.775C84.6645 113.775 84.5738 113.743 84.4991 113.679C84.4351 113.605 84.4031 113.514 84.4031 113.407V105.839C84.4031 105.733 84.4351 105.642 84.4991 105.567C84.5738 105.493 84.6645 105.455 84.7711 105.455H85.4431C85.5605 105.455 85.6511 105.493 85.7151 105.567C85.7898 105.631 85.8271 105.722 85.8271 105.839V106.543C86.2645 105.818 87.0058 105.455 88.0511 105.455H88.6751C88.7925 105.455 88.8831 105.487 88.9471 105.551C89.0111 105.615 89.0431 105.706 89.0431 105.823V106.415C89.0431 106.522 89.0111 106.613 88.9471 106.687C88.8831 106.751 88.7925 106.783 88.6751 106.783H87.7631C87.1765 106.783 86.7125 106.954 86.3711 107.295C86.0405 107.637 85.8751 108.101 85.8751 108.687V113.407C85.8751 113.514 85.8378 113.605 85.7631 113.679C85.6885 113.743 85.5978 113.775 85.4911 113.775H84.7711ZM90.6588 103.887C90.5521 103.887 90.4614 103.855 90.3868 103.791C90.3228 103.717 90.2908 103.626 90.2908 103.519V102.687C90.2908 102.581 90.3228 102.49 90.3868 102.415C90.4614 102.341 90.5521 102.303 90.6588 102.303H91.6028C91.7094 102.303 91.8001 102.341 91.8748 102.415C91.9494 102.49 91.9868 102.581 91.9868 102.687V103.519C91.9868 103.626 91.9494 103.717 91.8748 103.791C91.8001 103.855 91.7094 103.887 91.6028 103.887H90.6588ZM90.7868 113.775C90.6801 113.775 90.5894 113.743 90.5148 113.679C90.4508 113.605 90.4188 113.514 90.4188 113.407V105.823C90.4188 105.717 90.4508 105.631 90.5148 105.567C90.5894 105.493 90.6801 105.455 90.7868 105.455H91.4908C91.5974 105.455 91.6828 105.493 91.7468 105.567C91.8214 105.631 91.8588 105.717 91.8588 105.823V113.407C91.8588 113.514 91.8214 113.605 91.7468 113.679C91.6828 113.743 91.5974 113.775 91.4908 113.775H90.7868ZM98.3265 113.935C97.1745 113.935 96.2945 113.53 95.6865 112.719V113.407C95.6865 113.514 95.6492 113.605 95.5745 113.679C95.5105 113.743 95.4252 113.775 95.3185 113.775H94.6465C94.5398 113.775 94.4492 113.743 94.3745 113.679C94.3105 113.605 94.2785 113.514 94.2785 113.407V102.783C94.2785 102.666 94.3105 102.575 94.3745 102.511C94.4492 102.447 94.5398 102.415 94.6465 102.415H95.3665C95.4732 102.415 95.5585 102.453 95.6225 102.527C95.6972 102.591 95.7345 102.677 95.7345 102.783V106.479C96.3318 105.69 97.1958 105.295 98.3265 105.295C99.4465 105.295 100.284 105.663 100.839 106.399C101.404 107.125 101.703 108.037 101.735 109.135C101.745 109.253 101.751 109.413 101.751 109.615C101.751 109.818 101.745 109.978 101.735 110.095C101.703 111.194 101.404 112.111 100.839 112.847C100.284 113.573 99.4465 113.935 98.3265 113.935ZM98.0225 112.687C98.7905 112.687 99.3505 112.447 99.7025 111.967C100.055 111.487 100.247 110.858 100.279 110.079C100.289 109.973 100.295 109.818 100.295 109.615C100.295 107.567 99.5372 106.543 98.0225 106.543C97.2972 106.543 96.7372 106.783 96.3425 107.263C95.9585 107.733 95.7558 108.293 95.7345 108.943C95.7238 109.061 95.7185 109.269 95.7185 109.567C95.7185 109.855 95.7238 110.058 95.7345 110.175C95.7558 110.858 95.9532 111.45 96.3265 111.951C96.7105 112.442 97.2758 112.687 98.0225 112.687ZM107.059 113.935C105.971 113.935 105.101 113.599 104.451 112.927C103.8 112.245 103.443 111.317 103.379 110.143L103.363 109.599L103.379 109.071C103.443 107.919 103.8 107.002 104.451 106.319C105.101 105.637 105.971 105.295 107.059 105.295C108.232 105.295 109.139 105.669 109.779 106.415C110.429 107.162 110.755 108.175 110.755 109.455V109.743C110.755 109.85 110.717 109.941 110.642 110.015C110.579 110.079 110.493 110.111 110.387 110.111H104.835V110.255C104.867 110.949 105.08 111.541 105.475 112.031C105.869 112.522 106.392 112.767 107.043 112.767C107.544 112.767 107.949 112.671 108.259 112.479C108.579 112.277 108.819 112.069 108.979 111.855C109.075 111.727 109.149 111.653 109.203 111.631C109.256 111.599 109.347 111.583 109.475 111.583H110.179C110.275 111.583 110.355 111.61 110.419 111.663C110.493 111.717 110.531 111.786 110.531 111.871C110.531 112.106 110.387 112.389 110.099 112.719C109.811 113.05 109.4 113.338 108.867 113.583C108.344 113.818 107.741 113.935 107.059 113.935ZM109.299 109.023V108.975C109.299 108.229 109.096 107.621 108.691 107.151C108.285 106.682 107.741 106.447 107.059 106.447C106.365 106.447 105.821 106.682 105.427 107.151C105.032 107.621 104.835 108.229 104.835 108.975V109.023H109.299ZM118.471 113.775C118.321 113.775 118.209 113.743 118.135 113.679C118.06 113.615 118.001 113.514 117.959 113.375L115.687 105.951L115.655 105.791C115.655 105.695 115.687 105.615 115.751 105.551C115.815 105.487 115.895 105.455 115.991 105.455H116.647C116.753 105.455 116.839 105.487 116.903 105.551C116.977 105.605 117.02 105.658 117.031 105.711L118.839 111.823L120.759 105.791C120.78 105.706 120.828 105.631 120.903 105.567C120.977 105.493 121.079 105.455 121.207 105.455H121.719C121.847 105.455 121.948 105.493 122.023 105.567C122.097 105.631 122.145 105.706 122.167 105.791L124.087 111.823L125.895 105.711C125.905 105.658 125.943 105.605 126.007 105.551C126.081 105.487 126.172 105.455 126.279 105.455H126.935C127.031 105.455 127.111 105.487 127.175 105.551C127.239 105.615 127.271 105.695 127.271 105.791L127.239 105.951L124.967 113.375C124.924 113.514 124.865 113.615 124.791 113.679C124.716 113.743 124.604 113.775 124.455 113.775H123.878C123.601 113.775 123.42 113.642 123.335 113.375L121.463 107.583L119.591 113.375C119.505 113.642 119.324 113.775 119.047 113.775H118.471ZM129.299 103.887C129.193 103.887 129.102 103.855 129.027 103.791C128.963 103.717 128.931 103.626 128.931 103.519V102.687C128.931 102.581 128.963 102.49 129.027 102.415C129.102 102.341 129.193 102.303 129.299 102.303H130.243C130.35 102.303 130.441 102.341 130.515 102.415C130.59 102.49 130.627 102.581 130.627 102.687V103.519C130.627 103.626 130.59 103.717 130.515 103.791C130.441 103.855 130.35 103.887 130.243 103.887H129.299ZM129.427 113.775C129.321 113.775 129.23 113.743 129.155 113.679C129.091 113.605 129.059 113.514 129.059 113.407V105.823C129.059 105.717 129.091 105.631 129.155 105.567C129.23 105.493 129.321 105.455 129.427 105.455H130.131C130.238 105.455 130.323 105.493 130.387 105.567C130.462 105.631 130.499 105.717 130.499 105.823V113.407C130.499 113.514 130.462 113.605 130.387 113.679C130.323 113.743 130.238 113.775 130.131 113.775H129.427ZM136.103 113.775C134.45 113.775 133.623 112.842 133.623 110.975V106.687H132.359C132.252 106.687 132.167 106.655 132.103 106.591C132.039 106.527 132.007 106.442 132.007 106.335V105.823C132.007 105.717 132.039 105.631 132.103 105.567C132.167 105.493 132.252 105.455 132.359 105.455H133.623V102.783C133.623 102.677 133.655 102.591 133.719 102.527C133.783 102.453 133.868 102.415 133.975 102.415H134.679C134.786 102.415 134.871 102.453 134.935 102.527C135.01 102.591 135.047 102.677 135.047 102.783V105.455H137.031C137.138 105.455 137.223 105.493 137.287 105.567C137.362 105.631 137.399 105.717 137.399 105.823V106.335C137.399 106.442 137.362 106.527 137.287 106.591C137.223 106.655 137.138 106.687 137.031 106.687H135.047V110.863C135.047 111.407 135.132 111.818 135.303 112.095C135.484 112.373 135.788 112.511 136.215 112.511H137.191C137.298 112.511 137.383 112.549 137.447 112.623C137.511 112.687 137.543 112.773 137.543 112.879V113.407C137.543 113.514 137.511 113.605 137.447 113.679C137.383 113.743 137.298 113.775 137.191 113.775H136.103ZM139.49 113.775C139.384 113.775 139.293 113.743 139.218 113.679C139.154 113.605 139.122 113.514 139.122 113.407V102.783C139.122 102.666 139.154 102.575 139.218 102.511C139.293 102.447 139.384 102.415 139.49 102.415H140.226C140.344 102.415 140.434 102.447 140.498 102.511C140.562 102.575 140.594 102.666 140.594 102.783V106.511C140.904 106.117 141.266 105.818 141.682 105.615C142.109 105.402 142.632 105.295 143.25 105.295C144.274 105.295 145.069 105.626 145.634 106.287C146.21 106.938 146.498 107.802 146.498 108.879V113.407C146.498 113.514 146.461 113.605 146.386 113.679C146.322 113.743 146.237 113.775 146.13 113.775H145.378C145.272 113.775 145.181 113.743 145.106 113.679C145.042 113.605 145.01 113.514 145.01 113.407V108.975C145.01 108.207 144.824 107.61 144.45 107.183C144.077 106.757 143.538 106.543 142.834 106.543C142.152 106.543 141.608 106.762 141.202 107.199C140.797 107.626 140.594 108.218 140.594 108.975V113.407C140.594 113.514 140.557 113.605 140.482 113.679C140.418 113.743 140.333 113.775 140.226 113.775H139.49ZM155.867 113.935C154.853 113.935 154.069 113.61 153.515 112.959C152.96 112.298 152.683 111.423 152.683 110.335V105.823C152.683 105.717 152.715 105.631 152.779 105.567C152.853 105.493 152.944 105.455 153.051 105.455H153.787C153.893 105.455 153.979 105.493 154.043 105.567C154.117 105.631 154.155 105.717 154.155 105.823V110.255C154.155 111.877 154.859 112.687 156.266 112.687C156.949 112.687 157.488 112.474 157.883 112.047C158.288 111.61 158.491 111.013 158.491 110.255V105.823C158.491 105.717 158.523 105.631 158.587 105.567C158.661 105.493 158.752 105.455 158.859 105.455H159.595C159.701 105.455 159.787 105.493 159.851 105.567C159.925 105.631 159.963 105.717 159.963 105.823V113.407C159.963 113.514 159.925 113.605 159.851 113.679C159.787 113.743 159.701 113.775 159.595 113.775H158.907C158.8 113.775 158.709 113.743 158.635 113.679C158.571 113.605 158.539 113.514 158.539 113.407V112.687C158.229 113.103 157.867 113.418 157.451 113.631C157.035 113.834 156.507 113.935 155.867 113.935ZM165.204 113.935C164.468 113.935 163.844 113.818 163.332 113.583C162.831 113.338 162.458 113.061 162.212 112.751C161.967 112.442 161.844 112.186 161.844 111.983C161.844 111.877 161.882 111.797 161.956 111.743C162.031 111.679 162.111 111.647 162.196 111.647H162.868C162.932 111.647 162.98 111.658 163.012 111.679C163.055 111.701 163.108 111.749 163.172 111.823C163.418 112.122 163.69 112.357 163.988 112.527C164.298 112.698 164.708 112.783 165.22 112.783C165.796 112.783 166.255 112.677 166.596 112.463C166.948 112.25 167.124 111.941 167.124 111.535C167.124 111.269 167.05 111.055 166.9 110.895C166.751 110.735 166.5 110.591 166.148 110.463C165.807 110.335 165.295 110.197 164.612 110.047C163.684 109.845 163.028 109.551 162.644 109.167C162.26 108.783 162.068 108.287 162.068 107.679C162.068 107.285 162.186 106.906 162.42 106.543C162.655 106.17 163.002 105.871 163.46 105.647C163.93 105.413 164.484 105.295 165.124 105.295C165.796 105.295 166.367 105.407 166.836 105.631C167.316 105.855 167.674 106.117 167.908 106.415C168.154 106.714 168.276 106.965 168.276 107.167C168.276 107.263 168.239 107.343 168.164 107.407C168.1 107.471 168.02 107.503 167.924 107.503H167.316C167.167 107.503 167.06 107.445 166.996 107.327C166.815 107.125 166.66 106.97 166.532 106.863C166.415 106.746 166.239 106.65 166.004 106.575C165.77 106.49 165.476 106.447 165.124 106.447C164.602 106.447 164.202 106.559 163.924 106.783C163.647 106.997 163.508 107.285 163.508 107.647C163.508 107.871 163.567 108.063 163.684 108.223C163.802 108.373 164.026 108.517 164.356 108.655C164.687 108.783 165.178 108.917 165.828 109.055C166.842 109.269 167.556 109.573 167.972 109.967C168.399 110.362 168.612 110.869 168.612 111.487C168.612 111.946 168.479 112.362 168.212 112.735C167.956 113.109 167.567 113.402 167.044 113.615C166.532 113.829 165.919 113.935 165.204 113.935ZM176.723 113.935C176.2 113.935 175.715 113.829 175.267 113.615C174.829 113.402 174.477 113.114 174.211 112.751C173.955 112.378 173.827 111.967 173.827 111.519C173.827 110.815 174.115 110.239 174.691 109.791C175.267 109.343 176.051 109.045 177.043 108.895L179.443 108.559V108.095C179.443 106.997 178.808 106.447 177.539 106.447C177.048 106.447 176.653 106.549 176.355 106.751C176.056 106.943 175.837 107.173 175.699 107.439C175.656 107.546 175.608 107.621 175.555 107.663C175.512 107.695 175.448 107.711 175.363 107.711H174.739C174.643 107.711 174.557 107.679 174.483 107.615C174.419 107.541 174.387 107.455 174.387 107.359C174.387 107.114 174.499 106.831 174.723 106.511C174.957 106.181 175.315 105.898 175.795 105.663C176.275 105.418 176.861 105.295 177.555 105.295C178.749 105.295 179.603 105.573 180.115 106.127C180.637 106.682 180.899 107.375 180.899 108.207V113.407C180.899 113.514 180.861 113.605 180.787 113.679C180.723 113.743 180.637 113.775 180.531 113.775H179.827C179.72 113.775 179.635 113.743 179.571 113.679C179.507 113.605 179.475 113.514 179.475 113.407V112.703C179.24 113.055 178.899 113.349 178.451 113.583C178.003 113.818 177.427 113.935 176.723 113.935ZM177.043 112.767C177.747 112.767 178.323 112.538 178.771 112.079C179.219 111.621 179.443 110.954 179.443 110.079V109.631L177.571 109.903C176.803 110.01 176.221 110.191 175.827 110.447C175.432 110.703 175.235 111.023 175.235 111.407C175.235 111.845 175.411 112.181 175.763 112.415C176.125 112.65 176.552 112.767 177.043 112.767ZM183.584 113.775C183.477 113.775 183.386 113.743 183.312 113.679C183.248 113.605 183.216 113.514 183.216 113.407V105.823C183.216 105.717 183.248 105.631 183.312 105.567C183.386 105.493 183.477 105.455 183.584 105.455H184.272C184.389 105.455 184.48 105.487 184.544 105.551C184.608 105.615 184.64 105.706 184.64 105.823V106.527C184.96 106.133 185.328 105.829 185.744 105.615C186.17 105.402 186.698 105.295 187.328 105.295C188.352 105.295 189.146 105.626 189.712 106.287C190.277 106.938 190.56 107.802 190.56 108.879V113.407C190.56 113.514 190.522 113.605 190.448 113.679C190.384 113.743 190.298 113.775 190.192 113.775H189.456C189.349 113.775 189.258 113.743 189.184 113.679C189.12 113.605 189.088 113.514 189.088 113.407V108.975C189.088 108.207 188.901 107.61 188.528 107.183C188.154 106.757 187.621 106.543 186.928 106.543C186.245 106.543 185.701 106.762 185.296 107.199C184.89 107.626 184.688 108.218 184.688 108.975V113.407C184.688 113.514 184.65 113.605 184.576 113.679C184.512 113.743 184.426 113.775 184.32 113.775H183.584ZM195.912 113.935C194.792 113.935 193.949 113.573 193.384 112.847C192.829 112.122 192.531 111.205 192.488 110.095L192.472 109.615L192.488 109.135C192.531 108.037 192.835 107.125 193.4 106.399C193.965 105.663 194.803 105.295 195.912 105.295C197.021 105.295 197.885 105.69 198.504 106.479V102.783C198.504 102.677 198.536 102.591 198.6 102.527C198.675 102.453 198.765 102.415 198.872 102.415H199.592C199.699 102.415 199.784 102.453 199.848 102.527C199.923 102.591 199.96 102.677 199.96 102.783V113.407C199.96 113.514 199.923 113.605 199.848 113.679C199.784 113.743 199.699 113.775 199.592 113.775H198.904C198.797 113.775 198.712 113.743 198.648 113.679C198.584 113.605 198.552 113.514 198.552 113.407V112.719C197.944 113.53 197.064 113.935 195.912 113.935ZM196.216 112.687C196.963 112.687 197.523 112.442 197.896 111.951C198.269 111.45 198.472 110.858 198.504 110.175C198.515 110.058 198.52 109.855 198.52 109.567C198.52 109.269 198.515 109.061 198.504 108.943C198.483 108.293 198.275 107.733 197.88 107.263C197.496 106.783 196.941 106.543 196.216 106.543C195.448 106.543 194.888 106.783 194.536 107.263C194.184 107.743 193.992 108.373 193.96 109.151L193.944 109.615C193.944 111.663 194.701 112.687 196.216 112.687ZM207.213 113.775C207.106 113.775 207.015 113.743 206.941 113.679C206.877 113.605 206.845 113.514 206.845 113.407V106.687H205.469C205.362 106.687 205.271 106.655 205.197 106.591C205.133 106.527 205.101 106.442 205.101 106.335V105.823C205.101 105.717 205.133 105.631 205.197 105.567C205.271 105.493 205.362 105.455 205.469 105.455H206.845V104.655C206.845 103.791 207.053 103.125 207.469 102.655C207.895 102.175 208.589 101.935 209.549 101.935H211.949C212.055 101.935 212.141 101.973 212.205 102.047C212.269 102.111 212.301 102.197 212.301 102.303V102.815C212.301 102.922 212.269 103.007 212.205 103.071C212.141 103.135 212.055 103.167 211.949 103.167H209.581C209.09 103.167 208.749 103.295 208.557 103.551C208.365 103.807 208.269 104.202 208.269 104.735V105.455H211.949C212.055 105.455 212.141 105.493 212.205 105.567C212.269 105.631 212.301 105.717 212.301 105.823V113.407C212.301 113.514 212.269 113.605 212.205 113.679C212.141 113.743 212.055 113.775 211.949 113.775H211.245C211.138 113.775 211.047 113.743 210.973 113.679C210.909 113.605 210.877 113.514 210.877 113.407V106.687H208.269V113.407C208.269 113.514 208.231 113.605 208.157 113.679C208.093 113.743 208.007 113.775 207.901 113.775H207.213ZM215.068 113.775C214.961 113.775 214.871 113.743 214.796 113.679C214.732 113.605 214.7 113.514 214.7 113.407V105.823C214.7 105.717 214.732 105.631 214.796 105.567C214.871 105.493 214.961 105.455 215.068 105.455H215.756C215.873 105.455 215.964 105.487 216.028 105.551C216.092 105.615 216.124 105.706 216.124 105.823V106.527C216.444 106.133 216.812 105.829 217.228 105.615C217.655 105.402 218.183 105.295 218.812 105.295C219.836 105.295 220.631 105.626 221.196 106.287C221.761 106.938 222.044 107.802 222.044 108.879V113.407C222.044 113.514 222.007 113.605 221.932 113.679C221.868 113.743 221.783 113.775 221.676 113.775H220.94C220.833 113.775 220.743 113.743 220.668 113.679C220.604 113.605 220.572 113.514 220.572 113.407V108.975C220.572 108.207 220.385 107.61 220.012 107.183C219.639 106.757 219.105 106.543 218.412 106.543C217.729 106.543 217.185 106.762 216.78 107.199C216.375 107.626 216.172 108.218 216.172 108.975V113.407C216.172 113.514 216.135 113.605 216.06 113.679C215.996 113.743 215.911 113.775 215.804 113.775H215.068ZM227.396 113.935C226.276 113.935 225.434 113.573 224.868 112.847C224.314 112.122 224.015 111.205 223.972 110.095L223.956 109.615L223.972 109.135C224.015 108.037 224.319 107.125 224.884 106.399C225.45 105.663 226.287 105.295 227.396 105.295C228.506 105.295 229.37 105.69 229.988 106.479V102.783C229.988 102.677 230.02 102.591 230.084 102.527C230.159 102.453 230.25 102.415 230.356 102.415H231.076C231.183 102.415 231.268 102.453 231.332 102.527C231.407 102.591 231.444 102.677 231.444 102.783V113.407C231.444 113.514 231.407 113.605 231.332 113.679C231.268 113.743 231.183 113.775 231.076 113.775H230.388C230.282 113.775 230.196 113.743 230.132 113.679C230.068 113.605 230.036 113.514 230.036 113.407V112.719C229.428 113.53 228.548 113.935 227.396 113.935ZM227.7 112.687C228.447 112.687 229.007 112.442 229.38 111.951C229.754 111.45 229.956 110.858 229.988 110.175C229.999 110.058 230.004 109.855 230.004 109.567C230.004 109.269 229.999 109.061 229.988 108.943C229.967 108.293 229.759 107.733 229.364 107.263C228.98 106.783 228.426 106.543 227.7 106.543C226.932 106.543 226.372 106.783 226.02 107.263C225.668 107.743 225.476 108.373 225.444 109.151L225.428 109.615C225.428 111.663 226.186 112.687 227.7 112.687ZM240.65 113.775C238.997 113.775 238.17 112.842 238.17 110.975V106.687H236.906C236.799 106.687 236.714 106.655 236.65 106.591C236.586 106.527 236.554 106.442 236.554 106.335V105.823C236.554 105.717 236.586 105.631 236.65 105.567C236.714 105.493 236.799 105.455 236.906 105.455H238.17V102.783C238.17 102.677 238.202 102.591 238.266 102.527C238.33 102.453 238.415 102.415 238.522 102.415H239.226C239.333 102.415 239.418 102.453 239.482 102.527C239.557 102.591 239.594 102.677 239.594 102.783V105.455H241.578C241.685 105.455 241.77 105.493 241.834 105.567C241.909 105.631 241.946 105.717 241.946 105.823V106.335C241.946 106.442 241.909 106.527 241.834 106.591C241.77 106.655 241.685 106.687 241.578 106.687H239.594V110.863C239.594 111.407 239.679 111.818 239.85 112.095C240.031 112.373 240.335 112.511 240.762 112.511H241.738C241.845 112.511 241.93 112.549 241.994 112.623C242.058 112.687 242.09 112.773 242.09 112.879V113.407C242.09 113.514 242.058 113.605 241.994 113.679C241.93 113.743 241.845 113.775 241.738 113.775H240.65ZM244.037 113.775C243.93 113.775 243.84 113.743 243.765 113.679C243.701 113.605 243.669 113.514 243.669 113.407V102.783C243.669 102.666 243.701 102.575 243.765 102.511C243.84 102.447 243.93 102.415 244.037 102.415H244.773C244.89 102.415 244.981 102.447 245.045 102.511C245.109 102.575 245.141 102.666 245.141 102.783V106.511C245.45 106.117 245.813 105.818 246.229 105.615C246.656 105.402 247.178 105.295 247.797 105.295C248.821 105.295 249.616 105.626 250.181 106.287C250.757 106.938 251.045 107.802 251.045 108.879V113.407C251.045 113.514 251.008 113.605 250.933 113.679C250.869 113.743 250.784 113.775 250.677 113.775H249.925C249.818 113.775 249.728 113.743 249.653 113.679C249.589 113.605 249.557 113.514 249.557 113.407V108.975C249.557 108.207 249.37 107.61 248.997 107.183C248.624 106.757 248.085 106.543 247.381 106.543C246.698 106.543 246.154 106.762 245.749 107.199C245.344 107.626 245.141 108.218 245.141 108.975V113.407C245.141 113.514 245.104 113.605 245.029 113.679C244.965 113.743 244.88 113.775 244.773 113.775H244.037ZM256.668 113.935C255.58 113.935 254.711 113.599 254.06 112.927C253.409 112.245 253.052 111.317 252.988 110.143L252.972 109.599L252.988 109.071C253.052 107.919 253.409 107.002 254.06 106.319C254.711 105.637 255.58 105.295 256.668 105.295C257.841 105.295 258.748 105.669 259.388 106.415C260.039 107.162 260.364 108.175 260.364 109.455V109.743C260.364 109.85 260.327 109.941 260.252 110.015C260.188 110.079 260.103 110.111 259.996 110.111H254.444V110.255C254.476 110.949 254.689 111.541 255.084 112.031C255.479 112.522 256.001 112.767 256.652 112.767C257.153 112.767 257.559 112.671 257.868 112.479C258.188 112.277 258.428 112.069 258.588 111.855C258.684 111.727 258.759 111.653 258.812 111.631C258.865 111.599 258.956 111.583 259.084 111.583H259.788C259.884 111.583 259.964 111.61 260.028 111.663C260.103 111.717 260.14 111.786 260.14 111.871C260.14 112.106 259.996 112.389 259.708 112.719C259.42 113.05 259.009 113.338 258.476 113.583C257.953 113.818 257.351 113.935 256.668 113.935ZM258.908 109.023V108.975C258.908 108.229 258.705 107.621 258.3 107.151C257.895 106.682 257.351 106.447 256.668 106.447C255.975 106.447 255.431 106.682 255.036 107.151C254.641 107.621 254.444 108.229 254.444 108.975V109.023H258.908ZM267.15 113.775C267.043 113.775 266.953 113.743 266.878 113.679C266.814 113.605 266.782 113.514 266.782 113.407V106.687H265.406C265.299 106.687 265.209 106.655 265.134 106.591C265.07 106.527 265.038 106.442 265.038 106.335V105.823C265.038 105.717 265.07 105.631 265.134 105.567C265.209 105.493 265.299 105.455 265.406 105.455H266.782V104.655C266.782 103.791 266.99 103.125 267.406 102.655C267.833 102.175 268.526 101.935 269.486 101.935H270.43C270.537 101.935 270.622 101.973 270.686 102.047C270.761 102.111 270.798 102.197 270.798 102.303V102.815C270.798 102.922 270.761 103.007 270.686 103.071C270.622 103.135 270.537 103.167 270.43 103.167H269.518C269.027 103.167 268.686 103.295 268.494 103.551C268.302 103.807 268.206 104.202 268.206 104.735V105.455H270.27C270.377 105.455 270.462 105.493 270.526 105.567C270.601 105.631 270.638 105.717 270.638 105.823V106.335C270.638 106.442 270.601 106.527 270.526 106.591C270.462 106.655 270.377 106.687 270.27 106.687H268.206V113.407C268.206 113.514 268.169 113.605 268.094 113.679C268.03 113.743 267.945 113.775 267.838 113.775H267.15ZM275.163 113.935C274.15 113.935 273.366 113.61 272.811 112.959C272.257 112.298 271.979 111.423 271.979 110.335V105.823C271.979 105.717 272.011 105.631 272.075 105.567C272.15 105.493 272.241 105.455 272.347 105.455H273.083C273.19 105.455 273.275 105.493 273.339 105.567C273.414 105.631 273.451 105.717 273.451 105.823V110.255C273.451 111.877 274.155 112.687 275.563 112.687C276.246 112.687 276.785 112.474 277.179 112.047C277.585 111.61 277.787 111.013 277.787 110.255V105.823C277.787 105.717 277.819 105.631 277.883 105.567C277.958 105.493 278.049 105.455 278.155 105.455H278.891C278.998 105.455 279.083 105.493 279.147 105.567C279.222 105.631 279.259 105.717 279.259 105.823V113.407C279.259 113.514 279.222 113.605 279.147 113.679C279.083 113.743 278.998 113.775 278.891 113.775H278.203C278.097 113.775 278.006 113.743 277.931 113.679C277.867 113.605 277.835 113.514 277.835 113.407V112.687C277.526 113.103 277.163 113.418 276.747 113.631C276.331 113.834 275.803 113.935 275.163 113.935ZM282.021 113.775C281.914 113.775 281.824 113.743 281.749 113.679C281.685 113.605 281.653 113.514 281.653 113.407V105.823C281.653 105.717 281.685 105.631 281.749 105.567C281.824 105.493 281.914 105.455 282.021 105.455H282.709C282.826 105.455 282.917 105.487 282.981 105.551C283.045 105.615 283.077 105.706 283.077 105.823V106.527C283.397 106.133 283.765 105.829 284.181 105.615C284.608 105.402 285.136 105.295 285.765 105.295C286.789 105.295 287.584 105.626 288.149 106.287C288.714 106.938 288.997 107.802 288.997 108.879V113.407C288.997 113.514 288.96 113.605 288.885 113.679C288.821 113.743 288.736 113.775 288.629 113.775H287.893C287.786 113.775 287.696 113.743 287.621 113.679C287.557 113.605 287.525 113.514 287.525 113.407V108.975C287.525 108.207 287.338 107.61 286.965 107.183C286.592 106.757 286.058 106.543 285.365 106.543C284.682 106.543 284.138 106.762 283.733 107.199C283.328 107.626 283.125 108.218 283.125 108.975V113.407C283.125 113.514 283.088 113.605 283.013 113.679C282.949 113.743 282.864 113.775 282.757 113.775H282.021ZM291.565 113.775C291.459 113.775 291.368 113.743 291.293 113.679C291.229 113.605 291.197 113.514 291.197 113.407V112.303C291.197 112.197 291.229 112.106 291.293 112.031C291.368 111.957 291.459 111.919 291.565 111.919H292.669C292.776 111.919 292.861 111.957 292.925 112.031C293 112.106 293.037 112.197 293.037 112.303V113.407C293.037 113.514 293 113.605 292.925 113.679C292.861 113.743 292.776 113.775 292.669 113.775H291.565Z" fill="#4F5665"/>
</svg>
