<svg width="10" height="14" viewBox="0 0 10 14" fill="none" xmlns="http://www.w3.org/2000/svg">
<g filter="url(#filter0_d)">
<path d="M8.03516 3.67188C8.03516 4.15951 7.90983 4.59473 7.65918 4.97754C7.40853 5.35579 7.06673 5.6543 6.63379 5.87305C7.15332 6.11458 7.55208 6.44499 7.83008 6.86426C8.11263 7.28353 8.25391 7.75749 8.25391 8.28613C8.25391 9.16113 7.95768 9.85612 7.36523 10.3711C6.77279 10.8815 5.98438 11.1367 5 11.1367C4.01107 11.1367 3.2181 10.8792 2.62109 10.3643C2.02865 9.84928 1.73242 9.15658 1.73242 8.28613C1.73242 7.75293 1.8737 7.27441 2.15625 6.85059C2.4388 6.42676 2.83529 6.10091 3.3457 5.87305C2.91732 5.6543 2.5778 5.35579 2.32715 4.97754C2.08105 4.59473 1.95801 4.15951 1.95801 3.67188C1.95801 2.82422 2.23145 2.15202 2.77832 1.65527C3.3252 1.15853 4.06348 0.910156 4.99316 0.910156C5.92741 0.910156 6.66797 1.15853 7.21484 1.65527C7.76172 2.15202 8.03516 2.82422 8.03516 3.67188ZM6.59277 8.2041C6.59277 7.71191 6.44466 7.31543 6.14844 7.01465C5.85677 6.70931 5.4694 6.55664 4.98633 6.55664C4.50326 6.55664 4.11589 6.70703 3.82422 7.00781C3.53711 7.30859 3.39355 7.70736 3.39355 8.2041C3.39355 8.69173 3.53483 9.08138 3.81738 9.37305C4.10449 9.66471 4.4987 9.81055 5 9.81055C5.5013 9.81055 5.89095 9.66927 6.16895 9.38672C6.4515 9.10417 6.59277 8.70996 6.59277 8.2041ZM6.38086 3.7334C6.38086 3.30046 6.25553 2.94499 6.00488 2.66699C5.75423 2.38444 5.41699 2.24316 4.99316 2.24316C4.56934 2.24316 4.23438 2.3776 3.98828 2.64648C3.74219 2.91081 3.61914 3.27311 3.61914 3.7334C3.61914 4.18913 3.74219 4.55143 3.98828 4.82031C4.23893 5.08919 4.57617 5.22363 5 5.22363C5.42383 5.22363 5.75879 5.08919 6.00488 4.82031C6.25553 4.55143 6.38086 4.18913 6.38086 3.7334Z" fill="white"/>
</g>
<defs>
<filter id="filter0_d" x="0.732422" y="0.910156" width="8.52148" height="12.2266" filterUnits="userSpaceOnUse" color-interpolation-filters="sRGB">
<feFlood flood-opacity="0" result="BackgroundImageFix"/>
<feColorMatrix in="SourceAlpha" type="matrix" values="0 0 0 0 0 0 0 0 0 0 0 0 0 0 0 0 0 0 127 0"/>
<feOffset dy="1"/>
<feGaussianBlur stdDeviation="0.5"/>
<feColorMatrix type="matrix" values="0 0 0 0 0 0 0 0 0 0 0 0 0 0 0 0 0 0 0.0988451 0"/>
<feBlend mode="normal" in2="BackgroundImageFix" result="effect1_dropShadow"/>
<feBlend mode="normal" in="SourceGraphic" in2="effect1_dropShadow" result="shape"/>
</filter>
</defs>
</svg>
