<svg width="202" height="164" viewBox="0 0 202 164" fill="none" xmlns="http://www.w3.org/2000/svg">
<path fill-rule="evenodd" clip-rule="evenodd" d="M24.1885 83.688H30.2581V68.9982H34.3072L34.8436 63.9366H30.2581L30.2644 61.4022C30.2644 60.0828 30.3904 59.3745 32.284 59.3745H34.8148V54.312H30.7648C25.9003 54.312 24.1885 56.7681 24.1885 60.8973V63.9366H21.1564V68.9991H24.1885V83.688ZM28 96C13.0888 96 1 83.9112 1 69C1 54.0879 13.0888 42 28 42C42.9112 42 55 54.0879 55 69C55 83.9112 42.9112 96 28 96Z" fill="#3A589B"/>
<path fill-rule="evenodd" clip-rule="evenodd" d="M100.75 126.455C98.3932 127.312 96.9037 129.525 97.0729 131.946L97.1296 132.88L96.1864 132.765C92.7547 132.327 89.7559 130.84 87.2098 128.342L85.9651 127.103L85.6447 128.018C84.9661 130.058 85.3999 132.213 86.8138 133.662C87.568 134.463 87.3979 134.577 86.0974 134.1C85.6447 133.948 85.2487 133.834 85.2109 133.89C85.0795 134.025 85.5313 135.759 85.8895 136.446C86.38 137.4 87.379 138.333 88.4734 138.886L89.3977 139.325L88.3042 139.344C87.2485 139.344 87.2107 139.362 87.3241 139.764C87.7012 141.003 89.1907 142.319 90.8503 142.891L92.0194 143.291L91.0015 143.901C89.4931 144.78 87.7201 145.275 85.9471 145.312C85.0975 145.33 84.4 145.407 84.4 145.465C84.4 145.654 86.7013 146.722 88.0396 147.142C92.0563 148.381 96.8281 147.847 100.411 145.731C102.957 144.224 105.502 141.231 106.691 138.332C107.333 136.788 107.974 133.966 107.974 132.613C107.974 131.736 108.03 131.622 109.086 130.573C109.709 129.963 110.293 129.296 110.406 129.105C110.595 128.743 110.576 128.743 109.614 129.066C108.011 129.639 107.785 129.562 108.578 128.705C109.162 128.094 109.86 126.988 109.86 126.664C109.86 126.608 109.577 126.702 109.256 126.874C108.917 127.065 108.163 127.351 107.597 127.522L106.579 127.847L105.654 127.217C105.145 126.874 104.43 126.493 104.051 126.378C103.089 126.112 101.618 126.15 100.75 126.455ZM97 164C82.0888 164 70 151.911 70 137C70 122.088 82.0888 110 97 110C111.911 110 124 122.088 124 137C124 151.911 111.911 164 97 164Z" fill="#00ACED"/>
<path fill-rule="evenodd" clip-rule="evenodd" d="M105.344 62.3202V62.3148C105.796 62.3148 106.248 62.3238 106.701 62.313C107.283 62.2986 107.756 61.8 107.756 61.2177C107.756 60.351 107.756 59.4834 107.756 58.6167C107.756 57.9948 107.264 57.5007 106.644 57.4998C105.779 57.4998 104.914 57.4989 104.049 57.4998C103.43 57.5007 102.936 57.9966 102.936 58.6185C102.936 59.478 102.933 60.3375 102.939 61.197C102.94 61.3257 102.964 61.4589 103.005 61.5804C103.16 62.0376 103.58 62.3184 104.093 62.3211C104.51 62.3211 104.927 62.3202 105.344 62.3202ZM97 63.4353C93.9544 63.4335 91.4785 65.8842 91.4362 68.9154C91.3921 72.0294 93.8842 74.4963 96.8722 74.5602C99.9808 74.6268 102.495 72.1428 102.561 69.1215C102.629 66.0075 100.116 63.4335 97 63.4353ZM86.2414 66.4044V66.4782C86.2414 70.5417 86.2405 74.6052 86.2414 78.6687C86.2414 79.2528 86.7472 79.7559 87.3322 79.7559C93.7762 79.7568 100.219 79.7568 106.663 79.7559C107.254 79.7559 107.757 79.2546 107.757 78.6651C107.758 74.607 107.757 70.5471 107.757 66.4899V66.4053H105.136C105.506 67.5879 105.619 68.7912 105.474 70.0179C105.329 71.2446 104.933 72.3858 104.29 73.4406C103.646 74.4954 102.81 75.3711 101.789 76.0668C99.1393 77.8722 95.65 78.0306 92.8375 76.452C91.4164 75.6555 90.3004 74.544 89.521 73.1103C88.3609 70.9746 88.1755 68.7318 88.8559 66.4044C87.9847 66.4044 87.1189 66.4044 86.2414 66.4044ZM107.985 82.7295C108.128 82.7061 108.271 82.6854 108.412 82.6548C109.533 82.4163 110.45 81.4812 110.669 80.3535C110.692 80.2302 110.71 80.1078 110.729 79.9854V58.0146C110.711 57.8949 110.694 57.7734 110.671 57.6537C110.43 56.4234 109.415 55.4685 108.169 55.2975C108.117 55.2912 108.067 55.2795 108.016 55.2705H85.9849C85.8526 55.2948 85.7185 55.3128 85.588 55.3425C84.3712 55.6197 83.4712 56.5989 83.2975 57.8319C83.2903 57.8832 83.2795 57.9345 83.2714 57.9858V80.016C83.2966 80.1546 83.3164 80.2959 83.3479 80.4345C83.617 81.6243 84.6322 82.5468 85.8409 82.7025C85.8985 82.7097 85.9579 82.7214 86.0164 82.7295H107.985ZM97 96C82.0888 96 70 83.9112 70 69C70 54.0879 82.0888 42 97 42C111.911 42 124 54.0879 124 69C124 83.9112 111.911 96 97 96Z" fill="#517FA6"/>
<path fill-rule="evenodd" clip-rule="evenodd" d="M174.574 75.606C174.324 75.606 174.144 75.6762 174.034 75.8256C173.925 75.966 173.872 76.2072 173.872 76.542V77.3484H175.261V76.542C175.261 76.2072 175.205 75.966 175.094 75.8256C174.99 75.6762 174.813 75.606 174.574 75.606ZM169.158 75.5781C169.369 75.5781 169.533 75.6465 169.648 75.7851C169.758 75.9237 169.814 76.1298 169.814 76.3989V80.5245C169.814 80.7819 169.767 80.9628 169.677 81.0744C169.587 81.1887 169.446 81.2445 169.253 81.2445C169.12 81.2445 168.995 81.2148 168.875 81.1581C168.753 81.1023 168.628 81.0042 168.501 80.8764V75.8985C168.608 75.7887 168.716 75.7068 168.825 75.6546C168.934 75.6015 169.045 75.5781 169.158 75.5781ZM173.873 78.5922V80.097C173.873 80.5182 173.924 80.8098 174.026 80.9736C174.132 81.1365 174.308 81.2157 174.559 81.2157C174.819 81.2157 175.001 81.1473 175.104 81.0096C175.207 80.8719 175.262 80.5695 175.262 80.0979V79.7334H176.877V80.1438C176.877 80.9637 176.682 81.5802 176.286 81.9969C175.895 82.41 175.306 82.6152 174.524 82.6152C173.821 82.6152 173.266 82.3974 172.862 81.9573C172.458 81.5199 172.253 80.916 172.253 80.1447V76.5573C172.253 75.8661 172.477 75.2991 172.921 74.8635C173.365 74.427 173.936 74.2092 174.641 74.2092C175.36 74.2092 175.913 74.4117 176.3 74.8158C176.686 75.219 176.877 75.7995 176.877 76.5573V78.5949H173.873V78.5922ZM171.061 82.0455C170.817 82.3479 170.459 82.4964 169.992 82.4964C169.684 82.4964 169.411 82.4406 169.172 82.3236C168.931 82.2075 168.705 82.0293 168.5 81.7827V82.3956H166.913V71.5668H168.5V75.0543C168.713 74.8113 168.937 74.6241 169.173 74.499C169.414 74.3712 169.654 74.3091 169.898 74.3091C170.396 74.3091 170.775 74.4792 171.036 74.8176C171.301 75.1587 171.431 75.6573 171.431 76.3116V80.745C171.431 81.3102 171.307 81.7431 171.061 82.0455ZM164.162 82.3956V81.5172C163.87 81.8421 163.57 82.0896 163.254 82.257C162.94 82.4289 162.637 82.5108 162.341 82.5108C161.977 82.5108 161.707 82.3947 161.52 82.1544C161.339 81.915 161.245 81.5622 161.245 81.0843V74.4045H162.815V80.5326C162.815 80.7225 162.848 80.8584 162.911 80.9439C162.981 81.0294 163.088 81.0708 163.233 81.0708C163.349 81.0708 163.496 81.015 163.673 80.9016C163.85 80.7891 164.01 80.6469 164.16 80.4741V74.4045H165.73V82.3947H164.162V82.3956ZM158.724 73.14V82.3956H156.953V73.14H155.123V71.5668H160.555V73.14H158.724ZM165.995 68.0802C165.995 68.0793 176.867 68.0964 178.157 69.3852C179.452 70.6767 179.467 77.0478 179.467 77.0847C179.467 77.0847 179.456 83.49 178.157 84.7851C176.867 86.0721 165.995 86.1 165.995 86.1C165.995 86.1 155.124 86.0721 153.83 84.7842C152.536 83.4927 152.533 77.1324 152.533 77.0838C152.533 77.0469 152.537 70.6758 153.83 69.3843C155.124 68.0964 165.995 68.0793 165.995 68.0802ZM174.568 64.7295H172.799V63.7575C172.476 64.1148 172.136 64.3902 171.782 64.5756C171.429 64.7628 171.088 64.8564 170.756 64.8564C170.343 64.8564 170.038 64.725 169.831 64.4631C169.625 64.2012 169.521 63.8088 169.521 63.2832V55.9284H171.287V62.6757C171.287 62.8836 171.327 63.0348 171.401 63.1275C171.473 63.2211 171.595 63.2679 171.76 63.2679C171.889 63.2679 172.054 63.2058 172.253 63.0825C172.451 62.9592 172.634 62.8017 172.798 62.6082V55.9284H174.567V64.7295H174.568ZM164.962 63.2292C165.087 63.3615 165.267 63.4263 165.502 63.4263C165.742 63.4263 165.931 63.3588 166.073 63.2256C166.214 63.0888 166.284 62.9034 166.284 62.6694V57.8751C166.284 57.6825 166.212 57.5268 166.067 57.408C165.924 57.2901 165.734 57.2316 165.502 57.2316C165.285 57.2316 165.111 57.2901 164.975 57.408C164.842 57.5268 164.772 57.6825 164.772 57.8751V62.6694C164.772 62.9097 164.837 63.0951 164.962 63.2292ZM163.667 56.3127C164.142 55.9086 164.784 55.7061 165.586 55.7061C166.317 55.7061 166.918 55.9194 167.387 56.346C167.852 56.7717 168.086 57.3207 168.086 57.9912V62.5371C168.086 63.2895 167.857 63.879 167.4 64.3083C166.939 64.7367 166.31 64.9509 165.505 64.9509C164.733 64.9509 164.113 64.7295 163.647 64.2885C163.186 63.8457 162.953 63.2508 162.953 62.5029V57.9417C162.952 57.2586 163.189 56.7159 163.667 56.3127ZM158.136 52.8H156.13L158.5 60.0027V64.7295H160.492V59.7795L162.809 52.8H160.784L159.554 57.5682H159.429L158.136 52.8ZM166 96C151.089 96 139 83.9112 139 69C139 54.0879 151.089 42 166 42C180.911 42 193 54.0879 193 69C193 83.9112 180.911 96 166 96Z" fill="#CF3427"/>
<path fill-rule="evenodd" clip-rule="evenodd" d="M27.0667 137.902C28.5148 136.455 28.6273 134.441 28.6273 133.31C28.6273 128.764 25.9363 121.722 20.7109 121.722C19.0819 121.722 17.3179 122.542 16.3009 123.802C15.238 125.123 14.9212 126.819 14.9212 128.447C14.9212 132.677 17.3638 139.666 22.7926 139.666C24.3532 139.666 26.0497 138.896 27.0667 137.902ZM1 137C1 143.665 3.4147 149.766 7.4161 154.474C8.1712 153.205 9.3421 151.956 11.0755 150.93C14.9887 148.533 20.2591 148.215 23.1085 148.034C22.2265 146.903 21.2086 145.704 21.2086 143.737C21.2086 142.674 21.5254 142.041 21.8422 141.294C21.1411 141.362 20.4625 141.43 19.8289 141.43C13.1563 141.43 9.379 136.454 9.379 131.545C9.379 128.65 10.7137 125.433 13.4047 123.106C17.0011 120.15 21.2761 119.645 24.6691 119.645H37.63L33.6034 121.91H29.7136C31.1599 123.106 34.1695 125.624 34.1695 130.414C34.1695 135.074 31.5226 137.267 28.8991 139.347C28.0621 140.163 27.1351 141.045 27.1351 142.423C27.1351 143.803 28.0621 144.574 28.7641 145.139L31.0258 146.903C33.8086 149.21 36.3187 151.359 36.3187 155.702C36.3187 158.566 34.9831 161.44 32.3776 163.645C30.9763 163.875 29.5399 163.995 28.0747 163.999C30.7189 162.839 32.0896 160.718 32.0896 158.167C32.0896 154.956 30.0313 153.259 25.2361 149.844C24.7384 149.798 24.4216 149.798 23.7889 149.798C23.2237 149.798 19.8307 149.912 17.1847 150.793C15.805 151.291 11.7793 152.807 11.7793 157.285C11.7793 157.772 11.8315 158.244 11.9323 158.697C5.2975 153.78 1 145.892 1 137ZM52.957 126.679C53.353 127.635 53.6959 128.622 53.9821 129.632C53.6968 128.622 53.3539 127.636 52.957 126.679ZM28 164C13.0888 164 1 151.911 1 137C1 122.088 13.0888 110 28 110C39.2563 110 48.9043 116.888 52.957 126.679H47.5876V119.646H44.5735V126.679H37.5409V129.632H44.5735V136.726H47.5876V129.632H53.9812C54.6445 131.974 55 134.446 55 137C55 151.911 42.9112 164 28 164Z" fill="#D6492F"/>
</svg>
