<svg width="391" height="197" viewBox="0 0 391 197" fill="none" xmlns="http://www.w3.org/2000/svg">
<g clip-path="url(#clip0)">
<g clip-path="url(#clip1)">
<g clip-path="url(#clip2)">
<path fill-rule="evenodd" clip-rule="evenodd" d="M4.72932 76.3263C2.74375 76.3263 1 74.5345 1 72.5341V42.1967C1 40.1963 2.74375 38.4045 4.72932 38.4045H121.271C123.256 38.4045 125 40.1963 125 42.1967V72.5341C125 74.5345 123.256 76.3263 121.271 76.3263H4.72932Z" fill="black"/>
<g clip-path="url(#clip3)">
<path fill-rule="evenodd" clip-rule="evenodd" d="M28.1569 57.1605C28.1298 54.105 30.6173 52.6184 30.731 52.5492C29.3223 50.4607 27.1388 50.1753 26.3715 50.1526C24.5376 49.9563 22.7587 51.2684 21.8245 51.2684C20.8716 51.2684 19.4331 50.1715 17.8826 50.2038C15.8874 50.2351 14.0209 51.4097 12.9972 53.2337C10.8845 56.9529 12.4602 62.4184 14.4842 65.4246C15.4968 66.8969 16.6799 68.5408 18.2285 68.483C19.7435 68.4195 20.3094 67.5008 22.1377 67.5008C23.9493 67.5008 24.4807 68.483 26.0601 68.446C27.686 68.4195 28.7097 66.9671 29.6868 65.4815C30.8569 63.794 31.3268 62.1321 31.3454 62.0467C31.3072 62.0335 28.1876 60.8228 28.1569 57.1605Z" fill="white"/>
<path fill-rule="evenodd" clip-rule="evenodd" d="M25.1733 48.1751C25.9882 47.1389 26.5457 45.7292 26.391 44.2986C25.2116 44.3517 23.7366 45.1281 22.8873 46.1416C22.1358 47.0346 21.4645 48.4984 21.6379 49.875C22.9628 49.9755 24.3231 49.1952 25.1733 48.1751Z" fill="white"/>
</g>
<g clip-path="url(#clip4)">
<path fill-rule="evenodd" clip-rule="evenodd" d="M50.0826 68.2716H47.9653L46.8055 64.5657H42.7741L41.6693 68.2716H39.6079L43.602 55.655H46.069L50.0826 68.2716ZM46.4559 63.0109L45.407 59.7165C45.2961 59.3799 45.0882 58.5873 44.7814 57.3397H44.7441C44.622 57.8763 44.4253 58.6689 44.1549 59.7165L43.1247 63.0109H46.4559Z" fill="white"/>
<path fill-rule="evenodd" clip-rule="evenodd" d="M60.354 63.6112C60.354 65.1584 59.9428 66.3813 59.1205 67.2791C58.3839 68.0783 57.4693 68.4775 56.3776 68.4775C55.1991 68.4775 54.3525 68.0471 53.837 67.1862H53.7997V71.9786H51.8119V62.1692C51.8119 61.1965 51.7868 60.1982 51.7383 59.1743H53.4864L53.5973 60.6163H53.6346C54.2975 59.5298 55.3035 58.9875 56.6535 58.9875C57.7089 58.9875 58.59 59.4113 59.2948 60.2598C60.0015 61.1093 60.354 62.2261 60.354 63.6112ZM58.3289 63.6851C58.3289 62.7996 58.1331 62.0696 57.7397 61.4951C57.3099 60.896 56.7328 60.5964 56.0093 60.5964C55.5189 60.5964 55.0732 60.7632 54.6751 61.0922C54.2761 61.424 54.015 61.8573 53.8929 62.3939C53.8314 62.6442 53.8006 62.8489 53.8006 63.0101V64.527C53.8006 65.1887 54.0001 65.7471 54.3992 66.2031C54.7982 66.6591 55.3166 66.8867 55.9543 66.8867C56.7029 66.8867 57.2856 66.5928 57.7024 66.0069C58.1201 65.42 58.3289 64.6464 58.3289 63.6851Z" fill="white"/>
<path fill-rule="evenodd" clip-rule="evenodd" d="M70.6443 63.6112C70.6443 65.1584 70.2331 66.3813 69.4099 67.2791C68.6743 68.0783 67.7596 68.4775 66.6679 68.4775C65.4894 68.4775 64.6429 68.0471 64.1282 67.1862H64.0909V71.9786H62.1032V62.1692C62.1032 61.1965 62.078 60.1982 62.0295 59.1743H63.7777L63.8886 60.6163H63.9259C64.5879 59.5298 65.5938 58.9875 66.9448 58.9875C67.9993 58.9875 68.8803 59.4113 69.587 60.2598C70.2909 61.1093 70.6443 62.2261 70.6443 63.6112ZM68.6193 63.6851C68.6193 62.7996 68.4225 62.0696 68.0291 61.4951C67.5993 60.896 67.024 60.5964 66.2996 60.5964C65.8083 60.5964 65.3636 60.7632 64.9645 61.0922C64.5655 61.424 64.3054 61.8573 64.1832 62.3939C64.1226 62.6442 64.0909 62.8489 64.0909 63.0101V64.527C64.0909 65.1887 64.2904 65.7471 64.6876 66.2031C65.0867 66.6582 65.605 66.8867 66.2446 66.8867C66.9933 66.8867 67.576 66.5928 67.9927 66.0069C68.4104 65.42 68.6193 64.6464 68.6193 63.6851Z" fill="white"/>
<path fill-rule="evenodd" clip-rule="evenodd" d="M82.1492 64.7336C82.1492 65.8067 81.7828 66.6799 81.0472 67.3539C80.2389 68.0906 79.1136 68.4584 77.6675 68.4584C76.3324 68.4584 75.2621 68.1968 74.4519 67.6725L74.9125 65.9878C75.7851 66.5244 76.7426 66.7937 77.7859 66.7937C78.5346 66.7937 79.1173 66.6211 79.5359 66.2779C79.9527 65.9347 80.1606 65.474 80.1606 64.8995C80.1606 64.3875 79.989 63.9562 79.645 63.6063C79.3028 63.2565 78.7313 62.9313 77.9332 62.6308C75.7609 61.8069 74.6757 60.6001 74.6757 59.0131C74.6757 57.9759 75.0561 57.1255 75.8178 56.4638C76.5767 55.8011 77.5892 55.4702 78.8553 55.4702C79.9844 55.4702 80.9223 55.6703 81.6709 56.0694L81.174 57.7171C80.4748 57.3303 79.6841 57.1369 78.7994 57.1369C78.1001 57.1369 77.5538 57.3123 77.1622 57.6611C76.8312 57.9731 76.6653 58.3532 76.6653 58.8035C76.6653 59.3022 76.8545 59.7146 77.2349 60.0388C77.5659 60.3384 78.1672 60.6627 79.0399 61.0125C80.1074 61.4495 80.8915 61.9605 81.3959 62.5464C81.8984 63.1304 82.1492 63.8614 82.1492 64.7336Z" fill="white"/>
<path fill-rule="evenodd" clip-rule="evenodd" d="M88.7212 60.6911H86.5303V65.1081C86.5303 66.2315 86.9163 66.7927 87.6901 66.7927C88.0453 66.7927 88.3399 66.7614 88.573 66.6989L88.628 68.2338C88.2364 68.3826 87.7209 68.4575 87.0822 68.4575C86.2972 68.4575 85.6837 68.2138 85.2409 67.7275C84.7999 67.2402 84.578 66.423 84.578 65.2749V60.6892H83.2727V59.1723H84.578V57.5066L86.5303 56.9075V59.1723H88.7212V60.6911Z" fill="white"/>
<path fill-rule="evenodd" clip-rule="evenodd" d="M98.6067 63.6479C98.6067 65.0463 98.2133 66.1944 97.4283 67.0922C96.605 68.0165 95.5123 68.4773 94.1502 68.4773C92.8375 68.4773 91.7923 68.0345 91.0129 67.149C90.2335 66.2636 89.8438 65.1458 89.8438 63.7987C89.8438 62.3889 90.2447 61.2342 91.0493 60.3364C91.852 59.4377 92.9354 58.9883 94.2975 58.9883C95.6102 58.9883 96.6665 59.431 97.4637 60.3174C98.2263 61.1773 98.6067 62.2875 98.6067 63.6479ZM96.5444 63.7133C96.5444 62.8743 96.3682 62.1547 96.0111 61.5546C95.5944 60.8284 94.9986 60.4663 94.2266 60.4663C93.4276 60.4663 92.8207 60.8294 92.4039 61.5546C92.0468 62.1557 91.8706 62.8866 91.8706 63.7513C91.8706 64.5903 92.0468 65.3098 92.4039 65.909C92.8337 66.6352 93.4342 66.9974 94.2089 66.9974C94.9678 66.9974 95.5636 66.6276 95.9934 65.89C96.3598 65.2786 96.5444 64.5514 96.5444 63.7133Z" fill="white"/>
<path fill-rule="evenodd" clip-rule="evenodd" d="M105.068 60.9519C104.871 60.9149 104.661 60.896 104.441 60.896C103.742 60.896 103.201 61.1643 102.821 61.7018C102.49 62.1758 102.324 62.775 102.324 63.4983V68.2717H100.337L100.356 62.0393C100.356 60.9908 100.331 60.0361 100.281 59.1753H102.013L102.085 60.9159H102.14C102.35 60.3177 102.681 59.836 103.134 59.4748C103.577 59.1497 104.055 58.9875 104.571 58.9875C104.755 58.9875 104.921 59.0008 105.068 59.0245V60.9519Z" fill="white"/>
<path fill-rule="evenodd" clip-rule="evenodd" d="M113.958 63.2926C113.958 63.6547 113.934 63.96 113.885 64.2094H107.922C107.945 65.1081 108.233 65.7954 108.787 66.2695C109.289 66.6932 109.939 66.9056 110.737 66.9056C111.62 66.9056 112.426 66.7624 113.15 66.4752L113.462 67.8783C112.615 68.2537 111.615 68.4405 110.462 68.4405C109.075 68.4405 107.986 68.0252 107.193 67.1957C106.403 66.3662 106.007 65.2522 106.007 63.8548C106.007 62.483 106.375 61.3406 107.112 60.4295C107.884 59.4568 108.928 58.9705 110.24 58.9705C111.53 58.9705 112.506 59.4568 113.169 60.4295C113.694 61.2022 113.958 62.1578 113.958 63.2926ZM112.062 62.7683C112.075 62.1692 111.946 61.6515 111.676 61.2145C111.332 60.6523 110.803 60.3717 110.092 60.3717C109.442 60.3717 108.914 60.6457 108.51 61.1955C108.179 61.6326 107.982 62.1568 107.922 62.7674H112.062V62.7683Z" fill="white"/>
</g>
<g clip-path="url(#clip5)">
<path fill-rule="evenodd" clip-rule="evenodd" d="M45.7987 47.8934C45.7987 49.0093 45.4696 49.8493 44.8123 50.4133C44.2035 50.9338 43.3383 51.1945 42.2176 51.1945C41.6619 51.1945 41.1864 51.1699 40.7883 51.1206V45.0237C41.3076 44.9384 41.867 44.8948 42.4712 44.8948C43.5387 44.8948 44.3433 45.1308 44.8859 45.603C45.4938 46.1367 45.7987 46.8999 45.7987 47.8934ZM44.7685 47.9209C44.7685 47.1976 44.5801 46.643 44.2035 46.2562C43.8268 45.8703 43.2767 45.6769 42.5523 45.6769C42.2446 45.6769 41.9826 45.6978 41.7654 45.7414V50.3764C41.8857 50.3953 42.1057 50.4039 42.4255 50.4039C43.1732 50.4039 43.7503 50.1924 44.1568 49.7696C44.5633 49.3468 44.7685 48.7306 44.7685 47.9209Z" fill="white"/>
<path fill-rule="evenodd" clip-rule="evenodd" d="M51.2611 48.8682C51.2611 49.5555 51.0681 50.1186 50.6821 50.5604C50.2775 51.0145 49.7414 51.2411 49.072 51.2411C48.4268 51.2411 47.9131 51.024 47.5299 50.5879C47.1477 50.1528 46.9565 49.6039 46.9565 48.9421C46.9565 48.25 47.1533 47.6822 47.5486 47.2413C47.9439 46.8005 48.4753 46.5796 49.1447 46.5796C49.7899 46.5796 50.3083 46.7967 50.7008 47.2318C51.0737 47.6547 51.2611 48.2007 51.2611 48.8682ZM50.2477 48.9004C50.2477 48.488 50.16 48.1344 49.9857 47.8395C49.7806 47.4831 49.4888 47.3048 49.1093 47.3048C48.7168 47.3048 48.4184 47.4831 48.2133 47.8395C48.038 48.1344 47.9513 48.4937 47.9513 48.9184C47.9513 49.3308 48.039 49.6844 48.2133 49.9793C48.425 50.3357 48.7196 50.514 49.1 50.514C49.4729 50.514 49.7657 50.3329 49.9764 49.9698C50.1572 49.6693 50.2477 49.3128 50.2477 48.9004Z" fill="white"/>
<path fill-rule="evenodd" clip-rule="evenodd" d="M58.5856 46.6704L57.2104 51.1395H56.3154L55.7457 49.1988C55.6012 48.7144 55.4837 48.2328 55.3924 47.755H55.3746C55.2898 48.2461 55.1723 48.7267 55.0213 49.1988L54.4162 51.1395H53.5109L52.2178 46.6704H53.2219L53.7188 48.795C53.8391 49.2974 53.9379 49.7762 54.0172 50.2294H54.0349C54.1076 49.8558 54.2279 49.3799 54.3976 48.8045L55.0213 46.6714H55.8175L56.4151 48.759C56.5596 49.2681 56.6771 49.7582 56.7675 50.2303H56.7946C56.8608 49.7705 56.9605 49.2804 57.0929 48.759L57.6262 46.6714H58.5856V46.6704Z" fill="white"/>
<path fill-rule="evenodd" clip-rule="evenodd" d="M63.6507 51.1396H62.6736V48.5799C62.6736 47.7911 62.379 47.3967 61.7879 47.3967C61.498 47.3967 61.264 47.5048 61.0822 47.7219C60.9022 47.939 60.8109 48.195 60.8109 48.4879V51.1386H59.8338V47.9475C59.8338 47.555 59.8216 47.1294 59.7983 46.6686H60.657L60.7027 47.3673H60.7297C60.8435 47.1502 61.0132 46.971 61.236 46.8279C61.5008 46.661 61.7973 46.5767 62.1217 46.5767C62.5319 46.5767 62.8732 46.7113 63.1445 46.9815C63.482 47.3123 63.6507 47.8063 63.6507 48.4623V51.1396Z" fill="white"/>
<path fill-rule="evenodd" clip-rule="evenodd" d="M66.3453 51.1396H65.3691V44.6199H66.3453V51.1396Z" fill="white"/>
<path fill-rule="evenodd" clip-rule="evenodd" d="M72.0978 48.8682C72.0978 49.5555 71.9048 50.1186 71.5188 50.5604C71.1142 51.0145 70.5772 51.2411 69.9087 51.2411C69.2626 51.2411 68.7489 51.024 68.3666 50.5879C67.9843 50.1528 67.7932 49.6039 67.7932 48.9421C67.7932 48.25 67.9899 47.6822 68.3852 47.2413C68.7806 46.8005 69.312 46.5796 69.9805 46.5796C70.6266 46.5796 71.144 46.7967 71.5375 47.2318C71.9104 47.6547 72.0978 48.2007 72.0978 48.8682ZM71.0834 48.9004C71.0834 48.488 70.9958 48.1344 70.8214 47.8395C70.6172 47.4831 70.3245 47.3048 69.946 47.3048C69.5525 47.3048 69.2542 47.4831 69.05 47.8395C68.8747 48.1344 68.788 48.4937 68.788 48.9184C68.788 49.3308 68.8756 49.6844 69.05 49.9793C69.2616 50.3357 69.5563 50.514 69.9366 50.514C70.3096 50.514 70.6014 50.3329 70.8121 49.9698C70.9939 49.6693 71.0834 49.3128 71.0834 48.9004Z" fill="white"/>
<path fill-rule="evenodd" clip-rule="evenodd" d="M76.8266 51.1397H75.9493L75.8766 50.6249H75.8495C75.5493 51.0354 75.1214 51.2411 74.5657 51.2411C74.1508 51.2411 73.8152 51.1056 73.5625 50.8363C73.3332 50.5917 73.2185 50.2874 73.2185 49.9262C73.2185 49.3801 73.4423 48.9639 73.8926 48.6757C74.342 48.3875 74.9741 48.2463 75.788 48.2529V48.1695C75.788 47.5807 75.4841 47.2868 74.8753 47.2868C74.4417 47.2868 74.0595 47.3978 73.7294 47.6177L73.5308 46.9654C73.9392 46.7085 74.4436 46.5796 75.0384 46.5796C76.187 46.5796 76.7632 47.1958 76.7632 48.4283V50.0741C76.7632 50.5206 76.7847 50.8761 76.8266 51.1397ZM75.8123 49.6039V48.9146C74.7345 48.8957 74.1956 49.1962 74.1956 49.8153C74.1956 50.0485 74.2571 50.2229 74.383 50.3395C74.5089 50.4561 74.6692 50.514 74.8603 50.514C75.0748 50.514 75.2752 50.4448 75.458 50.3073C75.6416 50.1689 75.7544 49.9935 75.7964 49.7783C75.8067 49.7299 75.8123 49.6712 75.8123 49.6039Z" fill="white"/>
<path fill-rule="evenodd" clip-rule="evenodd" d="M82.3786 51.1396H81.5115L81.4658 50.4219H81.4388C81.1619 50.968 80.6901 51.241 80.0273 51.241C79.4977 51.241 79.0567 51.0296 78.7071 50.6068C78.3575 50.1839 78.1831 49.635 78.1831 48.961C78.1831 48.2376 78.3724 47.6517 78.7528 47.2042C79.121 46.7871 79.5723 46.5785 80.1093 46.5785C80.6995 46.5785 81.1125 46.7805 81.3474 47.1853H81.3661V44.6199H82.3441V49.9356C82.3441 50.3707 82.3553 50.7717 82.3786 51.1396ZM81.3661 49.2549V48.5097C81.3661 48.3808 81.3568 48.2765 81.339 48.1968C81.284 47.9579 81.1656 47.757 80.9857 47.5948C80.8039 47.4327 80.5848 47.3512 80.3321 47.3512C79.9676 47.3512 79.6823 47.4981 79.4725 47.793C79.2646 48.0878 79.1593 48.4642 79.1593 48.924C79.1593 49.3658 79.259 49.7241 79.4595 50C79.6711 50.2939 79.9564 50.4409 80.3135 50.4409C80.6342 50.4409 80.8906 50.3186 81.0855 50.073C81.2738 49.8464 81.3661 49.5734 81.3661 49.2549Z" fill="white"/>
<path fill-rule="evenodd" clip-rule="evenodd" d="M90.735 48.8682C90.735 49.5555 90.542 50.1186 90.156 50.5604C89.7514 51.0145 89.2162 51.2411 88.5459 51.2411C87.9016 51.2411 87.3879 51.024 87.0038 50.5879C86.6215 50.1528 86.4304 49.6039 86.4304 48.9421C86.4304 48.25 86.6271 47.6822 87.0224 47.2413C87.4178 46.8005 87.9492 46.5796 88.6195 46.5796C89.2638 46.5796 89.7831 46.7967 90.1747 47.2318C90.5476 47.6547 90.735 48.2007 90.735 48.8682ZM89.7225 48.9004C89.7225 48.488 89.6348 48.1344 89.4605 47.8395C89.2544 47.4831 88.9636 47.3048 88.5832 47.3048C88.1916 47.3048 87.8932 47.4831 87.6872 47.8395C87.5119 48.1344 87.4252 48.4937 87.4252 48.9184C87.4252 49.3308 87.5129 49.6844 87.6872 49.9793C87.8988 50.3357 88.1935 50.514 88.5738 50.514C88.9468 50.514 89.2405 50.3329 89.4512 49.9698C89.6311 49.6693 89.7225 49.3128 89.7225 48.9004Z" fill="white"/>
<path fill-rule="evenodd" clip-rule="evenodd" d="M95.9887 51.1396H95.0125V48.5799C95.0125 47.7911 94.7179 47.3967 94.1259 47.3967C93.8359 47.3967 93.6019 47.5048 93.421 47.7219C93.2402 47.939 93.1497 48.195 93.1497 48.4879V51.1386H92.1717V47.9475C92.1717 47.555 92.1605 47.1294 92.1372 46.6686H92.995L93.0406 47.3673H93.0677C93.1823 47.1502 93.352 46.971 93.5739 46.8279C93.8396 46.661 94.1352 46.5767 94.4606 46.5767C94.8699 46.5767 95.2111 46.7113 95.4824 46.9815C95.8208 47.3123 95.9887 47.8063 95.9887 48.4623V51.1396Z" fill="white"/>
<path fill-rule="evenodd" clip-rule="evenodd" d="M102.564 47.4148H101.489V49.5859C101.489 50.1376 101.68 50.4135 102.058 50.4135C102.233 50.4135 102.379 50.3983 102.494 50.367L102.519 51.1207C102.326 51.1947 102.072 51.2317 101.76 51.2317C101.374 51.2317 101.074 51.1122 100.856 50.8733C100.638 50.6344 100.53 50.2324 100.53 49.6683V47.4148H99.8877V46.6706H100.53V45.8515L101.488 45.5576V46.6697H102.563V47.4148H102.564Z" fill="white"/>
<path fill-rule="evenodd" clip-rule="evenodd" d="M107.737 51.1396H106.759V48.5988C106.759 47.7977 106.464 47.3967 105.874 47.3967C105.421 47.3967 105.112 47.629 104.942 48.0935C104.913 48.1912 104.896 48.3106 104.896 48.4509V51.1386H103.92V44.6199H104.896V47.3133H104.915C105.223 46.8231 105.664 46.5785 106.235 46.5785C106.64 46.5785 106.974 46.7132 107.24 46.9833C107.571 47.3199 107.737 47.8205 107.737 48.4822V51.1396Z" fill="white"/>
<path fill-rule="evenodd" clip-rule="evenodd" d="M113.073 48.6937C113.073 48.8719 113.06 49.0217 113.036 49.144H110.106C110.119 49.5858 110.259 49.9224 110.53 50.1556C110.778 50.3642 111.098 50.4685 111.49 50.4685C111.923 50.4685 112.318 50.3983 112.675 50.257L112.827 50.9472C112.411 51.1311 111.92 51.2231 111.353 51.2231C110.672 51.2231 110.136 51.0193 109.748 50.6116C109.358 50.204 109.165 49.6569 109.165 48.9705C109.165 48.2965 109.345 47.7352 109.708 47.2878C110.086 46.81 110.598 46.571 111.244 46.571C111.877 46.571 112.357 46.81 112.681 47.2878C112.943 47.667 113.073 48.1363 113.073 48.6937ZM112.14 48.4368C112.148 48.142 112.083 47.8879 111.951 47.6736C111.781 47.3977 111.523 47.2593 111.174 47.2593C110.855 47.2593 110.595 47.3939 110.396 47.6641C110.234 47.8793 110.138 48.1363 110.106 48.4368H112.14Z" fill="white"/>
</g>
</g>
</g>
</g>
<g clip-path="url(#clip6)">
<g clip-path="url(#clip7)">
<path fill-rule="evenodd" clip-rule="evenodd" d="M270.729 76.3263C268.744 76.3263 267 74.5345 267 72.5341V42.1967C267 40.1963 268.744 38.4045 270.729 38.4045H387.271C389.256 38.4045 391 40.1963 391 42.1967V72.5341C391 74.5345 389.256 76.3263 387.271 76.3263H270.729Z" fill="black"/>
<path fill-rule="evenodd" clip-rule="evenodd" d="M365.157 63.2935H363.295C363.122 63.2817 362.984 63.1517 362.963 62.983V57.6312C362.963 56.5524 363.085 54.9759 361.801 54.9759C361.35 54.9759 360.934 55.2868 360.727 55.7639C360.467 56.3651 360.431 56.9668 360.431 57.6312V62.9387C360.429 63.1362 360.268 63.2935 360.07 63.2935H358.219C358.033 63.2817 357.886 63.1284 357.886 62.9387L357.883 53.0782C357.899 52.8976 358.052 52.7566 358.24 52.7566L359.963 52.7559C360.125 52.7646 360.259 52.8791 360.293 53.032V54.5396H360.328C360.848 53.1913 361.576 52.5483 362.859 52.5483C363.691 52.5483 364.506 52.8597 365.027 53.7104C365.512 54.499 365.512 55.826 365.512 56.7801V62.983C365.491 63.1583 365.34 63.2935 365.157 63.2935ZM352.246 63.5018C349.541 63.5018 348.067 61.0531 348.067 58.0044C348.067 54.9339 349.558 52.5483 352.246 52.5483C355.004 52.5483 356.494 54.9958 356.494 58.1077C356.494 61.1157 354.848 63.5018 352.246 63.5018ZM353.477 55.5148C353.269 54.8304 352.853 54.5606 352.263 54.5606C350.894 54.5606 350.807 56.4897 350.807 57.6932C350.807 58.896 350.79 61.4675 352.246 61.4675C353.686 61.4675 353.755 59.394 353.755 58.1286C353.755 57.2984 353.72 56.3031 353.477 55.5148ZM346.725 62.9979C344.845 61.9799 342.351 61.8677 340.273 63.0091C340.061 63.1267 339.839 62.8904 339.839 62.6835V61.254C339.839 61.0257 339.843 60.6351 340.065 60.2868L343.73 54.8509L340.54 54.8503C340.345 54.8503 340.188 54.7061 340.187 54.4958V53.087C340.188 52.8725 340.344 52.7299 340.532 52.7303L346.638 52.7294C346.833 52.7294 346.99 52.8767 346.99 53.0854V54.2936C346.988 54.4964 346.823 54.7613 346.53 55.1798L343.367 59.8497C344.541 59.821 345.784 60.0029 346.85 60.6226C347.09 60.762 347.155 60.9696 347.174 61.1723V62.6751C347.174 62.8827 346.955 63.1225 346.725 62.9979ZM342.154 47.2432V44.5581H341.459V43.9463H342.154V42.6811H342.825V43.9463H343.637V44.5581H342.825V47.1779C342.825 47.496 342.911 47.5533 343.33 47.5533H343.637V48.1651H343.125C342.43 48.1651 342.154 48.0185 342.154 47.2432ZM340.789 48.2632C340.442 48.2632 340.22 48.0674 340.22 47.6102C339.849 48.0591 339.352 48.2632 338.784 48.2632C338.042 48.2632 337.434 47.9203 337.434 47.0799C337.434 46.1251 338.121 45.921 338.815 45.7824C339.557 45.6353 340.189 45.6843 340.189 45.1621C340.189 44.5581 339.707 44.4603 339.281 44.4603C338.713 44.4603 338.294 44.6398 338.263 45.26H337.592C337.632 44.2155 338.413 43.8481 339.32 43.8481C340.055 43.8481 340.852 44.0196 340.852 45.0068V47.1779C340.852 47.5042 340.852 47.6511 341.064 47.6511C341.12 47.6511 341.183 47.6431 341.27 47.6102V48.1487C341.152 48.2224 341.002 48.2632 340.789 48.2632ZM340.181 45.9863C339.92 46.1822 339.415 46.1902 338.965 46.272C338.523 46.3535 338.144 46.5168 338.144 47.0308C338.144 47.488 338.523 47.6511 338.934 47.6511C339.817 47.6511 340.181 47.0799 340.181 46.6963V45.9863ZM337.926 56.7152V59.7077C337.926 60.607 338.288 61.0024 338.627 61.4885C338.746 61.6626 338.772 61.8701 338.621 61.9977C338.242 62.3257 337.568 62.9321 337.197 63.2733L337.193 63.2685C337.069 63.383 336.892 63.3902 336.754 63.3139C336.136 62.7831 336.026 62.5386 335.689 62.0341C334.669 63.1081 333.947 63.4302 332.626 63.4302C331.062 63.4302 329.845 62.4313 329.845 60.4359C329.845 58.8776 330.662 57.8166 331.826 57.2973C332.835 56.8398 334.243 56.7569 335.32 56.6311V56.3824C335.32 55.9249 335.354 55.3847 335.094 54.9899C334.868 54.6357 334.434 54.4908 334.051 54.4908C333.343 54.4908 332.713 54.8659 332.558 55.6444C332.526 55.8168 332.404 55.988 332.235 55.9971L330.435 55.7956C330.283 55.7602 330.114 55.6336 330.158 55.3939C330.571 53.1355 332.544 52.453 334.312 52.453C335.215 52.453 336.397 52.7025 337.109 53.4099C338.013 54.2832 337.926 55.4474 337.926 56.7152ZM335.32 58.586V58.1703C333.976 58.1703 332.557 58.4672 332.557 60.1037C332.557 60.9349 332.974 61.4967 333.686 61.4967C334.207 61.4967 334.676 61.164 334.972 60.6237C335.337 59.9575 335.32 59.3344 335.32 58.586ZM331.712 46.2637C331.689 46.9981 332.091 47.6511 332.983 47.6511C333.535 47.6511 333.922 47.3735 334.041 46.8269H334.704C334.522 47.7573 333.875 48.2632 332.959 48.2632C331.657 48.2632 331.042 47.333 331.002 46.0433C331.002 44.7784 331.807 43.8481 332.92 43.8481C334.364 43.8481 334.807 45.2436 334.767 46.2637H331.712ZM332.881 44.4603C332.178 44.4603 331.76 45.0068 331.712 45.6518H334.056C334.025 44.9908 333.543 44.4603 332.881 44.4603ZM329.708 42.3384H330.379V48.1651H329.708V42.3384ZM327.332 48.2632C326.914 48.2632 326.314 48.0998 326.014 47.6022H325.998V48.1651H325.328V42.3384H325.998V44.5172H326.014C326.235 44.0522 326.756 43.8481 327.317 43.8481C328.572 43.8481 329.195 44.8765 329.195 46.0678C329.195 47.2592 328.579 48.2632 327.332 48.2632ZM327.222 44.4603C326.323 44.4603 325.975 45.26 325.975 46.0516C325.975 46.8839 326.338 47.6511 327.261 47.6511C328.177 47.6511 328.485 46.8431 328.485 46.0189C328.485 45.2272 328.09 44.4603 327.222 44.4603ZM324.397 48.2632C324.049 48.2632 323.828 48.0674 323.828 47.6102C323.458 48.0591 322.96 48.2632 322.392 48.2632C321.65 48.2632 321.042 47.9203 321.042 47.0799C321.042 46.1251 321.729 45.921 322.424 45.7824C323.165 45.6353 323.797 45.6843 323.797 45.1621C323.797 44.5581 323.315 44.4603 322.889 44.4603C322.321 44.4603 321.903 44.6398 321.871 45.26H321.2C321.24 44.2155 322.021 43.8481 322.929 43.8481C323.662 43.8481 324.46 44.0196 324.46 45.0068V47.1779C324.46 47.5042 324.46 47.6511 324.673 47.6511C324.728 47.6511 324.791 47.6431 324.878 47.6102V48.1487C324.759 48.2224 324.61 48.2632 324.397 48.2632ZM323.789 45.9863C323.529 46.1822 323.023 46.1902 322.573 46.272C322.132 46.3535 321.753 46.5168 321.753 47.0308C321.753 47.488 322.132 47.6511 322.542 47.6511C323.426 47.6511 323.789 47.0799 323.789 46.6963V45.9863ZM323.042 54.3739C323.493 53.1292 324.515 52.5483 325.608 52.5483C326.389 52.5483 327.238 52.8806 327.758 53.6271C328.347 54.4565 328.226 55.6602 328.226 56.7182L328.225 62.9387C328.225 63.1362 328.064 63.2935 327.867 63.2935H326.012C325.825 63.2817 325.678 63.1284 325.678 62.9387V57.7141C325.678 57.2984 325.712 56.2613 325.625 55.8675C325.487 55.2034 325.071 55.017 324.533 55.017C324.082 55.017 323.614 55.3284 323.424 55.826C323.233 56.3245 323.25 57.1529 323.25 57.7141V62.9387C323.25 63.1362 323.09 63.2935 322.892 63.2935H321.036C320.85 63.2817 320.703 63.1284 320.703 62.9387L320.701 57.7141C320.701 56.6144 320.874 54.9958 319.557 54.9958C318.221 54.9958 318.274 56.5727 318.274 57.7141L318.273 62.9387C318.273 63.1362 318.112 63.2935 317.915 63.2935H316.057C315.88 63.2817 315.739 63.1445 315.725 62.9692L315.726 53.112C315.726 52.9136 315.887 52.7566 316.084 52.7566L317.814 52.7559C317.995 52.7657 318.141 52.907 318.152 53.087V54.3739H318.187C318.638 53.1292 319.487 52.5483 320.632 52.5483C321.793 52.5483 322.522 53.1292 323.042 54.3739ZM319.748 42.3384H320.419V48.1651H319.748V42.3384ZM318.154 43.9463H318.825V48.1651H318.154V43.9463ZM318.154 42.3384H318.825V43.187H318.154V42.3384ZM317.207 48.2632C316.86 48.2632 316.639 48.0674 316.639 47.6102C316.268 48.0591 315.771 48.2632 315.202 48.2632C314.461 48.2632 313.853 47.9203 313.853 47.0799C313.853 46.1251 314.54 45.921 315.234 45.7824C315.976 45.6353 316.607 45.6843 316.607 45.1621C316.607 44.5581 316.126 44.4603 315.7 44.4603C315.131 44.4603 314.713 44.6398 314.681 45.26H314.011C314.05 44.2155 314.831 43.8481 315.739 43.8481C316.473 43.8481 317.27 44.0196 317.27 45.0068V47.1779C317.27 47.5042 317.27 47.6511 317.483 47.6511C317.539 47.6511 317.602 47.6431 317.689 47.6102V48.1487C317.57 48.2224 317.42 48.2632 317.207 48.2632ZM316.599 45.9863C316.339 46.1822 315.834 46.1902 315.384 46.272C314.942 46.3535 314.563 46.5168 314.563 47.0308C314.563 47.488 314.942 47.6511 315.353 47.6511C316.236 47.6511 316.599 47.0799 316.599 46.6963V45.9863ZM311.643 48.1651L310.128 43.9463H310.877L312.022 47.4633H312.038L313.15 43.9463H313.853L312.361 48.1651H311.643ZM309.844 48.1651L309.228 46.4108H306.844L306.213 48.1651H305.44L307.642 42.3384H308.47L310.672 48.1651H309.844ZM308.052 43.0404H308.036L307.081 45.7577H308.991L308.052 43.0404ZM310.969 56.6311V56.3824C310.969 55.9249 311.003 55.3847 310.743 54.9899C310.517 54.6357 310.082 54.4908 309.7 54.4908C308.992 54.4908 308.361 54.8659 308.207 55.6444C308.175 55.8168 308.053 55.988 307.884 55.9971L306.084 55.7956C305.932 55.7602 305.763 55.6336 305.807 55.3939C306.22 53.1355 308.193 52.453 309.961 52.453C310.864 52.453 312.046 52.7025 312.759 53.4099C313.662 54.2832 313.575 55.4474 313.575 56.7152V59.7077C313.575 60.607 313.937 61.0024 314.276 61.4885C314.395 61.6626 314.421 61.8701 314.27 61.9977C313.891 62.3257 313.216 62.9321 312.845 63.2733L312.841 63.2685C312.718 63.383 312.541 63.3902 312.403 63.3139C311.785 62.7831 311.675 62.5386 311.337 62.0341C310.318 63.1081 309.595 63.4302 308.275 63.4302C306.711 63.4302 305.495 62.4313 305.495 60.4359C305.495 58.8776 306.312 57.8166 307.476 57.2973C308.484 56.8398 309.891 56.7569 310.969 56.6311ZM309.335 61.4967C309.857 61.4967 310.326 61.164 310.621 60.6237C310.986 59.9575 310.969 59.3344 310.969 58.586V58.1703C309.625 58.1703 308.205 58.4672 308.205 60.1037C308.205 60.9349 308.623 61.4967 309.335 61.4967Z" fill="white"/>
<path fill-rule="evenodd" clip-rule="evenodd" d="M343.709 70.5082C343.421 70.757 343.146 70.6242 343.274 70.2955C343.696 69.2112 344.641 66.7806 344.193 66.191C343.746 65.6009 341.237 65.9112 340.11 66.0505C339.768 66.0928 339.715 65.7855 340.023 65.5627C342.024 64.1158 345.304 64.5332 345.686 65.0179C346.07 65.5068 345.585 68.8927 343.709 70.5082ZM342.738 67.9013C339.242 70.5576 334.172 71.9712 329.806 71.9712C323.688 71.9712 318.179 69.643 314.009 65.7671C313.682 65.4627 313.974 65.0466 314.367 65.2824C318.866 67.9774 324.428 69.6 330.173 69.6C334.049 69.6 338.31 68.7718 342.23 67.0611C342.821 66.8025 343.317 67.4618 342.738 67.9013Z" fill="#F8971F"/>
<path fill-rule="evenodd" clip-rule="evenodd" d="M301.303 68.2054C301.303 70.2838 299.65 71.9681 297.612 71.9681H275.935C273.896 71.9681 272.244 70.2838 272.244 68.2054V46.1083C272.244 44.03 273.896 42.3455 275.935 42.3455H297.612C299.65 42.3455 301.303 44.03 301.303 46.1083V68.2054Z" fill="white"/>
<path fill-rule="evenodd" clip-rule="evenodd" d="M301.329 68.3254C301.329 70.3882 299.689 72.0608 297.665 72.0608H275.868C273.844 72.0608 272.204 70.3882 272.204 68.3254V52.0396C272.204 52.0396 278.402 53.1349 286.715 53.0728C294.52 53.0146 301.329 52.0396 301.329 52.0396V68.3254Z" fill="#E77B1A"/>
<path fill-rule="evenodd" clip-rule="evenodd" d="M299.382 59.8092C299.374 59.8141 299.365 59.8146 299.356 59.8113C299.119 59.7113 298.858 59.6139 298.498 59.6139C298.136 59.6139 297.96 59.7462 297.96 60.0186C297.96 60.2477 298.073 60.3361 298.354 60.5314L299.032 60.861C299.496 61.1383 299.731 61.5401 299.731 62.0562C299.731 62.896 299.127 63.4606 298.228 63.4606C297.654 63.4606 297.074 63.2305 296.963 63.1841C296.953 63.1791 296.946 63.1682 296.946 63.1561L296.994 62.2054C296.994 62.1961 296.999 62.1874 297.007 62.1824C297.015 62.1776 297.024 62.1765 297.033 62.1803C297.067 62.195 297.111 62.2186 297.162 62.2464C297.36 62.3525 297.69 62.5301 298.051 62.5301C298.467 62.5301 298.661 62.3989 298.661 62.1169C298.661 61.9539 298.589 61.7998 298.236 61.5779L297.659 61.2022C297.261 60.9441 296.946 60.7402 296.946 60.0934C296.946 59.31 297.555 58.7415 298.394 58.7415C298.636 58.7415 299.013 58.7731 299.432 58.9252C299.444 58.9295 299.452 58.9415 299.451 58.9541L299.395 59.7867C299.395 59.796 299.389 59.8042 299.382 59.8092ZM295.061 63.4247C294.555 63.4247 294.221 63.3606 294.055 63.0484V65.1375C294.055 65.1533 294.042 65.1664 294.027 65.1664H293.077C293.062 65.1664 293.049 65.1533 293.049 65.1375V59.6271C293.049 59.4406 293.048 59.2783 293.047 59.1378C293.047 59.0295 293.047 58.9344 293.047 58.8496C293.047 58.842 293.05 58.8344 293.055 58.8288C293.06 58.8239 293.067 58.8207 293.075 58.8207L293.906 58.8229C293.921 58.8229 293.934 58.8349 293.934 58.8502C293.939 58.946 293.939 58.9858 293.938 59.0919C293.938 59.1306 293.938 59.1788 293.938 59.2416C294.106 58.8917 294.441 58.7415 295.037 58.7415C295.931 58.7415 296.508 59.6812 296.508 61.136C296.508 62.5908 295.98 63.4247 295.061 63.4247ZM295.559 61.1808C295.559 60.1246 295.303 59.6113 294.777 59.6113C294.298 59.6113 294.055 60.1109 294.055 61.0961C294.055 61.7614 294.178 62.5543 294.762 62.5543C295.276 62.5543 295.559 62.0665 295.559 61.1808ZM290.981 63.4247C290.476 63.4247 290.142 63.3606 289.976 63.0484V65.1375C289.976 65.1533 289.963 65.1664 289.947 65.1664H288.998C288.982 65.1664 288.97 65.1533 288.97 65.1375V59.6271C288.97 59.4406 288.969 59.2783 288.968 59.1378C288.967 59.0295 288.967 58.9344 288.967 58.8496C288.967 58.842 288.97 58.8344 288.975 58.8288C288.981 58.8239 288.988 58.8207 288.995 58.8207L289.827 58.8229C289.842 58.8229 289.854 58.8349 289.855 58.8502C289.86 58.946 289.86 58.9858 289.859 59.0919C289.859 59.1306 289.858 59.1788 289.858 59.2416C290.027 58.8917 290.361 58.7415 290.958 58.7415C291.851 58.7415 292.428 59.6812 292.428 61.136C292.428 62.5908 291.901 63.4247 290.981 63.4247ZM290.698 59.6113C290.219 59.6113 289.976 60.1109 289.976 61.0961C289.976 61.7614 290.098 62.5543 290.682 62.5543C291.196 62.5543 291.479 62.0665 291.479 61.1808C291.479 60.1246 291.224 59.6113 290.698 59.6113ZM288.127 63.4355C288.128 63.4443 288.126 63.4525 288.12 63.4585C288.115 63.4645 288.107 63.4683 288.099 63.4683H287.242C287.227 63.4683 287.215 63.4568 287.214 63.4421C287.201 63.3048 287.206 63.1775 287.211 63.0425C287.213 62.9921 287.215 62.9408 287.216 62.8877C286.996 63.2196 286.691 63.54 286.127 63.54C285.527 63.54 284.919 63.0671 284.919 62.1628C284.919 60.7523 286.043 60.5718 287.023 60.5718H287.186V60.4308C287.186 60.1766 287.117 59.5844 286.479 59.5844C285.998 59.5844 285.587 59.8606 285.419 60.0229C285.411 60.0311 285.399 60.0328 285.389 60.029C285.379 60.025 285.372 60.0152 285.371 60.0037L285.318 59.111C285.317 59.1 285.323 59.0892 285.333 59.0836C285.588 58.9475 285.975 58.7415 286.594 58.7415C287.869 58.7415 288.13 59.4915 288.13 60.6183V62.6269C288.13 62.7505 288.127 62.8675 288.123 62.9807C288.118 63.1661 288.113 63.3256 288.127 63.4355ZM287.186 61.2186H287.13C286.243 61.2186 285.864 61.469 285.864 62.0557C285.864 62.4668 286.091 62.7325 286.441 62.7325C286.949 62.7325 287.186 62.3246 287.186 61.4488V61.2186Z" fill="white"/>
<path fill-rule="evenodd" clip-rule="evenodd" d="M283.75 61.368C283.75 64.2434 281.463 66.5749 278.642 66.5749C275.822 66.5749 273.535 64.2434 273.535 61.368C273.535 58.4926 275.822 56.1619 278.642 56.1619C281.463 56.1619 283.75 58.4926 283.75 61.368Z" fill="#192B71"/>
<path fill-rule="evenodd" clip-rule="evenodd" d="M282.431 63.9461C282.358 64.925 281.386 65.6611 280.765 65.9606C280.063 66.2986 278.829 66.4957 277.791 65.9606C276.332 65.2072 275.206 62.4774 275.039 62.1763C274.873 61.8746 275.002 61.6299 275.353 61.5359C275.704 61.4418 275.945 61.6865 275.945 61.6865C275.945 61.6865 277.423 63.9243 277.477 63.9999C277.588 64.1527 277.644 64.0591 277.644 64.0591V59.3137H278.9L278.941 62.8764H279.345V61.1218H280.177V62.9705H280.617V61.5543H281.356V63.2867H281.776V62.1007H282.43C282.43 62.1007 282.505 62.9666 282.431 63.9461ZM280.128 59.3137H281.181V59.9731H280.128V59.3137ZM279.552 58.2144L280.328 57.5792L280.646 58.0337L279.882 58.6689L279.552 58.2144ZM277.718 56.9417H278.807V58.1842H277.718V56.9417ZM276.48 59.9731H275.427V59.3137H276.48V59.9731ZM276.012 58.0337L276.446 57.6381L277.164 58.3914L276.776 58.7865L276.012 58.0337Z" fill="white"/>
<path fill-rule="evenodd" clip-rule="evenodd" d="M296.83 48.7942H296.193C296.134 48.7904 296.087 48.7452 296.08 48.6869V46.836C296.08 46.463 296.121 45.9178 295.683 45.9178C295.528 45.9178 295.386 46.0253 295.315 46.1902C295.226 46.3984 295.214 46.6064 295.214 46.836V48.6717C295.213 48.7396 295.158 48.7942 295.09 48.7942H294.457C294.394 48.7898 294.343 48.737 294.343 48.672L294.342 45.2616C294.347 45.1992 294.4 45.1505 294.464 45.1505L295.054 45.1502C295.109 45.1531 295.155 45.1926 295.167 45.2457V45.7672H295.179C295.356 45.3009 295.605 45.0783 296.044 45.0783C296.329 45.0783 296.608 45.186 296.786 45.4801C296.952 45.7526 296.952 46.2117 296.952 46.5418V48.6869C296.945 48.7473 296.893 48.7942 296.83 48.7942ZM292.414 48.8661C291.489 48.8661 290.985 48.0195 290.985 46.965C290.985 45.9033 291.495 45.0783 292.414 45.0783C293.357 45.0783 293.867 45.9249 293.867 47.0009C293.867 48.0411 293.304 48.8661 292.414 48.8661ZM292.835 46.1041C292.764 45.8675 292.622 45.7744 292.42 45.7744C291.951 45.7744 291.922 46.4412 291.922 46.8574C291.922 47.2734 291.916 48.163 292.414 48.163C292.906 48.163 292.93 47.4457 292.93 47.0081C292.93 46.7211 292.918 46.3769 292.835 46.1041ZM290.582 48.6918C289.94 48.3398 289.086 48.3013 288.376 48.696C288.303 48.7366 288.227 48.6549 288.227 48.5834V48.089C288.227 48.01 288.228 47.8748 288.305 47.7544L289.558 45.8746H288.467C288.4 45.8746 288.346 45.8249 288.346 45.7517V45.2647C288.346 45.1906 288.4 45.1412 288.464 45.1412H290.553C290.619 45.1412 290.673 45.192 290.673 45.2641L290.673 45.6819C290.672 45.752 290.616 45.8435 290.516 45.9887L289.434 47.6032C289.836 47.5935 290.261 47.6561 290.625 47.8706C290.708 47.919 290.73 47.9905 290.736 48.0606V48.5806C290.736 48.6521 290.661 48.7349 290.582 48.6918ZM289.273 50.1031C288.08 51.023 286.35 51.5126 284.862 51.5126C282.774 51.5126 280.895 50.7061 279.473 49.3636C279.361 49.2584 279.461 49.1143 279.595 49.196C281.129 50.1292 283.027 50.6914 284.987 50.6914C286.309 50.6914 287.762 50.4046 289.099 49.8118C289.301 49.7223 289.47 49.9507 289.273 50.1031ZM287.38 48.787L287.379 48.7858C287.337 48.8252 287.276 48.8276 287.228 48.8012C287.018 48.6178 286.98 48.5331 286.864 48.3585C286.516 48.7299 286.269 48.8412 285.817 48.8412C285.282 48.8412 284.866 48.4963 284.866 47.806C284.866 47.2668 285.145 46.9003 285.543 46.7206C285.888 46.5624 286.37 46.5336 286.738 46.4907V46.4041C286.738 46.246 286.75 46.059 286.661 45.9227C286.584 45.8003 286.435 45.7501 286.304 45.7501C286.062 45.7501 285.846 45.8798 285.794 46.1488C285.782 46.2088 285.741 46.2678 285.683 46.2708L285.067 46.2013C285.015 46.1891 284.957 46.1454 284.973 46.0624C285.114 45.2815 285.789 45.0454 286.394 45.0454C286.703 45.0454 287.107 45.1316 287.35 45.3763C287.659 45.678 287.63 46.0807 287.63 46.5193V47.5539C287.63 47.8654 287.753 48.0018 287.87 48.1696C287.91 48.2301 287.919 48.3019 287.867 48.3461C287.738 48.4596 287.507 48.6692 287.38 48.787ZM286.738 47.0224C286.278 47.0224 285.793 47.1253 285.793 47.6912C285.793 47.9786 285.936 48.1727 286.179 48.1727C286.358 48.1727 286.518 48.0579 286.619 47.8709C286.744 47.6409 286.738 47.4249 286.738 47.1662V47.0224ZM284.311 48.6717C284.311 48.7396 284.256 48.7942 284.189 48.7942H283.554C283.49 48.7898 283.44 48.737 283.44 48.672V46.8645C283.44 46.7211 283.452 46.3626 283.422 46.2262C283.375 45.9967 283.232 45.9321 283.049 45.9321C282.894 45.9321 282.734 46.0397 282.669 46.2117C282.604 46.384 282.61 46.671 282.61 46.8645V48.6717C282.61 48.7396 282.555 48.7942 282.487 48.7942H281.853C281.789 48.7898 281.738 48.737 281.738 48.672L281.738 46.8645C281.738 46.4842 281.797 45.9249 281.346 45.9249C280.89 45.9249 280.907 46.4701 280.907 46.8645L280.907 48.6717C280.907 48.7396 280.852 48.7942 280.784 48.7942H280.149C280.089 48.7901 280.04 48.7426 280.035 48.6818L280.036 45.2729C280.036 45.2047 280.091 45.1505 280.159 45.1505L280.75 45.1502C280.812 45.1534 280.862 45.2026 280.866 45.2647V45.7097H280.878C281.032 45.2793 281.322 45.0783 281.714 45.0783C282.111 45.0783 282.36 45.2793 282.538 45.7097C282.692 45.2793 283.043 45.0783 283.416 45.0783C283.683 45.0783 283.974 45.1932 284.152 45.4513C284.353 45.7385 284.312 46.1543 284.312 46.5201L284.311 48.6717ZM279.108 48.787L279.106 48.7858C279.064 48.8252 279.003 48.8276 278.956 48.8012C278.745 48.6178 278.707 48.5331 278.592 48.3585C278.243 48.7299 277.996 48.8412 277.544 48.8412C277.009 48.8412 276.593 48.4963 276.593 47.806C276.593 47.2668 276.873 46.9003 277.271 46.7206C277.616 46.5624 278.097 46.5336 278.466 46.4907V46.4041C278.466 46.246 278.477 46.059 278.389 45.9227C278.311 45.8003 278.163 45.7501 278.032 45.7501C277.789 45.7501 277.574 45.8798 277.521 46.1488C277.51 46.2088 277.468 46.2678 277.411 46.2708L276.795 46.2013C276.743 46.1891 276.685 46.1454 276.7 46.0624C276.841 45.2815 277.516 45.0454 278.121 45.0454C278.43 45.0454 278.834 45.1316 279.078 45.3763C279.387 45.678 279.357 46.0807 279.357 46.5193V47.5539C279.357 47.8654 279.481 48.0018 279.597 48.1696C279.638 48.2301 279.647 48.3019 279.595 48.3461C279.465 48.4596 279.235 48.6692 279.108 48.787ZM278.466 47.0224C278.006 47.0224 277.521 47.1253 277.521 47.6912C277.521 47.9786 277.663 48.1727 277.907 48.1727C278.085 48.1727 278.246 48.0579 278.347 47.8709C278.472 47.6409 278.466 47.4249 278.466 47.1662V47.0224ZM289.769 49.5108C289.616 49.3064 288.761 49.4139 288.376 49.4619C288.259 49.4765 288.242 49.3702 288.346 49.2932C289.029 48.7918 290.148 48.9367 290.278 49.1043C290.409 49.2738 290.244 50.4462 289.604 51.0059C289.505 51.0921 289.412 51.0459 289.455 50.9323C289.599 50.5564 289.922 49.7148 289.769 49.5108Z" fill="black"/>
</g>
</g>
<g clip-path="url(#clip8)">
<g clip-path="url(#clip9)">
<g clip-path="url(#clip10)">
<path fill-rule="evenodd" clip-rule="evenodd" d="M137.729 76.333C135.744 76.333 134 74.5409 134 72.5402V42.1974C134 40.1967 135.744 38.4045 137.729 38.4045H254.271C256.256 38.4045 258 40.1967 258 42.1974V72.5402C258 74.5409 256.256 76.333 254.271 76.333H137.729Z" fill="black"/>
<path fill-rule="evenodd" clip-rule="evenodd" d="M143.044 57.445V47.0031C143.044 46.4064 143.529 45.9092 144.013 45.9092C144.497 45.9092 144.691 46.0086 144.982 46.2075L163.676 56.7489C164.064 56.9478 164.258 57.2461 164.258 57.5444C164.258 57.8428 164.064 58.1411 163.676 58.34L144.982 68.8814C144.788 68.9808 144.497 69.1797 144.013 69.1797C143.529 69.1797 143.044 68.6825 143.044 68.0858V57.445Z" fill="url(#paint0_linear)"/>
<path fill-rule="evenodd" clip-rule="evenodd" d="M155.152 57.5444L143.819 45.9092C143.916 45.9092 143.916 45.9092 144.013 45.9092C144.497 45.9092 144.691 46.0086 144.982 46.2075L158.736 53.9644L155.152 57.5444Z" fill="url(#paint1_linear)"/>
<path fill-rule="evenodd" clip-rule="evenodd" d="M158.64 61.0252L155.153 57.4452L158.737 53.7656L163.677 56.5501C164.064 56.749 164.258 57.0474 164.258 57.3457C164.258 57.644 164.064 57.9424 163.677 58.1413L158.64 61.0252Z" fill="url(#paint2_linear)"/>
<path fill-rule="evenodd" clip-rule="evenodd" d="M143.916 68.9809L155.152 57.4451L158.64 61.0251L144.982 68.6825C144.691 68.8814 144.497 68.9809 143.916 68.9809C144.013 68.9809 144.013 68.9809 143.916 68.9809Z" fill="url(#paint3_linear)"/>
<path fill-rule="evenodd" clip-rule="evenodd" d="M202.422 71.666C201.938 71.2682 201.55 70.5721 201.357 70.1743L202.906 69.4782C203.003 69.6771 203.197 69.9754 203.391 70.2738C203.778 70.6716 204.359 71.0693 204.941 71.0693C205.522 71.0693 206.2 70.771 206.587 70.2738C206.878 69.7765 207.072 69.2793 207.072 68.5832V67.9865C205.909 69.4782 203.488 69.2793 202.132 67.6882C200.679 66.097 200.679 63.412 202.132 61.8208C203.585 60.3291 205.716 60.1302 206.975 61.5225V60.8263H208.621V68.2848C208.621 70.1743 207.943 71.2682 207.072 71.9644C206.49 72.4616 205.619 72.6605 204.844 72.6605C203.972 72.561 203.1 72.2627 202.422 71.666ZM243.008 72.0638L244.655 68.0859L241.749 61.2241H243.396L245.43 66.097L247.464 61.2241H249.111L244.655 72.0638H243.008ZM235.162 68.2848C234.678 67.7876 234.484 67.0915 234.484 66.3954C234.484 65.7987 234.678 65.202 235.065 64.8042C235.743 64.1081 236.712 63.8097 237.778 63.8097C238.456 63.8097 239.037 63.9092 239.521 64.2075C239.521 63.0142 238.552 62.5169 237.778 62.5169C237.099 62.5169 236.421 62.9147 236.131 63.6108L234.678 63.0142C234.968 62.318 235.743 61.0252 237.681 61.0252C238.649 61.0252 239.618 61.3236 240.199 62.0197C240.78 62.7158 240.974 63.5114 240.974 64.6053V68.7821H239.327V68.0859C239.134 68.3843 238.746 68.5832 238.456 68.7821C238.068 68.981 237.584 69.0804 237.099 69.0804C236.518 68.981 235.647 68.7821 235.162 68.2848ZM183.534 64.7048C183.534 62.7158 184.987 60.528 187.602 60.528C190.12 60.528 191.67 62.7158 191.67 64.7048C191.67 66.6937 190.217 68.8815 187.602 68.8815C184.987 68.8815 183.534 66.6937 183.534 64.7048ZM192.251 64.7048C192.251 62.7158 193.704 60.528 196.32 60.528C198.838 60.528 200.388 62.7158 200.388 64.7048C200.388 66.6937 198.935 68.8815 196.32 68.8815C193.801 68.8815 192.251 66.6937 192.251 64.7048ZM172.588 66.8926C170.166 64.4064 170.263 60.3291 172.685 57.7435C173.944 56.4507 175.494 55.854 177.141 55.854C178.691 55.854 180.24 56.4507 181.403 57.644L180.24 58.9369C178.497 57.1468 175.688 57.2463 174.041 59.0363C172.297 60.9258 172.297 63.8097 174.041 65.6992C175.785 67.5887 178.691 67.6882 180.434 65.7987C181.015 65.202 181.209 64.4064 181.306 63.6108H177.238V61.8208H182.953C183.049 62.2186 183.049 62.7158 183.049 63.2131C183.049 64.7048 182.468 66.1965 181.5 67.1909C180.434 68.2848 178.884 68.8815 177.334 68.8815C175.591 68.7821 173.847 68.1854 172.588 66.8926ZM213.562 67.5887C212.109 65.9976 212.109 63.3125 213.562 61.6219C215.014 60.0308 217.436 60.0308 218.792 61.6219C219.277 62.1191 219.567 62.8153 219.858 63.5114L214.53 65.7987C214.821 66.4948 215.499 67.0915 216.467 67.0915C217.339 67.0915 217.92 66.7931 218.502 65.8981L219.955 66.8926C219.761 67.0915 219.567 67.2904 219.47 67.4893C217.824 69.1799 215.014 69.1799 213.562 67.5887ZM223.635 68.7821V57.7435H227.122C229.157 57.7435 230.803 59.2352 230.803 61.0252C230.803 62.8153 229.35 64.307 227.51 64.307H225.379V68.6826H223.635V68.7821ZM231.772 68.7821V57.7435H233.419V68.7821H231.772ZM209.881 68.5832V56.2518H211.624V68.5832H209.881ZM239.424 65.5003C239.037 65.202 238.456 65.1025 237.874 65.1025C236.712 65.1025 236.034 65.6992 236.034 66.3954C236.034 67.0915 236.712 67.4893 237.39 67.4893C238.359 67.4893 239.424 66.6937 239.424 65.5003ZM189.83 64.7048C189.83 63.5114 189.055 62.2186 187.602 62.2186C186.149 62.2186 185.374 63.5114 185.374 64.7048C185.374 65.8981 186.149 67.1909 187.602 67.1909C188.958 67.1909 189.83 65.8981 189.83 64.7048ZM198.548 64.7048C198.548 63.5114 197.773 62.2186 196.32 62.2186C194.867 62.2186 194.092 63.5114 194.092 64.7048C194.092 65.8981 194.867 67.1909 196.32 67.1909C197.773 67.1909 198.548 65.8981 198.548 64.7048ZM207.169 65.4009C207.169 65.3014 207.169 65.202 207.265 65.1025C207.265 65.0031 207.265 64.8042 207.265 64.7048C207.265 64.6053 207.265 64.4064 207.265 64.307V64.2075C207.265 64.1081 207.169 63.9092 207.169 63.8097C206.878 62.8153 206.006 62.1191 205.134 62.1191C203.972 62.1191 203.003 63.3125 203.003 64.6053C203.003 65.9976 203.972 67.0915 205.231 67.0915C206.006 67.1909 206.781 66.4948 207.169 65.4009ZM214.24 64.5059L217.824 62.9147C217.436 62.2186 216.855 62.0197 216.371 62.0197C214.918 62.1191 214.046 63.7103 214.24 64.5059ZM229.06 61.1247C229.06 60.1302 228.285 59.4341 227.219 59.4341H225.282V62.9147H227.316C228.285 62.9147 229.06 62.1191 229.06 61.1247Z" fill="white"/>
<path fill-rule="evenodd" clip-rule="evenodd" d="M244.267 70.0748H244.17V69.9753H244.267H244.17V70.0748H244.267Z" fill="white"/>
<path fill-rule="evenodd" clip-rule="evenodd" d="M244.461 70.0748C244.461 69.9753 244.461 69.9753 244.461 70.0748C244.364 69.9753 244.364 69.9753 244.461 70.0748C244.364 70.0748 244.364 70.0748 244.461 70.0748ZM244.461 69.9753C244.461 70.0748 244.461 70.0748 244.461 69.9753C244.461 70.0748 244.364 70.0748 244.461 69.9753C244.461 69.9753 244.364 69.9753 244.461 69.9753Z" fill="white"/>
<path fill-rule="evenodd" clip-rule="evenodd" d="M244.558 69.9753H244.461H244.558V70.0748V69.9753Z" fill="white"/>
<path fill-rule="evenodd" clip-rule="evenodd" d="M171.232 47.9977C171.232 46.2077 172.491 45.1138 174.041 45.1138C175.106 45.1138 175.785 45.611 176.269 46.3071L175.494 46.8044C175.203 46.4066 174.719 46.1082 174.041 46.1082C172.975 46.1082 172.201 46.9038 172.201 48.0972C172.201 49.2905 172.975 50.0861 174.041 50.0861C174.622 50.0861 175.106 49.7878 175.3 49.5889V48.6939H173.75V47.7988H176.366V49.8872C175.881 50.4839 175.106 50.8817 174.138 50.8817C172.491 50.8817 171.232 49.6883 171.232 47.9977Z" fill="white"/>
<path fill-rule="evenodd" clip-rule="evenodd" d="M177.528 50.7821V45.2131H181.209V46.1082H178.4V47.5004H181.112V48.3954H178.4V49.9866H181.209V50.8816L177.528 50.7821Z" fill="white"/>
<path fill-rule="evenodd" clip-rule="evenodd" d="M183.921 50.7821V46.1082H182.274V45.2131H186.536V46.1082H184.89V50.7821H183.921Z" fill="white"/>
<path fill-rule="evenodd" clip-rule="evenodd" d="M189.83 50.7821V45.2131H190.798V50.7821H189.83Z" fill="white"/>
<path fill-rule="evenodd" clip-rule="evenodd" d="M193.414 50.7821V46.1082H191.767V45.2131H196.029V46.1082H194.382V50.7821H193.414Z" fill="white"/>
<path fill-rule="evenodd" clip-rule="evenodd" d="M199.129 47.9977C199.129 46.3071 200.291 45.1138 201.938 45.1138C203.584 45.1138 204.747 46.3071 204.747 47.9977C204.747 49.6883 203.584 50.8817 201.938 50.8817C200.291 50.8817 199.129 49.5889 199.129 47.9977ZM203.681 47.9977C203.681 46.8044 203.003 46.0088 201.841 46.0088C200.775 46.0088 200 46.9038 200 47.9977C200 49.1911 200.678 49.9867 201.841 49.9867C203.003 49.9867 203.681 49.0916 203.681 47.9977Z" fill="white"/>
<path fill-rule="evenodd" clip-rule="evenodd" d="M209.59 50.7821L206.781 46.8043V50.7821H205.812V45.2131H206.781L209.59 49.0916V45.2131H210.559V50.7821H209.59Z" fill="white"/>
</g>
</g>
</g>
<defs>
<linearGradient id="paint0_linear" x1="138.888" y1="47.4649" x2="145.33" y2="70.0376" gradientUnits="userSpaceOnUse">
<stop stop-color="#006884"/>
<stop offset="1" stop-color="#8AD1D0"/>
</linearGradient>
<linearGradient id="paint1_linear" x1="137.439" y1="53.506" x2="149.588" y2="64.5892" gradientUnits="userSpaceOnUse">
<stop stop-color="#24BBB6"/>
<stop offset="1" stop-color="#DBE692"/>
</linearGradient>
<linearGradient id="paint2_linear" x1="164.657" y1="61.443" x2="164.657" y2="53.5386" gradientUnits="userSpaceOnUse">
<stop stop-color="#FCC072"/>
<stop offset="1" stop-color="#F58A5B"/>
</linearGradient>
<linearGradient id="paint3_linear" x1="153.342" y1="75.6118" x2="161.665" y2="61.4457" gradientUnits="userSpaceOnUse">
<stop stop-color="#712B8F"/>
<stop offset="1" stop-color="#EA1D27"/>
</linearGradient>
<clipPath id="clip0">
<rect width="124" height="38" fill="white" transform="translate(1 38.4045)"/>
</clipPath>
<clipPath id="clip1">
<rect width="124" height="38" fill="white" transform="translate(1 38.4045)"/>
</clipPath>
<clipPath id="clip2">
<rect width="124" height="38" fill="white" transform="translate(1 38.4045)"/>
</clipPath>
<clipPath id="clip3">
<rect width="21" height="25" fill="white" transform="translate(11.2556 44.0928)"/>
</clipPath>
<clipPath id="clip4">
<rect width="75" height="17" fill="white" transform="translate(39.2256 55.4692)"/>
</clipPath>
<clipPath id="clip5">
<rect width="73" height="8" fill="white" transform="translate(40.158 44.0928)"/>
</clipPath>
<clipPath id="clip6">
<rect width="124" height="38" fill="white" transform="translate(267 38.4045)"/>
</clipPath>
<clipPath id="clip7">
<rect width="124" height="38" fill="white" transform="translate(267 38.4045)"/>
</clipPath>
<clipPath id="clip8">
<rect width="124" height="38" fill="white" transform="translate(134 38.4045)"/>
</clipPath>
<clipPath id="clip9">
<rect width="124" height="38" fill="white" transform="translate(134 38.4045)"/>
</clipPath>
<clipPath id="clip10">
<rect width="124" height="38" fill="white" transform="translate(134 38.4045)"/>
</clipPath>
</defs>
</svg>
